STARTFONT 2.1
COMMENT  
COMMENT  Copyright (c) IBM Corporation 1990,1991. IBM Courier is a Trademark of the IBM Corporation.
COMMENT  
COMMENT  WARNING:  This bdf file was generated from a font server using
COMMENT  fstobdf.  The resulting font is subject to the same copyright,
COMMENT  license, and trademark restrictions as the original font.  The
COMMENT  authors and distributors of fstobdf disclaim all liability for
COMMENT  misuse of the program or its output.
COMMENT  
FONT -adobe-courier-medium-r-normal--12-116-75-75-m-70-iso8859-1
SIZE 12 75 75
FONTBOUNDINGBOX 8 12 0 -2
STARTPROPERTIES 25
FOUNDRY "adobe"
FAMILY_NAME "courier"
WEIGHT_NAME "medium"
SLANT "r"
SETWIDTH_NAME "normal"
ADD_STYLE_NAME ""
PIXEL_SIZE 12
POINT_SIZE 116
RESOLUTION_X 75
RESOLUTION_Y 75
SPACING "m"
AVERAGE_WIDTH 70
CHARSET_REGISTRY "iso8859"
CHARSET_ENCODING "1"
FONT "-adobe-courier-medium-r-normal--12-116-75-75-m-70-iso8859-1"
COPYRIGHT "Copyright (c) IBM Corporation 1990,1991. IBM Courier is a Trademark of the IBM Corporation."
RAW_PIXEL_SIZE 1000
RAW_POINT_SIZE 964
RAW_ASCENT 841
RAW_DESCENT 288
RAW_AVERAGE_WIDTH 6000
FACE_NAME "Couriere."
DEFAULT_CHAR 0
FONT_ASCENT 10
FONT_DESCENT 3
ENDPROPERTIES
CHARS 190
STARTCHAR space
ENCODING 32
SWIDTH 560 0
DWIDTH 7 0
BBX 0 0 0 0
ATTRIBUTES 0x0258
BITMAP
ENDCHAR
STARTCHAR exclam
ENCODING 33
SWIDTH 560 0
DWIDTH 7 0
BBX 2 7 3 0
ATTRIBUTES 0x0258
BITMAP
80
80
80
80
80
00
40
ENDCHAR
STARTCHAR quotedbl
ENCODING 34
SWIDTH 560 0
DWIDTH 7 0
BBX 3 3 2 4
ATTRIBUTES 0x0258
BITMAP
a0
a0
a0
ENDCHAR
STARTCHAR numbersign
ENCODING 35
SWIDTH 560 0
DWIDTH 7 0
BBX 5 9 1 -1
ATTRIBUTES 0x0258
BITMAP
50
50
50
f8
50
f8
50
50
50
ENDCHAR
STARTCHAR dollar
ENCODING 36
SWIDTH 560 0
DWIDTH 7 0
BBX 5 10 1 -2
ATTRIBUTES 0x0258
BITMAP
20
60
b8
a8
60
38
a8
f0
20
20
ENDCHAR
STARTCHAR percent
ENCODING 37
SWIDTH 560 0
DWIDTH 7 0
BBX 7 7 0 0
ATTRIBUTES 0x0258
BITMAP
70
90
6c
70
4c
12
1c
ENDCHAR
STARTCHAR ampersand
ENCODING 38
SWIDTH 560 0
DWIDTH 7 0
BBX 5 7 1 0
ATTRIBUTES 0x0258
BITMAP
30
48
40
28
e8
90
68
ENDCHAR
STARTCHAR apostrophe
ENCODING 39
SWIDTH 560 0
DWIDTH 7 0
BBX 2 3 2 4
ATTRIBUTES 0x0258
BITMAP
40
80
80
ENDCHAR
STARTCHAR parenleft
ENCODING 40
SWIDTH 560 0
DWIDTH 7 0
BBX 3 9 3 -1
ATTRIBUTES 0x0258
BITMAP
40
40
40
80
80
80
40
40
40
ENDCHAR
STARTCHAR parenright
ENCODING 41
SWIDTH 560 0
DWIDTH 7 0
BBX 2 9 2 -1
ATTRIBUTES 0x0258
BITMAP
80
80
40
40
40
40
40
80
80
ENDCHAR
STARTCHAR asterisk
ENCODING 42
SWIDTH 560 0
DWIDTH 7 0
BBX 5 4 1 3
ATTRIBUTES 0x0258
BITMAP
20
f0
20
50
ENDCHAR
STARTCHAR plus
ENCODING 43
SWIDTH 560 0
DWIDTH 7 0
BBX 5 5 1 1
ATTRIBUTES 0x0258
BITMAP
20
20
f8
20
20
ENDCHAR
STARTCHAR comma
ENCODING 44
SWIDTH 560 0
DWIDTH 7 0
BBX 2 3 2 -1
ATTRIBUTES 0x0258
BITMAP
40
80
80
ENDCHAR
STARTCHAR minus
ENCODING 45
SWIDTH 560 0
DWIDTH 7 0
BBX 6 1 1 3
ATTRIBUTES 0x0258
BITMAP
fc
ENDCHAR
STARTCHAR period
ENCODING 46
SWIDTH 560 0
DWIDTH 7 0
BBX 2 2 3 0
ATTRIBUTES 0x0258
BITMAP
c0
40
ENDCHAR
STARTCHAR slash
ENCODING 47
SWIDTH 560 0
DWIDTH 7 0
BBX 5 10 1 -2
ATTRIBUTES 0x0258
BITMAP
08
08
10
10
20
20
20
40
40
80
ENDCHAR
STARTCHAR 0
ENCODING 48
SWIDTH 560 0
DWIDTH 7 0
BBX 5 7 1 0
ATTRIBUTES 0x0258
BITMAP
70
88
88
88
88
c8
70
ENDCHAR
STARTCHAR 1
ENCODING 49
SWIDTH 560 0
DWIDTH 7 0
BBX 5 7 1 0
ATTRIBUTES 0x0258
BITMAP
60
20
20
20
20
20
f8
ENDCHAR
STARTCHAR 2
ENCODING 50
SWIDTH 560 0
DWIDTH 7 0
BBX 5 7 1 0
ATTRIBUTES 0x0258
BITMAP
f0
08
08
10
20
48
f8
ENDCHAR
STARTCHAR 3
ENCODING 51
SWIDTH 560 0
DWIDTH 7 0
BBX 5 7 1 0
ATTRIBUTES 0x0258
BITMAP
f0
10
10
30
08
08
f0
ENDCHAR
STARTCHAR 4
ENCODING 52
SWIDTH 560 0
DWIDTH 7 0
BBX 5 7 1 0
ATTRIBUTES 0x0258
BITMAP
10
30
50
50
f8
10
78
ENDCHAR
STARTCHAR 5
ENCODING 53
SWIDTH 560 0
DWIDTH 7 0
BBX 5 7 1 0
ATTRIBUTES 0x0258
BITMAP
f0
80
f0
88
08
08
70
ENDCHAR
STARTCHAR 6
ENCODING 54
SWIDTH 560 0
DWIDTH 7 0
BBX 5 7 1 0
ATTRIBUTES 0x0258
BITMAP
38
40
b0
c8
88
88
70
ENDCHAR
STARTCHAR 7
ENCODING 55
SWIDTH 560 0
DWIDTH 7 0
BBX 5 7 1 0
ATTRIBUTES 0x0258
BITMAP
f8
08
10
10
10
20
20
ENDCHAR
STARTCHAR 8
ENCODING 56
SWIDTH 560 0
DWIDTH 7 0
BBX 5 7 1 0
ATTRIBUTES 0x0258
BITMAP
70
88
88
70
88
88
70
ENDCHAR
STARTCHAR 9
ENCODING 57
SWIDTH 560 0
DWIDTH 7 0
BBX 5 7 1 0
ATTRIBUTES 0x0258
BITMAP
70
88
88
78
08
10
e0
ENDCHAR
STARTCHAR colon
ENCODING 58
SWIDTH 560 0
DWIDTH 7 0
BBX 2 5 3 0
ATTRIBUTES 0x0258
BITMAP
c0
40
00
c0
40
ENDCHAR
STARTCHAR semicolon
ENCODING 59
SWIDTH 560 0
DWIDTH 7 0
BBX 3 6 2 -1
ATTRIBUTES 0x0258
BITMAP
60
20
00
60
40
40
ENDCHAR
STARTCHAR less
ENCODING 60
SWIDTH 560 0
DWIDTH 7 0
BBX 6 5 1 1
ATTRIBUTES 0x0258
BITMAP
18
20
e0
18
04
ENDCHAR
STARTCHAR equal
ENCODING 61
SWIDTH 560 0
DWIDTH 7 0
BBX 6 3 1 2
ATTRIBUTES 0x0258
BITMAP
fc
00
fc
ENDCHAR
STARTCHAR greater
ENCODING 62
SWIDTH 560 0
DWIDTH 7 0
BBX 6 5 1 1
ATTRIBUTES 0x0258
BITMAP
60
10
1c
e0
80
ENDCHAR
STARTCHAR question
ENCODING 63
SWIDTH 560 0
DWIDTH 7 0
BBX 5 7 1 0
ATTRIBUTES 0x0258
BITMAP
f0
88
08
10
20
00
20
ENDCHAR
STARTCHAR at
ENCODING 64
SWIDTH 560 0
DWIDTH 7 0
BBX 7 7 0 0
ATTRIBUTES 0x0258
BITMAP
38
44
9a
aa
aa
7c
3c
ENDCHAR
STARTCHAR A
ENCODING 65
SWIDTH 560 0
DWIDTH 7 0
BBX 7 7 0 0
ATTRIBUTES 0x0258
BITMAP
70
28
28
28
7c
42
c6
ENDCHAR
STARTCHAR B
ENCODING 66
SWIDTH 560 0
DWIDTH 7 0
BBX 6 7 1 0
ATTRIBUTES 0x0258
BITMAP
f0
88
88
f8
84
84
f8
ENDCHAR
STARTCHAR C
ENCODING 67
SWIDTH 560 0
DWIDTH 7 0
BBX 6 7 1 0
ATTRIBUTES 0x0258
BITMAP
7c
44
80
80
80
c4
78
ENDCHAR
STARTCHAR D
ENCODING 68
SWIDTH 560 0
DWIDTH 7 0
BBX 7 7 0 0
ATTRIBUTES 0x0258
BITMAP
f8
44
42
42
42
44
f8
ENDCHAR
STARTCHAR E
ENCODING 69
SWIDTH 560 0
DWIDTH 7 0
BBX 6 7 1 0
ATTRIBUTES 0x0258
BITMAP
fc
44
50
70
50
44
fc
ENDCHAR
STARTCHAR F
ENCODING 70
SWIDTH 560 0
DWIDTH 7 0
BBX 6 7 1 0
ATTRIBUTES 0x0258
BITMAP
fc
44
50
70
50
40
e0
ENDCHAR
STARTCHAR G
ENCODING 71
SWIDTH 560 0
DWIDTH 7 0
BBX 7 7 0 0
ATTRIBUTES 0x0258
BITMAP
3c
44
80
80
8e
42
3e
ENDCHAR
STARTCHAR H
ENCODING 72
SWIDTH 560 0
DWIDTH 7 0
BBX 7 7 0 0
ATTRIBUTES 0x0258
BITMAP
ee
44
44
7c
44
44
ee
ENDCHAR
STARTCHAR I
ENCODING 73
SWIDTH 560 0
DWIDTH 7 0
BBX 5 7 1 0
ATTRIBUTES 0x0258
BITMAP
f8
20
20
20
20
20
f8
ENDCHAR
STARTCHAR J
ENCODING 74
SWIDTH 560 0
DWIDTH 7 0
BBX 6 7 1 0
ATTRIBUTES 0x0258
BITMAP
7c
08
08
08
88
88
f8
ENDCHAR
STARTCHAR K
ENCODING 75
SWIDTH 560 0
DWIDTH 7 0
BBX 6 7 1 0
ATTRIBUTES 0x0258
BITMAP
cc
48
50
60
50
48
c4
ENDCHAR
STARTCHAR L
ENCODING 76
SWIDTH 560 0
DWIDTH 7 0
BBX 6 7 1 0
ATTRIBUTES 0x0258
BITMAP
e0
40
40
40
44
44
fc
ENDCHAR
STARTCHAR M
ENCODING 77
SWIDTH 560 0
DWIDTH 7 0
BBX 7 7 0 0
ATTRIBUTES 0x0258
BITMAP
c6
6a
6a
6a
52
42
e6
ENDCHAR
STARTCHAR N
ENCODING 78
SWIDTH 560 0
DWIDTH 7 0
BBX 7 7 0 0
ATTRIBUTES 0x0258
BITMAP
ee
62
52
52
4a
4a
e6
ENDCHAR
STARTCHAR O
ENCODING 79
SWIDTH 560 0
DWIDTH 7 0
BBX 7 7 0 0
ATTRIBUTES 0x0258
BITMAP
38
44
82
82
82
44
38
ENDCHAR
STARTCHAR P
ENCODING 80
SWIDTH 560 0
DWIDTH 7 0
BBX 6 7 1 0
ATTRIBUTES 0x0258
BITMAP
f8
44
44
4c
78
40
e0
ENDCHAR
STARTCHAR Q
ENCODING 81
SWIDTH 560 0
DWIDTH 7 0
BBX 7 9 0 -2
ATTRIBUTES 0x0258
BITMAP
38
44
82
82
82
44
38
30
2e
ENDCHAR
STARTCHAR R
ENCODING 82
SWIDTH 560 0
DWIDTH 7 0
BBX 6 7 1 0
ATTRIBUTES 0x0258
BITMAP
f0
88
98
e0
90
88
cc
ENDCHAR
STARTCHAR S
ENCODING 83
SWIDTH 560 0
DWIDTH 7 0
BBX 5 7 1 0
ATTRIBUTES 0x0258
BITMAP
78
88
80
70
08
88
f0
ENDCHAR
STARTCHAR T
ENCODING 84
SWIDTH 560 0
DWIDTH 7 0
BBX 7 7 0 0
ATTRIBUTES 0x0258
BITMAP
fe
92
92
10
10
10
38
ENDCHAR
STARTCHAR U
ENCODING 85
SWIDTH 560 0
DWIDTH 7 0
BBX 7 7 0 0
ATTRIBUTES 0x0258
BITMAP
ee
44
44
44
44
44
38
ENDCHAR
STARTCHAR V
ENCODING 86
SWIDTH 560 0
DWIDTH 7 0
BBX 7 7 0 0
ATTRIBUTES 0x0258
BITMAP
ee
44
64
28
28
28
10
ENDCHAR
STARTCHAR W
ENCODING 87
SWIDTH 560 0
DWIDTH 7 0
BBX 7 7 0 0
ATTRIBUTES 0x0258
BITMAP
c6
52
52
6a
6a
6a
44
ENDCHAR
STARTCHAR X
ENCODING 88
SWIDTH 560 0
DWIDTH 7 0
BBX 7 7 0 0
ATTRIBUTES 0x0258
BITMAP
6c
28
28
10
28
44
e6
ENDCHAR
STARTCHAR Y
ENCODING 89
SWIDTH 560 0
DWIDTH 7 0
BBX 6 7 1 0
ATTRIBUTES 0x0258
BITMAP
cc
48
48
50
20
20
78
ENDCHAR
STARTCHAR Z
ENCODING 90
SWIDTH 560 0
DWIDTH 7 0
BBX 5 7 1 0
ATTRIBUTES 0x0258
BITMAP
f8
90
90
20
48
88
f8
ENDCHAR
STARTCHAR bracketleft
ENCODING 91
SWIDTH 560 0
DWIDTH 7 0
BBX 2 9 4 -1
ATTRIBUTES 0x0258
BITMAP
c0
80
80
80
80
80
80
80
c0
ENDCHAR
STARTCHAR backslash
ENCODING 92
SWIDTH 560 0
DWIDTH 7 0
BBX 5 10 1 -2
ATTRIBUTES 0x0258
BITMAP
80
40
40
20
20
20
10
10
08
08
ENDCHAR
STARTCHAR bracketright
ENCODING 93
SWIDTH 560 0
DWIDTH 7 0
BBX 3 9 1 -1
ATTRIBUTES 0x0258
BITMAP
e0
20
20
20
20
20
20
20
e0
ENDCHAR
STARTCHAR asciicircum
ENCODING 94
SWIDTH 560 0
DWIDTH 7 0
BBX 5 6 1 1
ATTRIBUTES 0x0258
BITMAP
20
50
50
50
88
88
ENDCHAR
STARTCHAR underscore
ENCODING 95
SWIDTH 560 0
DWIDTH 7 0
BBX 8 1 0 -2
ATTRIBUTES 0x0258
BITMAP
ff
ENDCHAR
STARTCHAR grave
ENCODING 96
SWIDTH 560 0
DWIDTH 7 0
BBX 2 3 2 4
ATTRIBUTES 0x0258
BITMAP
40
40
80
ENDCHAR
STARTCHAR a
ENCODING 97
SWIDTH 560 0
DWIDTH 7 0
BBX 6 5 1 0
ATTRIBUTES 0x0258
BITMAP
70
78
88
88
fc
ENDCHAR
STARTCHAR b
ENCODING 98
SWIDTH 560 0
DWIDTH 7 0
BBX 7 7 0 0
ATTRIBUTES 0x0258
BITMAP
40
40
7c
42
42
42
fc
ENDCHAR
STARTCHAR c
ENCODING 99
SWIDTH 560 0
DWIDTH 7 0
BBX 6 5 1 0
ATTRIBUTES 0x0258
BITMAP
78
84
80
80
78
ENDCHAR
STARTCHAR d
ENCODING 100
SWIDTH 560 0
DWIDTH 7 0
BBX 7 7 0 0
ATTRIBUTES 0x0258
BITMAP
1c
04
7c
84
84
c4
3e
ENDCHAR
STARTCHAR e
ENCODING 101
SWIDTH 560 0
DWIDTH 7 0
BBX 6 5 1 0
ATTRIBUTES 0x0258
BITMAP
78
8c
fc
80
78
ENDCHAR
STARTCHAR f
ENCODING 102
SWIDTH 560 0
DWIDTH 7 0
BBX 6 7 1 0
ATTRIBUTES 0x0258
BITMAP
7c
40
f8
40
40
40
f8
ENDCHAR
STARTCHAR g
ENCODING 103
SWIDTH 560 0
DWIDTH 7 0
BBX 7 7 0 -2
ATTRIBUTES 0x0258
BITMAP
7e
84
84
c4
3c
04
38
ENDCHAR
STARTCHAR h
ENCODING 104
SWIDTH 560 0
DWIDTH 7 0
BBX 7 7 0 0
ATTRIBUTES 0x0258
BITMAP
40
40
7c
44
44
44
ee
ENDCHAR
STARTCHAR i
ENCODING 105
SWIDTH 560 0
DWIDTH 7 0
BBX 5 8 1 0
ATTRIBUTES 0x0258
BITMAP
20
00
00
60
20
20
20
f8
ENDCHAR
STARTCHAR j
ENCODING 106
SWIDTH 560 0
DWIDTH 7 0
BBX 4 10 1 -2
ATTRIBUTES 0x0258
BITMAP
10
00
00
f0
10
10
10
10
10
e0
ENDCHAR
STARTCHAR k
ENCODING 107
SWIDTH 560 0
DWIDTH 7 0
BBX 7 7 0 0
ATTRIBUTES 0x0258
BITMAP
40
40
4e
58
70
48
4e
ENDCHAR
STARTCHAR l
ENCODING 108
SWIDTH 560 0
DWIDTH 7 0
BBX 5 7 1 0
ATTRIBUTES 0x0258
BITMAP
60
20
20
20
20
20
f8
ENDCHAR
STARTCHAR m
ENCODING 109
SWIDTH 560 0
DWIDTH 7 0
BBX 7 5 0 0
ATTRIBUTES 0x0258
BITMAP
fe
92
92
92
da
ENDCHAR
STARTCHAR n
ENCODING 110
SWIDTH 560 0
DWIDTH 7 0
BBX 7 5 0 0
ATTRIBUTES 0x0258
BITMAP
fc
44
44
44
ee
ENDCHAR
STARTCHAR o
ENCODING 111
SWIDTH 560 0
DWIDTH 7 0
BBX 7 5 0 0
ATTRIBUTES 0x0258
BITMAP
7c
82
82
c6
3c
ENDCHAR
STARTCHAR p
ENCODING 112
SWIDTH 560 0
DWIDTH 7 0
BBX 7 7 0 -2
ATTRIBUTES 0x0258
BITMAP
fc
42
42
46
7c
40
f0
ENDCHAR
STARTCHAR q
ENCODING 113
SWIDTH 560 0
DWIDTH 7 0
BBX 7 7 0 -2
ATTRIBUTES 0x0258
BITMAP
7e
c4
84
c4
3c
04
0e
ENDCHAR
STARTCHAR r
ENCODING 114
SWIDTH 560 0
DWIDTH 7 0
BBX 6 5 1 0
ATTRIBUTES 0x0258
BITMAP
fc
40
40
40
f0
ENDCHAR
STARTCHAR s
ENCODING 115
SWIDTH 560 0
DWIDTH 7 0
BBX 5 5 1 0
ATTRIBUTES 0x0258
BITMAP
78
88
f0
c8
b0
ENDCHAR
STARTCHAR t
ENCODING 116
SWIDTH 560 0
DWIDTH 7 0
BBX 5 7 1 0
ATTRIBUTES 0x0258
BITMAP
40
40
f8
40
40
40
78
ENDCHAR
STARTCHAR u
ENCODING 117
SWIDTH 560 0
DWIDTH 7 0
BBX 7 5 0 0
ATTRIBUTES 0x0258
BITMAP
cc
44
44
44
3e
ENDCHAR
STARTCHAR v
ENCODING 118
SWIDTH 560 0
DWIDTH 7 0
BBX 7 5 0 0
ATTRIBUTES 0x0258
BITMAP
e6
44
24
28
10
ENDCHAR
STARTCHAR w
ENCODING 119
SWIDTH 560 0
DWIDTH 7 0
BBX 7 5 0 0
ATTRIBUTES 0x0258
BITMAP
c6
52
6a
6c
24
ENDCHAR
STARTCHAR x
ENCODING 120
SWIDTH 560 0
DWIDTH 7 0
BBX 7 5 0 0
ATTRIBUTES 0x0258
BITMAP
66
2c
10
6c
c6
ENDCHAR
STARTCHAR y
ENCODING 121
SWIDTH 560 0
DWIDTH 7 0
BBX 7 7 0 -2
ATTRIBUTES 0x0258
BITMAP
c6
44
24
28
10
20
f0
ENDCHAR
STARTCHAR z
ENCODING 122
SWIDTH 560 0
DWIDTH 7 0
BBX 5 5 1 0
ATTRIBUTES 0x0258
BITMAP
f8
10
20
48
f8
ENDCHAR
STARTCHAR braceleft
ENCODING 123
SWIDTH 560 0
DWIDTH 7 0
BBX 3 9 3 -1
ATTRIBUTES 0x0258
BITMAP
60
80
80
40
80
40
40
80
60
ENDCHAR
STARTCHAR bar
ENCODING 124
SWIDTH 560 0
DWIDTH 7 0
BBX 1 10 3 -2
ATTRIBUTES 0x0258
BITMAP
80
80
80
80
80
80
80
80
80
80
ENDCHAR
STARTCHAR braceright
ENCODING 125
SWIDTH 560 0
DWIDTH 7 0
BBX 2 9 2 -1
ATTRIBUTES 0x0258
BITMAP
80
40
40
40
40
40
40
40
c0
ENDCHAR
STARTCHAR asciitilde
ENCODING 126
SWIDTH 560 0
DWIDTH 7 0
BBX 5 2 1 3
ATTRIBUTES 0x0258
BITMAP
68
90
ENDCHAR
STARTCHAR exclamdown
ENCODING 161
SWIDTH 560 0
DWIDTH 7 0
BBX 2 7 3 -2
ATTRIBUTES 0x0258
BITMAP
40
00
80
80
80
80
80
ENDCHAR
STARTCHAR cent
ENCODING 162
SWIDTH 560 0
DWIDTH 7 0
BBX 5 8 1 -1
ATTRIBUTES 0x0258
BITMAP
20
78
a8
a0
a0
70
20
20
ENDCHAR
STARTCHAR sterling
ENCODING 163
SWIDTH 560 0
DWIDTH 7 0
BBX 5 7 1 0
ATTRIBUTES 0x0258
BITMAP
38
40
40
f8
40
40
78
ENDCHAR
STARTCHAR currency
ENCODING 164
SWIDTH 560 0
DWIDTH 7 0
BBX 5 5 1 1
ATTRIBUTES 0x0258
BITMAP
f8
88
88
88
f8
ENDCHAR
STARTCHAR yen
ENCODING 165
SWIDTH 560 0
DWIDTH 7 0
BBX 6 7 1 0
ATTRIBUTES 0x0258
BITMAP
cc
48
50
78
78
20
78
ENDCHAR
STARTCHAR brokenbar
ENCODING 166
SWIDTH 560 0
DWIDTH 7 0
BBX 1 10 3 -2
ATTRIBUTES 0x0258
BITMAP
80
80
80
80
00
00
80
80
80
80
ENDCHAR
STARTCHAR section
ENCODING 167
SWIDTH 560 0
DWIDTH 7 0
BBX 5 8 1 -1
ATTRIBUTES 0x0258
BITMAP
78
48
60
90
48
38
90
f0
ENDCHAR
STARTCHAR diaeresis
ENCODING 168
SWIDTH 560 0
DWIDTH 7 0
BBX 3 1 2 6
ATTRIBUTES 0x0258
BITMAP
a0
ENDCHAR
STARTCHAR copyright
ENCODING 169
SWIDTH 560 0
DWIDTH 7 0
BBX 7 7 0 0
ATTRIBUTES 0x0258
BITMAP
38
7c
c6
c2
e6
7c
38
ENDCHAR
STARTCHAR ordfeminine
ENCODING 170
SWIDTH 560 0
DWIDTH 7 0
BBX 3 4 2 3
ATTRIBUTES 0x0258
BITMAP
60
e0
e0
e0
ENDCHAR
STARTCHAR guillemotleft
ENCODING 171
SWIDTH 560 0
DWIDTH 7 0
BBX 5 5 1 0
ATTRIBUTES 0x0258
BITMAP
28
50
a0
50
28
ENDCHAR
STARTCHAR notsign
ENCODING 172
SWIDTH 560 0
DWIDTH 7 0
BBX 5 3 1 2
ATTRIBUTES 0x0258
BITMAP
f8
08
08
ENDCHAR
STARTCHAR hyphen
ENCODING 173
SWIDTH 560 0
DWIDTH 7 0
BBX 3 1 2 3
ATTRIBUTES 0x0258
BITMAP
e0
ENDCHAR
STARTCHAR registered
ENCODING 174
SWIDTH 560 0
DWIDTH 7 0
BBX 7 7 0 0
ATTRIBUTES 0x0258
BITMAP
38
7c
aa
b2
ba
46
38
ENDCHAR
STARTCHAR macron
ENCODING 175
SWIDTH 560 0
DWIDTH 7 0
BBX 4 1 2 6
ATTRIBUTES 0x0258
BITMAP
f0
ENDCHAR
STARTCHAR degree
ENCODING 176
SWIDTH 560 0
DWIDTH 7 0
BBX 4 3 2 4
ATTRIBUTES 0x0258
BITMAP
e0
90
e0
ENDCHAR
STARTCHAR plusminus
ENCODING 177
SWIDTH 560 0
DWIDTH 7 0
BBX 5 7 1 0
ATTRIBUTES 0x0258
BITMAP
20
20
f8
20
20
00
f8
ENDCHAR
STARTCHAR twosuperior
ENCODING 178
SWIDTH 560 0
DWIDTH 7 0
BBX 3 4 2 3
ATTRIBUTES 0x0258
BITMAP
e0
20
40
e0
ENDCHAR
STARTCHAR threesuperior
ENCODING 179
SWIDTH 560 0
DWIDTH 7 0
BBX 3 4 2 3
ATTRIBUTES 0x0258
BITMAP
60
40
20
e0
ENDCHAR
STARTCHAR acute
ENCODING 180
SWIDTH 560 0
DWIDTH 7 0
BBX 2 1 3 6
ATTRIBUTES 0x0258
BITMAP
40
ENDCHAR
STARTCHAR mu
ENCODING 181
SWIDTH 560 0
DWIDTH 7 0
BBX 7 7 0 -2
ATTRIBUTES 0x0258
BITMAP
cc
44
44
44
7e
40
40
ENDCHAR
STARTCHAR paragraph
ENCODING 182
SWIDTH 560 0
DWIDTH 7 0
BBX 5 8 1 -1
ATTRIBUTES 0x0258
BITMAP
78
a8
a8
68
28
28
28
28
ENDCHAR
STARTCHAR periodcentered
ENCODING 183
SWIDTH 560 0
DWIDTH 7 0
BBX 2 2 3 3
ATTRIBUTES 0x0258
BITMAP
c0
40
ENDCHAR
STARTCHAR cedilla
ENCODING 184
SWIDTH 560 0
DWIDTH 7 0
BBX 3 3 2 -2
ATTRIBUTES 0x0258
BITMAP
40
60
60
ENDCHAR
STARTCHAR onesuperior
ENCODING 185
SWIDTH 560 0
DWIDTH 7 0
BBX 3 4 2 3
ATTRIBUTES 0x0258
BITMAP
c0
40
40
e0
ENDCHAR
STARTCHAR masculine
ENCODING 186
SWIDTH 560 0
DWIDTH 7 0
BBX 3 4 2 3
ATTRIBUTES 0x0258
BITMAP
e0
a0
e0
e0
ENDCHAR
STARTCHAR guillemotright
ENCODING 187
SWIDTH 560 0
DWIDTH 7 0
BBX 5 5 1 0
ATTRIBUTES 0x0258
BITMAP
a0
50
28
50
a0
ENDCHAR
STARTCHAR onequarter
ENCODING 188
SWIDTH 560 0
DWIDTH 7 0
BBX 7 9 0 -1
ATTRIBUTES 0x0258
BITMAP
02
42
46
4c
ea
16
26
4e
46
ENDCHAR
STARTCHAR onehalf
ENCODING 189
SWIDTH 560 0
DWIDTH 7 0
BBX 7 9 0 -1
ATTRIBUTES 0x0258
BITMAP
02
46
44
4c
fe
1a
22
44
4e
ENDCHAR
STARTCHAR threequarters
ENCODING 190
SWIDTH 560 0
DWIDTH 7 0
BBX 7 9 0 -1
ATTRIBUTES 0x0258
BITMAP
02
62
66
24
ea
16
26
4e
46
ENDCHAR
STARTCHAR questiondown
ENCODING 191
SWIDTH 560 0
DWIDTH 7 0
BBX 5 7 1 -2
ATTRIBUTES 0x0258
BITMAP
10
00
20
c0
80
88
78
ENDCHAR
STARTCHAR Agrave
ENCODING 192
SWIDTH 560 0
DWIDTH 7 0
BBX 7 9 0 0
ATTRIBUTES 0x0258
BITMAP
10
00
70
28
28
28
7c
42
c6
ENDCHAR
STARTCHAR Aacute
ENCODING 193
SWIDTH 560 0
DWIDTH 7 0
BBX 7 9 0 0
ATTRIBUTES 0x0258
BITMAP
08
00
70
28
28
28
7c
42
c6
ENDCHAR
STARTCHAR Acircumflex
ENCODING 194
SWIDTH 560 0
DWIDTH 7 0
BBX 7 9 0 0
ATTRIBUTES 0x0258
BITMAP
10
00
70
28
28
28
7c
42
c6
ENDCHAR
STARTCHAR Atilde
ENCODING 195
SWIDTH 560 0
DWIDTH 7 0
BBX 7 9 0 0
ATTRIBUTES 0x0258
BITMAP
3c
00
70
28
28
28
7c
42
c6
ENDCHAR
STARTCHAR Adiaeresis
ENCODING 196
SWIDTH 560 0
DWIDTH 7 0
BBX 7 9 0 0
ATTRIBUTES 0x0258
BITMAP
28
00
70
28
28
28
7c
42
c6
ENDCHAR
STARTCHAR Aring
ENCODING 197
SWIDTH 560 0
DWIDTH 7 0
BBX 7 10 0 0
ATTRIBUTES 0x0258
BITMAP
10
28
10
70
28
28
28
7c
42
c6
ENDCHAR
STARTCHAR AE
ENCODING 198
SWIDTH 560 0
DWIDTH 7 0
BBX 7 7 0 0
ATTRIBUTES 0x0258
BITMAP
3e
12
36
3c
74
52
de
ENDCHAR
STARTCHAR Ccedilla
ENCODING 199
SWIDTH 560 0
DWIDTH 7 0
BBX 7 9 1 -2
ATTRIBUTES 0x0258
BITMAP
7c
8c
80
80
80
86
78
10
30
ENDCHAR
STARTCHAR Egrave
ENCODING 200
SWIDTH 560 0
DWIDTH 7 0
BBX 6 9 1 0
ATTRIBUTES 0x0258
BITMAP
20
00
fc
44
50
70
50
44
fc
ENDCHAR
STARTCHAR Eacute
ENCODING 201
SWIDTH 560 0
DWIDTH 7 0
BBX 6 9 1 0
ATTRIBUTES 0x0258
BITMAP
10
00
fc
44
50
70
50
44
fc
ENDCHAR
STARTCHAR Ecircumflex
ENCODING 202
SWIDTH 560 0
DWIDTH 7 0
BBX 6 9 1 0
ATTRIBUTES 0x0258
BITMAP
20
00
fc
44
50
70
50
44
fc
ENDCHAR
STARTCHAR Ediaeresis
ENCODING 203
SWIDTH 560 0
DWIDTH 7 0
BBX 6 9 1 0
ATTRIBUTES 0x0258
BITMAP
50
00
fc
44
50
70
50
44
fc
ENDCHAR
STARTCHAR Igrave
ENCODING 204
SWIDTH 560 0
DWIDTH 7 0
BBX 5 9 1 0
ATTRIBUTES 0x0258
BITMAP
20
00
f8
20
20
20
20
20
f8
ENDCHAR
STARTCHAR Iacute
ENCODING 205
SWIDTH 560 0
DWIDTH 7 0
BBX 5 9 1 0
ATTRIBUTES 0x0258
BITMAP
10
00
f8
20
20
20
20
20
f8
ENDCHAR
STARTCHAR Icircumflex
ENCODING 206
SWIDTH 560 0
DWIDTH 7 0
BBX 5 9 1 0
ATTRIBUTES 0x0258
BITMAP
20
00
f8
20
20
20
20
20
f8
ENDCHAR
STARTCHAR Idiaeresis
ENCODING 207
SWIDTH 560 0
DWIDTH 7 0
BBX 5 9 1 0
ATTRIBUTES 0x0258
BITMAP
50
00
f8
20
20
20
20
20
f8
ENDCHAR
STARTCHAR ETH
ENCODING 208
SWIDTH 560 0
DWIDTH 7 0
BBX 7 7 0 0
ATTRIBUTES 0x0258
BITMAP
f8
44
42
f2
42
44
f8
ENDCHAR
STARTCHAR Ntilde
ENCODING 209
SWIDTH 560 0
DWIDTH 7 0
BBX 7 9 0 0
ATTRIBUTES 0x0258
BITMAP
3c
00
ee
62
52
52
4a
4a
e6
ENDCHAR
STARTCHAR Ograve
ENCODING 210
SWIDTH 560 0
DWIDTH 7 0
BBX 7 9 0 0
ATTRIBUTES 0x0258
BITMAP
10
00
38
44
82
82
82
44
38
ENDCHAR
STARTCHAR Oacute
ENCODING 211
SWIDTH 560 0
DWIDTH 7 0
BBX 7 9 0 0
ATTRIBUTES 0x0258
BITMAP
08
00
38
44
82
82
82
44
38
ENDCHAR
STARTCHAR Ocircumflex
ENCODING 212
SWIDTH 560 0
DWIDTH 7 0
BBX 7 9 0 0
ATTRIBUTES 0x0258
BITMAP
10
00
38
44
82
82
82
44
38
ENDCHAR
STARTCHAR Otilde
ENCODING 213
SWIDTH 560 0
DWIDTH 7 0
BBX 7 9 0 0
ATTRIBUTES 0x0258
BITMAP
3c
00
38
44
82
82
82
44
38
ENDCHAR
STARTCHAR Odiaeresis
ENCODING 214
SWIDTH 560 0
DWIDTH 7 0
BBX 7 9 0 0
ATTRIBUTES 0x0258
BITMAP
28
00
38
44
82
82
82
44
38
ENDCHAR
STARTCHAR multiply
ENCODING 215
SWIDTH 560 0
DWIDTH 7 0
BBX 4 5 2 1
ATTRIBUTES 0x0258
BITMAP
90
70
20
d0
90
ENDCHAR
STARTCHAR Ooblique
ENCODING 216
SWIDTH 560 0
DWIDTH 7 0
BBX 7 7 0 0
ATTRIBUTES 0x0258
BITMAP
3a
44
8a
92
92
64
78
ENDCHAR
STARTCHAR Ugrave
ENCODING 217
SWIDTH 560 0
DWIDTH 7 0
BBX 7 9 0 0
ATTRIBUTES 0x0258
BITMAP
10
00
ee
44
44
44
44
44
38
ENDCHAR
STARTCHAR Uacute
ENCODING 218
SWIDTH 560 0
DWIDTH 7 0
BBX 7 9 0 0
ATTRIBUTES 0x0258
BITMAP
08
00
ee
44
44
44
44
44
38
ENDCHAR
STARTCHAR Ucircumflex
ENCODING 219
SWIDTH 560 0
DWIDTH 7 0
BBX 7 9 0 0
ATTRIBUTES 0x0258
BITMAP
10
00
ee
44
44
44
44
44
38
ENDCHAR
STARTCHAR Udiaeresis
ENCODING 220
SWIDTH 560 0
DWIDTH 7 0
BBX 7 9 0 0
ATTRIBUTES 0x0258
BITMAP
28
00
ee
44
44
44
44
44
38
ENDCHAR
STARTCHAR Yacute
ENCODING 221
SWIDTH 560 0
DWIDTH 7 0
BBX 6 9 1 0
ATTRIBUTES 0x0258
BITMAP
10
00
cc
48
48
50
20
20
78
ENDCHAR
STARTCHAR THORN
ENCODING 222
SWIDTH 560 0
DWIDTH 7 0
BBX 6 7 1 0
ATTRIBUTES 0x0258
BITMAP
e0
78
4c
44
4c
78
e0
ENDCHAR
STARTCHAR ssharp
ENCODING 223
SWIDTH 560 0
DWIDTH 7 0
BBX 5 7 1 0
ATTRIBUTES 0x0258
BITMAP
70
88
b0
88
88
88
b0
ENDCHAR
STARTCHAR agrave
ENCODING 224
SWIDTH 560 0
DWIDTH 7 0
BBX 6 7 1 0
ATTRIBUTES 0x0258
BITMAP
20
00
70
78
88
88
fc
ENDCHAR
STARTCHAR aacute
ENCODING 225
SWIDTH 560 0
DWIDTH 7 0
BBX 6 7 1 0
ATTRIBUTES 0x0258
BITMAP
10
00
70
78
88
88
fc
ENDCHAR
STARTCHAR acircumflex
ENCODING 226
SWIDTH 560 0
DWIDTH 7 0
BBX 6 7 1 0
ATTRIBUTES 0x0258
BITMAP
70
00
70
78
88
88
fc
ENDCHAR
STARTCHAR atilde
ENCODING 227
SWIDTH 560 0
DWIDTH 7 0
BBX 6 7 1 0
ATTRIBUTES 0x0258
BITMAP
78
00
70
78
88
88
fc
ENDCHAR
STARTCHAR adiaeresis
ENCODING 228
SWIDTH 560 0
DWIDTH 7 0
BBX 6 7 1 0
ATTRIBUTES 0x0258
BITMAP
50
00
70
78
88
88
fc
ENDCHAR
STARTCHAR aring
ENCODING 229
SWIDTH 560 0
DWIDTH 7 0
BBX 6 8 1 0
ATTRIBUTES 0x0258
BITMAP
30
70
00
70
78
88
88
fc
ENDCHAR
STARTCHAR ae
ENCODING 230
SWIDTH 560 0
DWIDTH 7 0
BBX 7 5 0 0
ATTRIBUTES 0x0258
BITMAP
7c
12
7e
90
6e
ENDCHAR
STARTCHAR ccedilla
ENCODING 231
SWIDTH 560 0
DWIDTH 7 0
BBX 6 7 1 -2
ATTRIBUTES 0x0258
BITMAP
7c
84
80
80
78
20
30
ENDCHAR
STARTCHAR egrave
ENCODING 232
SWIDTH 560 0
DWIDTH 7 0
BBX 6 7 1 0
ATTRIBUTES 0x0258
BITMAP
10
00
78
8c
fc
80
78
ENDCHAR
STARTCHAR eacute
ENCODING 233
SWIDTH 560 0
DWIDTH 7 0
BBX 6 7 1 0
ATTRIBUTES 0x0258
BITMAP
10
00
78
8c
fc
80
78
ENDCHAR
STARTCHAR ecircumflex
ENCODING 234
SWIDTH 560 0
DWIDTH 7 0
BBX 6 7 1 0
ATTRIBUTES 0x0258
BITMAP
70
00
78
8c
fc
80
78
ENDCHAR
STARTCHAR ediaeresis
ENCODING 235
SWIDTH 560 0
DWIDTH 7 0
BBX 6 7 1 0
ATTRIBUTES 0x0258
BITMAP
50
00
78
8c
fc
80
78
ENDCHAR
STARTCHAR igrave
ENCODING 236
SWIDTH 560 0
DWIDTH 7 0
BBX 5 7 1 0
ATTRIBUTES 0x0258
BITMAP
20
00
60
20
20
20
f8
ENDCHAR
STARTCHAR iacute
ENCODING 237
SWIDTH 560 0
DWIDTH 7 0
BBX 5 7 1 0
ATTRIBUTES 0x0258
BITMAP
10
00
60
20
20
20
f8
ENDCHAR
STARTCHAR icircumflex
ENCODING 238
SWIDTH 560 0
DWIDTH 7 0
BBX 5 7 1 0
ATTRIBUTES 0x0258
BITMAP
70
00
60
20
20
20
f8
ENDCHAR
STARTCHAR idiaeresis
ENCODING 239
SWIDTH 560 0
DWIDTH 7 0
BBX 5 7 1 0
ATTRIBUTES 0x0258
BITMAP
50
00
60
20
20
20
f8
ENDCHAR
STARTCHAR eth
ENCODING 240
SWIDTH 560 0
DWIDTH 7 0
BBX 7 8 0 0
ATTRIBUTES 0x0258
BITMAP
30
28
0c
7e
82
82
c6
3c
ENDCHAR
STARTCHAR ntilde
ENCODING 241
SWIDTH 560 0
DWIDTH 7 0
BBX 7 7 0 0
ATTRIBUTES 0x0258
BITMAP
3c
00
fc
44
44
44
ee
ENDCHAR
STARTCHAR ograve
ENCODING 242
SWIDTH 560 0
DWIDTH 7 0
BBX 7 7 0 0
ATTRIBUTES 0x0258
BITMAP
10
00
7c
82
82
c6
3c
ENDCHAR
STARTCHAR oacute
ENCODING 243
SWIDTH 560 0
DWIDTH 7 0
BBX 7 7 0 0
ATTRIBUTES 0x0258
BITMAP
08
00
7c
82
82
c6
3c
ENDCHAR
STARTCHAR ocircumflex
ENCODING 244
SWIDTH 560 0
DWIDTH 7 0
BBX 7 7 0 0
ATTRIBUTES 0x0258
BITMAP
38
00
7c
82
82
c6
3c
ENDCHAR
STARTCHAR otilde
ENCODING 245
SWIDTH 560 0
DWIDTH 7 0
BBX 7 7 0 0
ATTRIBUTES 0x0258
BITMAP
3c
00
7c
82
82
c6
3c
ENDCHAR
STARTCHAR odiaeresis
ENCODING 246
SWIDTH 560 0
DWIDTH 7 0
BBX 7 7 0 0
ATTRIBUTES 0x0258
BITMAP
28
00
7c
82
82
c6
3c
ENDCHAR
STARTCHAR division
ENCODING 247
SWIDTH 560 0
DWIDTH 7 0
BBX 5 5 1 1
ATTRIBUTES 0x0258
BITMAP
20
00
f8
00
20
ENDCHAR
STARTCHAR oslash
ENCODING 248
SWIDTH 560 0
DWIDTH 7 0
BBX 7 5 0 0
ATTRIBUTES 0x0258
BITMAP
7e
8a
92
e6
9c
ENDCHAR
STARTCHAR ugrave
ENCODING 249
SWIDTH 560 0
DWIDTH 7 0
BBX 7 7 0 0
ATTRIBUTES 0x0258
BITMAP
10
00
cc
44
44
44
3e
ENDCHAR
STARTCHAR uacute
ENCODING 250
SWIDTH 560 0
DWIDTH 7 0
BBX 7 7 0 0
ATTRIBUTES 0x0258
BITMAP
08
00
cc
44
44
44
3e
ENDCHAR
STARTCHAR ucircumflex
ENCODING 251
SWIDTH 560 0
DWIDTH 7 0
BBX 7 7 0 0
ATTRIBUTES 0x0258
BITMAP
38
00
cc
44
44
44
3e
ENDCHAR
STARTCHAR udiaeresis
ENCODING 252
SWIDTH 560 0
DWIDTH 7 0
BBX 7 7 0 0
ATTRIBUTES 0x0258
BITMAP
28
00
cc
44
44
44
3e
ENDCHAR
STARTCHAR yacute
ENCODING 253
SWIDTH 560 0
DWIDTH 7 0
BBX 7 9 0 -2
ATTRIBUTES 0x0258
BITMAP
08
00
c6
44
24
28
10
20
f0
ENDCHAR
STARTCHAR thorn
ENCODING 254
SWIDTH 560 0
DWIDTH 7 0
BBX 7 9 0 -2
ATTRIBUTES 0x0258
BITMAP
40
40
7c
42
42
46
7c
40
f0
ENDCHAR
STARTCHAR ydiaeresis
ENCODING 255
SWIDTH 560 0
DWIDTH 7 0
BBX 7 9 0 -2
ATTRIBUTES 0x0258
BITMAP
28
00
c6
44
24
28
10
20
f0
ENDCHAR
ENDFONT
