STARTFONT 2.1
COMMENT  
COMMENT  Copyright (c) IBM Corporation 1990,1991. IBM Courier is a Trademark of the IBM Corporation.
COMMENT  
COMMENT  WARNING:  This bdf file was generated from a font server using
COMMENT  fstobdf.  The resulting font is subject to the same copyright,
COMMENT  license, and trademark restrictions as the original font.  The
COMMENT  authors and distributors of fstobdf disclaim all liability for
COMMENT  misuse of the program or its output.
COMMENT  
FONT -adobe-courier-medium-r-normal--24-231-75-75-m-140-iso8859-1
SIZE 23 75 75
FONTBOUNDINGBOX 17 24 -1 -5
STARTPROPERTIES 25
FOUNDRY "adobe"
FAMILY_NAME "courier"
WEIGHT_NAME "medium"
SLANT "r"
SETWIDTH_NAME "normal"
ADD_STYLE_NAME ""
PIXEL_SIZE 24
POINT_SIZE 231
RESOLUTION_X 75
RESOLUTION_Y 75
SPACING "m"
AVERAGE_WIDTH 140
CHARSET_REGISTRY "iso8859"
CHARSET_ENCODING "1"
FONT "-adobe-courier-medium-r-normal--24-231-75-75-m-140-iso8859-1"
COPYRIGHT "Copyright (c) IBM Corporation 1990,1991. IBM Courier is a Trademark of the IBM Corporation."
RAW_PIXEL_SIZE 1000
RAW_POINT_SIZE 964
RAW_ASCENT 841
RAW_DESCENT 288
RAW_AVERAGE_WIDTH 6000
FACE_NAME "Couriere."
DEFAULT_CHAR 0
FONT_ASCENT 20
FONT_DESCENT 7
ENDPROPERTIES
CHARS 190
STARTCHAR space
ENCODING 32
SWIDTH 584 0
DWIDTH 14 0
BBX 0 0 0 0
ATTRIBUTES 0x0258
BITMAP
ENDCHAR
STARTCHAR exclam
ENCODING 33
SWIDTH 584 0
DWIDTH 14 0
BBX 3 14 6 0
ATTRIBUTES 0x0258
BITMAP
c0
c0
c0
c0
c0
c0
c0
c0
c0
00
00
e0
e0
e0
ENDCHAR
STARTCHAR quotedbl
ENCODING 34
SWIDTH 584 0
DWIDTH 14 0
BBX 6 7 4 7
ATTRIBUTES 0x0258
BITMAP
cc
cc
cc
cc
cc
cc
cc
ENDCHAR
STARTCHAR numbersign
ENCODING 35
SWIDTH 584 0
DWIDTH 14 0
BBX 11 17 2 -1
ATTRIBUTES 0x0258
BITMAP
1180
1100
1100
1100
1100
1100
ffe0
2100
2100
2100
2100
ffe0
2100
2100
2100
2100
2100
ENDCHAR
STARTCHAR dollar
ENCODING 36
SWIDTH 584 0
DWIDTH 14 0
BBX 10 19 2 -3
ATTRIBUTES 0x0258
BITMAP
0400
0400
0400
1f80
2580
4480
4480
64c0
3c00
0f00
0580
c440
4440
6440
7480
7f00
0400
0400
0400
ENDCHAR
STARTCHAR percent
ENCODING 37
SWIDTH 584 0
DWIDTH 14 0
BBX 12 15 1 0
ATTRIBUTES 0x0258
BITMAP
3800
4400
8200
8200
8200
4460
39e0
0f80
7c00
71c0
0220
0410
0410
0630
01e0
ENDCHAR
STARTCHAR ampersand
ENCODING 38
SWIDTH 584 0
DWIDTH 14 0
BBX 10 13 3 0
ATTRIBUTES 0x0258
BITMAP
3d00
6200
4000
4000
2000
3000
51c0
c900
8d00
8600
8600
c700
79c0
ENDCHAR
STARTCHAR apostrophe
ENCODING 39
SWIDTH 584 0
DWIDTH 14 0
BBX 4 6 4 8
ATTRIBUTES 0x0258
BITMAP
30
70
60
60
c0
c0
ENDCHAR
STARTCHAR parenleft
ENCODING 40
SWIDTH 584 0
DWIDTH 14 0
BBX 4 18 7 -2
ATTRIBUTES 0x0258
BITMAP
10
20
20
40
40
40
80
80
80
80
80
80
c0
40
40
20
20
10
ENDCHAR
STARTCHAR parenright
ENCODING 41
SWIDTH 584 0
DWIDTH 14 0
BBX 4 18 3 -2
ATTRIBUTES 0x0258
BITMAP
40
40
60
20
20
10
10
10
10
10
10
10
10
20
20
60
40
c0
ENDCHAR
STARTCHAR asterisk
ENCODING 42
SWIDTH 584 0
DWIDTH 14 0
BBX 9 9 3 5
ATTRIBUTES 0x0258
BITMAP
0800
0800
8880
ff80
3e00
1c00
3600
6300
2200
ENDCHAR
STARTCHAR plus
ENCODING 43
SWIDTH 584 0
DWIDTH 14 0
BBX 11 11 2 2
ATTRIBUTES 0x0258
BITMAP
0400
0400
0400
0400
0400
ffe0
0400
0400
0400
0400
0400
ENDCHAR
STARTCHAR comma
ENCODING 44
SWIDTH 584 0
DWIDTH 14 0
BBX 4 6 4 -3
ATTRIBUTES 0x0258
BITMAP
30
60
60
60
c0
c0
ENDCHAR
STARTCHAR minus
ENCODING 45
SWIDTH 584 0
DWIDTH 14 0
BBX 11 1 2 7
ATTRIBUTES 0x0258
BITMAP
ffe0
ENDCHAR
STARTCHAR period
ENCODING 46
SWIDTH 584 0
DWIDTH 14 0
BBX 4 3 5 0
ATTRIBUTES 0x0258
BITMAP
60
f0
70
ENDCHAR
STARTCHAR slash
ENCODING 47
SWIDTH 584 0
DWIDTH 14 0
BBX 10 20 2 -3
ATTRIBUTES 0x0258
BITMAP
0040
0080
0080
0180
0100
0300
0200
0200
0400
0400
0800
0800
1000
1000
3000
2000
6000
4000
c000
8000
ENDCHAR
STARTCHAR 0
ENCODING 48
SWIDTH 584 0
DWIDTH 14 0
BBX 9 15 3 0
ATTRIBUTES 0x0258
BITMAP
3c00
6200
4100
8100
8080
8080
8080
8080
8080
8080
8080
8100
4100
6200
3c00
ENDCHAR
STARTCHAR 1
ENCODING 49
SWIDTH 584 0
DWIDTH 14 0
BBX 10 15 2 0
ATTRIBUTES 0x0258
BITMAP
0c00
3c00
6400
0400
0400
0400
0400
0400
0400
0400
0400
0400
0400
0400
7fc0
ENDCHAR
STARTCHAR 2
ENCODING 50
SWIDTH 584 0
DWIDTH 14 0
BBX 9 15 2 0
ATTRIBUTES 0x0258
BITMAP
1e00
2300
4180
4080
0080
0080
0180
0100
0200
0400
0800
1080
6080
8080
ff80
ENDCHAR
STARTCHAR 3
ENCODING 51
SWIDTH 584 0
DWIDTH 14 0
BBX 9 15 2 0
ATTRIBUTES 0x0258
BITMAP
3c00
6200
4100
0100
0100
0100
0600
0f00
0100
0080
0080
0080
0080
8300
7e00
ENDCHAR
STARTCHAR 4
ENCODING 52
SWIDTH 584 0
DWIDTH 14 0
BBX 10 15 2 0
ATTRIBUTES 0x0258
BITMAP
0600
0600
0a00
0a00
1200
1200
2200
4200
4200
8200
ffc0
0200
0200
0200
1fc0
ENDCHAR
STARTCHAR 5
ENCODING 53
SWIDTH 584 0
DWIDTH 14 0
BBX 10 15 2 0
ATTRIBUTES 0x0258
BITMAP
7f80
4000
4000
4000
4000
4000
5e00
6180
00c0
0040
0040
0040
0080
c180
7e00
ENDCHAR
STARTCHAR 6
ENCODING 54
SWIDTH 584 0
DWIDTH 14 0
BBX 9 15 3 0
ATTRIBUTES 0x0258
BITMAP
0f80
3800
6000
4000
c000
8000
bc00
e200
c300
8100
8100
8100
4100
6200
3c00
ENDCHAR
STARTCHAR 7
ENCODING 55
SWIDTH 584 0
DWIDTH 14 0
BBX 10 15 2 0
ATTRIBUTES 0x0258
BITMAP
ffc0
8040
8080
8080
0080
0100
0100
0300
0200
0200
0600
0400
0c00
0c00
0800
ENDCHAR
STARTCHAR 8
ENCODING 56
SWIDTH 584 0
DWIDTH 14 0
BBX 9 15 3 0
ATTRIBUTES 0x0258
BITMAP
3c00
6200
c100
8100
8100
8100
6200
3c00
4300
c100
8080
8080
8080
4300
3e00
ENDCHAR
STARTCHAR 9
ENCODING 57
SWIDTH 584 0
DWIDTH 14 0
BBX 9 15 2 0
ATTRIBUTES 0x0258
BITMAP
3c00
6200
4100
8080
8080
8080
c180
6380
3c80
0080
0100
0100
0200
0400
f800
ENDCHAR
STARTCHAR colon
ENCODING 58
SWIDTH 584 0
DWIDTH 14 0
BBX 4 9 5 0
ATTRIBUTES 0x0258
BITMAP
60
f0
70
00
00
00
60
f0
70
ENDCHAR
STARTCHAR semicolon
ENCODING 59
SWIDTH 584 0
DWIDTH 14 0
BBX 5 12 4 -3
ATTRIBUTES 0x0258
BITMAP
30
78
38
00
00
00
30
70
60
60
40
c0
ENDCHAR
STARTCHAR less
ENCODING 60
SWIDTH 584 0
DWIDTH 14 0
BBX 12 11 1 2
ATTRIBUTES 0x0258
BITMAP
0010
0070
0180
0600
3800
e000
3800
0f00
03e0
0070
0010
ENDCHAR
STARTCHAR equal
ENCODING 61
SWIDTH 584 0
DWIDTH 14 0
BBX 11 5 2 5
ATTRIBUTES 0x0258
BITMAP
ffe0
0000
0000
0000
ffe0
ENDCHAR
STARTCHAR greater
ENCODING 62
SWIDTH 584 0
DWIDTH 14 0
BBX 12 11 1 2
ATTRIBUTES 0x0258
BITMAP
8000
e000
3800
0600
01c0
0070
03c0
1f00
fc00
f000
c000
ENDCHAR
STARTCHAR question
ENCODING 63
SWIDTH 584 0
DWIDTH 14 0
BBX 8 14 3 0
ATTRIBUTES 0x0258
BITMAP
7c
c2
81
81
01
01
02
1c
10
10
00
38
38
38
ENDCHAR
STARTCHAR at
ENCODING 64
SWIDTH 584 0
DWIDTH 14 0
BBX 13 13 1 0
ATTRIBUTES 0x0258
BITMAP
0f80
3060
6010
4698
8d88
8988
9188
9118
9310
dee0
4400
3070
1fc0
ENDCHAR
STARTCHAR A
ENCODING 65
SWIDTH 584 0
DWIDTH 14 0
BBX 14 14 0 0
ATTRIBUTES 0x0258
BITMAP
3f00
0300
0780
0680
04c0
0cc0
0840
1860
1820
1fe0
3030
2010
6018
f87c
ENDCHAR
STARTCHAR B
ENCODING 66
SWIDTH 584 0
DWIDTH 14 0
BBX 12 14 1 0
ATTRIBUTES 0x0258
BITMAP
ff80
20c0
2020
2020
2020
2060
3f80
2060
2030
2010
2010
2010
2060
ffc0
ENDCHAR
STARTCHAR C
ENCODING 67
SWIDTH 584 0
DWIDTH 14 0
BBX 12 14 2 0
ATTRIBUTES 0x0258
BITMAP
0f20
30e0
6060
4060
8020
8000
8000
8000
8000
8000
4000
4030
3060
1f80
ENDCHAR
STARTCHAR D
ENCODING 68
SWIDTH 584 0
DWIDTH 14 0
BBX 12 14 1 0
ATTRIBUTES 0x0258
BITMAP
ff00
20c0
2060
2020
2010
2010
2010
2010
2010
2010
2030
2020
20c0
ff80
ENDCHAR
STARTCHAR E
ENCODING 69
SWIDTH 584 0
DWIDTH 14 0
BBX 12 14 1 0
ATTRIBUTES 0x0258
BITMAP
fff0
1010
1010
1010
1010
1080
1f80
1080
1080
1000
1010
1010
1010
fff0
ENDCHAR
STARTCHAR F
ENCODING 70
SWIDTH 584 0
DWIDTH 14 0
BBX 11 14 2 0
ATTRIBUTES 0x0258
BITMAP
ffe0
2020
2020
2020
2020
2100
3f00
2100
2100
2000
2000
2000
2000
fc00
ENDCHAR
STARTCHAR G
ENCODING 71
SWIDTH 584 0
DWIDTH 14 0
BBX 13 14 1 0
ATTRIBUTES 0x0258
BITMAP
0fa0
30e0
2060
4020
c020
8000
8000
8000
81f8
8010
4010
6010
3030
0fc0
ENDCHAR
STARTCHAR H
ENCODING 72
SWIDTH 584 0
DWIDTH 14 0
BBX 12 14 1 0
ATTRIBUTES 0x0258
BITMAP
f8f0
2020
2020
2020
2020
2020
2020
3fe0
2020
2020
2020
2020
2020
f8f0
ENDCHAR
STARTCHAR I
ENCODING 73
SWIDTH 584 0
DWIDTH 14 0
BBX 10 14 2 0
ATTRIBUTES 0x0258
BITMAP
ffc0
0400
0400
0400
0400
0400
0400
0400
0400
0400
0400
0400
0400
ffc0
ENDCHAR
STARTCHAR J
ENCODING 74
SWIDTH 584 0
DWIDTH 14 0
BBX 13 14 1 0
ATTRIBUTES 0x0258
BITMAP
0ff8
0040
0040
0040
0040
0040
0040
0040
4040
4040
4040
4040
6080
1f80
ENDCHAR
STARTCHAR K
ENCODING 75
SWIDTH 584 0
DWIDTH 14 0
BBX 13 14 1 0
ATTRIBUTES 0x0258
BITMAP
fcf8
1020
1040
1080
1100
1200
1400
1e00
1180
1080
1040
1060
1020
fc38
ENDCHAR
STARTCHAR L
ENCODING 76
SWIDTH 584 0
DWIDTH 14 0
BBX 12 14 1 0
ATTRIBUTES 0x0258
BITMAP
fe00
1000
1000
1000
1000
1000
1000
1000
1010
1010
1010
1010
1010
fff0
ENDCHAR
STARTCHAR M
ENCODING 77
SWIDTH 584 0
DWIDTH 14 0
BBX 14 14 0 0
ATTRIBUTES 0x0258
BITMAP
f03c
2828
2828
2848
2448
2448
2488
2288
2288
2308
2008
2008
2008
f87c
ENDCHAR
STARTCHAR N
ENCODING 78
SWIDTH 584 0
DWIDTH 14 0
BBX 13 14 1 0
ATTRIBUTES 0x0258
BITMAP
f0f8
3810
2810
2810
2410
2410
2210
2210
2110
2110
2090
2090
2050
f870
ENDCHAR
STARTCHAR O
ENCODING 79
SWIDTH 584 0
DWIDTH 14 0
BBX 12 14 1 0
ATTRIBUTES 0x0258
BITMAP
0f80
30c0
6060
4020
c010
8010
8010
8010
8010
8010
4020
6020
30c0
0f80
ENDCHAR
STARTCHAR P
ENCODING 80
SWIDTH 584 0
DWIDTH 14 0
BBX 11 14 2 0
ATTRIBUTES 0x0258
BITMAP
ff00
21c0
2040
2020
2020
2020
2060
21c0
3f80
2000
2000
2000
2000
fc00
ENDCHAR
STARTCHAR Q
ENCODING 81
SWIDTH 584 0
DWIDTH 14 0
BBX 12 17 1 -3
ATTRIBUTES 0x0258
BITMAP
0f00
30c0
6060
4020
c010
8010
8010
8010
8010
8010
4020
6020
30c0
1f80
0c00
1f10
10e0
ENDCHAR
STARTCHAR R
ENCODING 82
SWIDTH 584 0
DWIDTH 14 0
BBX 13 14 1 0
ATTRIBUTES 0x0258
BITMAP
ff80
20c0
2060
2020
2020
2020
20c0
3f80
2300
2100
2080
2040
2040
f838
ENDCHAR
STARTCHAR S
ENCODING 83
SWIDTH 584 0
DWIDTH 14 0
BBX 9 14 3 0
ATTRIBUTES 0x0258
BITMAP
3c80
4380
8180
8080
8080
8000
6000
3f00
0180
0080
8080
8080
c100
be00
ENDCHAR
STARTCHAR T
ENCODING 84
SWIDTH 584 0
DWIDTH 14 0
BBX 13 14 1 0
ATTRIBUTES 0x0258
BITMAP
7ff0
4210
4210
4210
4210
c218
0200
0200
0200
0200
0200
0200
0200
1fc0
ENDCHAR
STARTCHAR U
ENCODING 85
SWIDTH 584 0
DWIDTH 14 0
BBX 13 14 1 0
ATTRIBUTES 0x0258
BITMAP
f9f8
4020
4020
4020
4020
4020
4020
4020
4020
4020
6020
6020
3040
1f80
ENDCHAR
STARTCHAR V
ENCODING 86
SWIDTH 584 0
DWIDTH 14 0
BBX 14 14 0 0
ATTRIBUTES 0x0258
BITMAP
f87c
2010
2010
1010
1020
1020
0820
0840
0c40
04c0
0480
0280
0380
0300
ENDCHAR
STARTCHAR W
ENCODING 87
SWIDTH 584 0
DWIDTH 14 0
BBX 15 14 0 0
ATTRIBUTES 0x0258
BITMAP
f83e
6004
6004
6108
2308
2388
2288
2488
24c8
3458
3850
3830
1830
1030
ENDCHAR
STARTCHAR X
ENCODING 88
SWIDTH 584 0
DWIDTH 14 0
BBX 13 14 1 0
ATTRIBUTES 0x0258
BITMAP
f8f0
2040
3040
1880
0900
0500
0600
0600
0d00
0880
10c0
3060
2020
f8f8
ENDCHAR
STARTCHAR Y
ENCODING 89
SWIDTH 584 0
DWIDTH 14 0
BBX 13 14 1 0
ATTRIBUTES 0x0258
BITMAP
f8f8
2020
3060
1040
0880
0c80
0500
0700
0200
0200
0200
0200
0200
1fc0
ENDCHAR
STARTCHAR Z
ENCODING 90
SWIDTH 584 0
DWIDTH 14 0
BBX 10 14 2 0
ATTRIBUTES 0x0258
BITMAP
ff80
8080
8100
8100
8200
0400
0c00
0800
1000
3040
2040
4040
c040
ffc0
ENDCHAR
STARTCHAR bracketleft
ENCODING 91
SWIDTH 584 0
DWIDTH 14 0
BBX 4 18 8 -2
ATTRIBUTES 0x0258
BITMAP
f0
80
80
80
80
80
80
80
80
80
80
80
80
80
80
80
80
f0
ENDCHAR
STARTCHAR backslash
ENCODING 92
SWIDTH 584 0
DWIDTH 14 0
BBX 10 20 2 -3
ATTRIBUTES 0x0258
BITMAP
8000
c000
4000
6000
2000
3000
1000
1000
0800
0800
0400
0400
0200
0200
0300
0100
0180
0080
00c0
0040
ENDCHAR
STARTCHAR bracketright
ENCODING 93
SWIDTH 584 0
DWIDTH 14 0
BBX 4 18 3 -2
ATTRIBUTES 0x0258
BITMAP
f0
10
10
10
10
10
10
10
10
10
10
10
10
10
10
10
10
f0
ENDCHAR
STARTCHAR asciicircum
ENCODING 94
SWIDTH 584 0
DWIDTH 14 0
BBX 11 11 2 3
ATTRIBUTES 0x0258
BITMAP
0e00
0a00
1a00
1900
1100
3180
2080
60c0
60c0
c040
c060
ENDCHAR
STARTCHAR underscore
ENCODING 95
SWIDTH 584 0
DWIDTH 14 0
BBX 17 1 -1 -3
ATTRIBUTES 0x0258
BITMAP
ffff80
ENDCHAR
STARTCHAR grave
ENCODING 96
SWIDTH 584 0
DWIDTH 14 0
BBX 4 6 4 8
ATTRIBUTES 0x0258
BITMAP
30
30
60
60
e0
c0
ENDCHAR
STARTCHAR a
ENCODING 97
SWIDTH 584 0
DWIDTH 14 0
BBX 11 10 2 0
ATTRIBUTES 0x0258
BITMAP
3f00
0180
0080
3f80
4180
8080
8080
8180
c380
7ce0
ENDCHAR
STARTCHAR b
ENCODING 98
SWIDTH 584 0
DWIDTH 14 0
BBX 13 15 0 0
ATTRIBUTES 0x0258
BITMAP
e000
2000
2000
2000
2000
27c0
2c30
3010
3008
3008
3008
3008
3810
3c30
e7c0
ENDCHAR
STARTCHAR c
ENCODING 99
SWIDTH 584 0
DWIDTH 14 0
BBX 11 10 2 0
ATTRIBUTES 0x0258
BITMAP
1fe0
60c0
4040
8000
8000
8000
8000
4020
60c0
1f00
ENDCHAR
STARTCHAR d
ENCODING 100
SWIDTH 584 0
DWIDTH 14 0
BBX 13 15 1 0
ATTRIBUTES 0x0258
BITMAP
00e0
0020
0020
0020
0020
1f20
20e0
4060
8060
8020
8020
8060
4060
31a0
1f38
ENDCHAR
STARTCHAR e
ENCODING 101
SWIDTH 584 0
DWIDTH 14 0
BBX 11 10 2 0
ATTRIBUTES 0x0258
BITMAP
1f00
60c0
c060
8020
ffe0
8000
8000
4000
6060
1f80
ENDCHAR
STARTCHAR f
ENCODING 102
SWIDTH 584 0
DWIDTH 14 0
BBX 10 15 2 0
ATTRIBUTES 0x0258
BITMAP
0fc0
1840
1000
1000
1000
ff80
1000
1000
1000
1000
1000
1000
1000
1000
ff80
ENDCHAR
STARTCHAR g
ENCODING 103
SWIDTH 584 0
DWIDTH 14 0
BBX 12 14 1 -4
ATTRIBUTES 0x0258
BITMAP
1f70
61c0
40c0
8040
8040
8040
c040
40c0
31c0
1e40
0040
0040
0080
1f00
ENDCHAR
STARTCHAR h
ENCODING 104
SWIDTH 584 0
DWIDTH 14 0
BBX 13 15 1 0
ATTRIBUTES 0x0258
BITMAP
e000
2000
2000
2000
2000
2f80
3860
2020
2020
2020
2020
2020
2020
2020
f8f8
ENDCHAR
STARTCHAR i
ENCODING 105
SWIDTH 584 0
DWIDTH 14 0
BBX 10 16 2 0
ATTRIBUTES 0x0258
BITMAP
0c00
0c00
0c00
0000
0000
0000
7c00
0400
0400
0400
0400
0400
0400
0400
0400
ffc0
ENDCHAR
STARTCHAR j
ENCODING 106
SWIDTH 584 0
DWIDTH 14 0
BBX 8 20 2 -4
ATTRIBUTES 0x0258
BITMAP
03
03
03
00
00
00
fe
02
02
02
02
02
02
02
02
02
02
02
84
f8
ENDCHAR
STARTCHAR k
ENCODING 107
SWIDTH 584 0
DWIDTH 14 0
BBX 13 15 1 0
ATTRIBUTES 0x0258
BITMAP
e000
2000
2000
2000
2000
21f0
2180
2300
2c00
3c00
2200
2180
20c0
2060
e0f8
ENDCHAR
STARTCHAR l
ENCODING 108
SWIDTH 584 0
DWIDTH 14 0
BBX 10 15 2 0
ATTRIBUTES 0x0258
BITMAP
7c00
4400
0400
0400
0400
0400
0400
0400
0400
0400
0400
0400
0400
0400
ffc0
ENDCHAR
STARTCHAR m
ENCODING 109
SWIDTH 584 0
DWIDTH 14 0
BBX 15 10 0 0
ATTRIBUTES 0x0258
BITMAP
eef0
3188
2108
2108
2108
2108
2108
2108
2108
f9ce
ENDCHAR
STARTCHAR n
ENCODING 110
SWIDTH 584 0
DWIDTH 14 0
BBX 13 10 1 0
ATTRIBUTES 0x0258
BITMAP
ef80
3040
2020
2020
2020
2020
2020
2020
2020
f9f8
ENDCHAR
STARTCHAR o
ENCODING 111
SWIDTH 584 0
DWIDTH 14 0
BBX 12 10 1 0
ATTRIBUTES 0x0258
BITMAP
1f80
6060
4020
8010
8010
8010
8010
4020
3060
1f80
ENDCHAR
STARTCHAR p
ENCODING 112
SWIDTH 584 0
DWIDTH 14 0
BBX 13 14 0 -4
ATTRIBUTES 0x0258
BITMAP
f7c0
1c30
1810
1008
1008
1008
1008
1810
1c20
17c0
1000
1000
1000
fe00
ENDCHAR
STARTCHAR q
ENCODING 113
SWIDTH 584 0
DWIDTH 14 0
BBX 13 14 1 -4
ATTRIBUTES 0x0258
BITMAP
1fb8
60e0
4060
8020
8020
8020
8020
4060
30a0
1f20
0020
0020
0020
03f8
ENDCHAR
STARTCHAR r
ENCODING 114
SWIDTH 584 0
DWIDTH 14 0
BBX 12 10 2 0
ATTRIBUTES 0x0258
BITMAP
f3e0
1620
1800
1000
1000
1000
1000
1000
1000
ff80
ENDCHAR
STARTCHAR s
ENCODING 115
SWIDTH 584 0
DWIDTH 14 0
BBX 10 10 2 0
ATTRIBUTES 0x0258
BITMAP
3e80
4180
4080
6000
3f00
8380
8040
c040
e0c0
9f00
ENDCHAR
STARTCHAR t
ENCODING 116
SWIDTH 584 0
DWIDTH 14 0
BBX 10 14 3 0
ATTRIBUTES 0x0258
BITMAP
4000
4000
4000
4000
ff00
4000
4000
4000
4000
4000
4000
4000
20c0
1f00
ENDCHAR
STARTCHAR u
ENCODING 117
SWIDTH 584 0
DWIDTH 14 0
BBX 12 10 1 0
ATTRIBUTES 0x0258
BITMAP
e1c0
2040
2040
2040
2040
2040
2040
2040
31c0
1f70
ENDCHAR
STARTCHAR v
ENCODING 118
SWIDTH 584 0
DWIDTH 14 0
BBX 13 10 1 0
ATTRIBUTES 0x0258
BITMAP
f8f8
2020
3040
1040
1080
0880
0980
0500
0700
0600
ENDCHAR
STARTCHAR w
ENCODING 119
SWIDTH 584 0
DWIDTH 14 0
BBX 14 10 0 0
ATTRIBUTES 0x0258
BITMAP
f03c
4008
4108
2310
2390
2290
1490
1460
1460
0860
ENDCHAR
STARTCHAR x
ENCODING 120
SWIDTH 584 0
DWIDTH 14 0
BBX 14 10 0 0
ATTRIBUTES 0x0258
BITMAP
7c78
1820
0c40
0680
0300
0780
0cc0
1860
3030
f87c
ENDCHAR
STARTCHAR y
ENCODING 121
SWIDTH 584 0
DWIDTH 14 0
BBX 13 14 1 -4
ATTRIBUTES 0x0258
BITMAP
f078
2020
2020
1040
10c0
0880
0980
0500
0600
0600
0400
0400
0800
fe00
ENDCHAR
STARTCHAR z
ENCODING 122
SWIDTH 584 0
DWIDTH 14 0
BBX 10 10 2 0
ATTRIBUTES 0x0258
BITMAP
7fc0
4080
4100
0200
0400
0c00
1800
3040
6040
ffc0
ENDCHAR
STARTCHAR braceleft
ENCODING 123
SWIDTH 584 0
DWIDTH 14 0
BBX 5 18 6 -2
ATTRIBUTES 0x0258
BITMAP
18
20
40
40
40
60
20
20
60
c0
60
20
20
60
40
40
60
38
ENDCHAR
STARTCHAR bar
ENCODING 124
SWIDTH 584 0
DWIDTH 14 0
BBX 1 21 7 -5
ATTRIBUTES 0x0258
BITMAP
80
80
80
80
80
80
80
80
80
80
80
80
80
80
80
80
80
80
80
80
80
ENDCHAR
STARTCHAR braceright
ENCODING 125
SWIDTH 584 0
DWIDTH 14 0
BBX 6 18 3 -2
ATTRIBUTES 0x0258
BITMAP
e0
30
10
10
10
10
10
10
18
0c
10
10
10
10
10
10
10
e0
ENDCHAR
STARTCHAR asciitilde
ENCODING 126
SWIDTH 584 0
DWIDTH 14 0
BBX 10 4 2 5
ATTRIBUTES 0x0258
BITMAP
2040
7cc0
8780
8000
ENDCHAR
STARTCHAR exclamdown
ENCODING 161
SWIDTH 584 0
DWIDTH 14 0
BBX 3 13 6 -3
ATTRIBUTES 0x0258
BITMAP
e0
e0
e0
00
60
60
60
60
60
60
60
60
60
ENDCHAR
STARTCHAR cent
ENCODING 162
SWIDTH 584 0
DWIDTH 14 0
BBX 9 16 3 -1
ATTRIBUTES 0x0258
BITMAP
0800
0800
0800
0800
3e80
4980
8880
8800
8800
8800
4880
6b00
1c00
0800
0800
0800
ENDCHAR
STARTCHAR sterling
ENCODING 163
SWIDTH 584 0
DWIDTH 14 0
BBX 11 15 2 0
ATTRIBUTES 0x0258
BITMAP
0f00
18c0
3040
2040
2000
2000
3000
ffc0
1000
1000
1000
1000
2000
3c20
63c0
ENDCHAR
STARTCHAR currency
ENCODING 164
SWIDTH 584 0
DWIDTH 14 0
BBX 11 11 2 1
ATTRIBUTES 0x0258
BITMAP
8040
5ec0
3100
6080
4080
4080
4080
2100
5e80
8040
8040
ENDCHAR
STARTCHAR yen
ENCODING 165
SWIDTH 584 0
DWIDTH 14 0
BBX 13 14 1 0
ATTRIBUTES 0x0258
BITMAP
f8f8
2060
1040
18c0
0d80
0700
0200
1fe0
0200
1fe0
0200
0200
0200
1fc0
ENDCHAR
STARTCHAR brokenbar
ENCODING 166
SWIDTH 584 0
DWIDTH 14 0
BBX 1 21 7 -5
ATTRIBUTES 0x0258
BITMAP
80
80
80
80
80
80
80
80
80
00
00
00
80
80
80
80
80
80
80
80
80
ENDCHAR
STARTCHAR section
ENCODING 167
SWIDTH 584 0
DWIDTH 14 0
BBX 9 16 3 -2
ATTRIBUTES 0x0258
BITMAP
3f00
6100
4100
4100
3000
f800
8c00
8600
4100
3080
1980
0f00
0600
8200
8200
fc00
ENDCHAR
STARTCHAR diaeresis
ENCODING 168
SWIDTH 584 0
DWIDTH 14 0
BBX 5 3 5 12
ATTRIBUTES 0x0258
BITMAP
d8
d8
d8
ENDCHAR
STARTCHAR copyright
ENCODING 169
SWIDTH 584 0
DWIDTH 14 0
BBX 14 14 0 0
ATTRIBUTES 0x0258
BITMAP
07c0
1820
2010
4788
4c4c
9044
9004
9004
9804
4c44
4788
2010
1820
07c0
ENDCHAR
STARTCHAR ordfeminine
ENCODING 170
SWIDTH 584 0
DWIDTH 14 0
BBX 6 8 4 6
ATTRIBUTES 0x0258
BITMAP
78
08
78
88
98
7c
00
fc
ENDCHAR
STARTCHAR guillemotleft
ENCODING 171
SWIDTH 584 0
DWIDTH 14 0
BBX 10 10 2 0
ATTRIBUTES 0x0258
BITMAP
0440
1980
3300
6600
cc00
cc00
6200
1100
0cc0
0440
ENDCHAR
STARTCHAR notsign
ENCODING 172
SWIDTH 584 0
DWIDTH 14 0
BBX 10 6 2 4
ATTRIBUTES 0x0258
BITMAP
ffc0
0040
0040
0040
0040
0040
ENDCHAR
STARTCHAR hyphen
ENCODING 173
SWIDTH 584 0
DWIDTH 14 0
BBX 5 1 5 6
ATTRIBUTES 0x0258
BITMAP
f8
ENDCHAR
STARTCHAR registered
ENCODING 174
SWIDTH 584 0
DWIDTH 14 0
BBX 14 14 0 0
ATTRIBUTES 0x0258
BITMAP
07c0
1820
2010
4788
c444
84c4
8704
8484
8484
4f4c
4008
2010
1820
07c0
ENDCHAR
STARTCHAR macron
ENCODING 175
SWIDTH 584 0
DWIDTH 14 0
BBX 8 1 3 13
ATTRIBUTES 0x0258
BITMAP
ff
ENDCHAR
STARTCHAR degree
ENCODING 176
SWIDTH 584 0
DWIDTH 14 0
BBX 7 7 4 8
ATTRIBUTES 0x0258
BITMAP
38
44
82
82
82
c4
78
ENDCHAR
STARTCHAR plusminus
ENCODING 177
SWIDTH 584 0
DWIDTH 14 0
BBX 11 13 2 1
ATTRIBUTES 0x0258
BITMAP
0400
0400
0400
0400
0400
ffe0
0400
0400
0400
0400
0000
0000
ffe0
ENDCHAR
STARTCHAR twosuperior
ENCODING 178
SWIDTH 584 0
DWIDTH 14 0
BBX 6 9 4 6
ATTRIBUTES 0x0258
BITMAP
78
cc
84
04
08
10
20
44
fc
ENDCHAR
STARTCHAR threesuperior
ENCODING 179
SWIDTH 584 0
DWIDTH 14 0
BBX 6 9 4 6
ATTRIBUTES 0x0258
BITMAP
70
88
08
08
38
08
04
0c
78
ENDCHAR
STARTCHAR acute
ENCODING 180
SWIDTH 584 0
DWIDTH 14 0
BBX 5 3 5 12
ATTRIBUTES 0x0258
BITMAP
30
60
c0
ENDCHAR
STARTCHAR mu
ENCODING 181
SWIDTH 584 0
DWIDTH 14 0
BBX 12 14 1 -4
ATTRIBUTES 0x0258
BITMAP
e1c0
2040
2040
2040
2040
2040
2040
2040
30c0
2ff0
2000
2000
2000
2000
ENDCHAR
STARTCHAR paragraph
ENCODING 182
SWIDTH 584 0
DWIDTH 14 0
BBX 9 16 3 -2
ATTRIBUTES 0x0258
BITMAP
3f80
4900
8900
8900
8900
8900
4900
3900
0900
0900
0900
0900
0900
0900
0900
3b80
ENDCHAR
STARTCHAR periodcentered
ENCODING 183
SWIDTH 584 0
DWIDTH 14 0
BBX 4 3 5 6
ATTRIBUTES 0x0258
BITMAP
60
f0
70
ENDCHAR
STARTCHAR cedilla
ENCODING 184
SWIDTH 584 0
DWIDTH 14 0
BBX 4 4 5 -3
ATTRIBUTES 0x0258
BITMAP
20
30
30
f0
ENDCHAR
STARTCHAR onesuperior
ENCODING 185
SWIDTH 584 0
DWIDTH 14 0
BBX 6 9 4 6
ATTRIBUTES 0x0258
BITMAP
30
f0
10
10
10
10
10
10
fc
ENDCHAR
STARTCHAR masculine
ENCODING 186
SWIDTH 584 0
DWIDTH 14 0
BBX 6 8 4 6
ATTRIBUTES 0x0258
BITMAP
78
c4
84
84
cc
38
00
fc
ENDCHAR
STARTCHAR guillemotright
ENCODING 187
SWIDTH 584 0
DWIDTH 14 0
BBX 10 10 2 0
ATTRIBUTES 0x0258
BITMAP
8800
6600
3300
1980
0cc0
0cc0
1980
2200
cc00
4400
ENDCHAR
STARTCHAR onequarter
ENCODING 188
SWIDTH 584 0
DWIDTH 14 0
BBX 13 17 1 -2
ATTRIBUTES 0x0258
BITMAP
6008
a018
2010
2020
2040
2040
2080
2100
f230
0230
0450
0850
1890
1110
21f8
4010
4078
ENDCHAR
STARTCHAR onehalf
ENCODING 189
SWIDTH 584 0
DWIDTH 14 0
BBX 14 17 0 -2
ATTRIBUTES 0x0258
BITMAP
3004
5008
1010
1030
1020
1040
10c0
1080
7938
0244
0604
0404
0808
1018
1030
2044
407c
ENDCHAR
STARTCHAR threequarters
ENCODING 190
SWIDTH 584 0
DWIDTH 14 0
BBX 14 17 1 -2
ATTRIBUTES 0x0258
BITMAP
700c
8808
0810
1820
3060
0840
0880
0900
f130
0230
0450
0850
0890
1190
21f8
4010
4078
ENDCHAR
STARTCHAR questiondown
ENCODING 191
SWIDTH 584 0
DWIDTH 14 0
BBX 8 13 3 -3
ATTRIBUTES 0x0258
BITMAP
1c
1c
1c
00
08
18
60
40
80
80
81
41
3e
ENDCHAR
STARTCHAR Agrave
ENCODING 192
SWIDTH 584 0
DWIDTH 14 0
BBX 14 18 0 0
ATTRIBUTES 0x0258
BITMAP
0200
0100
0080
0000
3f00
0300
0780
0680
04c0
0cc0
0840
1860
1820
1fe0
3030
2010
6018
f87c
ENDCHAR
STARTCHAR Aacute
ENCODING 193
SWIDTH 584 0
DWIDTH 14 0
BBX 14 18 0 0
ATTRIBUTES 0x0258
BITMAP
0180
0300
0600
0000
3f00
0300
0780
0680
04c0
0cc0
0840
1860
1820
1fe0
3030
2010
6018
f87c
ENDCHAR
STARTCHAR Acircumflex
ENCODING 194
SWIDTH 584 0
DWIDTH 14 0
BBX 14 18 0 0
ATTRIBUTES 0x0258
BITMAP
0300
0480
0840
0000
3f00
0300
0780
0680
04c0
0cc0
0840
1860
1820
1fe0
3030
2010
6018
f87c
ENDCHAR
STARTCHAR Atilde
ENCODING 195
SWIDTH 584 0
DWIDTH 14 0
BBX 14 18 0 0
ATTRIBUTES 0x0258
BITMAP
0e20
09c0
0080
0000
3f00
0300
0780
0680
04c0
0cc0
0840
1860
1820
1fe0
3030
2010
6018
f87c
ENDCHAR
STARTCHAR Adiaeresis
ENCODING 196
SWIDTH 584 0
DWIDTH 14 0
BBX 14 18 0 0
ATTRIBUTES 0x0258
BITMAP
06c0
06c0
06c0
0000
3f00
0300
0780
0680
04c0
0cc0
0840
1860
1820
1fe0
3030
2010
6018
f87c
ENDCHAR
STARTCHAR Aring
ENCODING 197
SWIDTH 584 0
DWIDTH 14 0
BBX 14 19 0 0
ATTRIBUTES 0x0258
BITMAP
0300
0480
0480
0300
0000
3f00
0300
0780
0680
04c0
0cc0
0840
1860
1820
1fe0
3030
2010
6018
f87c
ENDCHAR
STARTCHAR AE
ENCODING 198
SWIDTH 584 0
DWIDTH 14 0
BBX 13 14 0 0
ATTRIBUTES 0x0258
BITMAP
0ff8
0308
0308
0508
0528
0d20
09e0
0920
1920
1f20
3108
3108
6108
f9f8
ENDCHAR
STARTCHAR Ccedilla
ENCODING 199
SWIDTH 584 0
DWIDTH 14 0
BBX 12 17 2 -3
ATTRIBUTES 0x0258
BITMAP
1f20
30e0
4060
4060
8020
8000
8000
8000
8000
8000
c000
4030
20e0
1f80
0400
0700
0f00
ENDCHAR
STARTCHAR Egrave
ENCODING 200
SWIDTH 584 0
DWIDTH 14 0
BBX 12 18 1 0
ATTRIBUTES 0x0258
BITMAP
0400
0200
0100
0000
fff0
1010
1010
1010
1010
1080
1f80
1080
1080
1000
1010
1010
1010
fff0
ENDCHAR
STARTCHAR Eacute
ENCODING 201
SWIDTH 584 0
DWIDTH 14 0
BBX 12 18 1 0
ATTRIBUTES 0x0258
BITMAP
0300
0600
0c00
0000
fff0
1010
1010
1010
1010
1080
1f80
1080
1080
1000
1010
1010
1010
fff0
ENDCHAR
STARTCHAR Ecircumflex
ENCODING 202
SWIDTH 584 0
DWIDTH 14 0
BBX 12 18 1 0
ATTRIBUTES 0x0258
BITMAP
0600
0900
1080
0000
fff0
1010
1010
1010
1010
1080
1f80
1080
1080
1000
1010
1010
1010
fff0
ENDCHAR
STARTCHAR Ediaeresis
ENCODING 203
SWIDTH 584 0
DWIDTH 14 0
BBX 12 18 1 0
ATTRIBUTES 0x0258
BITMAP
0d80
0d80
0d80
0000
fff0
1010
1010
1010
1010
1080
1f80
1080
1080
1000
1010
1010
1010
fff0
ENDCHAR
STARTCHAR Igrave
ENCODING 204
SWIDTH 584 0
DWIDTH 14 0
BBX 10 18 2 0
ATTRIBUTES 0x0258
BITMAP
0800
0400
0200
0000
ffc0
0400
0400
0400
0400
0400
0400
0400
0400
0400
0400
0400
0400
ffc0
ENDCHAR
STARTCHAR Iacute
ENCODING 205
SWIDTH 584 0
DWIDTH 14 0
BBX 10 18 2 0
ATTRIBUTES 0x0258
BITMAP
0600
0c00
1800
0000
ffc0
0400
0400
0400
0400
0400
0400
0400
0400
0400
0400
0400
0400
ffc0
ENDCHAR
STARTCHAR Icircumflex
ENCODING 206
SWIDTH 584 0
DWIDTH 14 0
BBX 10 18 2 0
ATTRIBUTES 0x0258
BITMAP
0c00
1200
2100
0000
ffc0
0400
0400
0400
0400
0400
0400
0400
0400
0400
0400
0400
0400
ffc0
ENDCHAR
STARTCHAR Idiaeresis
ENCODING 207
SWIDTH 584 0
DWIDTH 14 0
BBX 10 18 2 0
ATTRIBUTES 0x0258
BITMAP
1b00
1b00
1b00
0000
ffc0
0400
0400
0400
0400
0400
0400
0400
0400
0400
0400
0400
0400
ffc0
ENDCHAR
STARTCHAR ETH
ENCODING 208
SWIDTH 584 0
DWIDTH 14 0
BBX 12 14 1 0
ATTRIBUTES 0x0258
BITMAP
ff00
20c0
2060
2020
2010
2010
fe10
2010
2010
2010
2020
2060
20c0
ff80
ENDCHAR
STARTCHAR Ntilde
ENCODING 209
SWIDTH 584 0
DWIDTH 14 0
BBX 13 18 1 0
ATTRIBUTES 0x0258
BITMAP
1c40
1380
0100
0000
f0f8
3810
2810
2810
2410
2410
2210
2210
2110
2110
2090
2090
2050
f870
ENDCHAR
STARTCHAR Ograve
ENCODING 210
SWIDTH 584 0
DWIDTH 14 0
BBX 12 18 1 0
ATTRIBUTES 0x0258
BITMAP
0400
0200
0100
0000
0f80
30c0
6060
4020
c010
8010
8010
8010
8010
8010
4020
6020
30c0
0f80
ENDCHAR
STARTCHAR Oacute
ENCODING 211
SWIDTH 584 0
DWIDTH 14 0
BBX 12 18 1 0
ATTRIBUTES 0x0258
BITMAP
0300
0600
0c00
0000
0f80
30c0
6060
4020
c010
8010
8010
8010
8010
8010
4020
6020
30c0
0f80
ENDCHAR
STARTCHAR Ocircumflex
ENCODING 212
SWIDTH 584 0
DWIDTH 14 0
BBX 12 18 1 0
ATTRIBUTES 0x0258
BITMAP
0600
0900
1080
0000
0f80
30c0
6060
4020
c010
8010
8010
8010
8010
8010
4020
6020
30c0
0f80
ENDCHAR
STARTCHAR Otilde
ENCODING 213
SWIDTH 584 0
DWIDTH 14 0
BBX 12 18 1 0
ATTRIBUTES 0x0258
BITMAP
1c40
1380
0100
0000
0f80
30c0
6060
4020
c010
8010
8010
8010
8010
8010
4020
6020
30c0
0f80
ENDCHAR
STARTCHAR Odiaeresis
ENCODING 214
SWIDTH 584 0
DWIDTH 14 0
BBX 12 18 1 0
ATTRIBUTES 0x0258
BITMAP
0d80
0d80
0d80
0000
0f80
30c0
6060
4020
c010
8010
8010
8010
8010
8010
4020
6020
30c0
0f80
ENDCHAR
STARTCHAR multiply
ENCODING 215
SWIDTH 584 0
DWIDTH 14 0
BBX 9 9 3 3
ATTRIBUTES 0x0258
BITMAP
4080
c180
6380
3600
1c00
1c00
3200
4300
8180
ENDCHAR
STARTCHAR Ooblique
ENCODING 216
SWIDTH 584 0
DWIDTH 14 0
BBX 12 14 1 0
ATTRIBUTES 0x0258
BITMAP
0fa0
30e0
6060
4070
c090
8110
8310
8210
8410
c810
5820
7020
70c0
5f80
ENDCHAR
STARTCHAR Ugrave
ENCODING 217
SWIDTH 584 0
DWIDTH 14 0
BBX 13 18 1 0
ATTRIBUTES 0x0258
BITMAP
0400
0200
0100
0000
f9f8
4020
4020
4020
4020
4020
4020
4020
4020
4020
6020
6020
3040
1f80
ENDCHAR
STARTCHAR Uacute
ENCODING 218
SWIDTH 584 0
DWIDTH 14 0
BBX 13 18 1 0
ATTRIBUTES 0x0258
BITMAP
0300
0600
0c00
0000
f9f8
4020
4020
4020
4020
4020
4020
4020
4020
4020
6020
6020
3040
1f80
ENDCHAR
STARTCHAR Ucircumflex
ENCODING 219
SWIDTH 584 0
DWIDTH 14 0
BBX 13 18 1 0
ATTRIBUTES 0x0258
BITMAP
0600
0900
1080
0000
f9f8
4020
4020
4020
4020
4020
4020
4020
4020
4020
6020
6020
3040
1f80
ENDCHAR
STARTCHAR Udiaeresis
ENCODING 220
SWIDTH 584 0
DWIDTH 14 0
BBX 13 18 1 0
ATTRIBUTES 0x0258
BITMAP
0d80
0d80
0d80
0000
f9f8
4020
4020
4020
4020
4020
4020
4020
4020
4020
6020
6020
3040
1f80
ENDCHAR
STARTCHAR Yacute
ENCODING 221
SWIDTH 584 0
DWIDTH 14 0
BBX 13 18 1 0
ATTRIBUTES 0x0258
BITMAP
0300
0600
0c00
0000
f8f8
2020
3060
1040
0880
0c80
0500
0700
0200
0200
0200
0200
0200
1fc0
ENDCHAR
STARTCHAR THORN
ENCODING 222
SWIDTH 584 0
DWIDTH 14 0
BBX 11 14 2 0
ATTRIBUTES 0x0258
BITMAP
fc00
2000
2000
3f80
20c0
2060
2020
2020
2060
20c0
3f80
2000
2000
fc00
ENDCHAR
STARTCHAR ssharp
ENCODING 223
SWIDTH 584 0
DWIDTH 14 0
BBX 10 15 2 0
ATTRIBUTES 0x0258
BITMAP
1e00
3100
6080
4080
4080
4300
4e00
4180
4080
4040
4040
4040
4040
4880
cf00
ENDCHAR
STARTCHAR agrave
ENCODING 224
SWIDTH 584 0
DWIDTH 14 0
BBX 11 15 2 0
ATTRIBUTES 0x0258
BITMAP
0800
0400
0200
0000
0000
3f00
0180
0080
3f80
4180
8080
8080
8180
c380
7ce0
ENDCHAR
STARTCHAR aacute
ENCODING 225
SWIDTH 584 0
DWIDTH 14 0
BBX 11 15 2 0
ATTRIBUTES 0x0258
BITMAP
0600
0c00
1800
0000
0000
3f00
0180
0080
3f80
4180
8080
8080
8180
c380
7ce0
ENDCHAR
STARTCHAR acircumflex
ENCODING 226
SWIDTH 584 0
DWIDTH 14 0
BBX 11 15 2 0
ATTRIBUTES 0x0258
BITMAP
0c00
1600
2100
0000
0000
3f00
0180
0080
3f80
4180
8080
8080
8180
c380
7ce0
ENDCHAR
STARTCHAR atilde
ENCODING 227
SWIDTH 584 0
DWIDTH 14 0
BBX 11 15 2 0
ATTRIBUTES 0x0258
BITMAP
3880
2700
0200
0000
0000
3f00
0180
0080
3f80
4180
8080
8080
8180
c380
7ce0
ENDCHAR
STARTCHAR adiaeresis
ENCODING 228
SWIDTH 584 0
DWIDTH 14 0
BBX 11 15 2 0
ATTRIBUTES 0x0258
BITMAP
1b00
1b00
1b00
0000
0000
3f00
0180
0080
3f80
4180
8080
8080
8180
c380
7ce0
ENDCHAR
STARTCHAR aring
ENCODING 229
SWIDTH 584 0
DWIDTH 14 0
BBX 11 15 2 0
ATTRIBUTES 0x0258
BITMAP
0e00
1200
0e00
0000
0000
3f00
0180
0080
3f80
4180
8080
8080
8180
c380
7ce0
ENDCHAR
STARTCHAR ae
ENCODING 230
SWIDTH 584 0
DWIDTH 14 0
BBX 13 10 1 0
ATTRIBUTES 0x0258
BITMAP
7fe0
0230
0210
0210
3ff0
4200
8200
8200
8700
78f0
ENDCHAR
STARTCHAR ccedilla
ENCODING 231
SWIDTH 584 0
DWIDTH 14 0
BBX 11 13 2 -3
ATTRIBUTES 0x0258
BITMAP
1f60
60c0
4040
8000
8000
8000
8000
4020
60c0
1f00
0400
0600
0e00
ENDCHAR
STARTCHAR egrave
ENCODING 232
SWIDTH 584 0
DWIDTH 14 0
BBX 11 15 2 0
ATTRIBUTES 0x0258
BITMAP
0800
0400
0200
0000
0000
1f00
60c0
c060
8020
ffe0
8000
8000
4000
6060
1f80
ENDCHAR
STARTCHAR eacute
ENCODING 233
SWIDTH 584 0
DWIDTH 14 0
BBX 11 15 2 0
ATTRIBUTES 0x0258
BITMAP
0600
0c00
1800
0000
0000
1f00
60c0
c060
8020
ffe0
8000
8000
4000
6060
1f80
ENDCHAR
STARTCHAR ecircumflex
ENCODING 234
SWIDTH 584 0
DWIDTH 14 0
BBX 11 15 2 0
ATTRIBUTES 0x0258
BITMAP
0c00
1600
2100
0000
0000
1f00
60c0
c060
8020
ffe0
8000
8000
4000
6060
1f80
ENDCHAR
STARTCHAR ediaeresis
ENCODING 235
SWIDTH 584 0
DWIDTH 14 0
BBX 11 15 2 0
ATTRIBUTES 0x0258
BITMAP
1b00
1b00
1b00
0000
0000
1f00
60c0
c060
8020
ffe0
8000
8000
4000
6060
1f80
ENDCHAR
STARTCHAR igrave
ENCODING 236
SWIDTH 584 0
DWIDTH 14 0
BBX 10 15 2 0
ATTRIBUTES 0x0258
BITMAP
0800
0400
0200
0000
0000
7c00
0400
0400
0400
0400
0400
0400
0400
0400
ffc0
ENDCHAR
STARTCHAR iacute
ENCODING 237
SWIDTH 584 0
DWIDTH 14 0
BBX 10 15 2 0
ATTRIBUTES 0x0258
BITMAP
0600
0c00
1800
0000
0000
7c00
0400
0400
0400
0400
0400
0400
0400
0400
ffc0
ENDCHAR
STARTCHAR icircumflex
ENCODING 238
SWIDTH 584 0
DWIDTH 14 0
BBX 10 15 2 0
ATTRIBUTES 0x0258
BITMAP
0c00
1600
2100
0000
0000
7c00
0400
0400
0400
0400
0400
0400
0400
0400
ffc0
ENDCHAR
STARTCHAR idiaeresis
ENCODING 239
SWIDTH 584 0
DWIDTH 14 0
BBX 10 15 2 0
ATTRIBUTES 0x0258
BITMAP
1b00
1b00
1b00
0000
0000
7c00
0400
0400
0400
0400
0400
0400
0400
0400
ffc0
ENDCHAR
STARTCHAR eth
ENCODING 240
SWIDTH 584 0
DWIDTH 14 0
BBX 12 17 1 0
ATTRIBUTES 0x0258
BITMAP
0200
3c00
0e00
0b00
1980
00c0
0060
1fe0
6070
4030
8010
8010
8010
8010
4020
3060
1f80
ENDCHAR
STARTCHAR ntilde
ENCODING 241
SWIDTH 584 0
DWIDTH 14 0
BBX 13 15 1 0
ATTRIBUTES 0x0258
BITMAP
1c40
1380
0100
0000
0000
ef80
3040
2020
2020
2020
2020
2020
2020
2020
f9f8
ENDCHAR
STARTCHAR ograve
ENCODING 242
SWIDTH 584 0
DWIDTH 14 0
BBX 12 15 1 0
ATTRIBUTES 0x0258
BITMAP
0400
0200
0100
0000
0000
1f80
6060
4020
8010
8010
8010
8010
4020
3060
1f80
ENDCHAR
STARTCHAR oacute
ENCODING 243
SWIDTH 584 0
DWIDTH 14 0
BBX 12 15 1 0
ATTRIBUTES 0x0258
BITMAP
0300
0600
0c00
0000
0000
1f80
6060
4020
8010
8010
8010
8010
4020
3060
1f80
ENDCHAR
STARTCHAR ocircumflex
ENCODING 244
SWIDTH 584 0
DWIDTH 14 0
BBX 12 15 1 0
ATTRIBUTES 0x0258
BITMAP
0600
0b00
1080
0000
0000
1f80
6060
4020
8010
8010
8010
8010
4020
3060
1f80
ENDCHAR
STARTCHAR otilde
ENCODING 245
SWIDTH 584 0
DWIDTH 14 0
BBX 12 15 1 0
ATTRIBUTES 0x0258
BITMAP
1c40
1380
0100
0000
0000
1f80
6060
4020
8010
8010
8010
8010
4020
3060
1f80
ENDCHAR
STARTCHAR odiaeresis
ENCODING 246
SWIDTH 584 0
DWIDTH 14 0
BBX 12 15 1 0
ATTRIBUTES 0x0258
BITMAP
0d80
0d80
0d80
0000
0000
1f80
6060
4020
8010
8010
8010
8010
4020
3060
1f80
ENDCHAR
STARTCHAR division
ENCODING 247
SWIDTH 584 0
DWIDTH 14 0
BBX 11 11 2 2
ATTRIBUTES 0x0258
BITMAP
0c00
0c00
0000
0000
0000
ffe0
0000
0000
0000
0c00
0c00
ENDCHAR
STARTCHAR oslash
ENCODING 248
SWIDTH 584 0
DWIDTH 14 0
BBX 12 10 1 0
ATTRIBUTES 0x0258
BITMAP
1fa0
6060
40b0
8110
8210
8c10
d810
7020
7060
df80
ENDCHAR
STARTCHAR ugrave
ENCODING 249
SWIDTH 584 0
DWIDTH 14 0
BBX 12 15 1 0
ATTRIBUTES 0x0258
BITMAP
0400
0200
0100
0000
0000
e1c0
2040
2040
2040
2040
2040
2040
2040
31c0
1f70
ENDCHAR
STARTCHAR uacute
ENCODING 250
SWIDTH 584 0
DWIDTH 14 0
BBX 12 15 1 0
ATTRIBUTES 0x0258
BITMAP
0300
0600
0c00
0000
0000
e1c0
2040
2040
2040
2040
2040
2040
2040
31c0
1f70
ENDCHAR
STARTCHAR ucircumflex
ENCODING 251
SWIDTH 584 0
DWIDTH 14 0
BBX 12 15 1 0
ATTRIBUTES 0x0258
BITMAP
0600
0b00
1080
0000
0000
e1c0
2040
2040
2040
2040
2040
2040
2040
31c0
1f70
ENDCHAR
STARTCHAR udiaeresis
ENCODING 252
SWIDTH 584 0
DWIDTH 14 0
BBX 12 15 1 0
ATTRIBUTES 0x0258
BITMAP
0d80
0d80
0d80
0000
0000
e1c0
2040
2040
2040
2040
2040
2040
2040
31c0
1f70
ENDCHAR
STARTCHAR yacute
ENCODING 253
SWIDTH 584 0
DWIDTH 14 0
BBX 13 19 1 -4
ATTRIBUTES 0x0258
BITMAP
0300
0600
0c00
0000
0000
f078
2020
2020
1040
10c0
0880
0980
0500
0600
0600
0400
0400
0800
fe00
ENDCHAR
STARTCHAR thorn
ENCODING 254
SWIDTH 584 0
DWIDTH 14 0
BBX 13 19 0 -4
ATTRIBUTES 0x0258
BITMAP
f000
1000
1000
1000
1000
17c0
1c30
1810
1008
1008
1008
1008
1810
1c20
17c0
1000
1000
1000
fe00
ENDCHAR
STARTCHAR ydiaeresis
ENCODING 255
SWIDTH 584 0
DWIDTH 14 0
BBX 13 19 1 -4
ATTRIBUTES 0x0258
BITMAP
0d80
0d80
0d80
0000
0000
f078
2020
2020
1040
10c0
0880
0980
0500
0600
0600
0400
0400
0800
fe00
ENDCHAR
ENDFONT
