STARTFONT 2.1
COMMENT  
COMMENT  Copyright (c) IBM Corporation 1990,1991. IBM Courier is a Trademark of the IBM Corporation.
COMMENT  
COMMENT  WARNING:  This bdf file was generated from a font server using
COMMENT  fstobdf.  The resulting font is subject to the same copyright,
COMMENT  license, and trademark restrictions as the original font.  The
COMMENT  authors and distributors of fstobdf disclaim all liability for
COMMENT  misuse of the program or its output.
COMMENT  
FONT -adobe-courier-medium-r-normal--8-77-75-75-m-50-iso8859-1
SIZE 8 75 75
FONTBOUNDINGBOX 7 9 -1 -2
STARTPROPERTIES 25
FOUNDRY "adobe"
FAMILY_NAME "courier"
WEIGHT_NAME "medium"
SLANT "r"
SETWIDTH_NAME "normal"
ADD_STYLE_NAME ""
PIXEL_SIZE 8
POINT_SIZE 77
RESOLUTION_X 75
RESOLUTION_Y 75
SPACING "m"
AVERAGE_WIDTH 50
CHARSET_REGISTRY "iso8859"
CHARSET_ENCODING "1"
FONT "-adobe-courier-medium-r-normal--8-77-75-75-m-50-iso8859-1"
COPYRIGHT "Copyright (c) IBM Corporation 1990,1991. IBM Courier is a Trademark of the IBM Corporation."
RAW_PIXEL_SIZE 1000
RAW_POINT_SIZE 964
RAW_ASCENT 841
RAW_DESCENT 288
RAW_AVERAGE_WIDTH 6000
FACE_NAME "Couriere."
DEFAULT_CHAR 0
FONT_ASCENT 7
FONT_DESCENT 2
ENDPROPERTIES
CHARS 190
STARTCHAR space
ENCODING 32
SWIDTH 600 0
DWIDTH 5 0
BBX 0 0 0 0
ATTRIBUTES 0x0258
BITMAP
ENDCHAR
STARTCHAR exclam
ENCODING 33
SWIDTH 600 0
DWIDTH 5 0
BBX 1 4 2 0
ATTRIBUTES 0x0258
BITMAP
80
80
80
80
ENDCHAR
STARTCHAR quotedbl
ENCODING 34
SWIDTH 600 0
DWIDTH 5 0
BBX 3 2 1 2
ATTRIBUTES 0x0258
BITMAP
a0
a0
ENDCHAR
STARTCHAR numbersign
ENCODING 35
SWIDTH 600 0
DWIDTH 5 0
BBX 3 5 1 0
ATTRIBUTES 0x0258
BITMAP
a0
a0
e0
e0
a0
ENDCHAR
STARTCHAR dollar
ENCODING 36
SWIDTH 600 0
DWIDTH 5 0
BBX 3 6 1 -1
ATTRIBUTES 0x0258
BITMAP
e0
e0
c0
e0
e0
40
ENDCHAR
STARTCHAR percent
ENCODING 37
SWIDTH 600 0
DWIDTH 5 0
BBX 5 5 0 0
ATTRIBUTES 0x0258
BITMAP
e0
e0
f8
38
38
ENDCHAR
STARTCHAR ampersand
ENCODING 38
SWIDTH 600 0
DWIDTH 5 0
BBX 3 5 1 0
ATTRIBUTES 0x0258
BITMAP
40
80
a0
e0
e0
ENDCHAR
STARTCHAR apostrophe
ENCODING 39
SWIDTH 600 0
DWIDTH 5 0
BBX 1 2 2 2
ATTRIBUTES 0x0258
BITMAP
80
80
ENDCHAR
STARTCHAR parenleft
ENCODING 40
SWIDTH 600 0
DWIDTH 5 0
BBX 2 6 2 -1
ATTRIBUTES 0x0258
BITMAP
80
80
80
80
80
80
ENDCHAR
STARTCHAR parenright
ENCODING 41
SWIDTH 600 0
DWIDTH 5 0
BBX 2 6 1 -1
ATTRIBUTES 0x0258
BITMAP
80
40
40
40
40
80
ENDCHAR
STARTCHAR asterisk
ENCODING 42
SWIDTH 600 0
DWIDTH 5 0
BBX 3 3 1 1
ATTRIBUTES 0x0258
BITMAP
40
40
a0
ENDCHAR
STARTCHAR plus
ENCODING 43
SWIDTH 600 0
DWIDTH 5 0
BBX 3 3 1 1
ATTRIBUTES 0x0258
BITMAP
40
e0
40
ENDCHAR
STARTCHAR comma
ENCODING 44
SWIDTH 600 0
DWIDTH 5 0
BBX 1 2 2 -1
ATTRIBUTES 0x0258
BITMAP
80
80
ENDCHAR
STARTCHAR minus
ENCODING 45
SWIDTH 600 0
DWIDTH 5 0
BBX 4 1 0 2
ATTRIBUTES 0x0258
BITMAP
f0
ENDCHAR
STARTCHAR period
ENCODING 46
SWIDTH 600 0
DWIDTH 5 0
BBX 1 1 2 0
ATTRIBUTES 0x0258
BITMAP
80
ENDCHAR
STARTCHAR slash
ENCODING 47
SWIDTH 600 0
DWIDTH 5 0
BBX 3 7 1 -1
ATTRIBUTES 0x0258
BITMAP
20
20
20
40
40
80
80
ENDCHAR
STARTCHAR 0
ENCODING 48
SWIDTH 600 0
DWIDTH 5 0
BBX 3 5 1 0
ATTRIBUTES 0x0258
BITMAP
c0
a0
a0
a0
c0
ENDCHAR
STARTCHAR 1
ENCODING 49
SWIDTH 600 0
DWIDTH 5 0
BBX 3 5 1 0
ATTRIBUTES 0x0258
BITMAP
c0
40
40
40
e0
ENDCHAR
STARTCHAR 2
ENCODING 50
SWIDTH 600 0
DWIDTH 5 0
BBX 4 5 0 0
ATTRIBUTES 0x0258
BITMAP
60
10
30
40
f0
ENDCHAR
STARTCHAR 3
ENCODING 51
SWIDTH 600 0
DWIDTH 5 0
BBX 3 5 1 0
ATTRIBUTES 0x0258
BITMAP
c0
40
60
20
c0
ENDCHAR
STARTCHAR 4
ENCODING 52
SWIDTH 600 0
DWIDTH 5 0
BBX 4 5 0 0
ATTRIBUTES 0x0258
BITMAP
20
60
60
f0
30
ENDCHAR
STARTCHAR 5
ENCODING 53
SWIDTH 600 0
DWIDTH 5 0
BBX 3 5 1 0
ATTRIBUTES 0x0258
BITMAP
c0
80
e0
20
e0
ENDCHAR
STARTCHAR 6
ENCODING 54
SWIDTH 600 0
DWIDTH 5 0
BBX 3 5 1 0
ATTRIBUTES 0x0258
BITMAP
60
80
e0
a0
e0
ENDCHAR
STARTCHAR 7
ENCODING 55
SWIDTH 600 0
DWIDTH 5 0
BBX 4 5 0 0
ATTRIBUTES 0x0258
BITMAP
f0
10
20
20
20
ENDCHAR
STARTCHAR 8
ENCODING 56
SWIDTH 600 0
DWIDTH 5 0
BBX 3 5 1 0
ATTRIBUTES 0x0258
BITMAP
e0
a0
c0
a0
e0
ENDCHAR
STARTCHAR 9
ENCODING 57
SWIDTH 600 0
DWIDTH 5 0
BBX 4 5 0 0
ATTRIBUTES 0x0258
BITMAP
60
90
70
10
60
ENDCHAR
STARTCHAR colon
ENCODING 58
SWIDTH 600 0
DWIDTH 5 0
BBX 1 3 2 0
ATTRIBUTES 0x0258
BITMAP
80
00
80
ENDCHAR
STARTCHAR semicolon
ENCODING 59
SWIDTH 600 0
DWIDTH 5 0
BBX 2 4 1 -1
ATTRIBUTES 0x0258
BITMAP
40
00
40
40
ENDCHAR
STARTCHAR less
ENCODING 60
SWIDTH 600 0
DWIDTH 5 0
BBX 4 3 0 1
ATTRIBUTES 0x0258
BITMAP
60
c0
20
ENDCHAR
STARTCHAR equal
ENCODING 61
SWIDTH 600 0
DWIDTH 5 0
BBX 4 3 0 1
ATTRIBUTES 0x0258
BITMAP
f0
00
f0
ENDCHAR
STARTCHAR greater
ENCODING 62
SWIDTH 600 0
DWIDTH 5 0
BBX 4 3 0 1
ATTRIBUTES 0x0258
BITMAP
60
30
c0
ENDCHAR
STARTCHAR question
ENCODING 63
SWIDTH 600 0
DWIDTH 5 0
BBX 3 4 1 0
ATTRIBUTES 0x0258
BITMAP
e0
20
40
40
ENDCHAR
STARTCHAR at
ENCODING 64
SWIDTH 600 0
DWIDTH 5 0
BBX 5 5 0 0
ATTRIBUTES 0x0258
BITMAP
70
a8
e8
f8
70
ENDCHAR
STARTCHAR A
ENCODING 65
SWIDTH 600 0
DWIDTH 5 0
BBX 5 4 0 0
ATTRIBUTES 0x0258
BITMAP
70
50
70
d8
ENDCHAR
STARTCHAR B
ENCODING 66
SWIDTH 600 0
DWIDTH 5 0
BBX 5 4 0 0
ATTRIBUTES 0x0258
BITMAP
f0
70
48
f0
ENDCHAR
STARTCHAR C
ENCODING 67
SWIDTH 600 0
DWIDTH 5 0
BBX 5 4 0 0
ATTRIBUTES 0x0258
BITMAP
78
80
80
70
ENDCHAR
STARTCHAR D
ENCODING 68
SWIDTH 600 0
DWIDTH 5 0
BBX 5 4 0 0
ATTRIBUTES 0x0258
BITMAP
f8
48
48
f0
ENDCHAR
STARTCHAR E
ENCODING 69
SWIDTH 600 0
DWIDTH 5 0
BBX 5 4 0 0
ATTRIBUTES 0x0258
BITMAP
f8
70
40
f8
ENDCHAR
STARTCHAR F
ENCODING 70
SWIDTH 600 0
DWIDTH 5 0
BBX 4 4 1 0
ATTRIBUTES 0x0258
BITMAP
f0
e0
80
c0
ENDCHAR
STARTCHAR G
ENCODING 71
SWIDTH 600 0
DWIDTH 5 0
BBX 5 4 0 0
ATTRIBUTES 0x0258
BITMAP
78
80
98
78
ENDCHAR
STARTCHAR H
ENCODING 72
SWIDTH 600 0
DWIDTH 5 0
BBX 4 4 0 0
ATTRIBUTES 0x0258
BITMAP
d0
70
50
d0
ENDCHAR
STARTCHAR I
ENCODING 73
SWIDTH 600 0
DWIDTH 5 0
BBX 3 4 1 0
ATTRIBUTES 0x0258
BITMAP
e0
40
40
e0
ENDCHAR
STARTCHAR J
ENCODING 74
SWIDTH 600 0
DWIDTH 5 0
BBX 5 4 0 0
ATTRIBUTES 0x0258
BITMAP
38
10
90
f0
ENDCHAR
STARTCHAR K
ENCODING 75
SWIDTH 600 0
DWIDTH 5 0
BBX 5 4 0 0
ATTRIBUTES 0x0258
BITMAP
d8
60
50
c8
ENDCHAR
STARTCHAR L
ENCODING 76
SWIDTH 600 0
DWIDTH 5 0
BBX 5 4 0 0
ATTRIBUTES 0x0258
BITMAP
e0
40
48
f8
ENDCHAR
STARTCHAR M
ENCODING 77
SWIDTH 600 0
DWIDTH 5 0
BBX 6 4 0 0
ATTRIBUTES 0x0258
BITMAP
dc
d8
a8
d8
ENDCHAR
STARTCHAR N
ENCODING 78
SWIDTH 600 0
DWIDTH 5 0
BBX 5 4 0 0
ATTRIBUTES 0x0258
BITMAP
d8
68
68
d8
ENDCHAR
STARTCHAR O
ENCODING 79
SWIDTH 600 0
DWIDTH 5 0
BBX 5 4 0 0
ATTRIBUTES 0x0258
BITMAP
70
88
88
70
ENDCHAR
STARTCHAR P
ENCODING 80
SWIDTH 600 0
DWIDTH 5 0
BBX 4 4 1 0
ATTRIBUTES 0x0258
BITMAP
f0
90
e0
c0
ENDCHAR
STARTCHAR Q
ENCODING 81
SWIDTH 600 0
DWIDTH 5 0
BBX 5 5 0 -1
ATTRIBUTES 0x0258
BITMAP
70
88
88
70
70
ENDCHAR
STARTCHAR R
ENCODING 82
SWIDTH 600 0
DWIDTH 5 0
BBX 5 4 0 0
ATTRIBUTES 0x0258
BITMAP
f0
60
50
d8
ENDCHAR
STARTCHAR S
ENCODING 83
SWIDTH 600 0
DWIDTH 5 0
BBX 4 4 1 0
ATTRIBUTES 0x0258
BITMAP
f0
c0
20
e0
ENDCHAR
STARTCHAR T
ENCODING 84
SWIDTH 600 0
DWIDTH 5 0
BBX 5 4 0 0
ATTRIBUTES 0x0258
BITMAP
f8
20
20
70
ENDCHAR
STARTCHAR U
ENCODING 85
SWIDTH 600 0
DWIDTH 5 0
BBX 5 4 0 0
ATTRIBUTES 0x0258
BITMAP
d8
90
90
f0
ENDCHAR
STARTCHAR V
ENCODING 86
SWIDTH 600 0
DWIDTH 5 0
BBX 5 4 0 0
ATTRIBUTES 0x0258
BITMAP
d8
50
50
20
ENDCHAR
STARTCHAR W
ENCODING 87
SWIDTH 600 0
DWIDTH 5 0
BBX 5 4 0 0
ATTRIBUTES 0x0258
BITMAP
f8
d8
d8
50
ENDCHAR
STARTCHAR X
ENCODING 88
SWIDTH 600 0
DWIDTH 5 0
BBX 5 4 0 0
ATTRIBUTES 0x0258
BITMAP
d0
20
50
d8
ENDCHAR
STARTCHAR Y
ENCODING 89
SWIDTH 600 0
DWIDTH 5 0
BBX 5 4 0 0
ATTRIBUTES 0x0258
BITMAP
f8
50
20
70
ENDCHAR
STARTCHAR Z
ENCODING 90
SWIDTH 600 0
DWIDTH 5 0
BBX 4 4 0 0
ATTRIBUTES 0x0258
BITMAP
f0
20
50
70
ENDCHAR
STARTCHAR bracketleft
ENCODING 91
SWIDTH 600 0
DWIDTH 5 0
BBX 2 7 2 -1
ATTRIBUTES 0x0258
BITMAP
c0
80
80
80
80
80
c0
ENDCHAR
STARTCHAR backslash
ENCODING 92
SWIDTH 600 0
DWIDTH 5 0
BBX 3 7 1 -1
ATTRIBUTES 0x0258
BITMAP
80
80
40
40
40
20
20
ENDCHAR
STARTCHAR bracketright
ENCODING 93
SWIDTH 600 0
DWIDTH 5 0
BBX 2 7 1 -1
ATTRIBUTES 0x0258
BITMAP
c0
40
40
40
40
40
c0
ENDCHAR
STARTCHAR asciicircum
ENCODING 94
SWIDTH 600 0
DWIDTH 5 0
BBX 4 3 0 1
ATTRIBUTES 0x0258
BITMAP
60
e0
90
ENDCHAR
STARTCHAR underscore
ENCODING 95
SWIDTH 600 0
DWIDTH 5 0
BBX 6 1 -1 -1
ATTRIBUTES 0x0258
BITMAP
fc
ENDCHAR
STARTCHAR grave
ENCODING 96
SWIDTH 600 0
DWIDTH 5 0
BBX 1 2 2 2
ATTRIBUTES 0x0258
BITMAP
80
80
ENDCHAR
STARTCHAR a
ENCODING 97
SWIDTH 600 0
DWIDTH 5 0
BBX 5 3 0 0
ATTRIBUTES 0x0258
BITMAP
70
90
e8
ENDCHAR
STARTCHAR b
ENCODING 98
SWIDTH 600 0
DWIDTH 5 0
BBX 5 5 0 0
ATTRIBUTES 0x0258
BITMAP
80
80
f0
88
f0
ENDCHAR
STARTCHAR c
ENCODING 99
SWIDTH 600 0
DWIDTH 5 0
BBX 5 3 0 0
ATTRIBUTES 0x0258
BITMAP
78
80
70
ENDCHAR
STARTCHAR d
ENCODING 100
SWIDTH 600 0
DWIDTH 5 0
BBX 5 5 0 0
ATTRIBUTES 0x0258
BITMAP
30
10
f0
90
78
ENDCHAR
STARTCHAR e
ENCODING 101
SWIDTH 600 0
DWIDTH 5 0
BBX 5 3 0 0
ATTRIBUTES 0x0258
BITMAP
70
a8
78
ENDCHAR
STARTCHAR f
ENCODING 102
SWIDTH 600 0
DWIDTH 5 0
BBX 3 5 1 0
ATTRIBUTES 0x0258
BITMAP
e0
e0
80
80
e0
ENDCHAR
STARTCHAR g
ENCODING 103
SWIDTH 600 0
DWIDTH 5 0
BBX 4 5 0 -2
ATTRIBUTES 0x0258
BITMAP
70
90
70
10
60
ENDCHAR
STARTCHAR h
ENCODING 104
SWIDTH 600 0
DWIDTH 5 0
BBX 5 5 0 0
ATTRIBUTES 0x0258
BITMAP
c0
40
70
50
d8
ENDCHAR
STARTCHAR i
ENCODING 105
SWIDTH 600 0
DWIDTH 5 0
BBX 3 5 1 0
ATTRIBUTES 0x0258
BITMAP
40
00
c0
40
e0
ENDCHAR
STARTCHAR j
ENCODING 106
SWIDTH 600 0
DWIDTH 5 0
BBX 2 7 1 -2
ATTRIBUTES 0x0258
BITMAP
40
00
c0
40
40
40
c0
ENDCHAR
STARTCHAR k
ENCODING 107
SWIDTH 600 0
DWIDTH 5 0
BBX 5 5 0 0
ATTRIBUTES 0x0258
BITMAP
c0
40
70
60
d8
ENDCHAR
STARTCHAR l
ENCODING 108
SWIDTH 600 0
DWIDTH 5 0
BBX 3 5 1 0
ATTRIBUTES 0x0258
BITMAP
c0
40
40
40
e0
ENDCHAR
STARTCHAR m
ENCODING 109
SWIDTH 600 0
DWIDTH 5 0
BBX 5 3 0 0
ATTRIBUTES 0x0258
BITMAP
f8
a8
e8
ENDCHAR
STARTCHAR n
ENCODING 110
SWIDTH 600 0
DWIDTH 5 0
BBX 5 3 0 0
ATTRIBUTES 0x0258
BITMAP
f0
50
d8
ENDCHAR
STARTCHAR o
ENCODING 111
SWIDTH 600 0
DWIDTH 5 0
BBX 5 3 0 0
ATTRIBUTES 0x0258
BITMAP
70
88
70
ENDCHAR
STARTCHAR p
ENCODING 112
SWIDTH 600 0
DWIDTH 5 0
BBX 5 5 0 -2
ATTRIBUTES 0x0258
BITMAP
f0
48
70
40
c0
ENDCHAR
STARTCHAR q
ENCODING 113
SWIDTH 600 0
DWIDTH 5 0
BBX 5 5 0 -2
ATTRIBUTES 0x0258
BITMAP
78
90
70
10
38
ENDCHAR
STARTCHAR r
ENCODING 114
SWIDTH 600 0
DWIDTH 5 0
BBX 3 3 1 0
ATTRIBUTES 0x0258
BITMAP
e0
80
e0
ENDCHAR
STARTCHAR s
ENCODING 115
SWIDTH 600 0
DWIDTH 5 0
BBX 5 3 0 0
ATTRIBUTES 0x0258
BITMAP
78
70
f0
ENDCHAR
STARTCHAR t
ENCODING 116
SWIDTH 600 0
DWIDTH 5 0
BBX 3 4 1 0
ATTRIBUTES 0x0258
BITMAP
e0
80
80
e0
ENDCHAR
STARTCHAR u
ENCODING 117
SWIDTH 600 0
DWIDTH 5 0
BBX 4 3 0 0
ATTRIBUTES 0x0258
BITMAP
d0
50
70
ENDCHAR
STARTCHAR v
ENCODING 118
SWIDTH 600 0
DWIDTH 5 0
BBX 5 3 0 0
ATTRIBUTES 0x0258
BITMAP
d8
50
20
ENDCHAR
STARTCHAR w
ENCODING 119
SWIDTH 600 0
DWIDTH 5 0
BBX 5 3 0 0
ATTRIBUTES 0x0258
BITMAP
a8
b8
50
ENDCHAR
STARTCHAR x
ENCODING 120
SWIDTH 600 0
DWIDTH 5 0
BBX 5 3 0 0
ATTRIBUTES 0x0258
BITMAP
f0
60
d8
ENDCHAR
STARTCHAR y
ENCODING 121
SWIDTH 600 0
DWIDTH 5 0
BBX 4 5 0 -2
ATTRIBUTES 0x0258
BITMAP
d0
50
20
20
e0
ENDCHAR
STARTCHAR z
ENCODING 122
SWIDTH 600 0
DWIDTH 5 0
BBX 3 3 1 0
ATTRIBUTES 0x0258
BITMAP
e0
40
e0
ENDCHAR
STARTCHAR braceleft
ENCODING 123
SWIDTH 600 0
DWIDTH 5 0
BBX 2 7 2 -1
ATTRIBUTES 0x0258
BITMAP
40
80
80
80
80
80
40
ENDCHAR
STARTCHAR bar
ENCODING 124
SWIDTH 600 0
DWIDTH 5 0
BBX 1 7 2 -2
ATTRIBUTES 0x0258
BITMAP
80
80
80
80
80
80
80
ENDCHAR
STARTCHAR braceright
ENCODING 125
SWIDTH 600 0
DWIDTH 5 0
BBX 2 7 1 -1
ATTRIBUTES 0x0258
BITMAP
80
40
40
40
40
40
c0
ENDCHAR
STARTCHAR asciitilde
ENCODING 126
SWIDTH 600 0
DWIDTH 5 0
BBX 3 1 1 2
ATTRIBUTES 0x0258
BITMAP
e0
ENDCHAR
STARTCHAR exclamdown
ENCODING 161
SWIDTH 600 0
DWIDTH 5 0
BBX 1 4 2 -1
ATTRIBUTES 0x0258
BITMAP
80
80
80
80
ENDCHAR
STARTCHAR cent
ENCODING 162
SWIDTH 600 0
DWIDTH 5 0
BBX 4 5 1 0
ATTRIBUTES 0x0258
BITMAP
40
e0
c0
f0
40
ENDCHAR
STARTCHAR sterling
ENCODING 163
SWIDTH 600 0
DWIDTH 5 0
BBX 3 5 1 0
ATTRIBUTES 0x0258
BITMAP
60
80
e0
80
e0
ENDCHAR
STARTCHAR currency
ENCODING 164
SWIDTH 600 0
DWIDTH 5 0
BBX 4 4 1 0
ATTRIBUTES 0x0258
BITMAP
e0
a0
c0
b0
ENDCHAR
STARTCHAR yen
ENCODING 165
SWIDTH 600 0
DWIDTH 5 0
BBX 5 5 0 0
ATTRIBUTES 0x0258
BITMAP
f8
50
70
70
70
ENDCHAR
STARTCHAR brokenbar
ENCODING 166
SWIDTH 600 0
DWIDTH 5 0
BBX 1 7 2 -2
ATTRIBUTES 0x0258
BITMAP
80
80
80
00
80
80
80
ENDCHAR
STARTCHAR section
ENCODING 167
SWIDTH 600 0
DWIDTH 5 0
BBX 3 5 1 -1
ATTRIBUTES 0x0258
BITMAP
e0
c0
e0
20
e0
ENDCHAR
STARTCHAR diaeresis
ENCODING 168
SWIDTH 600 0
DWIDTH 5 0
BBX 2 1 1 4
ATTRIBUTES 0x0258
BITMAP
c0
ENDCHAR
STARTCHAR copyright
ENCODING 169
SWIDTH 600 0
DWIDTH 5 0
BBX 5 4 0 0
ATTRIBUTES 0x0258
BITMAP
70
e8
88
70
ENDCHAR
STARTCHAR ordfeminine
ENCODING 170
SWIDTH 600 0
DWIDTH 5 0
BBX 3 2 1 2
ATTRIBUTES 0x0258
BITMAP
c0
e0
ENDCHAR
STARTCHAR guillemotleft
ENCODING 171
SWIDTH 600 0
DWIDTH 5 0
BBX 3 3 1 0
ATTRIBUTES 0x0258
BITMAP
60
c0
c0
ENDCHAR
STARTCHAR notsign
ENCODING 172
SWIDTH 600 0
DWIDTH 5 0
BBX 3 2 1 1
ATTRIBUTES 0x0258
BITMAP
e0
20
ENDCHAR
STARTCHAR hyphen
ENCODING 173
SWIDTH 600 0
DWIDTH 5 0
BBX 2 1 1 2
ATTRIBUTES 0x0258
BITMAP
c0
ENDCHAR
STARTCHAR registered
ENCODING 174
SWIDTH 600 0
DWIDTH 5 0
BBX 5 4 0 0
ATTRIBUTES 0x0258
BITMAP
78
f8
f8
70
ENDCHAR
STARTCHAR macron
ENCODING 175
SWIDTH 600 0
DWIDTH 5 0
BBX 3 1 1 4
ATTRIBUTES 0x0258
BITMAP
e0
ENDCHAR
STARTCHAR degree
ENCODING 176
SWIDTH 600 0
DWIDTH 5 0
BBX 3 3 1 2
ATTRIBUTES 0x0258
BITMAP
e0
a0
40
ENDCHAR
STARTCHAR plusminus
ENCODING 177
SWIDTH 600 0
DWIDTH 5 0
BBX 3 4 1 0
ATTRIBUTES 0x0258
BITMAP
e0
40
40
e0
ENDCHAR
STARTCHAR twosuperior
ENCODING 178
SWIDTH 600 0
DWIDTH 5 0
BBX 3 3 1 2
ATTRIBUTES 0x0258
BITMAP
e0
20
e0
ENDCHAR
STARTCHAR threesuperior
ENCODING 179
SWIDTH 600 0
DWIDTH 5 0
BBX 3 3 1 2
ATTRIBUTES 0x0258
BITMAP
c0
40
e0
ENDCHAR
STARTCHAR acute
ENCODING 180
SWIDTH 600 0
DWIDTH 5 0
BBX 2 1 1 4
ATTRIBUTES 0x0258
BITMAP
80
ENDCHAR
STARTCHAR mu
ENCODING 181
SWIDTH 600 0
DWIDTH 5 0
BBX 4 4 0 -1
ATTRIBUTES 0x0258
BITMAP
d0
50
70
40
ENDCHAR
STARTCHAR paragraph
ENCODING 182
SWIDTH 600 0
DWIDTH 5 0
BBX 3 5 1 -1
ATTRIBUTES 0x0258
BITMAP
e0
e0
60
60
60
ENDCHAR
STARTCHAR periodcentered
ENCODING 183
SWIDTH 600 0
DWIDTH 5 0
BBX 1 1 2 2
ATTRIBUTES 0x0258
BITMAP
80
ENDCHAR
STARTCHAR cedilla
ENCODING 184
SWIDTH 600 0
DWIDTH 5 0
BBX 1 2 2 -1
ATTRIBUTES 0x0258
BITMAP
80
80
ENDCHAR
STARTCHAR onesuperior
ENCODING 185
SWIDTH 600 0
DWIDTH 5 0
BBX 2 3 1 2
ATTRIBUTES 0x0258
BITMAP
c0
40
c0
ENDCHAR
STARTCHAR masculine
ENCODING 186
SWIDTH 600 0
DWIDTH 5 0
BBX 3 2 1 2
ATTRIBUTES 0x0258
BITMAP
e0
e0
ENDCHAR
STARTCHAR guillemotright
ENCODING 187
SWIDTH 600 0
DWIDTH 5 0
BBX 3 3 1 0
ATTRIBUTES 0x0258
BITMAP
c0
60
60
ENDCHAR
STARTCHAR onequarter
ENCODING 188
SWIDTH 600 0
DWIDTH 5 0
BBX 5 6 0 -1
ATTRIBUTES 0x0258
BITMAP
c8
50
d8
38
58
58
ENDCHAR
STARTCHAR onehalf
ENCODING 189
SWIDTH 600 0
DWIDTH 5 0
BBX 5 6 0 -1
ATTRIBUTES 0x0258
BITMAP
c8
50
f8
28
48
98
ENDCHAR
STARTCHAR threequarters
ENCODING 190
SWIDTH 600 0
DWIDTH 5 0
BBX 5 6 0 -1
ATTRIBUTES 0x0258
BITMAP
c8
50
d0
38
58
58
ENDCHAR
STARTCHAR questiondown
ENCODING 191
SWIDTH 600 0
DWIDTH 5 0
BBX 3 4 1 -1
ATTRIBUTES 0x0258
BITMAP
40
40
80
e0
ENDCHAR
STARTCHAR Agrave
ENCODING 192
SWIDTH 600 0
DWIDTH 5 0
BBX 5 6 0 0
ATTRIBUTES 0x0258
BITMAP
10
00
70
50
70
d8
ENDCHAR
STARTCHAR Aacute
ENCODING 193
SWIDTH 600 0
DWIDTH 5 0
BBX 5 6 0 0
ATTRIBUTES 0x0258
BITMAP
40
00
70
50
70
d8
ENDCHAR
STARTCHAR Acircumflex
ENCODING 194
SWIDTH 600 0
DWIDTH 5 0
BBX 5 6 0 0
ATTRIBUTES 0x0258
BITMAP
60
00
70
50
70
d8
ENDCHAR
STARTCHAR Atilde
ENCODING 195
SWIDTH 600 0
DWIDTH 5 0
BBX 5 6 0 0
ATTRIBUTES 0x0258
BITMAP
30
00
70
50
70
d8
ENDCHAR
STARTCHAR Adiaeresis
ENCODING 196
SWIDTH 600 0
DWIDTH 5 0
BBX 5 6 0 0
ATTRIBUTES 0x0258
BITMAP
60
00
70
50
70
d8
ENDCHAR
STARTCHAR Aring
ENCODING 197
SWIDTH 600 0
DWIDTH 5 0
BBX 5 7 0 0
ATTRIBUTES 0x0258
BITMAP
20
60
00
70
50
70
d8
ENDCHAR
STARTCHAR AE
ENCODING 198
SWIDTH 600 0
DWIDTH 5 0
BBX 5 4 0 0
ATTRIBUTES 0x0258
BITMAP
78
30
78
f8
ENDCHAR
STARTCHAR Ccedilla
ENCODING 199
SWIDTH 600 0
DWIDTH 5 0
BBX 5 5 0 -1
ATTRIBUTES 0x0258
BITMAP
78
80
80
70
30
ENDCHAR
STARTCHAR Egrave
ENCODING 200
SWIDTH 600 0
DWIDTH 5 0
BBX 5 6 0 0
ATTRIBUTES 0x0258
BITMAP
10
00
f8
70
40
f8
ENDCHAR
STARTCHAR Eacute
ENCODING 201
SWIDTH 600 0
DWIDTH 5 0
BBX 5 6 0 0
ATTRIBUTES 0x0258
BITMAP
40
00
f8
70
40
f8
ENDCHAR
STARTCHAR Ecircumflex
ENCODING 202
SWIDTH 600 0
DWIDTH 5 0
BBX 5 6 0 0
ATTRIBUTES 0x0258
BITMAP
60
00
f8
70
40
f8
ENDCHAR
STARTCHAR Ediaeresis
ENCODING 203
SWIDTH 600 0
DWIDTH 5 0
BBX 5 6 0 0
ATTRIBUTES 0x0258
BITMAP
60
00
f8
70
40
f8
ENDCHAR
STARTCHAR Igrave
ENCODING 204
SWIDTH 600 0
DWIDTH 5 0
BBX 3 6 1 0
ATTRIBUTES 0x0258
BITMAP
20
00
e0
40
40
e0
ENDCHAR
STARTCHAR Iacute
ENCODING 205
SWIDTH 600 0
DWIDTH 5 0
BBX 3 6 1 0
ATTRIBUTES 0x0258
BITMAP
80
00
e0
40
40
e0
ENDCHAR
STARTCHAR Icircumflex
ENCODING 206
SWIDTH 600 0
DWIDTH 5 0
BBX 3 6 1 0
ATTRIBUTES 0x0258
BITMAP
c0
00
e0
40
40
e0
ENDCHAR
STARTCHAR Idiaeresis
ENCODING 207
SWIDTH 600 0
DWIDTH 5 0
BBX 3 6 1 0
ATTRIBUTES 0x0258
BITMAP
c0
00
e0
40
40
e0
ENDCHAR
STARTCHAR ETH
ENCODING 208
SWIDTH 600 0
DWIDTH 5 0
BBX 5 4 0 0
ATTRIBUTES 0x0258
BITMAP
f8
e8
48
f0
ENDCHAR
STARTCHAR Ntilde
ENCODING 209
SWIDTH 600 0
DWIDTH 5 0
BBX 5 6 0 0
ATTRIBUTES 0x0258
BITMAP
30
00
d8
68
68
d8
ENDCHAR
STARTCHAR Ograve
ENCODING 210
SWIDTH 600 0
DWIDTH 5 0
BBX 5 6 0 0
ATTRIBUTES 0x0258
BITMAP
10
00
70
88
88
70
ENDCHAR
STARTCHAR Oacute
ENCODING 211
SWIDTH 600 0
DWIDTH 5 0
BBX 5 6 0 0
ATTRIBUTES 0x0258
BITMAP
40
00
70
88
88
70
ENDCHAR
STARTCHAR Ocircumflex
ENCODING 212
SWIDTH 600 0
DWIDTH 5 0
BBX 5 6 0 0
ATTRIBUTES 0x0258
BITMAP
60
00
70
88
88
70
ENDCHAR
STARTCHAR Otilde
ENCODING 213
SWIDTH 600 0
DWIDTH 5 0
BBX 5 6 0 0
ATTRIBUTES 0x0258
BITMAP
30
00
70
88
88
70
ENDCHAR
STARTCHAR Odiaeresis
ENCODING 214
SWIDTH 600 0
DWIDTH 5 0
BBX 5 6 0 0
ATTRIBUTES 0x0258
BITMAP
60
00
70
88
88
70
ENDCHAR
STARTCHAR multiply
ENCODING 215
SWIDTH 600 0
DWIDTH 5 0
BBX 3 3 1 1
ATTRIBUTES 0x0258
BITMAP
a0
60
a0
ENDCHAR
STARTCHAR Ooblique
ENCODING 216
SWIDTH 600 0
DWIDTH 5 0
BBX 5 4 0 0
ATTRIBUTES 0x0258
BITMAP
78
a8
a8
f0
ENDCHAR
STARTCHAR Ugrave
ENCODING 217
SWIDTH 600 0
DWIDTH 5 0
BBX 5 6 0 0
ATTRIBUTES 0x0258
BITMAP
10
00
d8
90
90
f0
ENDCHAR
STARTCHAR Uacute
ENCODING 218
SWIDTH 600 0
DWIDTH 5 0
BBX 5 6 0 0
ATTRIBUTES 0x0258
BITMAP
40
00
d8
90
90
f0
ENDCHAR
STARTCHAR Ucircumflex
ENCODING 219
SWIDTH 600 0
DWIDTH 5 0
BBX 5 6 0 0
ATTRIBUTES 0x0258
BITMAP
60
00
d8
90
90
f0
ENDCHAR
STARTCHAR Udiaeresis
ENCODING 220
SWIDTH 600 0
DWIDTH 5 0
BBX 5 6 0 0
ATTRIBUTES 0x0258
BITMAP
60
00
d8
90
90
f0
ENDCHAR
STARTCHAR Yacute
ENCODING 221
SWIDTH 600 0
DWIDTH 5 0
BBX 5 6 0 0
ATTRIBUTES 0x0258
BITMAP
40
00
f8
50
20
70
ENDCHAR
STARTCHAR THORN
ENCODING 222
SWIDTH 600 0
DWIDTH 5 0
BBX 4 4 1 0
ATTRIBUTES 0x0258
BITMAP
e0
90
e0
c0
ENDCHAR
STARTCHAR ssharp
ENCODING 223
SWIDTH 600 0
DWIDTH 5 0
BBX 3 5 1 0
ATTRIBUTES 0x0258
BITMAP
e0
a0
e0
a0
e0
ENDCHAR
STARTCHAR agrave
ENCODING 224
SWIDTH 600 0
DWIDTH 5 0
BBX 5 5 0 0
ATTRIBUTES 0x0258
BITMAP
10
00
70
90
e8
ENDCHAR
STARTCHAR aacute
ENCODING 225
SWIDTH 600 0
DWIDTH 5 0
BBX 5 5 0 0
ATTRIBUTES 0x0258
BITMAP
40
00
70
90
e8
ENDCHAR
STARTCHAR acircumflex
ENCODING 226
SWIDTH 600 0
DWIDTH 5 0
BBX 5 5 0 0
ATTRIBUTES 0x0258
BITMAP
60
00
70
90
e8
ENDCHAR
STARTCHAR atilde
ENCODING 227
SWIDTH 600 0
DWIDTH 5 0
BBX 5 5 0 0
ATTRIBUTES 0x0258
BITMAP
30
00
70
90
e8
ENDCHAR
STARTCHAR adiaeresis
ENCODING 228
SWIDTH 600 0
DWIDTH 5 0
BBX 5 5 0 0
ATTRIBUTES 0x0258
BITMAP
60
00
70
90
e8
ENDCHAR
STARTCHAR aring
ENCODING 229
SWIDTH 600 0
DWIDTH 5 0
BBX 5 5 0 0
ATTRIBUTES 0x0258
BITMAP
60
00
70
90
e8
ENDCHAR
STARTCHAR ae
ENCODING 230
SWIDTH 600 0
DWIDTH 5 0
BBX 5 3 0 0
ATTRIBUTES 0x0258
BITMAP
70
f8
f8
ENDCHAR
STARTCHAR ccedilla
ENCODING 231
SWIDTH 600 0
DWIDTH 5 0
BBX 5 4 0 -1
ATTRIBUTES 0x0258
BITMAP
78
80
70
20
ENDCHAR
STARTCHAR egrave
ENCODING 232
SWIDTH 600 0
DWIDTH 5 0
BBX 5 5 0 0
ATTRIBUTES 0x0258
BITMAP
10
00
70
a8
78
ENDCHAR
STARTCHAR eacute
ENCODING 233
SWIDTH 600 0
DWIDTH 5 0
BBX 5 5 0 0
ATTRIBUTES 0x0258
BITMAP
40
00
70
a8
78
ENDCHAR
STARTCHAR ecircumflex
ENCODING 234
SWIDTH 600 0
DWIDTH 5 0
BBX 5 5 0 0
ATTRIBUTES 0x0258
BITMAP
60
00
70
a8
78
ENDCHAR
STARTCHAR ediaeresis
ENCODING 235
SWIDTH 600 0
DWIDTH 5 0
BBX 5 5 0 0
ATTRIBUTES 0x0258
BITMAP
60
00
70
a8
78
ENDCHAR
STARTCHAR igrave
ENCODING 236
SWIDTH 600 0
DWIDTH 5 0
BBX 3 5 1 0
ATTRIBUTES 0x0258
BITMAP
20
00
c0
40
e0
ENDCHAR
STARTCHAR iacute
ENCODING 237
SWIDTH 600 0
DWIDTH 5 0
BBX 3 5 1 0
ATTRIBUTES 0x0258
BITMAP
80
00
c0
40
e0
ENDCHAR
STARTCHAR icircumflex
ENCODING 238
SWIDTH 600 0
DWIDTH 5 0
BBX 3 5 1 0
ATTRIBUTES 0x0258
BITMAP
c0
00
c0
40
e0
ENDCHAR
STARTCHAR idiaeresis
ENCODING 239
SWIDTH 600 0
DWIDTH 5 0
BBX 3 5 1 0
ATTRIBUTES 0x0258
BITMAP
c0
00
c0
40
e0
ENDCHAR
STARTCHAR eth
ENCODING 240
SWIDTH 600 0
DWIDTH 5 0
BBX 5 6 0 0
ATTRIBUTES 0x0258
BITMAP
20
20
10
f8
88
70
ENDCHAR
STARTCHAR ntilde
ENCODING 241
SWIDTH 600 0
DWIDTH 5 0
BBX 5 5 0 0
ATTRIBUTES 0x0258
BITMAP
30
00
f0
50
d8
ENDCHAR
STARTCHAR ograve
ENCODING 242
SWIDTH 600 0
DWIDTH 5 0
BBX 5 5 0 0
ATTRIBUTES 0x0258
BITMAP
10
00
70
88
70
ENDCHAR
STARTCHAR oacute
ENCODING 243
SWIDTH 600 0
DWIDTH 5 0
BBX 5 5 0 0
ATTRIBUTES 0x0258
BITMAP
40
00
70
88
70
ENDCHAR
STARTCHAR ocircumflex
ENCODING 244
SWIDTH 600 0
DWIDTH 5 0
BBX 5 5 0 0
ATTRIBUTES 0x0258
BITMAP
60
00
70
88
70
ENDCHAR
STARTCHAR otilde
ENCODING 245
SWIDTH 600 0
DWIDTH 5 0
BBX 5 5 0 0
ATTRIBUTES 0x0258
BITMAP
30
00
70
88
70
ENDCHAR
STARTCHAR odiaeresis
ENCODING 246
SWIDTH 600 0
DWIDTH 5 0
BBX 5 5 0 0
ATTRIBUTES 0x0258
BITMAP
60
00
70
88
70
ENDCHAR
STARTCHAR division
ENCODING 247
SWIDTH 600 0
DWIDTH 5 0
BBX 1 4 2 0
ATTRIBUTES 0x0258
BITMAP
80
00
00
80
ENDCHAR
STARTCHAR oslash
ENCODING 248
SWIDTH 600 0
DWIDTH 5 0
BBX 5 3 0 0
ATTRIBUTES 0x0258
BITMAP
78
e8
b0
ENDCHAR
STARTCHAR ugrave
ENCODING 249
SWIDTH 600 0
DWIDTH 5 0
BBX 4 5 0 0
ATTRIBUTES 0x0258
BITMAP
10
00
d0
50
70
ENDCHAR
STARTCHAR uacute
ENCODING 250
SWIDTH 600 0
DWIDTH 5 0
BBX 4 5 0 0
ATTRIBUTES 0x0258
BITMAP
40
00
d0
50
70
ENDCHAR
STARTCHAR ucircumflex
ENCODING 251
SWIDTH 600 0
DWIDTH 5 0
BBX 4 5 0 0
ATTRIBUTES 0x0258
BITMAP
60
00
d0
50
70
ENDCHAR
STARTCHAR udiaeresis
ENCODING 252
SWIDTH 600 0
DWIDTH 5 0
BBX 4 5 0 0
ATTRIBUTES 0x0258
BITMAP
60
00
d0
50
70
ENDCHAR
STARTCHAR yacute
ENCODING 253
SWIDTH 600 0
DWIDTH 5 0
BBX 4 7 0 -2
ATTRIBUTES 0x0258
BITMAP
40
00
d0
50
20
20
e0
ENDCHAR
STARTCHAR thorn
ENCODING 254
SWIDTH 600 0
DWIDTH 5 0
BBX 5 7 0 -2
ATTRIBUTES 0x0258
BITMAP
c0
40
70
48
70
40
c0
ENDCHAR
STARTCHAR ydiaeresis
ENCODING 255
SWIDTH 600 0
DWIDTH 5 0
BBX 4 7 0 -2
ATTRIBUTES 0x0258
BITMAP
60
00
d0
50
20
20
e0
ENDCHAR
ENDFONT
