STARTFONT 2.1
COMMENT  
COMMENT  Copyright (c) 1984, 1987 Adobe Systems Incorporated. All Rights Reserved. Copyright (c) 1988, 1991 Digital Equipment Corporation. All Rights Reserved.
COMMENT  
COMMENT  WARNING:  This bdf file was generated from a font server using
COMMENT  fstobdf.  The resulting font is subject to the same copyright,
COMMENT  license, and trademark restrictions as the original font.  The
COMMENT  authors and distributors of fstobdf disclaim all liability for
COMMENT  misuse of the program or its output.
COMMENT  
FONT -Adobe-Courier-Medium-R-Normal--14-100-100-100-M-90-ISO8859-1
SIZE 10 100 100
FONTBOUNDINGBOX 10 15 -1 -3
STARTPROPERTIES 32
FOUNDRY "Adobe"
FAMILY_NAME "Courier"
WEIGHT_NAME "Medium"
SLANT "R"
SETWIDTH_NAME "Normal"
ADD_STYLE_NAME ""
PIXEL_SIZE 14
POINT_SIZE 100
RESOLUTION_X 100
RESOLUTION_Y 100
SPACING "M"
AVERAGE_WIDTH 90
CHARSET_REGISTRY "ISO8859"
CHARSET_ENCODING "1"
CAP_HEIGHT 9
X_HEIGHT 7
FACE_NAME "Courier"
COPYRIGHT "Copyright (c) 1984, 1987 Adobe Systems Incorporated. All Rights Reserved. Copyright (c) 1988, 1991 Digital Equipment Corporation. All Rights Reserved."
NOTICE "No mark"
_DEC_DEVICE_FONTNAMES "PS=Courier"
_DEC_PRODUCTINFO "DECwindows Fonts V2.2, 07-Nov-1991"
RELATIVE_SETWIDTH 50
RELATIVE_WEIGHT 50
CHARSET_COLLECTIONS "ASCII ISO8859-1 ADOBE-STANDARD"
FULL_NAME "Courier"
FONT "-Adobe-Courier-Medium-R-Normal--14-100-100-100-M-90-ISO8859-1"
WEIGHT 10
RESOLUTION 138
QUAD_WIDTH 9
DEFAULT_CHAR 32
FONT_ASCENT 11
FONT_DESCENT 3
ENDPROPERTIES
CHARS 191
STARTCHAR space
ENCODING 32
SWIDTH 648 0
DWIDTH 9 0
BBX 1 1 0 0
BITMAP
00
ENDCHAR
STARTCHAR exclam
ENCODING 33
SWIDTH 648 0
DWIDTH 9 0
BBX 1 9 3 0
BITMAP
80
80
80
80
80
80
00
80
80
ENDCHAR
STARTCHAR quotedbl
ENCODING 34
SWIDTH 648 0
DWIDTH 9 0
BBX 4 4 2 6
BITMAP
90
90
90
90
ENDCHAR
STARTCHAR numbersign
ENCODING 35
SWIDTH 648 0
DWIDTH 9 0
BBX 5 10 2 -1
BITMAP
50
50
50
f8
50
50
f8
50
50
50
ENDCHAR
STARTCHAR dollar
ENCODING 36
SWIDTH 648 0
DWIDTH 9 0
BBX 5 13 2 -2
BITMAP
20
20
78
88
80
c0
30
08
88
f0
20
20
20
ENDCHAR
STARTCHAR percent
ENCODING 37
SWIDTH 648 0
DWIDTH 9 0
BBX 8 10 0 0
BITMAP
60
90
90
73
0c
30
cc
12
12
0c
ENDCHAR
STARTCHAR ampersand
ENCODING 38
SWIDTH 648 0
DWIDTH 9 0
BBX 6 8 1 0
BITMAP
38
40
40
40
a8
90
98
64
ENDCHAR
STARTCHAR apostrophe
ENCODING 39
SWIDTH 648 0
DWIDTH 9 0
BBX 3 4 2 6
BITMAP
60
60
c0
80
ENDCHAR
STARTCHAR parenleft
ENCODING 40
SWIDTH 648 0
DWIDTH 9 0
BBX 3 12 3 -2
BITMAP
20
40
40
80
80
80
80
80
80
40
40
20
ENDCHAR
STARTCHAR parenright
ENCODING 41
SWIDTH 648 0
DWIDTH 9 0
BBX 3 12 2 -2
BITMAP
80
40
40
20
20
20
20
20
20
40
40
80
ENDCHAR
STARTCHAR asterisk
ENCODING 42
SWIDTH 648 0
DWIDTH 9 0
BBX 5 6 1 3
BITMAP
20
20
f8
20
50
88
ENDCHAR
STARTCHAR plus
ENCODING 43
SWIDTH 648 0
DWIDTH 9 0
BBX 7 7 1 1
BITMAP
10
10
10
fe
10
10
10
ENDCHAR
STARTCHAR comma
ENCODING 44
SWIDTH 648 0
DWIDTH 9 0
BBX 3 4 2 -2
BITMAP
60
60
c0
80
ENDCHAR
STARTCHAR minus
ENCODING 45
SWIDTH 648 0
DWIDTH 9 0
BBX 7 1 1 4
BITMAP
fe
ENDCHAR
STARTCHAR period
ENCODING 46
SWIDTH 648 0
DWIDTH 9 0
BBX 2 2 3 0
BITMAP
c0
c0
ENDCHAR
STARTCHAR slash
ENCODING 47
SWIDTH 648 0
DWIDTH 9 0
BBX 6 11 1 -1
BITMAP
04
08
08
10
10
20
20
40
40
80
80
ENDCHAR
STARTCHAR 0
ENCODING 48
SWIDTH 648 0
DWIDTH 9 0
BBX 6 10 1 0
BITMAP
30
48
84
84
84
84
84
84
48
30
ENDCHAR
STARTCHAR 1
ENCODING 49
SWIDTH 648 0
DWIDTH 9 0
BBX 5 10 1 0
BITMAP
20
60
a0
20
20
20
20
20
20
f8
ENDCHAR
STARTCHAR 2
ENCODING 50
SWIDTH 648 0
DWIDTH 9 0
BBX 5 10 1 0
BITMAP
70
88
88
08
10
20
40
80
88
f8
ENDCHAR
STARTCHAR 3
ENCODING 51
SWIDTH 648 0
DWIDTH 9 0
BBX 6 10 1 0
BITMAP
38
44
04
04
18
04
04
04
84
78
ENDCHAR
STARTCHAR 4
ENCODING 52
SWIDTH 648 0
DWIDTH 9 0
BBX 6 10 1 0
BITMAP
18
28
28
48
48
88
88
fc
08
1c
ENDCHAR
STARTCHAR 5
ENCODING 53
SWIDTH 648 0
DWIDTH 9 0
BBX 6 10 1 0
BITMAP
7c
40
40
40
78
04
04
04
84
78
ENDCHAR
STARTCHAR 6
ENCODING 54
SWIDTH 648 0
DWIDTH 9 0
BBX 6 10 1 0
BITMAP
38
40
80
80
b8
c4
84
84
44
38
ENDCHAR
STARTCHAR 7
ENCODING 55
SWIDTH 648 0
DWIDTH 9 0
BBX 6 10 1 0
BITMAP
fc
84
04
08
08
08
10
10
10
10
ENDCHAR
STARTCHAR 8
ENCODING 56
SWIDTH 648 0
DWIDTH 9 0
BBX 5 10 2 0
BITMAP
70
88
88
88
70
88
88
88
88
70
ENDCHAR
STARTCHAR 9
ENCODING 57
SWIDTH 648 0
DWIDTH 9 0
BBX 6 10 1 0
BITMAP
70
88
84
84
8c
74
04
04
08
70
ENDCHAR
STARTCHAR colon
ENCODING 58
SWIDTH 648 0
DWIDTH 9 0
BBX 2 7 3 0
BITMAP
c0
c0
00
00
00
c0
c0
ENDCHAR
STARTCHAR semicolon
ENCODING 59
SWIDTH 648 0
DWIDTH 9 0
BBX 3 9 2 -2
BITMAP
60
60
00
00
00
60
60
c0
80
ENDCHAR
STARTCHAR less
ENCODING 60
SWIDTH 648 0
DWIDTH 9 0
BBX 7 7 0 1
BITMAP
06
18
60
80
60
18
06
ENDCHAR
STARTCHAR equal
ENCODING 61
SWIDTH 648 0
DWIDTH 9 0
BBX 7 3 1 3
BITMAP
fe
00
fe
ENDCHAR
STARTCHAR greater
ENCODING 62
SWIDTH 648 0
DWIDTH 9 0
BBX 7 7 1 1
BITMAP
c0
30
0c
02
0c
30
c0
ENDCHAR
STARTCHAR question
ENCODING 63
SWIDTH 648 0
DWIDTH 9 0
BBX 5 9 1 0
BITMAP
70
88
08
08
30
20
00
20
20
ENDCHAR
STARTCHAR at
ENCODING 64
SWIDTH 648 0
DWIDTH 9 0
BBX 7 10 1 -1
BITMAP
38
44
84
9c
a4
a4
9e
80
40
38
ENDCHAR
STARTCHAR A
ENCODING 65
SWIDTH 648 0
DWIDTH 9 0
BBX 9 9 -1 0
BITMAP
3800
0800
1400
1400
2200
3e00
4100
4100
f780
ENDCHAR
STARTCHAR B
ENCODING 66
SWIDTH 648 0
DWIDTH 9 0
BBX 7 9 0 0
BITMAP
fc
42
42
42
7c
42
42
42
fc
ENDCHAR
STARTCHAR C
ENCODING 67
SWIDTH 648 0
DWIDTH 9 0
BBX 7 9 1 0
BITMAP
3a
46
82
80
80
80
80
42
3c
ENDCHAR
STARTCHAR D
ENCODING 68
SWIDTH 648 0
DWIDTH 9 0
BBX 8 9 0 0
BITMAP
fc
42
41
41
41
41
41
42
fc
ENDCHAR
STARTCHAR E
ENCODING 69
SWIDTH 648 0
DWIDTH 9 0
BBX 7 9 1 0
BITMAP
fe
42
42
48
78
48
42
42
fe
ENDCHAR
STARTCHAR F
ENCODING 70
SWIDTH 648 0
DWIDTH 9 0
BBX 7 9 1 0
BITMAP
fe
42
42
48
78
48
40
40
f0
ENDCHAR
STARTCHAR G
ENCODING 71
SWIDTH 648 0
DWIDTH 9 0
BBX 8 9 0 0
BITMAP
3a
46
82
80
80
8f
82
42
3c
ENDCHAR
STARTCHAR H
ENCODING 72
SWIDTH 648 0
DWIDTH 9 0
BBX 8 9 0 0
BITMAP
e7
42
42
42
7e
42
42
42
e7
ENDCHAR
STARTCHAR I
ENCODING 73
SWIDTH 648 0
DWIDTH 9 0
BBX 5 9 2 0
BITMAP
f8
20
20
20
20
20
20
20
f8
ENDCHAR
STARTCHAR J
ENCODING 74
SWIDTH 648 0
DWIDTH 9 0
BBX 7 9 1 0
BITMAP
3e
08
08
08
08
88
88
88
70
ENDCHAR
STARTCHAR K
ENCODING 75
SWIDTH 648 0
DWIDTH 9 0
BBX 8 9 0 0
BITMAP
ee
44
48
50
70
48
44
44
e3
ENDCHAR
STARTCHAR L
ENCODING 76
SWIDTH 648 0
DWIDTH 9 0
BBX 8 9 0 0
BITMAP
f8
20
20
20
20
21
21
21
ff
ENDCHAR
STARTCHAR M
ENCODING 77
SWIDTH 648 0
DWIDTH 9 0
BBX 9 9 0 0
BITMAP
e380
6300
5500
5500
4900
4900
4100
4100
e380
ENDCHAR
STARTCHAR N
ENCODING 78
SWIDTH 648 0
DWIDTH 9 0
BBX 8 9 0 0
BITMAP
e7
62
52
52
4a
4a
46
46
e2
ENDCHAR
STARTCHAR O
ENCODING 79
SWIDTH 648 0
DWIDTH 9 0
BBX 8 9 0 0
BITMAP
3c
42
81
81
81
81
81
42
3c
ENDCHAR
STARTCHAR P
ENCODING 80
SWIDTH 648 0
DWIDTH 9 0
BBX 7 9 1 0
BITMAP
fc
42
42
42
42
7c
40
40
f0
ENDCHAR
STARTCHAR Q
ENCODING 81
SWIDTH 648 0
DWIDTH 9 0
BBX 8 11 0 -2
BITMAP
3c
42
81
81
81
81
81
42
3c
31
5e
ENDCHAR
STARTCHAR R
ENCODING 82
SWIDTH 648 0
DWIDTH 9 0
BBX 8 9 0 0
BITMAP
fc
42
42
42
44
78
44
42
e1
ENDCHAR
STARTCHAR S
ENCODING 83
SWIDTH 648 0
DWIDTH 9 0
BBX 6 9 1 0
BITMAP
74
8c
84
80
78
04
84
c4
b8
ENDCHAR
STARTCHAR T
ENCODING 84
SWIDTH 648 0
DWIDTH 9 0
BBX 7 9 1 0
BITMAP
fe
92
92
10
10
10
10
10
7c
ENDCHAR
STARTCHAR U
ENCODING 85
SWIDTH 648 0
DWIDTH 9 0
BBX 8 9 0 0
BITMAP
e7
42
42
42
42
42
42
42
3c
ENDCHAR
STARTCHAR V
ENCODING 86
SWIDTH 648 0
DWIDTH 9 0
BBX 9 9 0 0
BITMAP
e380
4100
4100
2200
2200
1400
1400
0800
0800
ENDCHAR
STARTCHAR W
ENCODING 87
SWIDTH 648 0
DWIDTH 9 0
BBX 9 9 0 0
BITMAP
e380
4100
4900
4900
5500
5500
2200
2200
2200
ENDCHAR
STARTCHAR X
ENCODING 88
SWIDTH 648 0
DWIDTH 9 0
BBX 8 9 0 0
BITMAP
e7
42
24
24
18
24
24
42
e7
ENDCHAR
STARTCHAR Y
ENCODING 89
SWIDTH 648 0
DWIDTH 9 0
BBX 7 9 0 0
BITMAP
ee
44
44
28
28
10
10
10
7c
ENDCHAR
STARTCHAR Z
ENCODING 90
SWIDTH 648 0
DWIDTH 9 0
BBX 6 9 1 0
BITMAP
fc
84
88
10
20
20
44
84
fc
ENDCHAR
STARTCHAR bracketleft
ENCODING 91
SWIDTH 648 0
DWIDTH 9 0
BBX 3 12 3 -2
BITMAP
e0
80
80
80
80
80
80
80
80
80
80
e0
ENDCHAR
STARTCHAR backslash
ENCODING 92
SWIDTH 648 0
DWIDTH 9 0
BBX 6 11 1 -1
BITMAP
80
40
40
20
20
10
10
08
08
04
04
ENDCHAR
STARTCHAR bracketright
ENCODING 93
SWIDTH 648 0
DWIDTH 9 0
BBX 3 12 2 -2
BITMAP
e0
20
20
20
20
20
20
20
20
20
20
e0
ENDCHAR
STARTCHAR asciicircum
ENCODING 94
SWIDTH 648 0
DWIDTH 9 0
BBX 5 5 2 4
BITMAP
20
50
50
88
88
ENDCHAR
STARTCHAR underscore
ENCODING 95
SWIDTH 648 0
DWIDTH 9 0
BBX 9 1 0 -3
BITMAP
ff80
ENDCHAR
STARTCHAR grave
ENCODING 96
SWIDTH 648 0
DWIDTH 9 0
BBX 3 4 2 6
BITMAP
c0
c0
60
20
ENDCHAR
STARTCHAR a
ENCODING 97
SWIDTH 648 0
DWIDTH 9 0
BBX 7 7 1 0
BITMAP
78
84
04
7c
84
84
7a
ENDCHAR
STARTCHAR b
ENCODING 98
SWIDTH 648 0
DWIDTH 9 0
BBX 8 10 0 0
BITMAP
c0
40
40
5c
62
41
41
41
62
dc
ENDCHAR
STARTCHAR c
ENCODING 99
SWIDTH 648 0
DWIDTH 9 0
BBX 7 7 1 0
BITMAP
3a
46
82
80
80
42
3c
ENDCHAR
STARTCHAR d
ENCODING 100
SWIDTH 648 0
DWIDTH 9 0
BBX 8 10 0 0
BITMAP
06
02
02
3a
46
82
82
82
46
3b
ENDCHAR
STARTCHAR e
ENCODING 101
SWIDTH 648 0
DWIDTH 9 0
BBX 7 7 1 0
BITMAP
38
44
82
fe
80
42
3c
ENDCHAR
STARTCHAR f
ENCODING 102
SWIDTH 648 0
DWIDTH 9 0
BBX 7 10 1 0
BITMAP
1e
20
20
fc
20
20
20
20
20
f8
ENDCHAR
STARTCHAR g
ENCODING 103
SWIDTH 648 0
DWIDTH 9 0
BBX 8 10 0 -3
BITMAP
3b
46
82
82
82
46
3a
02
04
78
ENDCHAR
STARTCHAR h
ENCODING 104
SWIDTH 648 0
DWIDTH 9 0
BBX 8 10 0 0
BITMAP
c0
40
40
5c
62
42
42
42
42
e7
ENDCHAR
STARTCHAR i
ENCODING 105
SWIDTH 648 0
DWIDTH 9 0
BBX 5 10 2 0
BITMAP
20
20
00
e0
20
20
20
20
20
f8
ENDCHAR
STARTCHAR j
ENCODING 106
SWIDTH 648 0
DWIDTH 9 0
BBX 5 13 1 -3
BITMAP
08
08
00
f8
08
08
08
08
08
08
08
10
e0
ENDCHAR
STARTCHAR k
ENCODING 107
SWIDTH 648 0
DWIDTH 9 0
BBX 7 10 1 0
BITMAP
c0
40
40
4e
48
50
60
50
48
ce
ENDCHAR
STARTCHAR l
ENCODING 108
SWIDTH 648 0
DWIDTH 9 0
BBX 5 10 2 0
BITMAP
e0
20
20
20
20
20
20
20
20
f8
ENDCHAR
STARTCHAR m
ENCODING 109
SWIDTH 648 0
DWIDTH 9 0
BBX 9 7 0 0
BITMAP
db00
6d00
4900
4900
4900
4900
ed80
ENDCHAR
STARTCHAR n
ENCODING 110
SWIDTH 648 0
DWIDTH 9 0
BBX 8 7 0 0
BITMAP
dc
62
42
42
42
42
e7
ENDCHAR
STARTCHAR o
ENCODING 111
SWIDTH 648 0
DWIDTH 9 0
BBX 8 7 0 0
BITMAP
3c
42
81
81
81
42
3c
ENDCHAR
STARTCHAR p
ENCODING 112
SWIDTH 648 0
DWIDTH 9 0
BBX 8 10 0 -3
BITMAP
dc
62
41
41
41
62
5c
40
40
f0
ENDCHAR
STARTCHAR q
ENCODING 113
SWIDTH 648 0
DWIDTH 9 0
BBX 8 10 0 -3
BITMAP
3b
46
82
82
82
46
3a
02
02
0f
ENDCHAR
STARTCHAR r
ENCODING 114
SWIDTH 648 0
DWIDTH 9 0
BBX 7 7 1 0
BITMAP
cc
52
60
40
40
40
f8
ENDCHAR
STARTCHAR s
ENCODING 115
SWIDTH 648 0
DWIDTH 9 0
BBX 6 7 1 0
BITMAP
7c
84
80
78
04
84
f8
ENDCHAR
STARTCHAR t
ENCODING 116
SWIDTH 648 0
DWIDTH 9 0
BBX 7 9 0 0
BITMAP
20
20
fc
20
20
20
20
22
1c
ENDCHAR
STARTCHAR u
ENCODING 117
SWIDTH 648 0
DWIDTH 9 0
BBX 8 7 0 0
BITMAP
c6
42
42
42
42
46
3b
ENDCHAR
STARTCHAR v
ENCODING 118
SWIDTH 648 0
DWIDTH 9 0
BBX 8 7 0 0
BITMAP
e7
42
42
24
24
18
18
ENDCHAR
STARTCHAR w
ENCODING 119
SWIDTH 648 0
DWIDTH 9 0
BBX 9 7 0 0
BITMAP
e380
4100
4900
4900
2a00
3600
2200
ENDCHAR
STARTCHAR x
ENCODING 120
SWIDTH 648 0
DWIDTH 9 0
BBX 7 7 0 0
BITMAP
ee
44
28
10
28
44
ee
ENDCHAR
STARTCHAR y
ENCODING 121
SWIDTH 648 0
DWIDTH 9 0
BBX 8 10 0 -3
BITMAP
e7
42
42
24
24
18
08
10
10
78
ENDCHAR
STARTCHAR z
ENCODING 122
SWIDTH 648 0
DWIDTH 9 0
BBX 5 7 2 0
BITMAP
f8
88
10
20
40
88
f8
ENDCHAR
STARTCHAR braceleft
ENCODING 123
SWIDTH 648 0
DWIDTH 9 0
BBX 3 12 2 -2
BITMAP
20
40
40
40
40
80
40
40
40
40
40
20
ENDCHAR
STARTCHAR bar
ENCODING 124
SWIDTH 648 0
DWIDTH 9 0
BBX 1 11 3 -2
BITMAP
80
80
80
80
80
80
80
80
80
80
80
ENDCHAR
STARTCHAR braceright
ENCODING 125
SWIDTH 648 0
DWIDTH 9 0
BBX 3 12 2 -2
BITMAP
80
40
40
40
40
20
40
40
40
40
40
80
ENDCHAR
STARTCHAR asciitilde
ENCODING 126
SWIDTH 648 0
DWIDTH 9 0
BBX 6 2 1 3
BITMAP
64
98
ENDCHAR
STARTCHAR nobreakspace
ENCODING 160
SWIDTH 648 0
DWIDTH 9 0
BBX 1 1 0 0
BITMAP
00
ENDCHAR
STARTCHAR exclamdown
ENCODING 161
SWIDTH 648 0
DWIDTH 9 0
BBX 1 9 4 -2
BITMAP
80
80
00
80
80
80
80
80
80
ENDCHAR
STARTCHAR cent
ENCODING 162
SWIDTH 648 0
DWIDTH 9 0
BBX 5 9 2 0
BITMAP
20
20
78
88
80
88
70
20
20
ENDCHAR
STARTCHAR sterling
ENCODING 163
SWIDTH 648 0
DWIDTH 9 0
BBX 7 9 1 0
BITMAP
18
24
20
20
78
20
20
42
fc
ENDCHAR
STARTCHAR currency
ENCODING 164
SWIDTH 648 0
DWIDTH 9 0
BBX 6 6 1 1
BITMAP
b4
48
84
84
48
b4
ENDCHAR
STARTCHAR yen
ENCODING 165
SWIDTH 648 0
DWIDTH 9 0
BBX 7 9 1 0
BITMAP
ee
44
44
28
7c
10
7c
10
38
ENDCHAR
STARTCHAR brokenbar
ENCODING 166
SWIDTH 648 0
DWIDTH 9 0
BBX 1 11 3 -2
BITMAP
80
80
80
80
00
00
80
80
80
80
80
ENDCHAR
STARTCHAR section
ENCODING 167
SWIDTH 648 0
DWIDTH 9 0
BBX 6 10 1 -1
BITMAP
3c
44
40
f0
88
44
3c
08
88
f0
ENDCHAR
STARTCHAR diaeresis
ENCODING 168
SWIDTH 648 0
DWIDTH 9 0
BBX 5 1 2 8
BITMAP
d8
ENDCHAR
STARTCHAR copyright
ENCODING 169
SWIDTH 648 0
DWIDTH 9 0
BBX 8 9 0 0
BITMAP
3c
42
99
a5
a1
a5
99
42
3c
ENDCHAR
STARTCHAR ordfeminine
ENCODING 170
SWIDTH 648 0
DWIDTH 9 0
BBX 4 6 2 3
BITMAP
c0
20
e0
b0
00
f0
ENDCHAR
STARTCHAR guillemotleft
ENCODING 171
SWIDTH 648 0
DWIDTH 9 0
BBX 8 7 0 0
BITMAP
11
22
44
cc
44
22
11
ENDCHAR
STARTCHAR notsign
ENCODING 172
SWIDTH 648 0
DWIDTH 9 0
BBX 7 3 1 3
BITMAP
fe
02
02
ENDCHAR
STARTCHAR hyphen
ENCODING 173
SWIDTH 648 0
DWIDTH 9 0
BBX 6 1 1 4
BITMAP
fc
ENDCHAR
STARTCHAR registered
ENCODING 174
SWIDTH 648 0
DWIDTH 9 0
BBX 8 9 0 0
BITMAP
3c
42
b9
a5
b9
a9
a5
42
3c
ENDCHAR
STARTCHAR macron
ENCODING 175
SWIDTH 648 0
DWIDTH 9 0
BBX 4 1 2 8
BITMAP
f0
ENDCHAR
STARTCHAR degree
ENCODING 176
SWIDTH 648 0
DWIDTH 9 0
BBX 4 4 2 6
BITMAP
60
90
90
60
ENDCHAR
STARTCHAR plusminus
ENCODING 177
SWIDTH 648 0
DWIDTH 9 0
BBX 7 7 1 1
BITMAP
10
10
fe
10
10
00
fe
ENDCHAR
STARTCHAR twosuperior
ENCODING 178
SWIDTH 648 0
DWIDTH 9 0
BBX 4 6 2 4
BITMAP
60
90
10
20
40
f0
ENDCHAR
STARTCHAR threesuperior
ENCODING 179
SWIDTH 648 0
DWIDTH 9 0
BBX 4 6 2 4
BITMAP
60
90
60
10
90
60
ENDCHAR
STARTCHAR acute
ENCODING 180
SWIDTH 648 0
DWIDTH 9 0
BBX 4 2 2 8
BITMAP
30
c0
ENDCHAR
STARTCHAR mu
ENCODING 181
SWIDTH 648 0
DWIDTH 9 0
BBX 8 10 0 -3
BITMAP
c6
42
42
42
42
46
7b
40
40
40
ENDCHAR
STARTCHAR paragraph
ENCODING 182
SWIDTH 648 0
DWIDTH 9 0
BBX 7 10 1 -1
BITMAP
7e
94
94
94
74
14
14
14
14
3e
ENDCHAR
STARTCHAR periodcentered
ENCODING 183
SWIDTH 648 0
DWIDTH 9 0
BBX 2 2 3 3
BITMAP
c0
c0
ENDCHAR
STARTCHAR cedilla
ENCODING 184
SWIDTH 648 0
DWIDTH 9 0
BBX 3 3 2 -3
BITMAP
40
20
e0
ENDCHAR
STARTCHAR onesuperior
ENCODING 185
SWIDTH 648 0
DWIDTH 9 0
BBX 3 6 3 4
BITMAP
40
c0
40
40
40
e0
ENDCHAR
STARTCHAR masculine
ENCODING 186
SWIDTH 648 0
DWIDTH 9 0
BBX 4 6 2 3
BITMAP
60
90
90
60
00
f0
ENDCHAR
STARTCHAR guillemotright
ENCODING 187
SWIDTH 648 0
DWIDTH 9 0
BBX 8 7 0 0
BITMAP
88
44
22
33
22
44
88
ENDCHAR
STARTCHAR onequarter
ENCODING 188
SWIDTH 648 0
DWIDTH 9 0
BBX 10 10 -1 0
BITMAP
4000
c100
4200
4400
4480
e980
1280
1480
27c0
4080
ENDCHAR
STARTCHAR onehalf
ENCODING 189
SWIDTH 648 0
DWIDTH 9 0
BBX 10 10 -1 0
BITMAP
4000
c100
4200
4400
4580
ea40
1040
1080
2100
43c0
ENDCHAR
STARTCHAR threequarters
ENCODING 190
SWIDTH 648 0
DWIDTH 9 0
BBX 10 10 -1 0
BITMAP
6000
9100
6200
1400
9480
6980
1280
1480
27c0
4080
ENDCHAR
STARTCHAR questiondown
ENCODING 191
SWIDTH 648 0
DWIDTH 9 0
BBX 5 9 2 -2
BITMAP
20
20
00
20
60
80
80
88
70
ENDCHAR
STARTCHAR Agrave
ENCODING 192
SWIDTH 648 0
DWIDTH 9 0
BBX 9 12 0 0
BITMAP
3000
0c00
0000
3800
0800
1400
1400
2200
3e00
4100
4100
f780
ENDCHAR
STARTCHAR Aacute
ENCODING 193
SWIDTH 648 0
DWIDTH 9 0
BBX 9 12 0 0
BITMAP
0c00
3000
0000
3800
0800
1400
1400
2200
3e00
4100
4100
f780
ENDCHAR
STARTCHAR Acircumflex
ENCODING 194
SWIDTH 648 0
DWIDTH 9 0
BBX 9 12 0 0
BITMAP
0800
1400
0000
3800
0800
1400
1400
2200
3e00
4100
4100
f780
ENDCHAR
STARTCHAR Atilde
ENCODING 195
SWIDTH 648 0
DWIDTH 9 0
BBX 9 12 0 0
BITMAP
1a00
2c00
0000
3800
0800
1400
1400
2200
3e00
4100
4100
f780
ENDCHAR
STARTCHAR Adiaeresis
ENCODING 196
SWIDTH 648 0
DWIDTH 9 0
BBX 9 11 0 0
BITMAP
3600
0000
3800
0800
1400
1400
2200
3e00
4100
4100
f780
ENDCHAR
STARTCHAR Aring
ENCODING 197
SWIDTH 648 0
DWIDTH 9 0
BBX 9 12 0 0
BITMAP
1800
2400
1800
3800
0800
1400
1400
2200
3e00
4100
4100
f780
ENDCHAR
STARTCHAR AE
ENCODING 198
SWIDTH 648 0
DWIDTH 9 0
BBX 9 9 -1 0
BITMAP
1f80
0c80
1400
1480
2780
3c80
4400
4480
ef80
ENDCHAR
STARTCHAR Ccedilla
ENCODING 199
SWIDTH 648 0
DWIDTH 9 0
BBX 7 12 1 -3
BITMAP
3a
46
82
80
80
80
80
42
3c
10
08
38
ENDCHAR
STARTCHAR Egrave
ENCODING 200
SWIDTH 648 0
DWIDTH 9 0
BBX 7 12 1 0
BITMAP
60
18
00
fe
42
42
48
78
48
42
42
fe
ENDCHAR
STARTCHAR Eacute
ENCODING 201
SWIDTH 648 0
DWIDTH 9 0
BBX 7 12 1 0
BITMAP
0c
30
00
fe
42
42
48
78
48
42
42
fe
ENDCHAR
STARTCHAR Ecircumflex
ENCODING 202
SWIDTH 648 0
DWIDTH 9 0
BBX 7 12 1 0
BITMAP
10
28
00
fe
42
42
48
78
48
42
42
fe
ENDCHAR
STARTCHAR Ediaeresis
ENCODING 203
SWIDTH 648 0
DWIDTH 9 0
BBX 7 11 1 0
BITMAP
6c
00
fe
42
42
48
78
48
42
42
fe
ENDCHAR
STARTCHAR Igrave
ENCODING 204
SWIDTH 648 0
DWIDTH 9 0
BBX 5 12 2 0
BITMAP
c0
30
00
f8
20
20
20
20
20
20
20
f8
ENDCHAR
STARTCHAR Iacute
ENCODING 205
SWIDTH 648 0
DWIDTH 9 0
BBX 5 12 2 0
BITMAP
18
60
00
f8
20
20
20
20
20
20
20
f8
ENDCHAR
STARTCHAR Icircumflex
ENCODING 206
SWIDTH 648 0
DWIDTH 9 0
BBX 5 12 2 0
BITMAP
20
50
00
f8
20
20
20
20
20
20
20
f8
ENDCHAR
STARTCHAR Idiaeresis
ENCODING 207
SWIDTH 648 0
DWIDTH 9 0
BBX 5 11 2 0
BITMAP
d8
00
f8
20
20
20
20
20
20
20
f8
ENDCHAR
STARTCHAR ETH
ENCODING 208
SWIDTH 648 0
DWIDTH 9 0
BBX 8 9 0 0
BITMAP
fc
42
41
41
f1
41
41
42
fc
ENDCHAR
STARTCHAR Ntilde
ENCODING 209
SWIDTH 648 0
DWIDTH 9 0
BBX 8 12 0 0
BITMAP
1a
2c
00
e7
62
52
52
4a
4a
46
46
e2
ENDCHAR
STARTCHAR Ograve
ENCODING 210
SWIDTH 648 0
DWIDTH 9 0
BBX 8 12 0 0
BITMAP
30
0c
00
3c
42
81
81
81
81
81
42
3c
ENDCHAR
STARTCHAR Oacute
ENCODING 211
SWIDTH 648 0
DWIDTH 9 0
BBX 8 12 0 0
BITMAP
0c
30
00
3c
42
81
81
81
81
81
42
3c
ENDCHAR
STARTCHAR Ocircumflex
ENCODING 212
SWIDTH 648 0
DWIDTH 9 0
BBX 8 12 0 0
BITMAP
10
28
00
3c
42
81
81
81
81
81
42
3c
ENDCHAR
STARTCHAR Otilde
ENCODING 213
SWIDTH 648 0
DWIDTH 9 0
BBX 8 12 0 0
BITMAP
1a
2c
00
3c
42
81
81
81
81
81
42
3c
ENDCHAR
STARTCHAR Odiaeresis
ENCODING 214
SWIDTH 648 0
DWIDTH 9 0
BBX 8 11 0 0
BITMAP
66
00
3c
42
81
81
81
81
81
42
3c
ENDCHAR
STARTCHAR multiply
ENCODING 215
SWIDTH 648 0
DWIDTH 9 0
BBX 7 7 1 1
BITMAP
82
44
28
10
28
44
82
ENDCHAR
STARTCHAR Ooblique
ENCODING 216
SWIDTH 648 0
DWIDTH 9 0
BBX 9 9 -1 0
BITMAP
1e80
2100
4280
4480
4880
5080
2080
6100
9e00
ENDCHAR
STARTCHAR Ugrave
ENCODING 217
SWIDTH 648 0
DWIDTH 9 0
BBX 8 12 0 0
BITMAP
30
0c
00
e7
42
42
42
42
42
42
42
3c
ENDCHAR
STARTCHAR Uacute
ENCODING 218
SWIDTH 648 0
DWIDTH 9 0
BBX 8 12 0 0
BITMAP
0c
30
00
e7
42
42
42
42
42
42
42
3c
ENDCHAR
STARTCHAR Ucircumflex
ENCODING 219
SWIDTH 648 0
DWIDTH 9 0
BBX 8 12 0 0
BITMAP
10
28
00
e7
42
42
42
42
42
42
42
3c
ENDCHAR
STARTCHAR Udiaeresis
ENCODING 220
SWIDTH 648 0
DWIDTH 9 0
BBX 8 11 0 0
BITMAP
66
00
e7
42
42
42
42
42
42
42
3c
ENDCHAR
STARTCHAR Yacute
ENCODING 221
SWIDTH 648 0
DWIDTH 9 0
BBX 7 12 1 0
BITMAP
0c
30
00
ee
44
44
28
28
10
10
10
7c
ENDCHAR
STARTCHAR THORN
ENCODING 222
SWIDTH 648 0
DWIDTH 9 0
BBX 7 9 0 0
BITMAP
e0
40
7c
42
42
42
7c
40
e0
ENDCHAR
STARTCHAR ssharp
ENCODING 223
SWIDTH 648 0
DWIDTH 9 0
BBX 7 9 0 0
BITMAP
38
44
44
58
44
42
42
52
cc
ENDCHAR
STARTCHAR agrave
ENCODING 224
SWIDTH 648 0
DWIDTH 9 0
BBX 7 10 1 0
BITMAP
60
18
00
78
84
04
7c
84
8c
76
ENDCHAR
STARTCHAR aacute
ENCODING 225
SWIDTH 648 0
DWIDTH 9 0
BBX 7 10 1 0
BITMAP
18
60
00
78
84
04
7c
84
8c
76
ENDCHAR
STARTCHAR acircumflex
ENCODING 226
SWIDTH 648 0
DWIDTH 9 0
BBX 7 10 1 0
BITMAP
10
28
00
78
84
04
7c
84
8c
76
ENDCHAR
STARTCHAR atilde
ENCODING 227
SWIDTH 648 0
DWIDTH 9 0
BBX 7 10 1 0
BITMAP
34
58
00
78
84
04
7c
84
8c
76
ENDCHAR
STARTCHAR adiaeresis
ENCODING 228
SWIDTH 648 0
DWIDTH 9 0
BBX 7 9 1 0
BITMAP
6c
00
78
84
04
7c
84
8c
76
ENDCHAR
STARTCHAR aring
ENCODING 229
SWIDTH 648 0
DWIDTH 9 0
BBX 7 10 1 0
BITMAP
30
48
30
78
84
04
7c
84
8c
76
ENDCHAR
STARTCHAR ae
ENCODING 230
SWIDTH 648 0
DWIDTH 9 0
BBX 8 7 0 0
BITMAP
76
89
09
7f
88
89
76
ENDCHAR
STARTCHAR ccedilla
ENCODING 231
SWIDTH 648 0
DWIDTH 9 0
BBX 7 10 1 -3
BITMAP
3a
46
82
80
80
42
3c
10
08
38
ENDCHAR
STARTCHAR egrave
ENCODING 232
SWIDTH 648 0
DWIDTH 9 0
BBX 7 10 1 0
BITMAP
60
18
00
38
44
82
fe
80
42
3c
ENDCHAR
STARTCHAR eacute
ENCODING 233
SWIDTH 648 0
DWIDTH 9 0
BBX 7 10 1 0
BITMAP
0c
30
00
38
44
82
fe
80
42
3c
ENDCHAR
STARTCHAR ecircumflex
ENCODING 234
SWIDTH 648 0
DWIDTH 9 0
BBX 7 10 1 0
BITMAP
10
28
00
38
44
82
fe
80
42
3c
ENDCHAR
STARTCHAR ediaeresis
ENCODING 235
SWIDTH 648 0
DWIDTH 9 0
BBX 7 9 1 0
BITMAP
6c
00
38
44
82
fe
80
42
3c
ENDCHAR
STARTCHAR igrave
ENCODING 236
SWIDTH 648 0
DWIDTH 9 0
BBX 5 10 2 0
BITMAP
c0
30
00
e0
20
20
20
20
20
f8
ENDCHAR
STARTCHAR iacute
ENCODING 237
SWIDTH 648 0
DWIDTH 9 0
BBX 5 10 2 0
BITMAP
30
c0
00
e0
20
20
20
20
20
f8
ENDCHAR
STARTCHAR icircumflex
ENCODING 238
SWIDTH 648 0
DWIDTH 9 0
BBX 5 10 2 0
BITMAP
20
50
00
e0
20
20
20
20
20
f8
ENDCHAR
STARTCHAR idiaeresis
ENCODING 239
SWIDTH 648 0
DWIDTH 9 0
BBX 5 9 2 0
BITMAP
d8
00
e0
20
20
20
20
20
f8
ENDCHAR
STARTCHAR eth
ENCODING 240
SWIDTH 648 0
DWIDTH 9 0
BBX 8 12 0 0
BITMAP
02
e4
18
28
44
3c
42
81
81
81
42
3c
ENDCHAR
STARTCHAR ntilde
ENCODING 241
SWIDTH 648 0
DWIDTH 9 0
BBX 8 10 0 0
BITMAP
1a
2c
00
dc
62
42
42
42
42
e7
ENDCHAR
STARTCHAR ograve
ENCODING 242
SWIDTH 648 0
DWIDTH 9 0
BBX 8 10 0 0
BITMAP
30
0c
00
3c
42
81
81
81
42
3c
ENDCHAR
STARTCHAR oacute
ENCODING 243
SWIDTH 648 0
DWIDTH 9 0
BBX 8 10 0 0
BITMAP
0c
30
00
3c
42
81
81
81
42
3c
ENDCHAR
STARTCHAR ocircumflex
ENCODING 244
SWIDTH 648 0
DWIDTH 9 0
BBX 8 10 0 0
BITMAP
10
28
00
3c
42
81
81
81
42
3c
ENDCHAR
STARTCHAR otilde
ENCODING 245
SWIDTH 648 0
DWIDTH 9 0
BBX 8 10 0 0
BITMAP
1a
2c
00
3c
42
81
81
81
42
3c
ENDCHAR
STARTCHAR odiaeresis
ENCODING 246
SWIDTH 648 0
DWIDTH 9 0
BBX 8 9 0 0
BITMAP
6c
00
3c
42
81
81
81
42
3c
ENDCHAR
STARTCHAR division
ENCODING 247
SWIDTH 648 0
DWIDTH 9 0
BBX 8 7 0 1
BITMAP
18
18
00
ff
00
18
18
ENDCHAR
STARTCHAR oslash
ENCODING 248
SWIDTH 648 0
DWIDTH 9 0
BBX 8 7 0 0
BITMAP
3d
46
89
91
a1
42
bc
ENDCHAR
STARTCHAR ugrave
ENCODING 249
SWIDTH 648 0
DWIDTH 9 0
BBX 8 10 0 0
BITMAP
30
0c
00
c6
42
42
42
42
46
3b
ENDCHAR
STARTCHAR uacute
ENCODING 250
SWIDTH 648 0
DWIDTH 9 0
BBX 8 10 0 0
BITMAP
0c
30
00
c6
42
42
42
42
46
3b
ENDCHAR
STARTCHAR ucircumflex
ENCODING 251
SWIDTH 648 0
DWIDTH 9 0
BBX 8 10 0 0
BITMAP
10
28
00
c6
42
42
42
42
46
3b
ENDCHAR
STARTCHAR udiaeresis
ENCODING 252
SWIDTH 648 0
DWIDTH 9 0
BBX 8 9 0 0
BITMAP
6c
00
c6
42
42
42
42
46
3b
ENDCHAR
STARTCHAR yacute
ENCODING 253
SWIDTH 648 0
DWIDTH 9 0
BBX 8 13 0 -3
BITMAP
06
18
00
e7
42
42
24
24
18
08
10
10
78
ENDCHAR
STARTCHAR thorn
ENCODING 254
SWIDTH 648 0
DWIDTH 9 0
BBX 8 12 0 -3
BITMAP
c0
40
5c
62
41
41
41
62
5c
40
40
f0
ENDCHAR
STARTCHAR ydiaeresis
ENCODING 255
SWIDTH 648 0
DWIDTH 9 0
BBX 8 12 0 -3
BITMAP
36
00
e7
42
42
24
24
18
08
10
10
78
ENDCHAR
ENDFONT
