STARTFONT 2.1
COMMENT  
COMMENT  Copyright (c) 1984, 1987 Adobe Systems Incorporated. All Rights Reserved. Copyright (c) 1988, 1991 Digital Equipment Corporation. All Rights Reserved.
COMMENT  
COMMENT  WARNING:  This bdf file was generated from a font server using
COMMENT  fstobdf.  The resulting font is subject to the same copyright,
COMMENT  license, and trademark restrictions as the original font.  The
COMMENT  authors and distributors of fstobdf disclaim all liability for
COMMENT  misuse of the program or its output.
COMMENT  
FONT -Adobe-Courier-Medium-R-Normal--18-180-75-75-M-110-ISO8859-1
SIZE 18 75 75
FONTBOUNDINGBOX 12 19 -1 -4
STARTPROPERTIES 32
FOUNDRY "Adobe"
FAMILY_NAME "Courier"
WEIGHT_NAME "Medium"
SLANT "R"
SETWIDTH_NAME "Normal"
ADD_STYLE_NAME ""
PIXEL_SIZE 18
POINT_SIZE 180
RESOLUTION_X 75
RESOLUTION_Y 75
SPACING "M"
AVERAGE_WIDTH 110
CHARSET_REGISTRY "ISO8859"
CHARSET_ENCODING "1"
CAP_HEIGHT 11
X_HEIGHT 8
FACE_NAME "Courier"
COPYRIGHT "Copyright (c) 1984, 1987 Adobe Systems Incorporated. All Rights Reserved. Copyright (c) 1988, 1991 Digital Equipment Corporation. All Rights Reserved."
NOTICE "No mark"
_DEC_DEVICE_FONTNAMES "PS=Courier"
_DEC_PRODUCTINFO "DECwindows Fonts V2.2, 07-Nov-1991"
RELATIVE_SETWIDTH 50
RELATIVE_WEIGHT 50
CHARSET_COLLECTIONS "ASCII ISO8859-1 ADOBE-STANDARD"
FULL_NAME "Courier"
FONT "-Adobe-Courier-Medium-R-Normal--18-180-75-75-M-110-ISO8859-1"
WEIGHT 10
RESOLUTION 103
QUAD_WIDTH 11
DEFAULT_CHAR 32
FONT_ASCENT 14
FONT_DESCENT 4
ENDPROPERTIES
CHARS 191
STARTCHAR space
ENCODING 32
SWIDTH 586 0
DWIDTH 11 0
BBX 1 1 0 0
BITMAP
00
ENDCHAR
STARTCHAR exclam
ENCODING 33
SWIDTH 586 0
DWIDTH 11 0
BBX 2 12 4 0
BITMAP
c0
c0
c0
c0
c0
c0
c0
40
40
00
c0
c0
ENDCHAR
STARTCHAR quotedbl
ENCODING 34
SWIDTH 586 0
DWIDTH 11 0
BBX 5 5 3 7
BITMAP
d8
d8
d8
90
90
ENDCHAR
STARTCHAR numbersign
ENCODING 35
SWIDTH 586 0
DWIDTH 11 0
BBX 9 15 1 -2
BITMAP
1200
1200
1200
1200
1200
ff80
2400
2400
2400
ff00
2400
2400
2400
2400
2400
ENDCHAR
STARTCHAR dollar
ENCODING 36
SWIDTH 586 0
DWIDTH 11 0
BBX 7 15 2 -2
BITMAP
10
10
7a
86
82
80
70
0c
02
82
c2
bc
10
10
10
ENDCHAR
STARTCHAR percent
ENCODING 37
SWIDTH 586 0
DWIDTH 11 0
BBX 9 12 1 0
BITMAP
7000
8800
8800
8800
7180
0e00
3000
ce00
1100
1100
1100
0e00
ENDCHAR
STARTCHAR ampersand
ENCODING 38
SWIDTH 586 0
DWIDTH 11 0
BBX 7 10 2 0
BITMAP
38
44
40
40
20
74
88
88
98
66
ENDCHAR
STARTCHAR apostrophe
ENCODING 39
SWIDTH 586 0
DWIDTH 11 0
BBX 4 5 3 7
BITMAP
30
30
60
60
c0
ENDCHAR
STARTCHAR parenleft
ENCODING 40
SWIDTH 586 0
DWIDTH 11 0
BBX 3 14 5 -2
BITMAP
20
40
40
80
80
80
80
80
80
80
80
40
40
20
ENDCHAR
STARTCHAR parenright
ENCODING 41
SWIDTH 586 0
DWIDTH 11 0
BBX 3 14 3 -2
BITMAP
80
40
40
20
20
20
20
20
20
20
20
40
40
80
ENDCHAR
STARTCHAR asterisk
ENCODING 42
SWIDTH 586 0
DWIDTH 11 0
BBX 7 8 2 4
BITMAP
10
10
10
fe
38
28
44
44
ENDCHAR
STARTCHAR plus
ENCODING 43
SWIDTH 586 0
DWIDTH 11 0
BBX 9 9 1 1
BITMAP
0800
0800
0800
0800
ff80
0800
0800
0800
0800
ENDCHAR
STARTCHAR comma
ENCODING 44
SWIDTH 586 0
DWIDTH 11 0
BBX 4 5 3 -3
BITMAP
30
30
60
60
c0
ENDCHAR
STARTCHAR minus
ENCODING 45
SWIDTH 586 0
DWIDTH 11 0
BBX 9 1 1 5
BITMAP
ff80
ENDCHAR
STARTCHAR period
ENCODING 46
SWIDTH 586 0
DWIDTH 11 0
BBX 2 2 4 0
BITMAP
c0
c0
ENDCHAR
STARTCHAR slash
ENCODING 47
SWIDTH 586 0
DWIDTH 11 0
BBX 8 16 1 -3
BITMAP
01
01
02
02
04
04
08
08
10
10
20
20
40
40
80
80
ENDCHAR
STARTCHAR 0
ENCODING 48
SWIDTH 586 0
DWIDTH 11 0
BBX 7 12 2 0
BITMAP
38
44
82
82
82
82
82
82
82
82
44
38
ENDCHAR
STARTCHAR 1
ENCODING 49
SWIDTH 586 0
DWIDTH 11 0
BBX 7 12 2 0
BITMAP
30
d0
10
10
10
10
10
10
10
10
10
fe
ENDCHAR
STARTCHAR 2
ENCODING 50
SWIDTH 586 0
DWIDTH 11 0
BBX 8 12 1 0
BITMAP
1c
22
41
41
01
02
04
08
10
20
41
ff
ENDCHAR
STARTCHAR 3
ENCODING 51
SWIDTH 586 0
DWIDTH 11 0
BBX 7 12 2 0
BITMAP
78
84
02
02
04
38
04
02
02
02
84
78
ENDCHAR
STARTCHAR 4
ENCODING 52
SWIDTH 586 0
DWIDTH 11 0
BBX 7 12 2 0
BITMAP
0c
14
14
24
24
44
44
84
fe
04
04
1e
ENDCHAR
STARTCHAR 5
ENCODING 53
SWIDTH 586 0
DWIDTH 11 0
BBX 8 12 1 0
BITMAP
7e
40
40
40
5c
62
01
01
01
01
c2
3c
ENDCHAR
STARTCHAR 6
ENCODING 54
SWIDTH 586 0
DWIDTH 11 0
BBX 7 12 2 0
BITMAP
1e
20
40
40
80
b8
c4
82
82
82
44
38
ENDCHAR
STARTCHAR 7
ENCODING 55
SWIDTH 586 0
DWIDTH 11 0
BBX 8 12 2 0
BITMAP
ff
81
02
02
04
04
04
04
08
08
08
08
ENDCHAR
STARTCHAR 8
ENCODING 56
SWIDTH 586 0
DWIDTH 11 0
BBX 7 12 2 0
BITMAP
38
44
82
82
44
38
44
82
82
82
44
38
ENDCHAR
STARTCHAR 9
ENCODING 57
SWIDTH 586 0
DWIDTH 11 0
BBX 7 12 2 0
BITMAP
38
44
82
82
82
46
3a
02
02
04
08
f0
ENDCHAR
STARTCHAR colon
ENCODING 58
SWIDTH 586 0
DWIDTH 11 0
BBX 2 8 5 0
BITMAP
c0
c0
00
00
00
00
c0
c0
ENDCHAR
STARTCHAR semicolon
ENCODING 59
SWIDTH 586 0
DWIDTH 11 0
BBX 5 11 2 -3
BITMAP
18
18
00
00
00
00
30
30
60
60
c0
ENDCHAR
STARTCHAR less
ENCODING 60
SWIDTH 586 0
DWIDTH 11 0
BBX 10 9 0 1
BITMAP
00c0
0300
0c00
3000
c000
3000
0c00
0300
00c0
ENDCHAR
STARTCHAR equal
ENCODING 61
SWIDTH 586 0
DWIDTH 11 0
BBX 9 4 1 3
BITMAP
ff80
0000
0000
ff80
ENDCHAR
STARTCHAR greater
ENCODING 62
SWIDTH 586 0
DWIDTH 11 0
BBX 10 9 0 1
BITMAP
c000
3000
0c00
0300
00c0
0300
0c00
3000
c000
ENDCHAR
STARTCHAR question
ENCODING 63
SWIDTH 586 0
DWIDTH 11 0
BBX 7 11 2 0
BITMAP
7c
86
82
02
04
08
30
20
00
30
30
ENDCHAR
STARTCHAR at
ENCODING 64
SWIDTH 586 0
DWIDTH 11 0
BBX 8 13 2 -1
BITMAP
3c
42
82
82
8e
92
92
92
8f
80
80
43
3c
ENDCHAR
STARTCHAR A
ENCODING 65
SWIDTH 586 0
DWIDTH 11 0
BBX 11 11 0 0
BITMAP
3c00
0400
0a00
0a00
1100
1100
2080
3f80
4040
4040
f1e0
ENDCHAR
STARTCHAR B
ENCODING 66
SWIDTH 586 0
DWIDTH 11 0
BBX 9 11 1 0
BITMAP
fe00
4100
4100
4100
4200
7e00
4100
4080
4080
4100
fe00
ENDCHAR
STARTCHAR C
ENCODING 67
SWIDTH 586 0
DWIDTH 11 0
BBX 9 11 1 0
BITMAP
1e80
6180
4080
8000
8000
8000
8000
8000
4080
6100
1e00
ENDCHAR
STARTCHAR D
ENCODING 68
SWIDTH 586 0
DWIDTH 11 0
BBX 8 11 1 0
BITMAP
fc
42
41
41
41
41
41
41
41
42
fc
ENDCHAR
STARTCHAR E
ENCODING 69
SWIDTH 586 0
DWIDTH 11 0
BBX 8 11 1 0
BITMAP
ff
41
41
41
48
78
48
41
41
41
ff
ENDCHAR
STARTCHAR F
ENCODING 70
SWIDTH 586 0
DWIDTH 11 0
BBX 8 11 1 0
BITMAP
ff
41
41
41
48
78
48
40
40
40
f0
ENDCHAR
STARTCHAR G
ENCODING 71
SWIDTH 586 0
DWIDTH 11 0
BBX 10 11 1 0
BITMAP
1e80
6180
4080
8000
8000
8000
83c0
8080
4080
6100
1e00
ENDCHAR
STARTCHAR H
ENCODING 72
SWIDTH 586 0
DWIDTH 11 0
BBX 9 11 1 0
BITMAP
e380
4100
4100
4100
4100
7f00
4100
4100
4100
4100
e380
ENDCHAR
STARTCHAR I
ENCODING 73
SWIDTH 586 0
DWIDTH 11 0
BBX 7 11 2 0
BITMAP
fe
10
10
10
10
10
10
10
10
10
fe
ENDCHAR
STARTCHAR J
ENCODING 74
SWIDTH 586 0
DWIDTH 11 0
BBX 9 11 1 0
BITMAP
1f80
0200
0200
0200
0200
0200
8200
8200
8200
4400
3800
ENDCHAR
STARTCHAR K
ENCODING 75
SWIDTH 586 0
DWIDTH 11 0
BBX 10 11 0 0
BITMAP
f3c0
4100
4200
4400
4800
5800
6400
4200
4200
4100
f1c0
ENDCHAR
STARTCHAR L
ENCODING 76
SWIDTH 586 0
DWIDTH 11 0
BBX 9 11 1 0
BITMAP
f800
2000
2000
2000
2000
2000
2000
2080
2080
2080
ff80
ENDCHAR
STARTCHAR M
ENCODING 77
SWIDTH 586 0
DWIDTH 11 0
BBX 11 11 0 0
BITMAP
e0e0
60c0
5140
5140
4a40
4a40
4440
4440
4040
4040
f1e0
ENDCHAR
STARTCHAR N
ENCODING 78
SWIDTH 586 0
DWIDTH 11 0
BBX 9 11 1 0
BITMAP
e780
6100
5100
5100
4900
4900
4500
4500
4300
4300
f100
ENDCHAR
STARTCHAR O
ENCODING 79
SWIDTH 586 0
DWIDTH 11 0
BBX 9 11 1 0
BITMAP
1c00
6300
4100
8080
8080
8080
8080
8080
4100
6300
1c00
ENDCHAR
STARTCHAR P
ENCODING 80
SWIDTH 586 0
DWIDTH 11 0
BBX 9 11 1 0
BITMAP
fe00
4100
4080
4080
4080
4100
7e00
4000
4000
4000
f800
ENDCHAR
STARTCHAR Q
ENCODING 81
SWIDTH 586 0
DWIDTH 11 0
BBX 9 13 1 -2
BITMAP
1c00
6300
4100
8080
8080
8080
8080
8080
4100
6300
1c00
3880
4700
ENDCHAR
STARTCHAR R
ENCODING 82
SWIDTH 586 0
DWIDTH 11 0
BBX 10 11 1 0
BITMAP
fe00
4100
4100
4100
4200
7c00
4200
4200
4100
4100
f0c0
ENDCHAR
STARTCHAR S
ENCODING 83
SWIDTH 586 0
DWIDTH 11 0
BBX 8 11 2 0
BITMAP
3a
46
82
80
40
3c
02
01
81
c2
bc
ENDCHAR
STARTCHAR T
ENCODING 84
SWIDTH 586 0
DWIDTH 11 0
BBX 9 11 1 0
BITMAP
ff80
8880
8880
8880
0800
0800
0800
0800
0800
0800
3e00
ENDCHAR
STARTCHAR U
ENCODING 85
SWIDTH 586 0
DWIDTH 11 0
BBX 10 11 0 0
BITMAP
f3c0
4080
4080
4080
4080
4080
4080
4080
4080
2100
1e00
ENDCHAR
STARTCHAR V
ENCODING 86
SWIDTH 586 0
DWIDTH 11 0
BBX 11 11 0 0
BITMAP
f1e0
4040
4040
2080
2080
1100
1100
0a00
0a00
0400
0400
ENDCHAR
STARTCHAR W
ENCODING 87
SWIDTH 586 0
DWIDTH 11 0
BBX 11 11 0 0
BITMAP
f1e0
4040
4440
4440
4440
2a80
2a80
2a80
2a80
1100
1100
ENDCHAR
STARTCHAR X
ENCODING 88
SWIDTH 586 0
DWIDTH 11 0
BBX 9 11 1 0
BITMAP
e380
4100
2200
2200
1400
0800
1400
2200
2200
4100
e380
ENDCHAR
STARTCHAR Y
ENCODING 89
SWIDTH 586 0
DWIDTH 11 0
BBX 9 11 1 0
BITMAP
e380
4100
2200
2200
1400
1400
0800
0800
0800
0800
3e00
ENDCHAR
STARTCHAR Z
ENCODING 90
SWIDTH 586 0
DWIDTH 11 0
BBX 7 11 2 0
BITMAP
fe
82
84
08
08
10
20
20
42
82
fe
ENDCHAR
STARTCHAR bracketleft
ENCODING 91
SWIDTH 586 0
DWIDTH 11 0
BBX 3 15 5 -3
BITMAP
e0
80
80
80
80
80
80
80
80
80
80
80
80
80
e0
ENDCHAR
STARTCHAR backslash
ENCODING 92
SWIDTH 586 0
DWIDTH 11 0
BBX 8 16 2 -3
BITMAP
80
80
40
40
20
20
10
10
08
08
04
04
02
02
01
01
ENDCHAR
STARTCHAR bracketright
ENCODING 93
SWIDTH 586 0
DWIDTH 11 0
BBX 3 15 3 -3
BITMAP
e0
20
20
20
20
20
20
20
20
20
20
20
20
20
e0
ENDCHAR
STARTCHAR asciicircum
ENCODING 94
SWIDTH 586 0
DWIDTH 11 0
BBX 7 4 2 8
BITMAP
10
28
44
82
ENDCHAR
STARTCHAR underscore
ENCODING 95
SWIDTH 586 0
DWIDTH 11 0
BBX 11 1 0 -4
BITMAP
ffe0
ENDCHAR
STARTCHAR grave
ENCODING 96
SWIDTH 586 0
DWIDTH 11 0
BBX 4 5 3 7
BITMAP
c0
c0
60
60
30
ENDCHAR
STARTCHAR a
ENCODING 97
SWIDTH 586 0
DWIDTH 11 0
BBX 9 8 1 0
BITMAP
3c00
4200
0200
7e00
8200
8200
8600
7b80
ENDCHAR
STARTCHAR b
ENCODING 98
SWIDTH 586 0
DWIDTH 11 0
BBX 9 12 1 0
BITMAP
c000
4000
4000
4000
5e00
6100
4080
4080
4080
4080
6100
de00
ENDCHAR
STARTCHAR c
ENCODING 99
SWIDTH 586 0
DWIDTH 11 0
BBX 8 8 1 0
BITMAP
3d
43
81
80
80
80
43
3c
ENDCHAR
STARTCHAR d
ENCODING 100
SWIDTH 586 0
DWIDTH 11 0
BBX 9 12 1 0
BITMAP
0300
0100
0100
0100
3d00
4300
8100
8100
8100
8100
4300
3d80
ENDCHAR
STARTCHAR e
ENCODING 101
SWIDTH 586 0
DWIDTH 11 0
BBX 8 8 1 0
BITMAP
3c
42
81
ff
80
80
43
3c
ENDCHAR
STARTCHAR f
ENCODING 102
SWIDTH 586 0
DWIDTH 11 0
BBX 8 12 2 0
BITMAP
0f
10
20
20
fe
20
20
20
20
20
20
fe
ENDCHAR
STARTCHAR g
ENCODING 103
SWIDTH 586 0
DWIDTH 11 0
BBX 9 12 1 -4
BITMAP
3d80
4300
8100
8100
8100
8100
4300
3d00
0100
0100
0200
7c00
ENDCHAR
STARTCHAR h
ENCODING 104
SWIDTH 586 0
DWIDTH 11 0
BBX 9 12 1 0
BITMAP
c000
4000
4000
4000
5e00
6100
4100
4100
4100
4100
4100
e380
ENDCHAR
STARTCHAR i
ENCODING 105
SWIDTH 586 0
DWIDTH 11 0
BBX 7 11 2 0
BITMAP
10
10
00
70
10
10
10
10
10
10
fe
ENDCHAR
STARTCHAR j
ENCODING 106
SWIDTH 586 0
DWIDTH 11 0
BBX 6 15 2 -4
BITMAP
08
08
00
fc
04
04
04
04
04
04
04
04
04
08
f0
ENDCHAR
STARTCHAR k
ENCODING 107
SWIDTH 586 0
DWIDTH 11 0
BBX 9 12 1 0
BITMAP
c000
4000
4000
4000
4f00
4400
4800
7000
4800
4400
4200
c780
ENDCHAR
STARTCHAR l
ENCODING 108
SWIDTH 586 0
DWIDTH 11 0
BBX 7 12 2 0
BITMAP
f0
10
10
10
10
10
10
10
10
10
10
fe
ENDCHAR
STARTCHAR m
ENCODING 109
SWIDTH 586 0
DWIDTH 11 0
BBX 11 8 0 0
BITMAP
d980
6640
4440
4440
4440
4440
4440
e660
ENDCHAR
STARTCHAR n
ENCODING 110
SWIDTH 586 0
DWIDTH 11 0
BBX 9 8 1 0
BITMAP
de00
6100
4100
4100
4100
4100
4100
e380
ENDCHAR
STARTCHAR o
ENCODING 111
SWIDTH 586 0
DWIDTH 11 0
BBX 8 8 1 0
BITMAP
3c
42
81
81
81
81
42
3c
ENDCHAR
STARTCHAR p
ENCODING 112
SWIDTH 586 0
DWIDTH 11 0
BBX 9 12 1 -4
BITMAP
de00
6100
4080
4080
4080
4080
6100
5e00
4000
4000
4000
f000
ENDCHAR
STARTCHAR q
ENCODING 113
SWIDTH 586 0
DWIDTH 11 0
BBX 9 12 1 -4
BITMAP
3d80
4300
8100
8100
8100
8100
4300
3d00
0100
0100
0100
0780
ENDCHAR
STARTCHAR r
ENCODING 114
SWIDTH 586 0
DWIDTH 11 0
BBX 8 8 1 0
BITMAP
ee
31
20
20
20
20
20
fe
ENDCHAR
STARTCHAR s
ENCODING 115
SWIDTH 586 0
DWIDTH 11 0
BBX 7 8 2 0
BITMAP
7a
86
82
70
0c
82
c2
bc
ENDCHAR
STARTCHAR t
ENCODING 116
SWIDTH 586 0
DWIDTH 11 0
BBX 8 11 2 0
BITMAP
20
20
20
fe
20
20
20
20
20
21
1e
ENDCHAR
STARTCHAR u
ENCODING 117
SWIDTH 586 0
DWIDTH 11 0
BBX 9 8 1 0
BITMAP
c300
4100
4100
4100
4100
4100
4300
3d80
ENDCHAR
STARTCHAR v
ENCODING 118
SWIDTH 586 0
DWIDTH 11 0
BBX 9 8 1 0
BITMAP
e380
4100
2200
2200
1400
1400
0800
0800
ENDCHAR
STARTCHAR w
ENCODING 119
SWIDTH 586 0
DWIDTH 11 0
BBX 9 8 1 0
BITMAP
e380
4100
4900
4900
5500
5500
2200
2200
ENDCHAR
STARTCHAR x
ENCODING 120
SWIDTH 586 0
DWIDTH 11 0
BBX 8 8 1 0
BITMAP
e7
42
24
18
18
24
42
e7
ENDCHAR
STARTCHAR y
ENCODING 121
SWIDTH 586 0
DWIDTH 11 0
BBX 9 12 1 -4
BITMAP
e380
4100
4100
2200
2200
1400
1400
0800
0800
1000
1000
f800
ENDCHAR
STARTCHAR z
ENCODING 122
SWIDTH 586 0
DWIDTH 11 0
BBX 7 8 2 0
BITMAP
fe
82
84
08
10
22
42
fe
ENDCHAR
STARTCHAR braceleft
ENCODING 123
SWIDTH 586 0
DWIDTH 11 0
BBX 5 15 3 -3
BITMAP
18
20
20
20
20
20
c0
20
20
20
20
20
20
20
18
ENDCHAR
STARTCHAR bar
ENCODING 124
SWIDTH 586 0
DWIDTH 11 0
BBX 1 15 5 -3
BITMAP
80
80
80
80
80
80
80
80
80
80
80
80
80
80
80
ENDCHAR
STARTCHAR braceright
ENCODING 125
SWIDTH 586 0
DWIDTH 11 0
BBX 5 15 3 -3
BITMAP
c0
20
20
20
20
20
18
20
20
20
20
20
20
20
c0
ENDCHAR
STARTCHAR asciitilde
ENCODING 126
SWIDTH 586 0
DWIDTH 11 0
BBX 8 3 1 4
BITMAP
60
99
06
ENDCHAR
STARTCHAR nobreakspace
ENCODING 160
SWIDTH 586 0
DWIDTH 11 0
BBX 1 1 0 0
BITMAP
00
ENDCHAR
STARTCHAR exclamdown
ENCODING 161
SWIDTH 586 0
DWIDTH 11 0
BBX 2 13 4 -4
BITMAP
c0
c0
00
00
80
80
c0
c0
c0
c0
c0
c0
c0
ENDCHAR
STARTCHAR cent
ENCODING 162
SWIDTH 586 0
DWIDTH 11 0
BBX 6 12 2 0
BITMAP
10
10
10
3c
44
84
80
80
44
38
10
10
ENDCHAR
STARTCHAR sterling
ENCODING 163
SWIDTH 586 0
DWIDTH 11 0
BBX 8 11 1 0
BITMAP
1c
22
20
20
10
fc
10
20
21
41
7e
ENDCHAR
STARTCHAR currency
ENCODING 164
SWIDTH 586 0
DWIDTH 11 0
BBX 6 7 2 2
BITMAP
84
78
84
84
84
78
84
ENDCHAR
STARTCHAR yen
ENCODING 165
SWIDTH 586 0
DWIDTH 11 0
BBX 9 11 1 0
BITMAP
e380
4100
2200
2200
1400
1400
7f00
0800
7f00
0800
3e00
ENDCHAR
STARTCHAR brokenbar
ENCODING 166
SWIDTH 586 0
DWIDTH 11 0
BBX 1 15 5 -3
BITMAP
80
80
80
80
80
80
00
00
80
80
80
80
80
80
80
ENDCHAR
STARTCHAR section
ENCODING 167
SWIDTH 586 0
DWIDTH 11 0
BBX 7 13 2 -1
BITMAP
3e
42
42
40
70
8c
82
62
1c
04
84
84
f8
ENDCHAR
STARTCHAR diaeresis
ENCODING 168
SWIDTH 586 0
DWIDTH 11 0
BBX 5 1 3 10
BITMAP
d8
ENDCHAR
STARTCHAR copyright
ENCODING 169
SWIDTH 586 0
DWIDTH 11 0
BBX 10 11 0 0
BITMAP
1e00
6180
4e80
9240
a040
a040
a040
9240
4c80
6180
1e00
ENDCHAR
STARTCHAR ordfeminine
ENCODING 170
SWIDTH 586 0
DWIDTH 11 0
BBX 6 8 2 3
BITMAP
70
08
78
88
98
ec
00
fc
ENDCHAR
STARTCHAR guillemotleft
ENCODING 171
SWIDTH 586 0
DWIDTH 11 0
BBX 9 8 1 0
BITMAP
0880
3300
6600
cc00
cc00
6600
3300
0880
ENDCHAR
STARTCHAR notsign
ENCODING 172
SWIDTH 586 0
DWIDTH 11 0
BBX 9 4 1 3
BITMAP
ff80
0080
0080
0080
ENDCHAR
STARTCHAR hyphen
ENCODING 173
SWIDTH 586 0
DWIDTH 11 0
BBX 8 1 1 5
BITMAP
ff
ENDCHAR
STARTCHAR registered
ENCODING 174
SWIDTH 586 0
DWIDTH 11 0
BBX 11 11 0 0
BITMAP
1f00
60c0
5e40
9120
9120
9e20
9420
9220
51c0
6080
1f00
ENDCHAR
STARTCHAR macron
ENCODING 175
SWIDTH 586 0
DWIDTH 11 0
BBX 5 1 3 9
BITMAP
f8
ENDCHAR
STARTCHAR degree
ENCODING 176
SWIDTH 586 0
DWIDTH 11 0
BBX 5 5 3 7
BITMAP
70
88
88
88
70
ENDCHAR
STARTCHAR plusminus
ENCODING 177
SWIDTH 586 0
DWIDTH 11 0
BBX 9 9 1 1
BITMAP
0800
0800
0800
ff80
0800
0800
0800
0000
ff80
ENDCHAR
STARTCHAR twosuperior
ENCODING 178
SWIDTH 586 0
DWIDTH 11 0
BBX 5 7 3 5
BITMAP
70
88
08
10
20
40
f8
ENDCHAR
STARTCHAR threesuperior
ENCODING 179
SWIDTH 586 0
DWIDTH 11 0
BBX 5 7 3 5
BITMAP
70
88
08
30
08
88
70
ENDCHAR
STARTCHAR acute
ENCODING 180
SWIDTH 586 0
DWIDTH 11 0
BBX 3 3 4 9
BITMAP
20
40
80
ENDCHAR
STARTCHAR mu
ENCODING 181
SWIDTH 586 0
DWIDTH 11 0
BBX 9 12 1 -4
BITMAP
c300
4100
4100
4100
4100
4100
4300
7d80
4000
4000
4000
4000
ENDCHAR
STARTCHAR paragraph
ENCODING 182
SWIDTH 586 0
DWIDTH 11 0
BBX 8 13 1 -1
BITMAP
3f
4a
8a
8a
8a
4a
3a
0a
0a
0a
0a
0a
3b
ENDCHAR
STARTCHAR periodcentered
ENCODING 183
SWIDTH 586 0
DWIDTH 11 0
BBX 2 2 4 5
BITMAP
c0
c0
ENDCHAR
STARTCHAR cedilla
ENCODING 184
SWIDTH 586 0
DWIDTH 11 0
BBX 3 3 4 -3
BITMAP
40
20
c0
ENDCHAR
STARTCHAR onesuperior
ENCODING 185
SWIDTH 586 0
DWIDTH 11 0
BBX 5 7 3 5
BITMAP
20
e0
20
20
20
20
f8
ENDCHAR
STARTCHAR masculine
ENCODING 186
SWIDTH 586 0
DWIDTH 11 0
BBX 6 8 2 3
BITMAP
78
84
84
84
84
78
00
fc
ENDCHAR
STARTCHAR guillemotright
ENCODING 187
SWIDTH 586 0
DWIDTH 11 0
BBX 9 8 1 0
BITMAP
8800
6600
3300
1980
1980
3300
6600
8800
ENDCHAR
STARTCHAR onequarter
ENCODING 188
SWIDTH 586 0
DWIDTH 11 0
BBX 11 13 0 0
BITMAP
2000
e000
2040
2080
2100
2100
fa40
04c0
0940
0a40
13e0
2040
00e0
ENDCHAR
STARTCHAR onehalf
ENCODING 189
SWIDTH 586 0
DWIDTH 11 0
BBX 11 13 0 0
BITMAP
2000
e000
2040
2080
2100
2100
fac0
0520
0920
0840
1080
2100
03e0
ENDCHAR
STARTCHAR threequarters
ENCODING 190
SWIDTH 586 0
DWIDTH 11 0
BBX 11 13 0 0
BITMAP
7000
8800
0840
3080
0900
8900
7240
04c0
0940
0a40
13e0
2040
00e0
ENDCHAR
STARTCHAR questiondown
ENCODING 191
SWIDTH 586 0
DWIDTH 11 0
BBX 6 12 2 -3
BITMAP
18
18
00
10
10
70
80
80
84
84
84
78
ENDCHAR
STARTCHAR Agrave
ENCODING 192
SWIDTH 586 0
DWIDTH 11 0
BBX 11 15 0 0
BITMAP
1000
0800
0400
0000
3c00
0400
0a00
0a00
1100
1100
2080
3f80
4040
4040
f1e0
ENDCHAR
STARTCHAR Aacute
ENCODING 193
SWIDTH 586 0
DWIDTH 11 0
BBX 11 15 0 0
BITMAP
0200
0400
0800
0000
3c00
0400
0a00
0a00
1100
1100
2080
3f80
4040
4040
f1e0
ENDCHAR
STARTCHAR Acircumflex
ENCODING 194
SWIDTH 586 0
DWIDTH 11 0
BBX 11 15 0 0
BITMAP
0400
0a00
1100
0000
3c00
0400
0a00
0a00
1100
1100
2080
3f80
4040
4040
f1e0
ENDCHAR
STARTCHAR Atilde
ENCODING 195
SWIDTH 586 0
DWIDTH 11 0
BBX 11 14 0 0
BITMAP
1900
2600
0000
3c00
0400
0a00
0a00
1100
1100
2080
3f80
4040
4040
f1e0
ENDCHAR
STARTCHAR Adiaeresis
ENCODING 196
SWIDTH 586 0
DWIDTH 11 0
BBX 11 14 0 0
BITMAP
1b00
0000
0000
3c00
0400
0a00
0a00
1100
1100
2080
3f80
4040
4040
f1e0
ENDCHAR
STARTCHAR Aring
ENCODING 197
SWIDTH 586 0
DWIDTH 11 0
BBX 11 15 0 0
BITMAP
0c00
1200
1200
0c00
7c00
0400
0a00
0a00
1100
1100
2080
3f80
4040
4040
f1e0
ENDCHAR
STARTCHAR AE
ENCODING 198
SWIDTH 586 0
DWIDTH 11 0
BBX 11 11 -1 0
BITMAP
1fe0
0620
0a20
0a00
1240
13c0
3e40
2200
4220
4220
e7e0
ENDCHAR
STARTCHAR Ccedilla
ENCODING 199
SWIDTH 586 0
DWIDTH 11 0
BBX 9 14 1 -3
BITMAP
1e80
6180
4080
8000
8000
8000
8000
8000
4080
6100
1e00
0800
0400
1800
ENDCHAR
STARTCHAR Egrave
ENCODING 200
SWIDTH 586 0
DWIDTH 11 0
BBX 8 15 1 0
BITMAP
20
10
08
00
ff
41
41
41
48
78
48
41
41
41
ff
ENDCHAR
STARTCHAR Eacute
ENCODING 201
SWIDTH 586 0
DWIDTH 11 0
BBX 8 15 1 0
BITMAP
04
08
10
00
ff
41
41
41
48
78
48
41
41
41
ff
ENDCHAR
STARTCHAR Ecircumflex
ENCODING 202
SWIDTH 586 0
DWIDTH 11 0
BBX 8 15 1 0
BITMAP
18
24
42
00
ff
41
41
41
48
78
48
41
41
41
ff
ENDCHAR
STARTCHAR Ediaeresis
ENCODING 203
SWIDTH 586 0
DWIDTH 11 0
BBX 8 14 1 0
BITMAP
66
00
00
ff
41
41
41
48
78
48
41
41
41
ff
ENDCHAR
STARTCHAR Igrave
ENCODING 204
SWIDTH 586 0
DWIDTH 11 0
BBX 7 15 2 0
BITMAP
20
10
08
00
fe
10
10
10
10
10
10
10
10
10
fe
ENDCHAR
STARTCHAR Iacute
ENCODING 205
SWIDTH 586 0
DWIDTH 11 0
BBX 7 15 2 0
BITMAP
08
10
20
00
fe
10
10
10
10
10
10
10
10
10
fe
ENDCHAR
STARTCHAR Icircumflex
ENCODING 206
SWIDTH 586 0
DWIDTH 11 0
BBX 7 15 2 0
BITMAP
10
28
44
00
fe
10
10
10
10
10
10
10
10
10
fe
ENDCHAR
STARTCHAR Idiaeresis
ENCODING 207
SWIDTH 586 0
DWIDTH 11 0
BBX 7 14 2 0
BITMAP
6c
00
00
fe
10
10
10
10
10
10
10
10
10
fe
ENDCHAR
STARTCHAR ETH
ENCODING 208
SWIDTH 586 0
DWIDTH 11 0
BBX 8 11 1 0
BITMAP
fc
42
41
41
41
f1
41
41
41
42
fc
ENDCHAR
STARTCHAR Ntilde
ENCODING 209
SWIDTH 586 0
DWIDTH 11 0
BBX 9 14 1 0
BITMAP
1900
2600
0000
e780
6100
5100
5100
4900
4900
4500
4500
4300
4300
f100
ENDCHAR
STARTCHAR Ograve
ENCODING 210
SWIDTH 586 0
DWIDTH 11 0
BBX 9 15 1 0
BITMAP
1000
0800
0400
0000
1c00
6300
4100
8080
8080
8080
8080
8080
4100
6300
1c00
ENDCHAR
STARTCHAR Oacute
ENCODING 211
SWIDTH 586 0
DWIDTH 11 0
BBX 9 15 1 0
BITMAP
0400
0800
1000
0000
1c00
6300
4100
8080
8080
8080
8080
8080
4100
6300
1c00
ENDCHAR
STARTCHAR Ocircumflex
ENCODING 212
SWIDTH 586 0
DWIDTH 11 0
BBX 9 15 1 0
BITMAP
0800
1400
2200
0000
1c00
6300
4100
8080
8080
8080
8080
8080
4100
6300
1c00
ENDCHAR
STARTCHAR Otilde
ENCODING 213
SWIDTH 586 0
DWIDTH 11 0
BBX 9 14 1 0
BITMAP
1900
2600
0000
1c00
6300
4100
8080
8080
8080
8080
8080
4100
6300
1c00
ENDCHAR
STARTCHAR Odiaeresis
ENCODING 214
SWIDTH 586 0
DWIDTH 11 0
BBX 9 14 1 0
BITMAP
3600
0000
0000
1c00
6300
4100
8080
8080
8080
8080
8080
4100
6300
1c00
ENDCHAR
STARTCHAR multiply
ENCODING 215
SWIDTH 586 0
DWIDTH 11 0
BBX 9 9 1 1
BITMAP
8080
4100
2200
1400
0800
1400
2200
4100
8080
ENDCHAR
STARTCHAR Ooblique
ENCODING 216
SWIDTH 586 0
DWIDTH 11 0
BBX 11 11 0 0
BITMAP
0e20
3140
2080
4140
4240
4440
4840
5040
2080
5180
8e00
ENDCHAR
STARTCHAR Ugrave
ENCODING 217
SWIDTH 586 0
DWIDTH 11 0
BBX 10 15 0 0
BITMAP
1000
0800
0400
0000
f3c0
4080
4080
4080
4080
4080
4080
4080
4080
2100
1e00
ENDCHAR
STARTCHAR Uacute
ENCODING 218
SWIDTH 586 0
DWIDTH 11 0
BBX 10 15 0 0
BITMAP
0200
0400
0800
0000
f3c0
4080
4080
4080
4080
4080
4080
4080
4080
2100
1e00
ENDCHAR
STARTCHAR Ucircumflex
ENCODING 219
SWIDTH 586 0
DWIDTH 11 0
BBX 10 15 0 0
BITMAP
0c00
1200
2100
0000
f3c0
4080
4080
4080
4080
4080
4080
4080
4080
2100
1e00
ENDCHAR
STARTCHAR Udiaeresis
ENCODING 220
SWIDTH 586 0
DWIDTH 11 0
BBX 10 14 0 0
BITMAP
3300
0000
0000
f3c0
4080
4080
4080
4080
4080
4080
4080
4080
2100
1e00
ENDCHAR
STARTCHAR Yacute
ENCODING 221
SWIDTH 586 0
DWIDTH 11 0
BBX 9 15 1 0
BITMAP
0200
0400
0800
0000
e380
4100
2200
2200
1400
1400
0800
0800
0800
0800
3e00
ENDCHAR
STARTCHAR THORN
ENCODING 222
SWIDTH 586 0
DWIDTH 11 0
BBX 9 11 1 0
BITMAP
e000
4000
7e00
4100
4080
4080
4100
7e00
4000
4000
e000
ENDCHAR
STARTCHAR ssharp
ENCODING 223
SWIDTH 586 0
DWIDTH 11 0
BBX 8 12 1 0
BITMAP
1c
22
42
42
44
4c
42
41
41
41
49
e6
ENDCHAR
STARTCHAR agrave
ENCODING 224
SWIDTH 586 0
DWIDTH 11 0
BBX 9 12 1 0
BITMAP
2000
1000
0800
0000
3c00
4200
0200
7e00
8200
8200
8600
7b80
ENDCHAR
STARTCHAR aacute
ENCODING 225
SWIDTH 586 0
DWIDTH 11 0
BBX 9 12 1 0
BITMAP
0400
0800
1000
0000
3c00
4200
0200
7e00
8200
8200
8600
7b80
ENDCHAR
STARTCHAR acircumflex
ENCODING 226
SWIDTH 586 0
DWIDTH 11 0
BBX 9 12 1 0
BITMAP
1800
2400
4200
0000
3c00
4200
0200
7e00
8200
8200
8600
7b80
ENDCHAR
STARTCHAR atilde
ENCODING 227
SWIDTH 586 0
DWIDTH 11 0
BBX 9 11 1 0
BITMAP
3200
4c00
0000
3c00
4200
0200
7e00
8200
8200
8600
7b80
ENDCHAR
STARTCHAR adiaeresis
ENCODING 228
SWIDTH 586 0
DWIDTH 11 0
BBX 9 11 1 0
BITMAP
3600
0000
0000
3c00
4200
0200
7e00
8200
8200
8600
7b80
ENDCHAR
STARTCHAR aring
ENCODING 229
SWIDTH 586 0
DWIDTH 11 0
BBX 9 13 1 0
BITMAP
1800
2400
2400
1800
0000
3c00
4200
0200
7e00
8200
8200
8600
7b80
ENDCHAR
STARTCHAR ae
ENCODING 230
SWIDTH 586 0
DWIDTH 11 0
BBX 11 8 0 0
BITMAP
7180
8a40
0420
7fe0
8400
8400
8a20
71c0
ENDCHAR
STARTCHAR ccedilla
ENCODING 231
SWIDTH 586 0
DWIDTH 11 0
BBX 8 11 1 -3
BITMAP
3d
43
81
80
80
80
43
3c
10
08
30
ENDCHAR
STARTCHAR egrave
ENCODING 232
SWIDTH 586 0
DWIDTH 11 0
BBX 8 12 1 0
BITMAP
20
10
08
00
3c
42
81
ff
80
80
43
3c
ENDCHAR
STARTCHAR eacute
ENCODING 233
SWIDTH 586 0
DWIDTH 11 0
BBX 8 12 1 0
BITMAP
04
08
10
00
3c
42
81
ff
80
80
43
3c
ENDCHAR
STARTCHAR ecircumflex
ENCODING 234
SWIDTH 586 0
DWIDTH 11 0
BBX 8 12 1 0
BITMAP
18
24
42
00
3c
42
81
ff
80
80
43
3c
ENDCHAR
STARTCHAR ediaeresis
ENCODING 235
SWIDTH 586 0
DWIDTH 11 0
BBX 8 11 1 0
BITMAP
66
00
00
3c
42
81
ff
80
80
43
3c
ENDCHAR
STARTCHAR igrave
ENCODING 236
SWIDTH 586 0
DWIDTH 11 0
BBX 7 12 2 0
BITMAP
40
20
10
00
70
10
10
10
10
10
10
fe
ENDCHAR
STARTCHAR iacute
ENCODING 237
SWIDTH 586 0
DWIDTH 11 0
BBX 7 12 2 0
BITMAP
08
10
20
00
70
10
10
10
10
10
10
fe
ENDCHAR
STARTCHAR icircumflex
ENCODING 238
SWIDTH 586 0
DWIDTH 11 0
BBX 7 12 2 0
BITMAP
10
28
44
00
70
10
10
10
10
10
10
fe
ENDCHAR
STARTCHAR idiaeresis
ENCODING 239
SWIDTH 586 0
DWIDTH 11 0
BBX 7 11 2 0
BITMAP
6c
00
00
70
10
10
10
10
10
10
fe
ENDCHAR
STARTCHAR eth
ENCODING 240
SWIDTH 586 0
DWIDTH 11 0
BBX 8 12 1 0
BITMAP
73
8c
34
42
02
3d
43
81
81
81
42
3c
ENDCHAR
STARTCHAR ntilde
ENCODING 241
SWIDTH 586 0
DWIDTH 11 0
BBX 9 11 1 0
BITMAP
1900
2600
0000
de00
6100
4100
4100
4100
4100
4100
e380
ENDCHAR
STARTCHAR ograve
ENCODING 242
SWIDTH 586 0
DWIDTH 11 0
BBX 8 12 1 0
BITMAP
20
10
08
00
3c
42
81
81
81
81
42
3c
ENDCHAR
STARTCHAR oacute
ENCODING 243
SWIDTH 586 0
DWIDTH 11 0
BBX 8 12 1 0
BITMAP
02
04
08
00
3c
42
81
81
81
81
42
3c
ENDCHAR
STARTCHAR ocircumflex
ENCODING 244
SWIDTH 586 0
DWIDTH 11 0
BBX 8 12 1 0
BITMAP
18
24
42
00
3c
42
81
81
81
81
42
3c
ENDCHAR
STARTCHAR otilde
ENCODING 245
SWIDTH 586 0
DWIDTH 11 0
BBX 8 11 1 0
BITMAP
32
4c
00
3c
42
81
81
81
81
42
3c
ENDCHAR
STARTCHAR odiaeresis
ENCODING 246
SWIDTH 586 0
DWIDTH 11 0
BBX 8 11 1 0
BITMAP
66
00
00
3c
42
81
81
81
81
42
3c
ENDCHAR
STARTCHAR division
ENCODING 247
SWIDTH 586 0
DWIDTH 11 0
BBX 8 9 1 1
BITMAP
18
18
00
00
ff
00
00
18
18
ENDCHAR
STARTCHAR oslash
ENCODING 248
SWIDTH 586 0
DWIDTH 11 0
BBX 8 8 1 0
BITMAP
3d
42
85
89
91
a1
42
bc
ENDCHAR
STARTCHAR ugrave
ENCODING 249
SWIDTH 586 0
DWIDTH 11 0
BBX 9 12 1 0
BITMAP
1000
0800
0400
0000
c300
4100
4100
4100
4100
4100
4300
3d80
ENDCHAR
STARTCHAR uacute
ENCODING 250
SWIDTH 586 0
DWIDTH 11 0
BBX 9 12 1 0
BITMAP
0400
0800
1000
0000
c300
4100
4100
4100
4100
4100
4300
3d80
ENDCHAR
STARTCHAR ucircumflex
ENCODING 251
SWIDTH 586 0
DWIDTH 11 0
BBX 9 12 1 0
BITMAP
0800
1400
2200
0000
c300
4100
4100
4100
4100
4100
4300
3d80
ENDCHAR
STARTCHAR udiaeresis
ENCODING 252
SWIDTH 586 0
DWIDTH 11 0
BBX 9 11 1 0
BITMAP
3600
0000
0000
c300
4100
4100
4100
4100
4100
4300
3d80
ENDCHAR
STARTCHAR yacute
ENCODING 253
SWIDTH 586 0
DWIDTH 11 0
BBX 9 16 1 -4
BITMAP
0200
0400
0800
0000
e380
4100
4100
2200
2200
1400
1400
0800
0800
1000
1000
f800
ENDCHAR
STARTCHAR thorn
ENCODING 254
SWIDTH 586 0
DWIDTH 11 0
BBX 9 16 1 -4
BITMAP
c000
4000
4000
4000
5e00
6100
4080
4080
4080
4080
6100
5e00
4000
4000
4000
f000
ENDCHAR
STARTCHAR ydiaeresis
ENCODING 255
SWIDTH 586 0
DWIDTH 11 0
BBX 9 15 1 -4
BITMAP
3600
0000
0000
e380
4100
4100
2200
2200
1400
1400
0800
0800
1000
1000
f800
ENDCHAR
ENDFONT
