STARTFONT 2.1
COMMENT  
COMMENT  Copyright (c) 1984, 1987 Adobe Systems Incorporated. All Rights Reserved. Copyright (c) 1988, 1991 Digital Equipment Corporation. All Rights Reserved.
COMMENT  
COMMENT  WARNING:  This bdf file was generated from a font server using
COMMENT  fstobdf.  The resulting font is subject to the same copyright,
COMMENT  license, and trademark restrictions as the original font.  The
COMMENT  authors and distributors of fstobdf disclaim all liability for
COMMENT  misuse of the program or its output.
COMMENT  
FONT -Adobe-Helvetica-Medium-R-Normal--14-100-100-100-P-76-ISO8859-1
SIZE 10 100 100
FONTBOUNDINGBOX 14 17 -1 -3
STARTPROPERTIES 32
FOUNDRY "Adobe"
FAMILY_NAME "Helvetica"
WEIGHT_NAME "Medium"
SLANT "R"
SETWIDTH_NAME "Normal"
ADD_STYLE_NAME ""
PIXEL_SIZE 14
POINT_SIZE 100
RESOLUTION_X 100
RESOLUTION_Y 100
SPACING "P"
AVERAGE_WIDTH 76
CHARSET_REGISTRY "ISO8859"
CHARSET_ENCODING "1"
CAP_HEIGHT 11
X_HEIGHT 8
FACE_NAME "Helvetica"
COPYRIGHT "Copyright (c) 1984, 1987 Adobe Systems Incorporated. All Rights Reserved. Copyright (c) 1988, 1991 Digital Equipment Corporation. All Rights Reserved."
NOTICE "Helvetica is a trademark of Linotype-Hell AG and/or its subsidiaries.  "
_DEC_DEVICE_FONTNAMES "PS=Helvetica"
_DEC_PRODUCTINFO "DECwindows Fonts V2.2, 07-Nov-1991"
RELATIVE_SETWIDTH 50
RELATIVE_WEIGHT 50
CHARSET_COLLECTIONS "ASCII ISO8859-1 ADOBE-STANDARD"
FULL_NAME "Helvetica"
FONT "-Adobe-Helvetica-Medium-R-Normal--14-100-100-100-P-76-ISO8859-1"
WEIGHT 10
RESOLUTION 138
QUAD_WIDTH 8
DEFAULT_CHAR 32
FONT_ASCENT 13
FONT_DESCENT 3
ENDPROPERTIES
CHARS 191
STARTCHAR space
ENCODING 32
SWIDTH 288 0
DWIDTH 4 0
BBX 1 1 0 0
BITMAP
00
ENDCHAR
STARTCHAR exclam
ENCODING 33
SWIDTH 288 0
DWIDTH 4 0
BBX 1 11 2 0
BITMAP
80
80
80
80
80
80
80
80
00
80
80
ENDCHAR
STARTCHAR quotedbl
ENCODING 34
SWIDTH 360 0
DWIDTH 5 0
BBX 3 3 1 8
BITMAP
a0
a0
a0
ENDCHAR
STARTCHAR numbersign
ENCODING 35
SWIDTH 576 0
DWIDTH 8 0
BBX 7 10 0 0
BITMAP
14
14
14
7e
28
28
fc
50
50
50
ENDCHAR
STARTCHAR dollar
ENCODING 36
SWIDTH 576 0
DWIDTH 8 0
BBX 7 14 0 -2
BITMAP
10
7c
92
92
90
50
38
14
12
92
92
7c
10
10
ENDCHAR
STARTCHAR percent
ENCODING 37
SWIDTH 864 0
DWIDTH 12 0
BBX 11 11 0 0
BITMAP
7080
8900
8900
7200
0200
0400
0800
09c0
1220
1220
21c0
ENDCHAR
STARTCHAR ampersand
ENCODING 38
SWIDTH 720 0
DWIDTH 10 0
BBX 8 10 1 0
BITMAP
30
48
48
30
20
52
8a
84
8a
71
ENDCHAR
STARTCHAR apostrophe
ENCODING 39
SWIDTH 216 0
DWIDTH 3 0
BBX 2 3 1 8
BITMAP
c0
40
80
ENDCHAR
STARTCHAR parenleft
ENCODING 40
SWIDTH 360 0
DWIDTH 5 0
BBX 3 14 1 -3
BITMAP
20
40
40
80
80
80
80
80
80
80
80
40
40
20
ENDCHAR
STARTCHAR parenright
ENCODING 41
SWIDTH 360 0
DWIDTH 5 0
BBX 3 14 1 -3
BITMAP
80
40
40
20
20
20
20
20
20
20
20
40
40
80
ENDCHAR
STARTCHAR asterisk
ENCODING 42
SWIDTH 504 0
DWIDTH 7 0
BBX 5 5 1 6
BITMAP
20
a8
70
a8
20
ENDCHAR
STARTCHAR plus
ENCODING 43
SWIDTH 648 0
DWIDTH 9 0
BBX 7 7 1 1
BITMAP
10
10
10
fe
10
10
10
ENDCHAR
STARTCHAR comma
ENCODING 44
SWIDTH 216 0
DWIDTH 3 0
BBX 2 4 0 -2
BITMAP
40
40
40
80
ENDCHAR
STARTCHAR minus
ENCODING 45
SWIDTH 648 0
DWIDTH 9 0
BBX 7 1 1 4
BITMAP
fe
ENDCHAR
STARTCHAR period
ENCODING 46
SWIDTH 216 0
DWIDTH 3 0
BBX 1 2 1 0
BITMAP
80
80
ENDCHAR
STARTCHAR slash
ENCODING 47
SWIDTH 288 0
DWIDTH 4 0
BBX 4 11 0 0
BITMAP
10
10
20
20
20
40
40
40
80
80
80
ENDCHAR
STARTCHAR 0
ENCODING 48
SWIDTH 576 0
DWIDTH 8 0
BBX 6 11 1 0
BITMAP
78
84
84
84
84
84
84
84
84
84
78
ENDCHAR
STARTCHAR 1
ENCODING 49
SWIDTH 576 0
DWIDTH 8 0
BBX 3 11 2 0
BITMAP
20
e0
20
20
20
20
20
20
20
20
20
ENDCHAR
STARTCHAR 2
ENCODING 50
SWIDTH 576 0
DWIDTH 8 0
BBX 6 11 1 0
BITMAP
78
84
84
04
08
10
20
40
80
80
fc
ENDCHAR
STARTCHAR 3
ENCODING 51
SWIDTH 576 0
DWIDTH 8 0
BBX 6 11 1 0
BITMAP
78
84
84
04
04
38
04
04
84
84
78
ENDCHAR
STARTCHAR 4
ENCODING 52
SWIDTH 576 0
DWIDTH 8 0
BBX 7 11 1 0
BITMAP
04
0c
14
24
44
84
84
fe
04
04
04
ENDCHAR
STARTCHAR 5
ENCODING 53
SWIDTH 576 0
DWIDTH 8 0
BBX 6 11 1 0
BITMAP
fc
80
80
80
f8
04
04
04
84
84
78
ENDCHAR
STARTCHAR 6
ENCODING 54
SWIDTH 576 0
DWIDTH 8 0
BBX 6 11 1 0
BITMAP
78
84
80
80
b8
c4
84
84
84
84
78
ENDCHAR
STARTCHAR 7
ENCODING 55
SWIDTH 576 0
DWIDTH 8 0
BBX 6 11 1 0
BITMAP
fc
04
08
08
10
10
20
20
40
40
40
ENDCHAR
STARTCHAR 8
ENCODING 56
SWIDTH 576 0
DWIDTH 8 0
BBX 6 11 1 0
BITMAP
78
84
84
84
84
78
84
84
84
84
78
ENDCHAR
STARTCHAR 9
ENCODING 57
SWIDTH 576 0
DWIDTH 8 0
BBX 6 11 1 0
BITMAP
78
84
84
84
84
7c
04
04
84
84
78
ENDCHAR
STARTCHAR colon
ENCODING 58
SWIDTH 216 0
DWIDTH 3 0
BBX 1 8 1 0
BITMAP
80
80
00
00
00
00
80
80
ENDCHAR
STARTCHAR semicolon
ENCODING 59
SWIDTH 288 0
DWIDTH 4 0
BBX 2 10 0 -2
BITMAP
40
40
00
00
00
00
40
40
40
80
ENDCHAR
STARTCHAR less
ENCODING 60
SWIDTH 576 0
DWIDTH 8 0
BBX 6 5 1 2
BITMAP
0c
30
c0
30
0c
ENDCHAR
STARTCHAR equal
ENCODING 61
SWIDTH 648 0
DWIDTH 9 0
BBX 6 3 1 3
BITMAP
fc
00
fc
ENDCHAR
STARTCHAR greater
ENCODING 62
SWIDTH 576 0
DWIDTH 8 0
BBX 6 5 1 2
BITMAP
c0
30
0c
30
c0
ENDCHAR
STARTCHAR question
ENCODING 63
SWIDTH 576 0
DWIDTH 8 0
BBX 6 11 1 0
BITMAP
30
cc
84
84
04
08
10
20
00
20
20
ENDCHAR
STARTCHAR at
ENCODING 64
SWIDTH 936 0
DWIDTH 13 0
BBX 11 12 1 -1
BITMAP
0f00
30c0
4020
46a0
8920
9120
9120
9340
8d80
4000
6080
1f00
ENDCHAR
STARTCHAR A
ENCODING 65
SWIDTH 648 0
DWIDTH 9 0
BBX 9 11 0 0
BITMAP
0800
1c00
1400
1400
2200
2200
4100
7f00
4100
8080
8080
ENDCHAR
STARTCHAR B
ENCODING 66
SWIDTH 648 0
DWIDTH 9 0
BBX 7 11 1 0
BITMAP
fc
86
82
82
84
f8
84
82
82
86
fc
ENDCHAR
STARTCHAR C
ENCODING 67
SWIDTH 720 0
DWIDTH 10 0
BBX 8 11 1 0
BITMAP
1c
63
41
80
80
80
80
80
41
63
1c
ENDCHAR
STARTCHAR D
ENCODING 68
SWIDTH 720 0
DWIDTH 10 0
BBX 8 11 1 0
BITMAP
f8
86
82
81
81
81
81
81
82
86
f8
ENDCHAR
STARTCHAR E
ENCODING 69
SWIDTH 648 0
DWIDTH 9 0
BBX 7 11 1 0
BITMAP
fe
80
80
80
80
fc
80
80
80
80
fe
ENDCHAR
STARTCHAR F
ENCODING 70
SWIDTH 576 0
DWIDTH 8 0
BBX 7 11 1 0
BITMAP
fe
80
80
80
80
fc
80
80
80
80
80
ENDCHAR
STARTCHAR G
ENCODING 71
SWIDTH 792 0
DWIDTH 11 0
BBX 9 11 1 0
BITMAP
1e00
6180
4080
8000
8000
8780
8080
8080
4080
6380
1c80
ENDCHAR
STARTCHAR H
ENCODING 72
SWIDTH 720 0
DWIDTH 10 0
BBX 8 11 1 0
BITMAP
81
81
81
81
81
ff
81
81
81
81
81
ENDCHAR
STARTCHAR I
ENCODING 73
SWIDTH 288 0
DWIDTH 4 0
BBX 1 11 2 0
BITMAP
80
80
80
80
80
80
80
80
80
80
80
ENDCHAR
STARTCHAR J
ENCODING 74
SWIDTH 504 0
DWIDTH 7 0
BBX 6 11 0 0
BITMAP
04
04
04
04
04
04
04
04
84
84
78
ENDCHAR
STARTCHAR K
ENCODING 75
SWIDTH 648 0
DWIDTH 9 0
BBX 8 11 1 0
BITMAP
82
84
88
90
a0
e0
90
88
84
82
81
ENDCHAR
STARTCHAR L
ENCODING 76
SWIDTH 576 0
DWIDTH 8 0
BBX 6 11 2 0
BITMAP
80
80
80
80
80
80
80
80
80
80
fc
ENDCHAR
STARTCHAR M
ENCODING 77
SWIDTH 864 0
DWIDTH 12 0
BBX 11 11 0 0
BITMAP
8020
c060
c060
a0a0
a0a0
9120
9120
8a20
8a20
8420
8420
ENDCHAR
STARTCHAR N
ENCODING 78
SWIDTH 720 0
DWIDTH 10 0
BBX 8 11 1 0
BITMAP
c1
a1
a1
91
91
89
89
85
85
83
83
ENDCHAR
STARTCHAR O
ENCODING 79
SWIDTH 792 0
DWIDTH 11 0
BBX 9 11 1 0
BITMAP
1c00
6300
4100
8080
8080
8080
8080
8080
4100
6300
1c00
ENDCHAR
STARTCHAR P
ENCODING 80
SWIDTH 648 0
DWIDTH 9 0
BBX 7 11 1 0
BITMAP
fc
86
82
82
86
fc
80
80
80
80
80
ENDCHAR
STARTCHAR Q
ENCODING 81
SWIDTH 792 0
DWIDTH 11 0
BBX 9 11 1 0
BITMAP
1c00
6300
4100
8080
8080
8080
8880
8480
4300
6300
1c80
ENDCHAR
STARTCHAR R
ENCODING 82
SWIDTH 720 0
DWIDTH 10 0
BBX 8 11 1 0
BITMAP
fe
83
81
81
82
fc
82
81
81
81
81
ENDCHAR
STARTCHAR S
ENCODING 83
SWIDTH 648 0
DWIDTH 9 0
BBX 7 11 1 0
BITMAP
38
c6
82
80
60
18
06
02
82
c6
38
ENDCHAR
STARTCHAR T
ENCODING 84
SWIDTH 648 0
DWIDTH 9 0
BBX 9 11 0 0
BITMAP
ff80
0800
0800
0800
0800
0800
0800
0800
0800
0800
0800
ENDCHAR
STARTCHAR U
ENCODING 85
SWIDTH 720 0
DWIDTH 10 0
BBX 8 11 1 0
BITMAP
81
81
81
81
81
81
81
81
81
42
3c
ENDCHAR
STARTCHAR V
ENCODING 86
SWIDTH 648 0
DWIDTH 9 0
BBX 9 11 0 0
BITMAP
8080
8080
4100
4100
6300
2200
2200
1400
1400
0800
0800
ENDCHAR
STARTCHAR W
ENCODING 87
SWIDTH 936 0
DWIDTH 13 0
BBX 13 11 0 0
BITMAP
8208
8208
8508
4510
4510
4510
28a0
28a0
28a0
1040
1040
ENDCHAR
STARTCHAR X
ENCODING 88
SWIDTH 648 0
DWIDTH 9 0
BBX 9 11 0 0
BITMAP
8080
4100
2200
1400
0800
0800
1400
2200
4100
4100
8080
ENDCHAR
STARTCHAR Y
ENCODING 89
SWIDTH 648 0
DWIDTH 9 0
BBX 9 11 0 0
BITMAP
8080
c180
4100
2200
2200
1400
1c00
0800
0800
0800
0800
ENDCHAR
STARTCHAR Z
ENCODING 90
SWIDTH 648 0
DWIDTH 9 0
BBX 7 11 1 0
BITMAP
fe
02
04
08
18
10
20
60
40
80
fe
ENDCHAR
STARTCHAR bracketleft
ENCODING 91
SWIDTH 288 0
DWIDTH 4 0
BBX 3 14 1 -3
BITMAP
e0
80
80
80
80
80
80
80
80
80
80
80
80
e0
ENDCHAR
STARTCHAR backslash
ENCODING 92
SWIDTH 288 0
DWIDTH 4 0
BBX 4 11 0 0
BITMAP
80
80
40
40
40
20
20
20
10
10
10
ENDCHAR
STARTCHAR bracketright
ENCODING 93
SWIDTH 288 0
DWIDTH 4 0
BBX 3 14 0 -3
BITMAP
e0
20
20
20
20
20
20
20
20
20
20
20
20
e0
ENDCHAR
STARTCHAR asciicircum
ENCODING 94
SWIDTH 504 0
DWIDTH 7 0
BBX 5 5 1 6
BITMAP
20
50
50
88
88
ENDCHAR
STARTCHAR underscore
ENCODING 95
SWIDTH 576 0
DWIDTH 8 0
BBX 8 1 0 -3
BITMAP
ff
ENDCHAR
STARTCHAR grave
ENCODING 96
SWIDTH 216 0
DWIDTH 3 0
BBX 2 3 0 8
BITMAP
40
80
c0
ENDCHAR
STARTCHAR a
ENCODING 97
SWIDTH 576 0
DWIDTH 8 0
BBX 7 8 1 0
BITMAP
78
cc
04
7c
c4
84
cc
76
ENDCHAR
STARTCHAR b
ENCODING 98
SWIDTH 504 0
DWIDTH 7 0
BBX 6 11 1 0
BITMAP
80
80
80
b8
cc
84
84
84
84
cc
b8
ENDCHAR
STARTCHAR c
ENCODING 99
SWIDTH 504 0
DWIDTH 7 0
BBX 6 8 1 0
BITMAP
78
cc
80
80
80
84
cc
78
ENDCHAR
STARTCHAR d
ENCODING 100
SWIDTH 576 0
DWIDTH 8 0
BBX 6 11 1 0
BITMAP
04
04
04
74
cc
84
84
84
84
cc
74
ENDCHAR
STARTCHAR e
ENCODING 101
SWIDTH 576 0
DWIDTH 8 0
BBX 6 8 1 0
BITMAP
78
cc
84
fc
80
80
cc
78
ENDCHAR
STARTCHAR f
ENCODING 102
SWIDTH 288 0
DWIDTH 4 0
BBX 4 11 0 0
BITMAP
30
40
40
e0
40
40
40
40
40
40
40
ENDCHAR
STARTCHAR g
ENCODING 103
SWIDTH 576 0
DWIDTH 8 0
BBX 6 11 1 -3
BITMAP
74
cc
84
84
84
84
cc
74
04
cc
78
ENDCHAR
STARTCHAR h
ENCODING 104
SWIDTH 576 0
DWIDTH 8 0
BBX 6 11 1 0
BITMAP
80
80
80
b8
cc
84
84
84
84
84
84
ENDCHAR
STARTCHAR i
ENCODING 105
SWIDTH 216 0
DWIDTH 3 0
BBX 1 11 1 0
BITMAP
80
80
00
80
80
80
80
80
80
80
80
ENDCHAR
STARTCHAR j
ENCODING 106
SWIDTH 216 0
DWIDTH 3 0
BBX 3 14 -1 -3
BITMAP
20
20
00
20
20
20
20
20
20
20
20
20
20
c0
ENDCHAR
STARTCHAR k
ENCODING 107
SWIDTH 504 0
DWIDTH 7 0
BBX 6 11 1 0
BITMAP
80
80
80
88
90
a0
c0
a0
90
88
84
ENDCHAR
STARTCHAR l
ENCODING 108
SWIDTH 216 0
DWIDTH 3 0
BBX 1 11 1 0
BITMAP
80
80
80
80
80
80
80
80
80
80
80
ENDCHAR
STARTCHAR m
ENCODING 109
SWIDTH 792 0
DWIDTH 11 0
BBX 9 8 1 0
BITMAP
b300
cc80
8880
8880
8880
8880
8880
8880
ENDCHAR
STARTCHAR n
ENCODING 110
SWIDTH 576 0
DWIDTH 8 0
BBX 6 8 1 0
BITMAP
b8
cc
84
84
84
84
84
84
ENDCHAR
STARTCHAR o
ENCODING 111
SWIDTH 576 0
DWIDTH 8 0
BBX 6 8 1 0
BITMAP
78
cc
84
84
84
84
cc
78
ENDCHAR
STARTCHAR p
ENCODING 112
SWIDTH 576 0
DWIDTH 8 0
BBX 6 11 1 -3
BITMAP
b8
cc
84
84
84
84
cc
b8
80
80
80
ENDCHAR
STARTCHAR q
ENCODING 113
SWIDTH 576 0
DWIDTH 8 0
BBX 6 11 1 -3
BITMAP
74
cc
84
84
84
84
cc
74
04
04
04
ENDCHAR
STARTCHAR r
ENCODING 114
SWIDTH 360 0
DWIDTH 5 0
BBX 4 8 1 0
BITMAP
b0
c0
80
80
80
80
80
80
ENDCHAR
STARTCHAR s
ENCODING 115
SWIDTH 504 0
DWIDTH 7 0
BBX 5 8 1 0
BITMAP
70
88
c0
70
18
08
88
70
ENDCHAR
STARTCHAR t
ENCODING 116
SWIDTH 288 0
DWIDTH 4 0
BBX 4 10 0 0
BITMAP
40
40
e0
40
40
40
40
40
40
30
ENDCHAR
STARTCHAR u
ENCODING 117
SWIDTH 504 0
DWIDTH 7 0
BBX 6 8 1 0
BITMAP
84
84
84
84
84
84
cc
74
ENDCHAR
STARTCHAR v
ENCODING 118
SWIDTH 504 0
DWIDTH 7 0
BBX 7 8 0 0
BITMAP
82
82
44
44
44
28
28
10
ENDCHAR
STARTCHAR w
ENCODING 119
SWIDTH 720 0
DWIDTH 10 0
BBX 9 8 0 0
BITMAP
8880
8880
8880
4900
4900
5500
2200
2200
ENDCHAR
STARTCHAR x
ENCODING 120
SWIDTH 504 0
DWIDTH 7 0
BBX 7 8 0 0
BITMAP
c6
44
28
10
10
28
44
c6
ENDCHAR
STARTCHAR y
ENCODING 121
SWIDTH 504 0
DWIDTH 7 0
BBX 7 11 0 -3
BITMAP
82
c2
44
44
24
28
18
10
10
30
60
ENDCHAR
STARTCHAR z
ENCODING 122
SWIDTH 504 0
DWIDTH 7 0
BBX 6 8 0 0
BITMAP
fc
04
08
10
20
40
80
fc
ENDCHAR
STARTCHAR braceleft
ENCODING 123
SWIDTH 360 0
DWIDTH 5 0
BBX 5 14 0 -3
BITMAP
18
20
20
20
20
40
80
40
20
20
20
20
20
18
ENDCHAR
STARTCHAR bar
ENCODING 124
SWIDTH 216 0
DWIDTH 3 0
BBX 1 14 1 -3
BITMAP
80
80
80
80
80
80
80
80
80
80
80
80
80
80
ENDCHAR
STARTCHAR braceright
ENCODING 125
SWIDTH 360 0
DWIDTH 5 0
BBX 5 14 0 -3
BITMAP
c0
20
20
20
20
10
08
10
20
20
20
20
20
c0
ENDCHAR
STARTCHAR asciitilde
ENCODING 126
SWIDTH 576 0
DWIDTH 8 0
BBX 6 3 1 3
BITMAP
64
b4
98
ENDCHAR
STARTCHAR nobreakspace
ENCODING 160
SWIDTH 288 0
DWIDTH 4 0
BBX 1 1 0 0
BITMAP
00
ENDCHAR
STARTCHAR exclamdown
ENCODING 161
SWIDTH 288 0
DWIDTH 4 0
BBX 1 11 1 -3
BITMAP
80
80
00
80
80
80
80
80
80
80
80
ENDCHAR
STARTCHAR cent
ENCODING 162
SWIDTH 576 0
DWIDTH 8 0
BBX 6 10 1 -1
BITMAP
04
78
cc
90
90
a0
a4
cc
78
80
ENDCHAR
STARTCHAR sterling
ENCODING 163
SWIDTH 576 0
DWIDTH 8 0
BBX 7 11 0 0
BITMAP
38
44
40
40
f8
20
20
20
40
62
dc
ENDCHAR
STARTCHAR currency
ENCODING 164
SWIDTH 576 0
DWIDTH 8 0
BBX 6 6 1 2
BITMAP
84
78
48
48
78
84
ENDCHAR
STARTCHAR yen
ENCODING 165
SWIDTH 504 0
DWIDTH 7 0
BBX 7 11 0 0
BITMAP
82
82
82
44
44
28
fe
10
fe
10
10
ENDCHAR
STARTCHAR brokenbar
ENCODING 166
SWIDTH 216 0
DWIDTH 3 0
BBX 1 14 1 -3
BITMAP
80
80
80
80
80
80
00
00
80
80
80
80
80
80
ENDCHAR
STARTCHAR section
ENCODING 167
SWIDTH 576 0
DWIDTH 8 0
BBX 5 14 2 -3
BITMAP
70
d8
88
c0
70
98
88
88
c8
70
18
88
d8
70
ENDCHAR
STARTCHAR diaeresis
ENCODING 168
SWIDTH 360 0
DWIDTH 5 0
BBX 5 1 0 9
BITMAP
d8
ENDCHAR
STARTCHAR copyright
ENCODING 169
SWIDTH 864 0
DWIDTH 12 0
BBX 10 11 1 0
BITMAP
1e00
6180
5c80
a2c0
a240
a040
a240
9c40
4080
6180
1e00
ENDCHAR
STARTCHAR ordfeminine
ENCODING 170
SWIDTH 432 0
DWIDTH 6 0
BBX 4 7 1 4
BITMAP
e0
10
70
90
d0
00
f0
ENDCHAR
STARTCHAR guillemotleft
ENCODING 171
SWIDTH 576 0
DWIDTH 8 0
BBX 6 5 1 2
BITMAP
24
48
90
48
24
ENDCHAR
STARTCHAR notsign
ENCODING 172
SWIDTH 648 0
DWIDTH 9 0
BBX 7 4 1 2
BITMAP
fe
02
02
02
ENDCHAR
STARTCHAR hyphen
ENCODING 173
SWIDTH 288 0
DWIDTH 4 0
BBX 3 1 0 4
BITMAP
e0
ENDCHAR
STARTCHAR registered
ENCODING 174
SWIDTH 864 0
DWIDTH 12 0
BBX 10 11 1 0
BITMAP
1e00
6180
5c80
9240
9240
9c40
9240
9240
4080
6180
1e00
ENDCHAR
STARTCHAR macron
ENCODING 175
SWIDTH 288 0
DWIDTH 4 0
BBX 4 1 0 9
BITMAP
f0
ENDCHAR
STARTCHAR degree
ENCODING 176
SWIDTH 432 0
DWIDTH 6 0
BBX 4 4 1 7
BITMAP
60
90
90
60
ENDCHAR
STARTCHAR plusminus
ENCODING 177
SWIDTH 648 0
DWIDTH 9 0
BBX 7 9 1 0
BITMAP
10
10
10
fe
10
10
10
00
fe
ENDCHAR
STARTCHAR twosuperior
ENCODING 178
SWIDTH 360 0
DWIDTH 5 0
BBX 4 6 0 5
BITMAP
60
90
10
20
40
f0
ENDCHAR
STARTCHAR threesuperior
ENCODING 179
SWIDTH 360 0
DWIDTH 5 0
BBX 4 6 0 5
BITMAP
60
90
20
10
90
60
ENDCHAR
STARTCHAR acute
ENCODING 180
SWIDTH 360 0
DWIDTH 5 0
BBX 2 2 2 9
BITMAP
40
80
ENDCHAR
STARTCHAR mu
ENCODING 181
SWIDTH 576 0
DWIDTH 8 0
BBX 6 11 1 -3
BITMAP
84
84
84
84
84
84
cc
b4
80
80
80
ENDCHAR
STARTCHAR paragraph
ENCODING 182
SWIDTH 576 0
DWIDTH 8 0
BBX 7 14 0 -3
BITMAP
3e
74
f4
f4
f4
74
34
14
14
14
14
14
14
14
ENDCHAR
STARTCHAR periodcentered
ENCODING 183
SWIDTH 288 0
DWIDTH 4 0
BBX 2 1 1 4
BITMAP
c0
ENDCHAR
STARTCHAR cedilla
ENCODING 184
SWIDTH 360 0
DWIDTH 5 0
BBX 4 3 0 -3
BITMAP
20
90
60
ENDCHAR
STARTCHAR onesuperior
ENCODING 185
SWIDTH 360 0
DWIDTH 5 0
BBX 2 6 1 5
BITMAP
40
c0
40
40
40
40
ENDCHAR
STARTCHAR masculine
ENCODING 186
SWIDTH 432 0
DWIDTH 6 0
BBX 4 7 1 4
BITMAP
60
90
90
90
60
00
f0
ENDCHAR
STARTCHAR guillemotright
ENCODING 187
SWIDTH 576 0
DWIDTH 8 0
BBX 6 5 1 2
BITMAP
90
48
24
48
90
ENDCHAR
STARTCHAR onequarter
ENCODING 188
SWIDTH 864 0
DWIDTH 12 0
BBX 10 11 1 0
BITMAP
4200
c200
4400
4400
4800
4880
0980
1280
1480
27c0
2080
ENDCHAR
STARTCHAR onehalf
ENCODING 189
SWIDTH 864 0
DWIDTH 12 0
BBX 9 11 1 0
BITMAP
4200
c200
4400
4400
4800
4b00
1480
1080
1100
2200
2780
ENDCHAR
STARTCHAR threequarters
ENCODING 190
SWIDTH 864 0
DWIDTH 12 0
BBX 11 11 0 0
BITMAP
6100
9100
2200
1200
9400
6440
04c0
0940
0a40
13e0
1040
ENDCHAR
STARTCHAR questiondown
ENCODING 191
SWIDTH 576 0
DWIDTH 8 0
BBX 6 11 1 -3
BITMAP
10
10
00
10
20
40
80
84
84
cc
30
ENDCHAR
STARTCHAR Agrave
ENCODING 192
SWIDTH 648 0
DWIDTH 9 0
BBX 9 14 0 0
BITMAP
1000
0800
0000
0800
1c00
1400
1400
2200
2200
4100
7f00
4100
8080
8080
ENDCHAR
STARTCHAR Aacute
ENCODING 193
SWIDTH 648 0
DWIDTH 9 0
BBX 9 14 0 0
BITMAP
0400
0800
0000
0800
1c00
1400
1400
2200
2200
4100
7f00
4100
8080
8080
ENDCHAR
STARTCHAR Acircumflex
ENCODING 194
SWIDTH 648 0
DWIDTH 9 0
BBX 9 14 0 0
BITMAP
0c00
1200
0000
0800
1c00
1400
1400
2200
2200
4100
7f00
4100
8080
8080
ENDCHAR
STARTCHAR Atilde
ENCODING 195
SWIDTH 648 0
DWIDTH 9 0
BBX 9 14 0 0
BITMAP
1a00
2c00
0000
0800
1c00
1400
1400
2200
2200
4100
7f00
4100
8080
8080
ENDCHAR
STARTCHAR Adiaeresis
ENCODING 196
SWIDTH 648 0
DWIDTH 9 0
BBX 9 13 0 0
BITMAP
3600
0000
0800
1c00
1400
1400
2200
2200
4100
7f00
4100
8080
8080
ENDCHAR
STARTCHAR Aring
ENCODING 197
SWIDTH 648 0
DWIDTH 9 0
BBX 9 14 0 0
BITMAP
0c00
1200
1200
0c00
0c00
1400
1400
2200
2200
4100
7f00
4100
8080
8080
ENDCHAR
STARTCHAR AE
ENCODING 198
SWIDTH 1008 0
DWIDTH 14 0
BBX 12 11 1 0
BITMAP
1ff0
1200
1200
2200
2200
23f0
7e00
4200
4200
8200
83f0
ENDCHAR
STARTCHAR Ccedilla
ENCODING 199
SWIDTH 720 0
DWIDTH 10 0
BBX 8 14 1 -3
BITMAP
1c
63
41
80
80
80
80
80
41
63
1c
08
24
18
ENDCHAR
STARTCHAR Egrave
ENCODING 200
SWIDTH 648 0
DWIDTH 9 0
BBX 7 14 1 0
BITMAP
20
10
00
fe
80
80
80
80
fc
80
80
80
80
fe
ENDCHAR
STARTCHAR Eacute
ENCODING 201
SWIDTH 648 0
DWIDTH 9 0
BBX 7 14 1 0
BITMAP
08
10
00
fe
80
80
80
80
fc
80
80
80
80
fe
ENDCHAR
STARTCHAR Ecircumflex
ENCODING 202
SWIDTH 648 0
DWIDTH 9 0
BBX 7 14 1 0
BITMAP
18
24
00
fe
80
80
80
80
fc
80
80
80
80
fe
ENDCHAR
STARTCHAR Ediaeresis
ENCODING 203
SWIDTH 648 0
DWIDTH 9 0
BBX 7 13 1 0
BITMAP
6c
00
fe
80
80
80
80
fc
80
80
80
80
fe
ENDCHAR
STARTCHAR Igrave
ENCODING 204
SWIDTH 288 0
DWIDTH 4 0
BBX 2 14 1 0
BITMAP
80
40
00
40
40
40
40
40
40
40
40
40
40
40
ENDCHAR
STARTCHAR Iacute
ENCODING 205
SWIDTH 288 0
DWIDTH 4 0
BBX 2 14 2 0
BITMAP
40
80
00
80
80
80
80
80
80
80
80
80
80
80
ENDCHAR
STARTCHAR Icircumflex
ENCODING 206
SWIDTH 288 0
DWIDTH 4 0
BBX 4 14 1 0
BITMAP
60
90
00
40
40
40
40
40
40
40
40
40
40
40
ENDCHAR
STARTCHAR Idiaeresis
ENCODING 207
SWIDTH 288 0
DWIDTH 4 0
BBX 5 13 0 0
BITMAP
d8
00
20
20
20
20
20
20
20
20
20
20
20
ENDCHAR
STARTCHAR ETH
ENCODING 208
SWIDTH 720 0
DWIDTH 10 0
BBX 9 11 0 0
BITMAP
7c00
4300
4100
4080
4080
f080
4080
4080
4100
4300
7c00
ENDCHAR
STARTCHAR Ntilde
ENCODING 209
SWIDTH 720 0
DWIDTH 10 0
BBX 8 14 1 0
BITMAP
1a
2c
00
c1
a1
a1
91
91
89
89
85
85
83
83
ENDCHAR
STARTCHAR Ograve
ENCODING 210
SWIDTH 792 0
DWIDTH 11 0
BBX 9 14 1 0
BITMAP
1000
0800
0000
1c00
6300
4100
8080
8080
8080
8080
8080
4100
6300
1c00
ENDCHAR
STARTCHAR Oacute
ENCODING 211
SWIDTH 792 0
DWIDTH 11 0
BBX 9 14 1 0
BITMAP
0400
0800
0000
1c00
6300
4100
8080
8080
8080
8080
8080
4100
6300
1c00
ENDCHAR
STARTCHAR Ocircumflex
ENCODING 212
SWIDTH 792 0
DWIDTH 11 0
BBX 9 14 1 0
BITMAP
0c00
1200
0000
1c00
6300
4100
8080
8080
8080
8080
8080
4100
6300
1c00
ENDCHAR
STARTCHAR Otilde
ENCODING 213
SWIDTH 792 0
DWIDTH 11 0
BBX 9 14 1 0
BITMAP
1a00
2c00
0000
1c00
6300
4100
8080
8080
8080
8080
8080
4100
6300
1c00
ENDCHAR
STARTCHAR Odiaeresis
ENCODING 214
SWIDTH 792 0
DWIDTH 11 0
BBX 9 13 1 0
BITMAP
3300
0000
1c00
6300
4100
8080
8080
8080
8080
8080
4100
6300
1c00
ENDCHAR
STARTCHAR multiply
ENCODING 215
SWIDTH 648 0
DWIDTH 9 0
BBX 7 7 1 1
BITMAP
82
44
28
10
28
44
82
ENDCHAR
STARTCHAR Ooblique
ENCODING 216
SWIDTH 792 0
DWIDTH 11 0
BBX 11 11 0 0
BITMAP
0e20
31c0
2080
4140
4240
4440
4840
5040
2080
7180
8e00
ENDCHAR
STARTCHAR Ugrave
ENCODING 217
SWIDTH 720 0
DWIDTH 10 0
BBX 8 14 1 0
BITMAP
10
08
00
81
81
81
81
81
81
81
81
81
42
3c
ENDCHAR
STARTCHAR Uacute
ENCODING 218
SWIDTH 720 0
DWIDTH 10 0
BBX 8 14 1 0
BITMAP
04
08
00
81
81
81
81
81
81
81
81
81
42
3c
ENDCHAR
STARTCHAR Ucircumflex
ENCODING 219
SWIDTH 720 0
DWIDTH 10 0
BBX 8 14 1 0
BITMAP
18
24
00
81
81
81
81
81
81
81
81
81
42
3c
ENDCHAR
STARTCHAR Udiaeresis
ENCODING 220
SWIDTH 720 0
DWIDTH 10 0
BBX 8 13 1 0
BITMAP
66
00
81
81
81
81
81
81
81
81
81
42
3c
ENDCHAR
STARTCHAR Yacute
ENCODING 221
SWIDTH 648 0
DWIDTH 9 0
BBX 9 14 0 0
BITMAP
0400
0800
0000
8080
c180
4100
2200
2200
1400
1c00
0800
0800
0800
0800
ENDCHAR
STARTCHAR THORN
ENCODING 222
SWIDTH 648 0
DWIDTH 9 0
BBX 7 11 1 0
BITMAP
80
80
fc
86
82
82
86
fc
80
80
80
ENDCHAR
STARTCHAR ssharp
ENCODING 223
SWIDTH 504 0
DWIDTH 7 0
BBX 5 11 1 0
BITMAP
70
88
88
88
b0
90
88
88
88
88
b0
ENDCHAR
STARTCHAR agrave
ENCODING 224
SWIDTH 576 0
DWIDTH 8 0
BBX 7 11 1 0
BITMAP
20
10
00
78
cc
04
7c
c4
84
cc
76
ENDCHAR
STARTCHAR aacute
ENCODING 225
SWIDTH 576 0
DWIDTH 8 0
BBX 7 11 1 0
BITMAP
10
20
00
78
cc
04
7c
c4
84
cc
76
ENDCHAR
STARTCHAR acircumflex
ENCODING 226
SWIDTH 576 0
DWIDTH 8 0
BBX 7 11 1 0
BITMAP
30
48
00
78
cc
04
7c
c4
84
cc
76
ENDCHAR
STARTCHAR atilde
ENCODING 227
SWIDTH 576 0
DWIDTH 8 0
BBX 7 11 1 0
BITMAP
34
58
00
78
cc
04
7c
c4
84
cc
76
ENDCHAR
STARTCHAR adiaeresis
ENCODING 228
SWIDTH 576 0
DWIDTH 8 0
BBX 7 11 1 0
BITMAP
48
48
00
78
cc
04
7c
c4
84
cc
76
ENDCHAR
STARTCHAR aring
ENCODING 229
SWIDTH 576 0
DWIDTH 8 0
BBX 7 12 1 0
BITMAP
30
48
30
00
78
cc
04
7c
c4
84
cc
76
ENDCHAR
STARTCHAR ae
ENCODING 230
SWIDTH 936 0
DWIDTH 13 0
BBX 11 8 1 0
BITMAP
7bc0
c660
0420
7fe0
c400
8400
ce60
7bc0
ENDCHAR
STARTCHAR ccedilla
ENCODING 231
SWIDTH 576 0
DWIDTH 8 0
BBX 6 11 1 -3
BITMAP
78
cc
80
80
80
84
cc
78
10
48
30
ENDCHAR
STARTCHAR egrave
ENCODING 232
SWIDTH 576 0
DWIDTH 8 0
BBX 6 11 1 0
BITMAP
20
10
00
78
cc
84
fc
80
80
cc
78
ENDCHAR
STARTCHAR eacute
ENCODING 233
SWIDTH 576 0
DWIDTH 8 0
BBX 6 11 1 0
BITMAP
10
20
00
78
cc
84
fc
80
80
cc
78
ENDCHAR
STARTCHAR ecircumflex
ENCODING 234
SWIDTH 576 0
DWIDTH 8 0
BBX 6 11 1 0
BITMAP
30
48
00
78
cc
84
fc
80
80
cc
78
ENDCHAR
STARTCHAR ediaeresis
ENCODING 235
SWIDTH 576 0
DWIDTH 8 0
BBX 6 11 1 0
BITMAP
48
48
00
78
cc
84
fc
80
80
cc
78
ENDCHAR
STARTCHAR igrave
ENCODING 236
SWIDTH 216 0
DWIDTH 3 0
BBX 2 11 1 0
BITMAP
80
40
00
80
80
80
80
80
80
80
80
ENDCHAR
STARTCHAR iacute
ENCODING 237
SWIDTH 216 0
DWIDTH 3 0
BBX 2 11 1 0
BITMAP
40
80
00
80
80
80
80
80
80
80
80
ENDCHAR
STARTCHAR icircumflex
ENCODING 238
SWIDTH 216 0
DWIDTH 3 0
BBX 4 11 0 0
BITMAP
60
90
00
40
40
40
40
40
40
40
40
ENDCHAR
STARTCHAR idiaeresis
ENCODING 239
SWIDTH 216 0
DWIDTH 3 0
BBX 3 11 0 0
BITMAP
a0
a0
00
40
40
40
40
40
40
40
40
ENDCHAR
STARTCHAR eth
ENCODING 240
SWIDTH 576 0
DWIDTH 8 0
BBX 6 11 1 0
BITMAP
d8
70
90
78
cc
84
84
84
84
cc
78
ENDCHAR
STARTCHAR ntilde
ENCODING 241
SWIDTH 576 0
DWIDTH 8 0
BBX 6 11 1 0
BITMAP
68
b0
00
b8
cc
84
84
84
84
84
84
ENDCHAR
STARTCHAR ograve
ENCODING 242
SWIDTH 576 0
DWIDTH 8 0
BBX 6 11 1 0
BITMAP
20
10
00
78
cc
84
84
84
84
cc
78
ENDCHAR
STARTCHAR oacute
ENCODING 243
SWIDTH 576 0
DWIDTH 8 0
BBX 6 11 1 0
BITMAP
10
20
00
78
cc
84
84
84
84
cc
78
ENDCHAR
STARTCHAR ocircumflex
ENCODING 244
SWIDTH 576 0
DWIDTH 8 0
BBX 6 11 1 0
BITMAP
30
48
00
78
cc
84
84
84
84
cc
78
ENDCHAR
STARTCHAR otilde
ENCODING 245
SWIDTH 576 0
DWIDTH 8 0
BBX 6 11 1 0
BITMAP
68
b0
00
78
cc
84
84
84
84
cc
78
ENDCHAR
STARTCHAR odiaeresis
ENCODING 246
SWIDTH 576 0
DWIDTH 8 0
BBX 6 11 1 0
BITMAP
48
48
00
78
cc
84
84
84
84
cc
78
ENDCHAR
STARTCHAR division
ENCODING 247
SWIDTH 648 0
DWIDTH 9 0
BBX 7 7 1 1
BITMAP
10
10
00
fe
00
10
10
ENDCHAR
STARTCHAR oslash
ENCODING 248
SWIDTH 576 0
DWIDTH 8 0
BBX 8 8 0 0
BITMAP
3d
62
46
4a
52
62
46
bc
ENDCHAR
STARTCHAR ugrave
ENCODING 249
SWIDTH 576 0
DWIDTH 8 0
BBX 6 11 1 0
BITMAP
20
10
00
84
84
84
84
84
84
cc
74
ENDCHAR
STARTCHAR uacute
ENCODING 250
SWIDTH 576 0
DWIDTH 8 0
BBX 6 11 1 0
BITMAP
10
20
00
84
84
84
84
84
84
cc
74
ENDCHAR
STARTCHAR ucircumflex
ENCODING 251
SWIDTH 576 0
DWIDTH 8 0
BBX 6 11 1 0
BITMAP
30
48
00
84
84
84
84
84
84
cc
74
ENDCHAR
STARTCHAR udiaeresis
ENCODING 252
SWIDTH 576 0
DWIDTH 8 0
BBX 6 11 1 0
BITMAP
48
48
00
84
84
84
84
84
84
cc
74
ENDCHAR
STARTCHAR yacute
ENCODING 253
SWIDTH 504 0
DWIDTH 7 0
BBX 7 14 0 -3
BITMAP
08
10
00
82
c2
44
44
24
28
18
10
10
30
60
ENDCHAR
STARTCHAR thorn
ENCODING 254
SWIDTH 576 0
DWIDTH 8 0
BBX 6 14 1 -3
BITMAP
80
80
80
b8
cc
84
84
84
84
cc
b8
80
80
80
ENDCHAR
STARTCHAR ydiaeresis
ENCODING 255
SWIDTH 504 0
DWIDTH 7 0
BBX 7 14 0 -3
BITMAP
24
24
00
82
c2
44
44
24
28
18
10
10
30
60
ENDCHAR
ENDFONT
