STARTFONT 2.1
COMMENT  
COMMENT  Copyright (c) 1984, 1987 Adobe Systems Incorporated. All Rights Reserved. Copyright (c) 1988, 1991 Digital Equipment Corporation. All Rights Reserved.
COMMENT  
COMMENT  WARNING:  This bdf file was generated from a font server using
COMMENT  fstobdf.  The resulting font is subject to the same copyright,
COMMENT  license, and trademark restrictions as the original font.  The
COMMENT  authors and distributors of fstobdf disclaim all liability for
COMMENT  misuse of the program or its output.
COMMENT  
FONT -Adobe-Symbol-Medium-R-Normal--14-140-75-75-P-85-Adobe-FontSpecific
SIZE 14 75 75
FONTBOUNDINGBOX 16 20 -1 -6
STARTPROPERTIES 31
FOUNDRY "Adobe"
FAMILY_NAME "Symbol"
WEIGHT_NAME "Medium"
SLANT "R"
SETWIDTH_NAME "Normal"
ADD_STYLE_NAME ""
PIXEL_SIZE 14
POINT_SIZE 140
RESOLUTION_X 75
RESOLUTION_Y 75
SPACING "P"
AVERAGE_WIDTH 85
CHARSET_REGISTRY "Adobe"
CHARSET_ENCODING "FontSpecific"
CAP_HEIGHT 10
X_HEIGHT 7
FACE_NAME "Symbol"
COPYRIGHT "Copyright (c) 1984, 1987 Adobe Systems Incorporated. All Rights Reserved. Copyright (c) 1988, 1991 Digital Equipment Corporation. All Rights Reserved."
NOTICE "No mark"
_DEC_DEVICE_FONTNAMES "PS=Symbol"
_DEC_PRODUCTINFO "DECwindows Fonts V2.2-1, 18-Nov-1991"
RELATIVE_SETWIDTH 50
RELATIVE_WEIGHT 50
FULL_NAME "Symbol"
FONT "-Adobe-Symbol-Medium-R-Normal--14-140-75-75-P-85-Adobe-FontSpecific"
WEIGHT 10
RESOLUTION 103
QUAD_WIDTH 9
DEFAULT_CHAR 32
FONT_ASCENT 12
FONT_DESCENT 3
ENDPROPERTIES
CHARS 188
STARTCHAR space
ENCODING 32
SWIDTH 274 0
DWIDTH 4 0
BBX 1 1 1 0
BITMAP
00
ENDCHAR
STARTCHAR exclam
ENCODING 33
SWIDTH 342 0
DWIDTH 5 0
BBX 1 10 2 0
BITMAP
80
80
80
80
80
80
80
00
80
80
ENDCHAR
STARTCHAR quotedbl
ENCODING 34
SWIDTH 617 0
DWIDTH 9 0
BBX 9 10 0 0
BITMAP
8080
4100
4100
3e00
2200
2200
1400
1400
0800
0800
ENDCHAR
STARTCHAR numbersign
ENCODING 35
SWIDTH 480 0
DWIDTH 7 0
BBX 7 10 0 0
BITMAP
14
14
14
7e
28
28
fc
50
50
50
ENDCHAR
STARTCHAR dollar
ENCODING 36
SWIDTH 548 0
DWIDTH 8 0
BBX 6 10 1 0
BITMAP
fc
04
04
04
fc
04
04
04
04
fc
ENDCHAR
STARTCHAR percent
ENCODING 37
SWIDTH 822 0
DWIDTH 12 0
BBX 9 10 1 0
BITMAP
7980
9700
9200
9400
6c00
1b00
1480
2480
4480
c300
ENDCHAR
STARTCHAR ampersand
ENCODING 38
SWIDTH 754 0
DWIDTH 11 0
BBX 9 10 1 0
BITMAP
3000
4800
4800
7000
2700
7200
ca00
8400
ce80
7b00
ENDCHAR
STARTCHAR apostrophe
ENCODING 39
SWIDTH 411 0
DWIDTH 6 0
BBX 5 7 0 0
BITMAP
e0
10
08
78
08
10
e0
ENDCHAR
STARTCHAR parenleft
ENCODING 40
SWIDTH 342 0
DWIDTH 5 0
BBX 3 13 1 -3
BITMAP
20
40
40
80
80
80
80
80
80
80
40
40
20
ENDCHAR
STARTCHAR parenright
ENCODING 41
SWIDTH 342 0
DWIDTH 5 0
BBX 3 13 1 -3
BITMAP
80
40
40
20
20
20
20
20
20
20
40
40
80
ENDCHAR
STARTCHAR asterisk
ENCODING 42
SWIDTH 480 0
DWIDTH 7 0
BBX 5 6 1 2
BITMAP
20
a8
70
70
a8
20
ENDCHAR
STARTCHAR plus
ENCODING 43
SWIDTH 548 0
DWIDTH 8 0
BBX 7 7 0 0
BITMAP
10
10
10
fe
10
10
10
ENDCHAR
STARTCHAR comma
ENCODING 44
SWIDTH 205 0
DWIDTH 3 0
BBX 2 4 0 -2
BITMAP
40
40
40
80
ENDCHAR
STARTCHAR minus
ENCODING 45
SWIDTH 548 0
DWIDTH 8 0
BBX 7 1 0 3
BITMAP
fe
ENDCHAR
STARTCHAR period
ENCODING 46
SWIDTH 205 0
DWIDTH 3 0
BBX 1 2 1 0
BITMAP
80
80
ENDCHAR
STARTCHAR slash
ENCODING 47
SWIDTH 274 0
DWIDTH 4 0
BBX 4 10 0 0
BITMAP
10
10
20
20
20
40
40
40
80
80
ENDCHAR
STARTCHAR 0
ENCODING 48
SWIDTH 480 0
DWIDTH 7 0
BBX 6 10 0 0
BITMAP
78
cc
84
84
84
84
84
84
cc
78
ENDCHAR
STARTCHAR 1
ENCODING 49
SWIDTH 480 0
DWIDTH 7 0
BBX 5 10 1 0
BITMAP
20
e0
20
20
20
20
20
20
20
f8
ENDCHAR
STARTCHAR 2
ENCODING 50
SWIDTH 480 0
DWIDTH 7 0
BBX 6 10 0 0
BITMAP
70
d8
88
08
18
10
20
40
c4
fc
ENDCHAR
STARTCHAR 3
ENCODING 51
SWIDTH 480 0
DWIDTH 7 0
BBX 6 10 0 0
BITMAP
78
cc
84
0c
38
0c
04
04
cc
78
ENDCHAR
STARTCHAR 4
ENCODING 52
SWIDTH 480 0
DWIDTH 7 0
BBX 6 10 0 0
BITMAP
08
18
18
28
68
48
88
fc
08
08
ENDCHAR
STARTCHAR 5
ENCODING 53
SWIDTH 480 0
DWIDTH 7 0
BBX 5 10 1 0
BITMAP
78
40
80
e0
30
18
08
08
90
e0
ENDCHAR
STARTCHAR 6
ENCODING 54
SWIDTH 480 0
DWIDTH 7 0
BBX 6 10 0 0
BITMAP
1c
30
40
40
f8
8c
84
84
cc
78
ENDCHAR
STARTCHAR 7
ENCODING 55
SWIDTH 480 0
DWIDTH 7 0
BBX 6 10 1 0
BITMAP
fc
84
08
08
10
10
20
20
40
40
ENDCHAR
STARTCHAR 8
ENCODING 56
SWIDTH 480 0
DWIDTH 7 0
BBX 5 10 1 0
BITMAP
70
d8
88
88
70
88
88
88
d8
70
ENDCHAR
STARTCHAR 9
ENCODING 57
SWIDTH 480 0
DWIDTH 7 0
BBX 6 10 0 0
BITMAP
78
cc
84
84
c4
78
18
10
60
c0
ENDCHAR
STARTCHAR colon
ENCODING 58
SWIDTH 274 0
DWIDTH 4 0
BBX 1 7 2 0
BITMAP
80
80
00
00
00
80
80
ENDCHAR
STARTCHAR semicolon
ENCODING 59
SWIDTH 274 0
DWIDTH 4 0
BBX 2 9 1 -2
BITMAP
40
40
00
00
00
40
40
40
80
ENDCHAR
STARTCHAR less
ENCODING 60
SWIDTH 548 0
DWIDTH 8 0
BBX 7 7 1 0
BITMAP
02
0c
30
c0
30
0c
02
ENDCHAR
STARTCHAR equal
ENCODING 61
SWIDTH 548 0
DWIDTH 8 0
BBX 7 3 0 2
BITMAP
fe
00
fe
ENDCHAR
STARTCHAR greater
ENCODING 62
SWIDTH 548 0
DWIDTH 8 0
BBX 7 7 0 0
BITMAP
80
60
18
06
18
60
80
ENDCHAR
STARTCHAR question
ENCODING 63
SWIDTH 411 0
DWIDTH 6 0
BBX 5 10 0 0
BITMAP
70
88
88
08
10
20
20
00
20
20
ENDCHAR
STARTCHAR at
ENCODING 64
SWIDTH 548 0
DWIDTH 8 0
BBX 7 7 0 0
BITMAP
72
9c
00
fe
00
00
fe
ENDCHAR
STARTCHAR A
ENCODING 65
SWIDTH 754 0
DWIDTH 11 0
BBX 9 10 1 0
BITMAP
0800
1c00
1400
1400
2200
2200
3e00
6300
4100
e380
ENDCHAR
STARTCHAR B
ENCODING 66
SWIDTH 617 0
DWIDTH 9 0
BBX 7 10 1 0
BITMAP
fc
46
42
46
7c
46
42
42
46
fc
ENDCHAR
STARTCHAR C
ENCODING 67
SWIDTH 754 0
DWIDTH 11 0
BBX 9 10 1 0
BITMAP
e380
4100
2200
3600
1c00
1400
2200
6300
4100
e380
ENDCHAR
STARTCHAR D
ENCODING 68
SWIDTH 617 0
DWIDTH 9 0
BBX 7 10 1 0
BITMAP
10
10
28
28
28
44
44
44
82
fe
ENDCHAR
STARTCHAR E
ENCODING 69
SWIDTH 617 0
DWIDTH 9 0
BBX 7 10 1 0
BITMAP
fe
42
40
44
7c
44
40
42
42
fe
ENDCHAR
STARTCHAR F
ENCODING 70
SWIDTH 754 0
DWIDTH 11 0
BBX 9 10 1 0
BITMAP
1c00
0800
7f00
c980
8880
8880
c980
7f00
0800
1c00
ENDCHAR
STARTCHAR G
ENCODING 71
SWIDTH 617 0
DWIDTH 9 0
BBX 7 10 1 0
BITMAP
fe
42
40
40
40
40
40
40
40
e0
ENDCHAR
STARTCHAR H
ENCODING 72
SWIDTH 754 0
DWIDTH 11 0
BBX 9 10 1 0
BITMAP
e380
4100
4100
4100
7f00
4100
4100
4100
4100
e380
ENDCHAR
STARTCHAR I
ENCODING 73
SWIDTH 342 0
DWIDTH 5 0
BBX 3 10 1 0
BITMAP
e0
40
40
40
40
40
40
40
40
e0
ENDCHAR
STARTCHAR J
ENCODING 74
SWIDTH 617 0
DWIDTH 9 0
BBX 8 10 0 0
BITMAP
0c
0a
0a
66
a3
22
22
22
36
1c
ENDCHAR
STARTCHAR K
ENCODING 75
SWIDTH 685 0
DWIDTH 10 0
BBX 8 10 1 0
BITMAP
ee
44
48
50
70
50
48
44
42
e7
ENDCHAR
STARTCHAR L
ENCODING 76
SWIDTH 685 0
DWIDTH 10 0
BBX 9 10 0 0
BITMAP
0800
0800
1400
3600
2200
2200
6300
4100
4100
e380
ENDCHAR
STARTCHAR M
ENCODING 77
SWIDTH 891 0
DWIDTH 13 0
BBX 11 10 1 0
BITMAP
e0e0
60c0
5140
5140
5b40
4a40
4a40
4e40
4440
e4e0
ENDCHAR
STARTCHAR N
ENCODING 78
SWIDTH 754 0
DWIDTH 11 0
BBX 9 10 1 0
BITMAP
e380
6100
5100
5900
4900
4d00
4500
4700
4300
e100
ENDCHAR
STARTCHAR O
ENCODING 79
SWIDTH 685 0
DWIDTH 10 0
BBX 8 10 1 0
BITMAP
3c
66
42
81
81
81
81
42
66
3c
ENDCHAR
STARTCHAR P
ENCODING 80
SWIDTH 754 0
DWIDTH 11 0
BBX 9 10 1 0
BITMAP
ff80
4100
4100
4100
4100
4100
4100
4100
4100
e380
ENDCHAR
STARTCHAR Q
ENCODING 81
SWIDTH 685 0
DWIDTH 10 0
BBX 8 10 1 0
BITMAP
3c
66
42
a5
bd
a5
81
42
66
3c
ENDCHAR
STARTCHAR R
ENCODING 82
SWIDTH 548 0
DWIDTH 8 0
BBX 6 10 1 0
BITMAP
f8
4c
44
44
4c
78
40
40
40
e0
ENDCHAR
STARTCHAR S
ENCODING 83
SWIDTH 617 0
DWIDTH 9 0
BBX 8 10 1 0
BITMAP
fe
c2
60
30
18
10
20
40
c1
ff
ENDCHAR
STARTCHAR T
ENCODING 84
SWIDTH 617 0
DWIDTH 9 0
BBX 7 10 1 0
BITMAP
fe
92
92
10
10
10
10
10
10
38
ENDCHAR
STARTCHAR U
ENCODING 85
SWIDTH 617 0
DWIDTH 9 0
BBX 9 10 0 0
BITMAP
e380
4100
2200
2200
1400
0800
0800
0800
0800
1c00
ENDCHAR
STARTCHAR V
ENCODING 86
SWIDTH 480 0
DWIDTH 7 0
BBX 6 10 1 -3
BITMAP
38
c0
80
80
80
60
38
04
24
38
ENDCHAR
STARTCHAR W
ENCODING 87
SWIDTH 754 0
DWIDTH 11 0
BBX 10 10 0 0
BITMAP
0c00
3300
2100
4080
4080
4080
4080
2100
9240
f3c0
ENDCHAR
STARTCHAR X
ENCODING 88
SWIDTH 617 0
DWIDTH 9 0
BBX 9 10 0 0
BITMAP
7f00
4100
0000
2200
3e00
2200
0000
0000
8080
ff80
ENDCHAR
STARTCHAR Y
ENCODING 89
SWIDTH 754 0
DWIDTH 11 0
BBX 11 10 0 0
BITMAP
ce60
64c0
2480
2480
1f00
0400
0400
0400
0400
0e00
ENDCHAR
STARTCHAR Z
ENCODING 90
SWIDTH 617 0
DWIDTH 9 0
BBX 7 10 1 0
BITMAP
fe
82
04
08
10
10
20
40
82
fe
ENDCHAR
STARTCHAR bracketleft
ENCODING 91
SWIDTH 342 0
DWIDTH 5 0
BBX 3 13 1 -3
BITMAP
e0
80
80
80
80
80
80
80
80
80
80
80
e0
ENDCHAR
STARTCHAR backslash
ENCODING 92
SWIDTH 685 0
DWIDTH 10 0
BBX 8 7 1 0
BITMAP
18
18
00
00
00
c3
c3
ENDCHAR
STARTCHAR bracketright
ENCODING 93
SWIDTH 342 0
DWIDTH 5 0
BBX 3 13 1 -3
BITMAP
e0
20
20
20
20
20
20
20
20
20
20
20
e0
ENDCHAR
STARTCHAR asciicircum
ENCODING 94
SWIDTH 685 0
DWIDTH 10 0
BBX 9 10 0 0
BITMAP
0800
0800
0800
0800
0800
0800
0800
0800
0800
ff80
ENDCHAR
STARTCHAR underscore
ENCODING 95
SWIDTH 480 0
DWIDTH 7 0
BBX 7 1 0 -3
BITMAP
fe
ENDCHAR
STARTCHAR grave
ENCODING 96
SWIDTH 480 0
DWIDTH 7 0
BBX 8 1 0 13
BITMAP
ff
ENDCHAR
STARTCHAR a
ENCODING 97
SWIDTH 617 0
DWIDTH 9 0
BBX 8 7 1 0
BITMAP
76
d4
88
88
88
d5
66
ENDCHAR
STARTCHAR b
ENCODING 98
SWIDTH 548 0
DWIDTH 8 0
BBX 6 14 1 -3
BITMAP
78
cc
84
8c
98
8c
84
84
84
cc
b8
80
80
80
ENDCHAR
STARTCHAR c
ENCODING 99
SWIDTH 548 0
DWIDTH 8 0
BBX 8 10 0 -3
BITMAP
c3
a6
24
3c
18
38
28
64
45
c3
ENDCHAR
STARTCHAR d
ENCODING 100
SWIDTH 480 0
DWIDTH 7 0
BBX 5 11 1 0
BITMAP
70
98
80
40
70
98
88
88
88
d8
70
ENDCHAR
STARTCHAR e
ENCODING 101
SWIDTH 411 0
DWIDTH 6 0
BBX 5 7 1 0
BITMAP
78
c8
80
60
80
c8
70
ENDCHAR
STARTCHAR f
ENCODING 102
SWIDTH 617 0
DWIDTH 9 0
BBX 7 13 1 -3
BITMAP
10
10
10
38
54
92
92
92
54
38
10
10
10
ENDCHAR
STARTCHAR g
ENCODING 103
SWIDTH 411 0
DWIDTH 6 0
BBX 6 10 0 -3
BITMAP
c4
a4
24
28
28
18
18
10
30
30
ENDCHAR
STARTCHAR h
ENCODING 104
SWIDTH 548 0
DWIDTH 8 0
BBX 7 10 0 -3
BITMAP
6c
b2
22
22
22
22
22
02
02
02
ENDCHAR
STARTCHAR i
ENCODING 105
SWIDTH 342 0
DWIDTH 5 0
BBX 5 7 0 0
BITMAP
60
a0
20
20
20
28
30
ENDCHAR
STARTCHAR j
ENCODING 106
SWIDTH 617 0
DWIDTH 9 0
BBX 7 10 1 -3
BITMAP
18
54
d2
92
92
54
38
10
10
10
ENDCHAR
STARTCHAR k
ENCODING 107
SWIDTH 548 0
DWIDTH 8 0
BBX 7 7 0 0
BITMAP
46
ca
50
70
58
4c
46
ENDCHAR
STARTCHAR l
ENCODING 108
SWIDTH 548 0
DWIDTH 8 0
BBX 8 10 1 0
BITMAP
60
50
10
10
28
28
48
44
85
83
ENDCHAR
STARTCHAR m
ENCODING 109
SWIDTH 548 0
DWIDTH 8 0
BBX 7 9 1 -2
BITMAP
88
88
88
88
88
9a
f6
80
c0
ENDCHAR
STARTCHAR n
ENCODING 110
SWIDTH 548 0
DWIDTH 8 0
BBX 7 7 0 0
BITMAP
c6
42
22
22
14
14
08
ENDCHAR
STARTCHAR o
ENCODING 111
SWIDTH 548 0
DWIDTH 8 0
BBX 6 7 1 0
BITMAP
78
cc
84
84
84
cc
78
ENDCHAR
STARTCHAR p
ENCODING 112
SWIDTH 548 0
DWIDTH 8 0
BBX 8 7 0 0
BITMAP
7e
a4
24
24
24
25
66
ENDCHAR
STARTCHAR q
ENCODING 113
SWIDTH 480 0
DWIDTH 7 0
BBX 5 10 1 0
BITMAP
70
d8
88
88
f8
88
88
88
d8
70
ENDCHAR
STARTCHAR r
ENCODING 114
SWIDTH 548 0
DWIDTH 8 0
BBX 6 10 1 -3
BITMAP
78
cc
84
84
84
cc
b8
80
80
80
ENDCHAR
STARTCHAR s
ENCODING 115
SWIDTH 548 0
DWIDTH 8 0
BBX 7 7 1 0
BITMAP
7e
c8
84
84
84
cc
78
ENDCHAR
STARTCHAR t
ENCODING 116
SWIDTH 411 0
DWIDTH 6 0
BBX 5 7 0 0
BITMAP
78
a0
20
20
20
28
30
ENDCHAR
STARTCHAR u
ENCODING 117
SWIDTH 548 0
DWIDTH 8 0
BBX 7 7 0 0
BITMAP
64
a2
22
22
22
26
1c
ENDCHAR
STARTCHAR v
ENCODING 118
SWIDTH 754 0
DWIDTH 11 0
BBX 10 8 0 0
BITMAP
7fc0
a080
4440
4440
4440
4440
64c0
3b80
ENDCHAR
STARTCHAR w
ENCODING 119
SWIDTH 754 0
DWIDTH 11 0
BBX 9 7 1 0
BITMAP
6300
8880
8880
8880
8880
c980
7700
ENDCHAR
STARTCHAR x
ENCODING 120
SWIDTH 480 0
DWIDTH 7 0
BBX 6 15 1 -3
BITMAP
20
40
38
20
40
78
20
40
80
80
c0
78
04
24
38
ENDCHAR
STARTCHAR y
ENCODING 121
SWIDTH 617 0
DWIDTH 9 0
BBX 9 10 0 -3
BITMAP
8880
4900
4900
4900
6b00
3e00
0800
0800
0800
0800
ENDCHAR
STARTCHAR z
ENCODING 122
SWIDTH 480 0
DWIDTH 7 0
BBX 6 14 1 -3
BITMAP
20
44
3c
10
20
40
40
80
80
c0
78
04
24
38
ENDCHAR
STARTCHAR braceleft
ENCODING 123
SWIDTH 480 0
DWIDTH 7 0
BBX 5 13 1 -3
BITMAP
18
20
20
20
20
40
80
40
20
20
20
20
18
ENDCHAR
STARTCHAR bar
ENCODING 124
SWIDTH 205 0
DWIDTH 3 0
BBX 1 13 1 -3
BITMAP
80
80
80
80
80
80
80
80
80
80
80
80
80
ENDCHAR
STARTCHAR braceright
ENCODING 125
SWIDTH 480 0
DWIDTH 7 0
BBX 5 13 1 -3
BITMAP
c0
20
20
20
20
10
08
10
20
20
20
20
c0
ENDCHAR
STARTCHAR asciitilde
ENCODING 126
SWIDTH 548 0
DWIDTH 8 0
BBX 7 3 1 2
BITMAP
62
92
8c
ENDCHAR
STARTCHAR exclamdown
ENCODING 161
SWIDTH 617 0
DWIDTH 9 0
BBX 8 10 0 0
BITMAP
00
00
00
00
00
00
00
00
00
00
ENDCHAR
STARTCHAR cent
ENCODING 162
SWIDTH 274 0
DWIDTH 4 0
BBX 4 3 0 7
BITMAP
00
00
00
ENDCHAR
STARTCHAR sterling
ENCODING 163
SWIDTH 548 0
DWIDTH 8 0
BBX 7 9 0 0
BITMAP
00
00
00
00
00
00
00
00
00
ENDCHAR
STARTCHAR currency
ENCODING 164
SWIDTH 274 0
DWIDTH 4 0
BBX 5 10 -1 0
BITMAP
00
00
00
00
00
00
00
00
00
00
ENDCHAR
STARTCHAR yen
ENCODING 165
SWIDTH 685 0
DWIDTH 10 0
BBX 9 4 0 2
BITMAP
0000
c600
2b00
1000
ENDCHAR
STARTCHAR brokenbar
ENCODING 166
SWIDTH 480 0
DWIDTH 7 0
BBX 7 13 0 -3
BITMAP
10
10
10
38
30
60
80
02
0c
30
c0
30
0c
ENDCHAR
STARTCHAR section
ENCODING 167
SWIDTH 754 0
DWIDTH 11 0
BBX 9 8 1 -1
BITMAP
0200
fe00
0800
1000
2000
4080
8000
0080
ENDCHAR
STARTCHAR diaeresis
ENCODING 168
SWIDTH 754 0
DWIDTH 11 0
BBX 7 7 2 0
BITMAP
80
8c
80
76
00
06
0a
ENDCHAR
STARTCHAR copyright
ENCODING 169
SWIDTH 754 0
DWIDTH 11 0
BBX 7 7 2 0
BITMAP
08
08
3c
10
10
10
20
ENDCHAR
STARTCHAR ordfeminine
ENCODING 170
SWIDTH 754 0
DWIDTH 11 0
BBX 9 8 1 -1
BITMAP
2000
a080
1c00
1c00
1c00
eb80
ff80
eb80
ENDCHAR
STARTCHAR guillemotleft
ENCODING 171
SWIDTH 1028 0
DWIDTH 15 0
BBX 13 7 1 0
BITMAP
0800
0800
1038
7cf8
7c38
1068
fef8
ENDCHAR
STARTCHAR notsign
ENCODING 172
SWIDTH 960 0
DWIDTH 14 0
BBX 14 7 0 0
BITMAP
fe7c
3810
0800
1c00
3e00
7f00
ff80
ENDCHAR
STARTCHAR hyphen
ENCODING 173
SWIDTH 617 0
DWIDTH 9 0
BBX 7 20 1 -6
BITMAP
6a
00
08
00
08
00
10
40
20
20
40
10
fe
f8
40
10
20
20
10
40
ENDCHAR
STARTCHAR registered
ENCODING 174
SWIDTH 960 0
DWIDTH 14 0
BBX 14 7 0 0
BITMAP
1000
2000
4000
fffc
4000
2000
1000
ENDCHAR
STARTCHAR macron
ENCODING 175
SWIDTH 617 0
DWIDTH 9 0
BBX 7 17 1 -3
BITMAP
10
38
54
92
10
10
10
10
10
10
10
10
10
10
10
10
10
ENDCHAR
STARTCHAR degree
ENCODING 176
SWIDTH 411 0
DWIDTH 6 0
BBX 4 4 1 6
BITMAP
10
10
10
00
ENDCHAR
STARTCHAR plusminus
ENCODING 177
SWIDTH 548 0
DWIDTH 8 0
BBX 7 9 0 0
BITMAP
20
00
10
00
08
fe
fc
00
08
ENDCHAR
STARTCHAR twosuperior
ENCODING 178
SWIDTH 411 0
DWIDTH 6 0
BBX 7 3 -1 7
BITMAP
00
10
00
ENDCHAR
STARTCHAR threesuperior
ENCODING 179
SWIDTH 548 0
DWIDTH 8 0
BBX 7 9 0 0
BITMAP
20
10
10
10
10
10
10
10
10
ENDCHAR
STARTCHAR acute
ENCODING 180
SWIDTH 548 0
DWIDTH 8 0
BBX 7 7 0 0
BITMAP
10
10
10
10
10
92
54
ENDCHAR
STARTCHAR mu
ENCODING 181
SWIDTH 685 0
DWIDTH 10 0
BBX 8 4 0 2
BITMAP
38
10
60
90
ENDCHAR
STARTCHAR paragraph
ENCODING 182
SWIDTH 480 0
DWIDTH 7 0
BBX 6 11 0 0
BITMAP
90
60
10
10
10
fc
10
10
10
00
fc
ENDCHAR
STARTCHAR periodcentered
ENCODING 183
SWIDTH 480 0
DWIDTH 7 0
BBX 5 5 1 1
BITMAP
30
68
90
80
60
ENDCHAR
STARTCHAR cedilla
ENCODING 184
SWIDTH 548 0
DWIDTH 8 0
BBX 7 7 0 0
BITMAP
18
06
18
60
80
00
fe
ENDCHAR
STARTCHAR onesuperior
ENCODING 185
SWIDTH 548 0
DWIDTH 8 0
BBX 7 7 0 0
BITMAP
82
44
28
10
28
44
82
ENDCHAR
STARTCHAR masculine
ENCODING 186
SWIDTH 548 0
DWIDTH 8 0
BBX 7 5 0 1
BITMAP
76
88
88
76
70
ENDCHAR
STARTCHAR guillemotright
ENCODING 187
SWIDTH 548 0
DWIDTH 8 0
BBX 7 5 0 1
BITMAP
88
04
04
04
74
ENDCHAR
STARTCHAR onequarter
ENCODING 188
SWIDTH 891 0
DWIDTH 13 0
BBX 9 2 2 0
BITMAP
cc80
8480
ENDCHAR
STARTCHAR onehalf
ENCODING 189
SWIDTH 617 0
DWIDTH 9 0
BBX 1 20 4 -6
BITMAP
00
00
80
80
80
00
00
00
00
80
00
00
00
00
00
80
00
80
00
00
ENDCHAR
STARTCHAR threequarters
ENCODING 190
SWIDTH 1028 0
DWIDTH 15 0
BBX 15 1 0 3
BITMAP
fe00
ENDCHAR
STARTCHAR questiondown
ENCODING 191
SWIDTH 685 0
DWIDTH 10 0
BBX 8 9 0 0
BITMAP
fe
00
fe
72
9c
00
72
9c
88
ENDCHAR
STARTCHAR Agrave
ENCODING 192
SWIDTH 822 0
DWIDTH 12 0
BBX 8 10 2 0
BITMAP
80
88
80
80
80
80
80
80
80
80
ENDCHAR
STARTCHAR Aacute
ENCODING 193
SWIDTH 685 0
DWIDTH 10 0
BBX 8 12 1 -1
BITMAP
80
80
80
80
80
80
80
80
80
80
80
80
ENDCHAR
STARTCHAR Acircumflex
ENCODING 194
SWIDTH 822 0
DWIDTH 12 0
BBX 10 11 1 0
BITMAP
80c0
fe00
0100
0100
0140
ff40
88c0
6600
7480
8c40
63c0
ENDCHAR
STARTCHAR Atilde
ENCODING 195
SWIDTH 822 0
DWIDTH 12 0
BBX 9 12 1 -3
BITMAP
3f00
4200
2400
0300
6180
1a00
7300
9d80
8980
8b00
ce00
6a00
ENDCHAR
STARTCHAR Adiaeresis
ENCODING 196
SWIDTH 754 0
DWIDTH 11 0
BBX 9 9 1 0
BITMAP
2900
0900
0900
6900
b080
1000
2300
4580
8880
ENDCHAR
STARTCHAR Aring
ENCODING 197
SWIDTH 754 0
DWIDTH 11 0
BBX 9 9 1 0
BITMAP
9080
d480
6900
6b00
b600
9000
9000
6000
1c00
ENDCHAR
STARTCHAR AE
ENCODING 198
SWIDTH 822 0
DWIDTH 12 0
BBX 11 11 0 0
BITMAP
6300
6300
9480
8880
9480
6300
6300
1c00
1c00
6300
4900
ENDCHAR
STARTCHAR Ccedilla
ENCODING 199
SWIDTH 685 0
DWIDTH 10 0
BBX 10 7 0 0
BITMAP
8880
be80
8880
4900
6300
1c00
1f00
ENDCHAR
STARTCHAR Egrave
ENCODING 200
SWIDTH 685 0
DWIDTH 10 0
BBX 10 7 0 0
BITMAP
60c0
40c0
8100
8200
8400
8800
9000
ENDCHAR
STARTCHAR Eacute
ENCODING 201
SWIDTH 685 0
DWIDTH 10 0
BBX 9 7 0 0
BITMAP
6000
6080
9f00
1e00
6180
4080
8000
ENDCHAR
STARTCHAR Ecircumflex
ENCODING 202
SWIDTH 685 0
DWIDTH 10 0
BBX 9 9 1 -2
BITMAP
8000
8000
8000
8000
8000
8000
8000
4080
6180
ENDCHAR
STARTCHAR Ediaeresis
ENCODING 203
SWIDTH 685 0
DWIDTH 10 0
BBX 9 9 0 -1
BITMAP
1e00
fe00
0100
0080
0080
0080
0100
fe00
fe00
ENDCHAR
STARTCHAR Igrave
ENCODING 204
SWIDTH 685 0
DWIDTH 10 0
BBX 9 7 1 0
BITMAP
0100
0080
0080
0080
0100
fe00
0000
ENDCHAR
STARTCHAR Iacute
ENCODING 205
SWIDTH 685 0
DWIDTH 10 0
BBX 9 9 0 -2
BITMAP
ff80
0100
3f80
4200
8200
8400
8400
4800
3f80
ENDCHAR
STARTCHAR Icircumflex
ENCODING 206
SWIDTH 685 0
DWIDTH 10 0
BBX 7 7 1 0
BITMAP
10
00
3e
80
40
00
80
ENDCHAR
STARTCHAR Idiaeresis
ENCODING 207
SWIDTH 685 0
DWIDTH 10 0
BBX 7 9 0 -1
BITMAP
00
80
00
80
00
40
00
3e
80
ENDCHAR
STARTCHAR ETH
ENCODING 208
SWIDTH 754 0
DWIDTH 11 0
BBX 11 10 0 0
BITMAP
3f80
4000
8000
8000
8000
4000
3f80
0000
ff80
3e40
ENDCHAR
STARTCHAR Ntilde
ENCODING 209
SWIDTH 685 0
DWIDTH 10 0
BBX 9 11 0 0
BITMAP
8080
8000
3e00
3e00
9080
9000
3e00
0000
0080
0100
0200
ENDCHAR
STARTCHAR Ograve
ENCODING 210
SWIDTH 822 0
DWIDTH 12 0
BBX 10 10 1 0
BITMAP
0400
0800
1000
2000
4000
ffc0
ff80
8080
4100
4100
ENDCHAR
STARTCHAR Oacute
ENCODING 211
SWIDTH 822 0
DWIDTH 12 0
BBX 10 10 1 0
BITMAP
2200
2200
2200
1400
1400
0800
0800
1e00
2100
7c80
ENDCHAR
STARTCHAR Ocircumflex
ENCODING 212
SWIDTH 754 0
DWIDTH 11 0
BBX 11 6 0 4
BITMAP
9240
9240
9c40
9240
7980
2100
ENDCHAR
STARTCHAR Otilde
ENCODING 213
SWIDTH 822 0
DWIDTH 12 0
BBX 10 12 1 -1
BITMAP
1e00
1e00
2100
4e80
9240
9040
9040
9240
4c80
2100
1e00
fa80
ENDCHAR
STARTCHAR Odiaeresis
ENCODING 214
SWIDTH 548 0
DWIDTH 8 0
BBX 8 14 0 0
BITMAP
aa
80
26
c0
25
40
25
40
76
e0
ff
c0
40
80
ENDCHAR
STARTCHAR multiply
ENCODING 215
SWIDTH 274 0
DWIDTH 4 0
BBX 1 2 1 3
BITMAP
00
80
ENDCHAR
STARTCHAR Ooblique
ENCODING 216
SWIDTH 685 0
DWIDTH 10 0
BBX 9 5 0 0
BITMAP
4080
4080
4080
4080
4080
ENDCHAR
STARTCHAR Ugrave
ENCODING 217
SWIDTH 617 0
DWIDTH 9 0
BBX 8 7 0 0
BITMAP
40
80
40
80
40
80
e1
ENDCHAR
STARTCHAR Uacute
ENCODING 218
SWIDTH 617 0
DWIDTH 9 0
BBX 8 7 0 0
BITMAP
c0
01
01
01
02
02
02
ENDCHAR
STARTCHAR Ucircumflex
ENCODING 219
SWIDTH 1028 0
DWIDTH 15 0
BBX 13 7 1 0
BITMAP
0260
a420
1410
0808
8080
ff80
0080
ENDCHAR
STARTCHAR Udiaeresis
ENCODING 220
SWIDTH 960 0
DWIDTH 14 0
BBX 13 7 0 0
BITMAP
0080
0080
0080
1818
2420
4240
8180
ENDCHAR
STARTCHAR Yacute
ENCODING 221
SWIDTH 617 0
DWIDTH 9 0
BBX 7 13 1 0
BITMAP
42
42
24
24
18
18
10
40
20
20
7e
f0
c0
ENDCHAR
STARTCHAR THORN
ENCODING 222
SWIDTH 960 0
DWIDTH 14 0
BBX 13 7 1 0
BITMAP
1878
f020
2010
4010
0020
0078
f8c0
ENDCHAR
STARTCHAR ssharp
ENCODING 223
SWIDTH 617 0
DWIDTH 9 0
BBX 7 13 1 0
BITMAP
00
7e
f8
20
00
10
00
10
38
6c
aa
28
28
ENDCHAR
STARTCHAR agrave
ENCODING 224
SWIDTH 480 0
DWIDTH 7 0
BBX 7 11 0 0
BITMAP
28
28
28
28
28
28
28
00
40
00
20
ENDCHAR
STARTCHAR aacute
ENCODING 225
SWIDTH 342 0
DWIDTH 5 0
BBX 4 15 0 -4
BITMAP
f0
f0
00
10
f0
f0
00
20
00
40
20
20
20
20
20
ENDCHAR
STARTCHAR acircumflex
ENCODING 226
SWIDTH 822 0
DWIDTH 12 0
BBX 10 10 1 0
BITMAP
2800
2800
aa40
3800
1000
2840
4480
4440
2800
1000
ENDCHAR
STARTCHAR atilde
ENCODING 227
SWIDTH 822 0
DWIDTH 12 0
BBX 10 10 1 0
BITMAP
2000
4040
4080
8080
4040
4000
2000
1e00
2100
5c80
ENDCHAR
STARTCHAR adiaeresis
ENCODING 228
SWIDTH 754 0
DWIDTH 11 0
BBX 10 6 0 4
BITMAP
9240
9240
9c40
9240
5280
2100
ENDCHAR
STARTCHAR aring
ENCODING 229
SWIDTH 685 0
DWIDTH 10 0
BBX 9 12 0 -1
BITMAP
1e00
1e00
2100
4c80
9200
9000
9000
9200
4c80
2100
1e00
fa80
ENDCHAR
STARTCHAR ae
ENCODING 230
SWIDTH 411 0
DWIDTH 6 0
BBX 4 20 1 -6
BITMAP
20
80
20
c0
20
40
20
40
20
40
f0
00
80
00
40
00
20
00
10
00
ENDCHAR
STARTCHAR ccedilla
ENCODING 231
SWIDTH 411 0
DWIDTH 6 0
BBX 1 20 1 -6
BITMAP
00
00
00
00
00
00
00
00
00
00
80
80
80
80
00
00
00
00
80
80
ENDCHAR
STARTCHAR egrave
ENCODING 232
SWIDTH 411 0
DWIDTH 6 0
BBX 4 20 1 -6
BITMAP
80
80
80
80
80
80
80
80
80
80
80
80
80
80
80
80
80
80
80
80
ENDCHAR
STARTCHAR eacute
ENCODING 233
SWIDTH 411 0
DWIDTH 6 0
BBX 4 20 1 -6
BITMAP
80
80
80
80
80
80
80
80
80
80
80
80
80
80
80
80
80
80
80
80
ENDCHAR
STARTCHAR ecircumflex
ENCODING 234
SWIDTH 411 0
DWIDTH 6 0
BBX 1 20 1 -6
BITMAP
80
80
80
80
80
80
80
80
80
80
00
00
00
00
80
80
80
80
80
80
ENDCHAR
STARTCHAR ediaeresis
ENCODING 235
SWIDTH 411 0
DWIDTH 6 0
BBX 4 17 1 -3
BITMAP
80
80
80
80
80
80
80
80
80
80
80
80
80
80
80
80
80
ENDCHAR
STARTCHAR igrave
ENCODING 236
SWIDTH 480 0
DWIDTH 7 0
BBX 4 20 3 -6
BITMAP
80
80
80
80
80
80
80
80
80
80
80
80
80
80
80
80
80
80
80
80
ENDCHAR
STARTCHAR iacute
ENCODING 237
SWIDTH 480 0
DWIDTH 7 0
BBX 3 20 1 -6
BITMAP
80
80
80
80
80
80
80
80
80
80
80
80
80
e0
20
40
80
80
80
80
ENDCHAR
STARTCHAR icircumflex
ENCODING 238
SWIDTH 480 0
DWIDTH 7 0
BBX 4 17 3 -3
BITMAP
80
80
80
80
80
80
80
80
80
80
80
80
80
80
20
20
20
ENDCHAR
STARTCHAR idiaeresis
ENCODING 239
SWIDTH 480 0
DWIDTH 7 0
BBX 1 20 3 -6
BITMAP
00
00
00
00
00
00
80
00
00
00
00
00
00
00
00
00
00
80
80
80
ENDCHAR
STARTCHAR ntilde
ENCODING 241
SWIDTH 342 0
DWIDTH 5 0
BBX 4 15 1 -4
BITMAP
80
80
80
80
80
80
80
80
80
80
80
80
40
30
80
ENDCHAR
STARTCHAR ograve
ENCODING 242
SWIDTH 274 0
DWIDTH 4 0
BBX 5 13 0 -1
BITMAP
80
80
80
80
80
80
80
80
80
80
80
80
80
ENDCHAR
STARTCHAR oacute
ENCODING 243
SWIDTH 685 0
DWIDTH 10 0
BBX 5 20 5 -6
BITMAP
80
80
80
80
80
80
00
80
40
40
20
20
20
10
10
10
20
20
20
40
ENDCHAR
STARTCHAR ocircumflex
ENCODING 244
SWIDTH 685 0
DWIDTH 10 0
BBX 1 20 1 -6
BITMAP
00
80
00
00
00
00
00
00
00
00
00
00
00
80
80
00
00
00
80
80
ENDCHAR
STARTCHAR otilde
ENCODING 245
SWIDTH 685 0
DWIDTH 10 0
BBX 5 17 1 -3
BITMAP
80
80
80
80
80
80
80
80
80
80
80
80
80
80
80
80
80
ENDCHAR
STARTCHAR odiaeresis
ENCODING 246
SWIDTH 411 0
DWIDTH 6 0
BBX 4 20 1 -6
BITMAP
80
80
80
80
80
80
80
80
80
80
80
80
80
80
80
80
80
80
00
00
ENDCHAR
STARTCHAR division
ENCODING 247
SWIDTH 411 0
DWIDTH 6 0
BBX 1 20 4 -6
BITMAP
00
00
00
00
00
00
00
00
00
00
00
00
00
80
80
80
00
00
00
00
ENDCHAR
STARTCHAR oslash
ENCODING 248
SWIDTH 411 0
DWIDTH 6 0
BBX 4 20 1 -6
BITMAP
10
10
10
10
10
10
10
10
10
10
10
10
10
10
10
80
80
80
80
80
ENDCHAR
STARTCHAR ugrave
ENCODING 249
SWIDTH 411 0
DWIDTH 6 0
BBX 4 20 1 -6
BITMAP
80
80
80
80
80
80
80
80
80
80
80
80
80
80
80
10
10
10
10
10
ENDCHAR
STARTCHAR uacute
ENCODING 250
SWIDTH 411 0
DWIDTH 6 0
BBX 1 20 4 -6
BITMAP
00
00
00
00
00
00
00
00
00
00
00
00
00
00
80
80
00
00
00
00
ENDCHAR
STARTCHAR ucircumflex
ENCODING 251
SWIDTH 411 0
DWIDTH 6 0
BBX 4 17 1 -3
BITMAP
10
10
10
10
10
10
10
10
10
10
10
10
10
10
10
80
80
ENDCHAR
STARTCHAR udiaeresis
ENCODING 252
SWIDTH 480 0
DWIDTH 7 0
BBX 4 20 0 -6
BITMAP
80
80
80
80
80
80
80
80
80
80
80
80
80
80
80
80
80
80
10
10
ENDCHAR
STARTCHAR yacute
ENCODING 253
SWIDTH 480 0
DWIDTH 7 0
BBX 3 20 3 -6
BITMAP
00
00
00
00
00
00
00
00
00
00
00
00
00
00
e0
c0
20
00
00
00
ENDCHAR
STARTCHAR thorn
ENCODING 254
SWIDTH 480 0
DWIDTH 7 0
BBX 4 17 0 -3
BITMAP
10
10
10
10
10
10
10
10
10
10
10
10
10
10
10
80
80
ENDCHAR
ENDFONT
