STARTFONT 2.1
COMMENT  
COMMENT  Copyright (c) 1984, 1987 Adobe Systems Incorporated. All Rights Reserved. Copyright (c) 1988, 1991 Digital Equipment Corporation. All Rights Reserved.
COMMENT  
COMMENT  WARNING:  This bdf file was generated from a font server using
COMMENT  fstobdf.  The resulting font is subject to the same copyright,
COMMENT  license, and trademark restrictions as the original font.  The
COMMENT  authors and distributors of fstobdf disclaim all liability for
COMMENT  misuse of the program or its output.
COMMENT  
FONT -Adobe-Symbol-Medium-R-Normal--18-180-75-75-P-107-Adobe-FontSpecific
SIZE 18 75 75
FONTBOUNDINGBOX 20 25 -1 -7
STARTPROPERTIES 31
FOUNDRY "Adobe"
FAMILY_NAME "Symbol"
WEIGHT_NAME "Medium"
SLANT "R"
SETWIDTH_NAME "Normal"
ADD_STYLE_NAME ""
PIXEL_SIZE 18
POINT_SIZE 180
RESOLUTION_X 75
RESOLUTION_Y 75
SPACING "P"
AVERAGE_WIDTH 107
CHARSET_REGISTRY "Adobe"
CHARSET_ENCODING "FontSpecific"
CAP_HEIGHT 13
X_HEIGHT 9
FACE_NAME "Symbol"
COPYRIGHT "Copyright (c) 1984, 1987 Adobe Systems Incorporated. All Rights Reserved. Copyright (c) 1988, 1991 Digital Equipment Corporation. All Rights Reserved."
NOTICE "No mark"
_DEC_DEVICE_FONTNAMES "PS=Symbol"
_DEC_PRODUCTINFO "DECwindows Fonts V2.2-1, 18-Nov-1991"
RELATIVE_SETWIDTH 50
RELATIVE_WEIGHT 50
FULL_NAME "Symbol"
FONT "-Adobe-Symbol-Medium-R-Normal--18-180-75-75-P-107-Adobe-FontSpecific"
WEIGHT 10
RESOLUTION 103
QUAD_WIDTH 11
DEFAULT_CHAR 32
FONT_ASCENT 16
FONT_DESCENT 4
ENDPROPERTIES
CHARS 188
STARTCHAR space
ENCODING 32
SWIDTH 266 0
DWIDTH 5 0
BBX 1 1 1 0
BITMAP
00
ENDCHAR
STARTCHAR exclam
ENCODING 33
SWIDTH 320 0
DWIDTH 6 0
BBX 2 13 2 0
BITMAP
c0
c0
c0
c0
c0
c0
c0
40
40
00
00
c0
c0
ENDCHAR
STARTCHAR quotedbl
ENCODING 34
SWIDTH 693 0
DWIDTH 13 0
BBX 13 13 0 0
BITMAP
c018
c018
6030
6030
3fe0
3060
18c0
18c0
0880
0d80
0500
0700
0200
ENDCHAR
STARTCHAR numbersign
ENCODING 35
SWIDTH 480 0
DWIDTH 9 0
BBX 10 13 -1 0
BITMAP
0900
0900
0900
0900
7fc0
1200
1200
1200
ff80
2400
2400
2400
2400
ENDCHAR
STARTCHAR dollar
ENCODING 36
SWIDTH 533 0
DWIDTH 10 0
BBX 8 13 1 0
BITMAP
ff
03
03
03
03
03
7f
03
03
03
03
03
ff
ENDCHAR
STARTCHAR percent
ENCODING 37
SWIDTH 800 0
DWIDTH 15 0
BBX 13 13 1 0
BITMAP
3860
67e0
c4c0
c580
e980
7300
0600
0670
0cc8
1988
1988
31d0
30e0
ENDCHAR
STARTCHAR ampersand
ENCODING 38
SWIDTH 693 0
DWIDTH 13 0
BBX 12 13 1 0
BITMAP
1c00
3600
2200
2600
3c00
39e0
7cc0
ee80
c780
c300
c390
67f0
3ce0
ENDCHAR
STARTCHAR apostrophe
ENCODING 39
SWIDTH 426 0
DWIDTH 8 0
BBX 6 9 1 0
BITMAP
f0
38
1c
0c
7c
0c
1c
38
f0
ENDCHAR
STARTCHAR parenleft
ENCODING 40
SWIDTH 320 0
DWIDTH 6 0
BBX 4 17 1 -4
BITMAP
10
30
60
60
c0
c0
c0
c0
c0
c0
c0
c0
c0
60
60
30
10
ENDCHAR
STARTCHAR parenright
ENCODING 41
SWIDTH 320 0
DWIDTH 6 0
BBX 4 17 1 -4
BITMAP
80
c0
60
60
30
30
30
30
30
30
30
30
30
60
60
c0
80
ENDCHAR
STARTCHAR asterisk
ENCODING 42
SWIDTH 480 0
DWIDTH 9 0
BBX 7 7 1 3
BITMAP
10
d6
7c
38
7c
d6
10
ENDCHAR
STARTCHAR plus
ENCODING 43
SWIDTH 533 0
DWIDTH 10 0
BBX 8 8 1 1
BITMAP
18
18
18
ff
ff
18
18
18
ENDCHAR
STARTCHAR comma
ENCODING 44
SWIDTH 266 0
DWIDTH 5 0
BBX 3 5 1 -3
BITMAP
60
60
20
60
c0
ENDCHAR
STARTCHAR minus
ENCODING 45
SWIDTH 480 0
DWIDTH 9 0
BBX 7 2 1 4
BITMAP
fe
fe
ENDCHAR
STARTCHAR period
ENCODING 46
SWIDTH 213 0
DWIDTH 4 0
BBX 2 2 1 0
BITMAP
c0
c0
ENDCHAR
STARTCHAR slash
ENCODING 47
SWIDTH 266 0
DWIDTH 5 0
BBX 5 13 0 0
BITMAP
18
18
18
30
30
30
60
60
60
60
c0
c0
c0
ENDCHAR
STARTCHAR 0
ENCODING 48
SWIDTH 480 0
DWIDTH 9 0
BBX 8 13 0 0
BITMAP
3c
66
66
c3
c3
c3
c3
c3
c3
c3
66
66
3c
ENDCHAR
STARTCHAR 1
ENCODING 49
SWIDTH 480 0
DWIDTH 9 0
BBX 6 13 1 0
BITMAP
10
30
f0
30
30
30
30
30
30
30
30
30
fc
ENDCHAR
STARTCHAR 2
ENCODING 50
SWIDTH 480 0
DWIDTH 9 0
BBX 7 13 1 0
BITMAP
3c
7e
ce
86
06
06
0c
18
30
60
c2
fe
fe
ENDCHAR
STARTCHAR 3
ENCODING 51
SWIDTH 480 0
DWIDTH 9 0
BBX 7 13 1 0
BITMAP
7c
ce
86
06
0c
38
1c
0e
06
06
06
cc
f8
ENDCHAR
STARTCHAR 4
ENCODING 52
SWIDTH 480 0
DWIDTH 9 0
BBX 8 13 0 0
BITMAP
06
0e
0e
1e
36
36
66
c6
c6
ff
06
06
06
ENDCHAR
STARTCHAR 5
ENCODING 53
SWIDTH 480 0
DWIDTH 9 0
BBX 7 13 1 0
BITMAP
7e
7c
c0
c0
f0
3c
0c
0e
06
06
0c
dc
f0
ENDCHAR
STARTCHAR 6
ENCODING 54
SWIDTH 480 0
DWIDTH 9 0
BBX 8 13 0 0
BITMAP
0e
38
30
60
60
fc
c6
c3
c3
c3
c3
66
3c
ENDCHAR
STARTCHAR 7
ENCODING 55
SWIDTH 480 0
DWIDTH 9 0
BBX 8 13 0 0
BITMAP
7f
ff
86
06
0c
0c
0c
18
18
18
30
30
30
ENDCHAR
STARTCHAR 8
ENCODING 56
SWIDTH 480 0
DWIDTH 9 0
BBX 8 13 0 0
BITMAP
3c
66
62
62
76
3c
3e
67
c3
c3
c3
66
3c
ENDCHAR
STARTCHAR 9
ENCODING 57
SWIDTH 480 0
DWIDTH 9 0
BBX 8 13 0 0
BITMAP
3c
6e
c7
c3
c3
c3
e3
7f
3a
06
0c
38
e0
ENDCHAR
STARTCHAR colon
ENCODING 58
SWIDTH 266 0
DWIDTH 5 0
BBX 2 9 2 0
BITMAP
c0
c0
00
00
00
00
00
c0
c0
ENDCHAR
STARTCHAR semicolon
ENCODING 59
SWIDTH 266 0
DWIDTH 5 0
BBX 3 12 1 -3
BITMAP
60
60
00
00
00
00
00
60
60
20
60
c0
ENDCHAR
STARTCHAR less
ENCODING 60
SWIDTH 533 0
DWIDTH 10 0
BBX 9 9 0 0
BITMAP
0380
0f00
3c00
f000
c000
f000
3c00
0f00
0380
ENDCHAR
STARTCHAR equal
ENCODING 61
SWIDTH 533 0
DWIDTH 10 0
BBX 8 6 1 2
BITMAP
ff
ff
00
00
ff
ff
ENDCHAR
STARTCHAR greater
ENCODING 62
SWIDTH 533 0
DWIDTH 10 0
BBX 9 9 0 0
BITMAP
e000
7800
1e00
0780
0180
0780
1e00
7800
e000
ENDCHAR
STARTCHAR question
ENCODING 63
SWIDTH 426 0
DWIDTH 8 0
BBX 6 13 1 0
BITMAP
78
dc
cc
cc
0c
0c
18
30
20
20
00
60
60
ENDCHAR
STARTCHAR at
ENCODING 64
SWIDTH 533 0
DWIDTH 10 0
BBX 8 9 1 0
BITMAP
73
ff
ce
00
ff
ff
00
ff
ff
ENDCHAR
STARTCHAR A
ENCODING 65
SWIDTH 746 0
DWIDTH 14 0
BBX 12 13 1 0
BITMAP
0400
0e00
0e00
0b00
1b00
1300
1180
3180
3fc0
20c0
60c0
60e0
f1f0
ENDCHAR
STARTCHAR B
ENCODING 66
SWIDTH 586 0
DWIDTH 11 0
BBX 9 13 1 0
BITMAP
fc00
6600
6300
6300
6300
6600
7e00
6300
6180
6180
6180
6380
ff00
ENDCHAR
STARTCHAR C
ENCODING 67
SWIDTH 746 0
DWIDTH 14 0
BBX 12 13 1 0
BITMAP
f070
7060
38c0
18c0
1d80
0f00
0600
0f00
1b80
3180
31c0
60e0
e0f0
ENDCHAR
STARTCHAR D
ENCODING 68
SWIDTH 586 0
DWIDTH 11 0
BBX 11 13 0 0
BITMAP
0400
0600
0e00
0b00
1300
1300
1180
2180
21c0
40c0
40c0
8060
ffe0
ENDCHAR
STARTCHAR E
ENCODING 69
SWIDTH 586 0
DWIDTH 11 0
BBX 9 13 1 0
BITMAP
ff80
6180
6080
6000
6000
6100
7f00
6100
6000
6000
6080
6180
ff80
ENDCHAR
STARTCHAR F
ENCODING 70
SWIDTH 746 0
DWIDTH 14 0
BBX 12 13 1 0
BITMAP
0f00
0600
1f80
6660
c630
c630
c630
c630
c630
6660
1f80
0600
0f00
ENDCHAR
STARTCHAR G
ENCODING 71
SWIDTH 586 0
DWIDTH 11 0
BBX 10 13 0 0
BITMAP
ffc0
70c0
3040
3000
3000
3000
3000
3000
3000
3000
3000
3000
7800
ENDCHAR
STARTCHAR H
ENCODING 72
SWIDTH 693 0
DWIDTH 13 0
BBX 11 13 1 0
BITMAP
f1e0
60c0
60c0
60c0
60c0
60c0
7fc0
60c0
60c0
60c0
60c0
60c0
f1e0
ENDCHAR
STARTCHAR I
ENCODING 73
SWIDTH 320 0
DWIDTH 6 0
BBX 4 13 1 0
BITMAP
f0
60
60
60
60
60
60
60
60
60
60
60
f0
ENDCHAR
STARTCHAR J
ENCODING 74
SWIDTH 640 0
DWIDTH 12 0
BBX 11 13 1 0
BITMAP
0600
0b00
0980
0580
6380
f180
b1c0
31a0
3180
3180
3180
3b00
1e00
ENDCHAR
STARTCHAR K
ENCODING 75
SWIDTH 746 0
DWIDTH 14 0
BBX 11 13 2 0
BITMAP
f3c0
6180
6300
6600
6c00
7800
7800
6c00
6600
6300
6380
61c0
f1e0
ENDCHAR
STARTCHAR L
ENCODING 76
SWIDTH 693 0
DWIDTH 13 0
BBX 12 13 0 0
BITMAP
0600
0600
0f00
0b00
0b00
1980
1180
1180
30c0
20c0
2060
6060
f0f0
ENDCHAR
STARTCHAR M
ENCODING 77
SWIDTH 853 0
DWIDTH 16 0
BBX 14 13 1 0
BITMAP
e01c
7038
7038
5878
5858
58d8
4c98
4c98
4d98
4718
4718
4318
e23c
ENDCHAR
STARTCHAR N
ENCODING 78
SWIDTH 693 0
DWIDTH 13 0
BBX 11 13 1 0
BITMAP
e0e0
7040
7040
5840
4c40
4c40
4640
4340
43c0
41c0
40c0
40c0
e040
ENDCHAR
STARTCHAR O
ENCODING 79
SWIDTH 693 0
DWIDTH 13 0
BBX 11 13 1 0
BITMAP
0e00
3180
60c0
e0e0
c060
c060
c060
c060
c060
e0e0
60c0
3180
0e00
ENDCHAR
STARTCHAR P
ENCODING 80
SWIDTH 693 0
DWIDTH 13 0
BBX 11 13 1 0
BITMAP
ffe0
60c0
60c0
60c0
60c0
60c0
60c0
60c0
60c0
60c0
60c0
60c0
f1e0
ENDCHAR
STARTCHAR Q
ENCODING 81
SWIDTH 693 0
DWIDTH 13 0
BBX 11 13 1 0
BITMAP
0e00
3180
60c0
e0e0
c060
d160
df60
d160
c060
e0e0
60c0
3180
0e00
ENDCHAR
STARTCHAR R
ENCODING 82
SWIDTH 533 0
DWIDTH 10 0
BBX 8 13 1 0
BITMAP
fe
67
63
63
63
67
7e
60
60
60
60
60
f0
ENDCHAR
STARTCHAR S
ENCODING 83
SWIDTH 586 0
DWIDTH 11 0
BBX 10 13 1 0
BITMAP
ff80
c180
6080
3000
1800
0c00
0c00
0800
1000
2040
40c0
ff80
ff80
ENDCHAR
STARTCHAR T
ENCODING 84
SWIDTH 640 0
DWIDTH 12 0
BBX 10 13 1 0
BITMAP
ffc0
ccc0
8c40
0c00
0c00
0c00
0c00
0c00
0c00
0c00
0c00
0c00
1e00
ENDCHAR
STARTCHAR U
ENCODING 85
SWIDTH 693 0
DWIDTH 13 0
BBX 12 13 0 0
BITMAP
f8f0
7060
30c0
18c0
1d80
0f00
0f00
0600
0600
0600
0600
0600
0f00
ENDCHAR
STARTCHAR V
ENCODING 86
SWIDTH 426 0
DWIDTH 8 0
BBX 6 13 1 -4
BITMAP
3c
7c
c0
80
80
80
c0
78
3c
04
04
3c
38
ENDCHAR
STARTCHAR W
ENCODING 87
SWIDTH 746 0
DWIDTH 14 0
BBX 13 13 0 0
BITMAP
0700
18c0
3060
7070
6030
6030
6030
6030
3060
18c0
8888
f8f8
f8f8
ENDCHAR
STARTCHAR X
ENCODING 88
SWIDTH 640 0
DWIDTH 12 0
BBX 10 13 1 0
BITMAP
7f80
7f80
4080
0000
2100
3f00
3f00
2100
0000
8040
8040
ffc0
ffc0
ENDCHAR
STARTCHAR Y
ENCODING 89
SWIDTH 800 0
DWIDTH 15 0
BBX 14 13 0 0
BITMAP
c78c
6318
6318
6318
6318
3330
1fe0
0300
0300
0300
0300
0300
0780
ENDCHAR
STARTCHAR Z
ENCODING 90
SWIDTH 586 0
DWIDTH 11 0
BBX 9 13 1 0
BITMAP
ff80
c380
8300
0700
0600
0e00
1c00
1800
3800
7000
6080
e180
ff80
ENDCHAR
STARTCHAR bracketleft
ENCODING 91
SWIDTH 320 0
DWIDTH 6 0
BBX 4 17 1 -4
BITMAP
f0
c0
c0
c0
c0
c0
c0
c0
c0
c0
c0
c0
c0
c0
c0
c0
f0
ENDCHAR
STARTCHAR backslash
ENCODING 92
SWIDTH 746 0
DWIDTH 14 0
BBX 10 9 2 0
BITMAP
0c00
0c00
0000
0000
0000
0000
0000
c0c0
c0c0
ENDCHAR
STARTCHAR bracketright
ENCODING 93
SWIDTH 320 0
DWIDTH 6 0
BBX 4 17 1 -4
BITMAP
f0
30
30
30
30
30
30
30
30
30
30
30
30
30
30
30
f0
ENDCHAR
STARTCHAR asciicircum
ENCODING 94
SWIDTH 640 0
DWIDTH 12 0
BBX 10 13 1 0
BITMAP
0c00
0c00
0c00
0c00
0c00
0c00
0c00
0c00
0c00
0c00
0c00
ffc0
ffc0
ENDCHAR
STARTCHAR underscore
ENCODING 95
SWIDTH 480 0
DWIDTH 9 0
BBX 9 2 0 -4
BITMAP
ff80
ff80
ENDCHAR
STARTCHAR grave
ENCODING 96
SWIDTH 480 0
DWIDTH 9 0
BBX 10 1 0 16
BITMAP
ffc0
ENDCHAR
STARTCHAR a
ENCODING 97
SWIDTH 640 0
DWIDTH 12 0
BBX 11 9 1 0
BITMAP
3cc0
6580
c300
c300
c300
c300
c300
6520
38c0
ENDCHAR
STARTCHAR b
ENCODING 98
SWIDTH 533 0
DWIDTH 10 0
BBX 8 18 1 -4
BITMAP
3c
46
c6
c6
c6
cc
c6
c3
c3
c3
c3
c3
e6
dc
c0
c0
c0
c0
ENDCHAR
STARTCHAR c
ENCODING 99
SWIDTH 533 0
DWIDTH 10 0
BBX 10 13 0 -4
BITMAP
60c0
f1c0
9180
1300
1700
0e00
0c00
1c00
1a00
3200
6240
e3c0
c180
ENDCHAR
STARTCHAR d
ENCODING 100
SWIDTH 480 0
DWIDTH 9 0
BBX 7 14 1 0
BITMAP
38
4c
40
60
30
38
6c
c6
c6
c6
c6
c6
6c
38
ENDCHAR
STARTCHAR e
ENCODING 101
SWIDTH 426 0
DWIDTH 8 0
BBX 6 9 1 0
BITMAP
78
ec
cc
c0
70
c0
c0
e4
78
ENDCHAR
STARTCHAR f
ENCODING 102
SWIDTH 586 0
DWIDTH 11 0
BBX 9 16 1 -4
BITMAP
0800
0800
0800
3e00
6b00
c980
c980
c980
c980
c980
6b00
3e00
0800
0800
0800
0800
ENDCHAR
STARTCHAR g
ENCODING 103
SWIDTH 426 0
DWIDTH 8 0
BBX 8 13 0 -4
BITMAP
c3
e3
a3
26
26
16
14
1c
0c
18
18
18
18
ENDCHAR
STARTCHAR h
ENCODING 104
SWIDTH 586 0
DWIDTH 11 0
BBX 9 13 1 -4
BITMAP
6700
e980
b180
3180
3180
3180
3180
3180
3180
0180
0180
0180
0180
ENDCHAR
STARTCHAR i
ENCODING 105
SWIDTH 320 0
DWIDTH 6 0
BBX 5 9 1 0
BITMAP
60
e0
60
60
60
60
60
68
70
ENDCHAR
STARTCHAR j
ENCODING 106
SWIDTH 586 0
DWIDTH 11 0
BBX 9 13 1 -4
BITMAP
6600
cf00
c980
c980
c980
c980
4900
6b00
3e00
0800
0800
0800
0800
ENDCHAR
STARTCHAR k
ENCODING 107
SWIDTH 533 0
DWIDTH 10 0
BBX 9 9 0 0
BITMAP
6380
e580
6800
7800
7c00
6e00
6700
6380
6180
ENDCHAR
STARTCHAR l
ENCODING 108
SWIDTH 533 0
DWIDTH 10 0
BBX 10 14 0 0
BITMAP
3000
7800
4800
0800
0800
0800
1c00
1c00
3400
3400
6600
6240
c3c0
c180
ENDCHAR
STARTCHAR m
ENCODING 109
SWIDTH 586 0
DWIDTH 11 0
BBX 9 13 2 -4
BITMAP
4200
c600
c600
c600
c600
c600
c680
fb80
7b00
4000
c000
c000
c000
ENDCHAR
STARTCHAR n
ENCODING 110
SWIDTH 533 0
DWIDTH 10 0
BBX 8 9 1 0
BITMAP
c3
c3
61
62
32
34
1c
18
08
ENDCHAR
STARTCHAR o
ENCODING 111
SWIDTH 533 0
DWIDTH 10 0
BBX 8 9 1 0
BITMAP
3c
66
c3
c3
c3
c3
c3
66
3c
ENDCHAR
STARTCHAR p
ENCODING 112
SWIDTH 533 0
DWIDTH 10 0
BBX 9 9 0 0
BITMAP
7f80
ff80
9200
1200
1200
1200
3280
7380
6300
ENDCHAR
STARTCHAR q
ENCODING 113
SWIDTH 533 0
DWIDTH 10 0
BBX 8 13 1 0
BITMAP
3c
66
c3
c3
c3
c3
ff
c3
c3
c3
c3
66
3c
ENDCHAR
STARTCHAR r
ENCODING 114
SWIDTH 533 0
DWIDTH 10 0
BBX 8 13 1 -4
BITMAP
3c
46
c3
c3
c3
c3
c3
e6
dc
c0
c0
c0
c0
ENDCHAR
STARTCHAR s
ENCODING 115
SWIDTH 586 0
DWIDTH 11 0
BBX 10 9 1 0
BITMAP
1fc0
7fc0
6600
c300
c300
c300
c300
6600
3c00
ENDCHAR
STARTCHAR t
ENCODING 116
SWIDTH 426 0
DWIDTH 8 0
BBX 7 9 0 0
BITMAP
7e
fe
90
10
10
10
12
1e
1c
ENDCHAR
STARTCHAR u
ENCODING 117
SWIDTH 586 0
DWIDTH 11 0
BBX 9 9 1 0
BITMAP
6300
f180
b180
3180
3180
3180
3180
3b00
1e00
ENDCHAR
STARTCHAR v
ENCODING 118
SWIDTH 640 0
DWIDTH 12 0
BBX 11 11 0 0
BITMAP
3fe0
7fe0
9980
30c0
2040
6660
6660
6660
6660
36c0
39c0
ENDCHAR
STARTCHAR w
ENCODING 119
SWIDTH 640 0
DWIDTH 12 0
BBX 10 9 1 0
BITMAP
3300
6180
4080
ccc0
ccc0
ccc0
ccc0
6d80
7380
ENDCHAR
STARTCHAR x
ENCODING 120
SWIDTH 480 0
DWIDTH 9 0
BBX 7 19 1 -4
BITMAP
60
8e
fc
20
40
40
7c
78
c0
80
80
80
c0
fc
7e
02
02
1e
1c
ENDCHAR
STARTCHAR y
ENCODING 121
SWIDTH 693 0
DWIDTH 13 0
BBX 13 13 0 -4
BITMAP
e238
7270
3260
3260
3260
3260
1ac0
1ac0
0f80
0200
0200
0200
0200
ENDCHAR
STARTCHAR z
ENCODING 122
SWIDTH 480 0
DWIDTH 9 0
BBX 7 19 1 -4
BITMAP
60
86
9e
78
60
40
80
80
80
80
80
80
c0
fc
7e
02
02
1e
1c
ENDCHAR
STARTCHAR braceleft
ENCODING 123
SWIDTH 480 0
DWIDTH 9 0
BBX 7 17 1 -4
BITMAP
0e
18
30
30
30
30
30
60
c0
60
30
30
30
30
30
18
0e
ENDCHAR
STARTCHAR bar
ENCODING 124
SWIDTH 213 0
DWIDTH 4 0
BBX 2 17 1 -4
BITMAP
c0
c0
c0
c0
c0
c0
c0
c0
c0
c0
c0
c0
c0
c0
c0
c0
c0
ENDCHAR
STARTCHAR braceright
ENCODING 125
SWIDTH 480 0
DWIDTH 9 0
BBX 7 17 1 -4
BITMAP
e0
30
18
18
18
18
18
0c
06
0c
18
18
18
18
18
30
e0
ENDCHAR
STARTCHAR asciitilde
ENCODING 126
SWIDTH 533 0
DWIDTH 10 0
BBX 8 3 1 4
BITMAP
73
ff
ce
ENDCHAR
STARTCHAR exclamdown
ENCODING 161
SWIDTH 640 0
DWIDTH 12 0
BBX 11 13 0 0
BITMAP
0000
0000
0000
0000
0000
0000
0000
0000
0000
0000
0000
0000
0000
ENDCHAR
STARTCHAR cent
ENCODING 162
SWIDTH 266 0
DWIDTH 5 0
BBX 4 5 1 9
BITMAP
00
00
00
00
00
ENDCHAR
STARTCHAR sterling
ENCODING 163
SWIDTH 533 0
DWIDTH 10 0
BBX 9 12 0 0
BITMAP
0000
0080
c000
2000
6000
6000
0000
0000
0000
0000
0000
0000
ENDCHAR
STARTCHAR currency
ENCODING 164
SWIDTH 266 0
DWIDTH 5 0
BBX 8 13 -1 0
BITMAP
00
0c
00
1e
00
30
70
60
c0
80
03
80
0f
ENDCHAR
STARTCHAR yen
ENCODING 165
SWIDTH 693 0
DWIDTH 13 0
BBX 12 5 0 3
BITMAP
0030
00f0
00c0
00f0
0030
ENDCHAR
STARTCHAR brokenbar
ENCODING 166
SWIDTH 480 0
DWIDTH 9 0
BBX 9 17 0 -4
BITMAP
0000
0000
8000
0080
8080
8000
0600
0c00
1800
3000
6000
c080
7980
cf00
8600
cf00
7980
ENDCHAR
STARTCHAR section
ENCODING 167
SWIDTH 746 0
DWIDTH 14 0
BBX 10 9 2 0
BITMAP
0380
0580
0c00
0c00
0c00
7f00
1800
1800
1800
ENDCHAR
STARTCHAR diaeresis
ENCODING 168
SWIDTH 693 0
DWIDTH 13 0
BBX 9 9 2 0
BITMAP
1800
1800
1800
1800
1800
1800
d000
e000
0c00
ENDCHAR
STARTCHAR copyright
ENCODING 169
SWIDTH 693 0
DWIDTH 13 0
BBX 9 9 2 0
BITMAP
1e00
1e00
1e00
6d80
ff80
ff80
6d80
0c00
0800
ENDCHAR
STARTCHAR ordfeminine
ENCODING 170
SWIDTH 746 0
DWIDTH 14 0
BBX 10 9 2 0
BITMAP
1c00
3e00
7f00
ff80
7f00
3e00
1c00
0800
6300
ENDCHAR
STARTCHAR guillemotleft
ENCODING 171
SWIDTH 1013 0
DWIDTH 19 0
BBX 17 8 1 1
BITMAP
f78080
80ff80
7f0000
003e00
1c0000
000c00
1e0000
007f80
ENDCHAR
STARTCHAR notsign
ENCODING 172
SWIDTH 960 0
DWIDTH 18 0
BBX 18 8 0 1
BITMAP
ffc0c0
c06d80
0c0000
001800
003000
006000
00ffc0
80ffc0
ENDCHAR
STARTCHAR hyphen
ENCODING 173
SWIDTH 533 0
DWIDTH 10 0
BBX 8 25 1 -7
BITMAP
80
60
03
00
30
06
00
18
0c
00
18
00
00
30
00
00
60
00
00
ff
ff
c0
ff
ff
c0
ENDCHAR
STARTCHAR registered
ENCODING 174
SWIDTH 960 0
DWIDTH 18 0
BBX 18 8 0 1
BITMAP
600000
300000
180000
183c40
db9900
181800
181800
181800
ENDCHAR
STARTCHAR macron
ENCODING 175
SWIDTH 533 0
DWIDTH 10 0
BBX 8 22 1 -4
BITMAP
18
18
18
18
18
18
18
18
18
18
00
06
00
00
03
00
00
01
80
ff
ff
c0
ENDCHAR
STARTCHAR degree
ENCODING 176
SWIDTH 373 0
DWIDTH 7 0
BBX 5 6 1 7
BITMAP
f8
f8
c0
00
00
80
ENDCHAR
STARTCHAR plusminus
ENCODING 177
SWIDTH 533 0
DWIDTH 10 0
BBX 8 11 1 0
BITMAP
00
03
00
00
06
00
18
18
18
18
18
ENDCHAR
STARTCHAR twosuperior
ENCODING 178
SWIDTH 426 0
DWIDTH 8 0
BBX 8 5 0 9
BITMAP
18
18
18
18
18
ENDCHAR
STARTCHAR threesuperior
ENCODING 179
SWIDTH 533 0
DWIDTH 10 0
BBX 9 12 0 0
BITMAP
1800
1800
1800
1880
db00
3c00
7080
8880
d800
1800
1880
ff00
ENDCHAR
STARTCHAR acute
ENCODING 180
SWIDTH 533 0
DWIDTH 10 0
BBX 10 9 0 0
BITMAP
1800
00c0
ff00
7740
cc80
e000
7800
1e00
0780
ENDCHAR
STARTCHAR mu
ENCODING 181
SWIDTH 640 0
DWIDTH 12 0
BBX 11 5 0 3
BITMAP
0180
0780
1e00
7800
e000
ENDCHAR
STARTCHAR paragraph
ENCODING 182
SWIDTH 480 0
DWIDTH 9 0
BBX 7 14 1 0
BITMAP
00
00
fe
80
fe
80
e0
c0
72
80
32
00
1e
00
ENDCHAR
STARTCHAR periodcentered
ENCODING 183
SWIDTH 480 0
DWIDTH 9 0
BBX 5 6 2 2
BITMAP
08
00
18
00
30
00
ENDCHAR
STARTCHAR cedilla
ENCODING 184
SWIDTH 533 0
DWIDTH 10 0
BBX 8 8 1 1
BITMAP
73
80
e1
c0
79
e0
cf
00
ENDCHAR
STARTCHAR onesuperior
ENCODING 185
SWIDTH 533 0
DWIDTH 10 0
BBX 8 9 1 0
BITMAP
86
00
cf
00
79
e0
78
cc
86
ENDCHAR
STARTCHAR masculine
ENCODING 186
SWIDTH 533 0
DWIDTH 10 0
BBX 8 8 1 1
BITMAP
06
06
06
3e
66
c6
c6
c6
ENDCHAR
STARTCHAR guillemotright
ENCODING 187
SWIDTH 533 0
DWIDTH 10 0
BBX 8 7 1 2
BITMAP
c4
ec
78
70
f8
f8
f8
ENDCHAR
STARTCHAR onequarter
ENCODING 188
SWIDTH 960 0
DWIDTH 18 0
BBX 14 2 2 0
BITMAP
f870
1818
ENDCHAR
STARTCHAR onehalf
ENCODING 189
SWIDTH 533 0
DWIDTH 10 0
BBX 2 25 4 -7
BITMAP
00
c0
c0
00
00
00
00
00
c0
c0
00
c0
c0
00
00
c0
c0
00
c0
c0
00
c0
c0
40
c0
ENDCHAR
STARTCHAR threequarters
ENCODING 190
SWIDTH 1013 0
DWIDTH 19 0
BBX 19 2 0 4
BITMAP
ce0060
ffcec0
ENDCHAR
STARTCHAR questiondown
ENCODING 191
SWIDTH 640 0
DWIDTH 12 0
BBX 9 12 1 0
BITMAP
0c80
0c80
c080
c080
c080
c080
c080
c080
c080
c080
c080
c080
ENDCHAR
STARTCHAR Agrave
ENCODING 192
SWIDTH 693 0
DWIDTH 13 0
BBX 11 13 1 0
BITMAP
c0c0
c0c0
ffe0
e0e0
ffe0
0180
0180
0180
0180
0180
0180
2180
6180
ENDCHAR
STARTCHAR Aacute
ENCODING 193
SWIDTH 693 0
DWIDTH 13 0
BBX 10 15 1 -1
BITMAP
ff80
ff80
6000
2000
c200
e3c0
71c0
38c0
3980
7d00
cf00
c700
e300
7380
31c0
ENDCHAR
STARTCHAR Acircumflex
ENCODING 194
SWIDTH 800 0
DWIDTH 15 0
BBX 13 14 1 0
BITMAP
70c0
f040
1fc0
3fc0
6080
4100
4200
2200
1300
0380
01c0
00c0
00c0
70c0
ENDCHAR
STARTCHAR Atilde
ENCODING 195
SWIDTH 746 0
DWIDTH 14 0
BBX 12 15 1 -4
BITMAP
f880
1f00
0e00
79c0
fee0
8e70
8630
c660
7680
3640
2660
0660
0660
0660
0660
ENDCHAR
STARTCHAR Adiaeresis
ENCODING 196
SWIDTH 746 0
DWIDTH 14 0
BBX 12 13 1 0
BITMAP
6c70
b830
0c00
1800
31e0
6730
cc30
d830
d630
f660
64e0
77c0
b380
ENDCHAR
STARTCHAR Aring
ENCODING 197
SWIDTH 746 0
DWIDTH 14 0
BBX 12 13 1 0
BITMAP
9800
9800
d800
7000
1f80
39c0
6060
d9b0
ddb0
8f10
8610
8f10
dbb0
ENDCHAR
STARTCHAR AE
ENCODING 198
SWIDTH 746 0
DWIDTH 14 0
BBX 12 13 1 0
BITMAP
d9b0
6060
39c0
1f80
1f80
39c0
6660
c630
c630
bfd0
bfd0
8610
c630
ENDCHAR
STARTCHAR Ccedilla
ENCODING 199
SWIDTH 746 0
DWIDTH 14 0
BBX 12 9 1 0
BITMAP
c630
6060
39c0
1f80
1fb0
39f0
6060
c0f0
c1b0
ENDCHAR
STARTCHAR Egrave
ENCODING 200
SWIDTH 746 0
DWIDTH 14 0
BBX 12 9 1 0
BITMAP
8310
8610
8c10
d830
f030
6060
f9c0
df80
1f80
ENDCHAR
STARTCHAR Eacute
ENCODING 201
SWIDTH 693 0
DWIDTH 13 0
BBX 12 9 1 0
BITMAP
39c0
6060
e070
c030
c030
c030
c030
c030
c030
ENDCHAR
STARTCHAR Ecircumflex
ENCODING 202
SWIDTH 693 0
DWIDTH 13 0
BBX 12 12 0 -3
BITMAP
c030
c030
c030
c030
e070
6060
39c0
1f80
ff80
ffe0
0060
0030
ENDCHAR
STARTCHAR Ediaeresis
ENCODING 203
SWIDTH 693 0
DWIDTH 13 0
BBX 12 13 0 -2
BITMAP
0030
0030
0060
ffe0
ff80
ff80
ffe0
0060
0030
0030
0030
0060
ffe0
ENDCHAR
STARTCHAR Igrave
ENCODING 204
SWIDTH 693 0
DWIDTH 13 0
BBX 12 9 0 0
BITMAP
ff80
0000
fff0
fff0
0060
00c0
1ff0
7ff0
6180
ENDCHAR
STARTCHAR Iacute
ENCODING 205
SWIDTH 693 0
DWIDTH 13 0
BBX 12 12 0 -3
BITMAP
c300
c300
c600
6600
7ff0
1ff0
1800
3000
1ff0
7ff0
6000
c000
ENDCHAR
STARTCHAR Icircumflex
ENCODING 206
SWIDTH 640 0
DWIDTH 12 0
BBX 9 9 1 0
BITMAP
c000
c000
6000
7f80
1f80
1f80
7f80
6000
c000
ENDCHAR
STARTCHAR Idiaeresis
ENCODING 207
SWIDTH 640 0
DWIDTH 12 0
BBX 10 11 1 -1
BITMAP
c000
c000
6000
7fc0
1fc0
0000
ffc0
ffc0
1f80
7f80
e000
ENDCHAR
STARTCHAR ETH
ENCODING 208
SWIDTH 746 0
DWIDTH 14 0
BBX 13 13 0 0
BITMAP
c000
ff80
c000
e000
7f80
1f80
0080
1fc0
7fc0
e200
c400
ff80
c800
ENDCHAR
STARTCHAR Ntilde
ENCODING 209
SWIDTH 693 0
DWIDTH 13 0
BBX 12 13 1 0
BITMAP
f000
7fc0
3fc0
4000
0010
0030
0060
00c0
0180
0300
0600
0c00
1800
ENDCHAR
STARTCHAR Ograve
ENCODING 210
SWIDTH 800 0
DWIDTH 15 0
BBX 13 13 1 0
BITMAP
3000
6000
c000
fff8
fff0
e020
6060
6040
70c0
3080
3080
3980
1900
ENDCHAR
STARTCHAR Oacute
ENCODING 211
SWIDTH 800 0
DWIDTH 15 0
BBX 13 13 1 0
BITMAP
1b00
0e00
0e00
0400
1fc0
38e0
6030
df18
cd98
cd98
cd98
cf18
cd98
ENDCHAR
STARTCHAR Ocircumflex
ENCODING 212
SWIDTH 853 0
DWIDTH 16 0
BBX 14 8 1 5
BITMAP
dcd8
6030
38e0
1fc0
1fc0
38e0
6030
c798
ENDCHAR
STARTCHAR Otilde
ENCODING 213
SWIDTH 800 0
DWIDTH 15 0
BBX 14 16 0 -2
BITMAP
cd98
cc98
cc18
cc18
cc98
c718
6030
38e0
1fc0
ff1c
ab18
2318
22a8
22a8
22a8
2248
ENDCHAR
STARTCHAR Odiaeresis
ENCODING 214
SWIDTH 533 0
DWIDTH 10 0
BBX 10 17 0 0
BITMAP
7740
ffc0
7000
3000
3000
3000
3000
3000
3000
3000
3000
3000
3000
3000
3000
3000
fcc0
ENDCHAR
STARTCHAR multiply
ENCODING 215
SWIDTH 213 0
DWIDTH 4 0
BBX 2 2 1 4
BITMAP
00
40
ENDCHAR
STARTCHAR Ooblique
ENCODING 216
SWIDTH 693 0
DWIDTH 13 0
BBX 11 6 1 0
BITMAP
0040
0040
0080
0080
0080
0080
ENDCHAR
STARTCHAR Ugrave
ENCODING 217
SWIDTH 586 0
DWIDTH 11 0
BBX 10 9 0 0
BITMAP
3080
7100
d900
1900
1900
0d00
0d00
0600
0600
ENDCHAR
STARTCHAR Uacute
ENCODING 218
SWIDTH 586 0
DWIDTH 11 0
BBX 10 9 0 0
BITMAP
0600
c0c0
ffc0
ffc0
0040
0040
0040
0040
0c00
ENDCHAR
STARTCHAR Ucircumflex
ENCODING 219
SWIDTH 960 0
DWIDTH 18 0
BBX 18 9 0 0
BITMAP
0c0000
003300
330040
806180
c0c0c0
c0c0c0
c0c040
806180
330000
ENDCHAR
STARTCHAR Udiaeresis
ENCODING 220
SWIDTH 960 0
DWIDTH 18 0
BBX 16 9 1 0
BITMAP
001e
000c
000c
0008
0400
1806
003f
ff00
7fff
ENDCHAR
STARTCHAR Yacute
ENCODING 221
SWIDTH 586 0
DWIDTH 11 0
BBX 9 17 1 0
BITMAP
8080
0180
7f80
8000
ff00
1800
0000
0400
0800
1800
3f80
7f80
e000
7f80
3f80
1800
0800
ENDCHAR
STARTCHAR THORN
ENCODING 222
SWIDTH 960 0
DWIDTH 18 0
BBX 16 9 1 0
BITMAP
0800
1c00
3600
7700
f780
3600
3600
3600
3600
ENDCHAR
STARTCHAR ssharp
ENCODING 223
SWIDTH 586 0
DWIDTH 11 0
BBX 9 17 1 0
BITMAP
3600
3600
3600
3600
3600
3600
3600
3600
0000
0000
ff80
ff80
0000
ff80
ff80
0000
0000
ENDCHAR
STARTCHAR agrave
ENCODING 224
SWIDTH 480 0
DWIDTH 9 0
BBX 9 14 0 0
BITMAP
3600
3600
3600
3600
3600
3600
3600
3600
3600
3600
3600
3600
f780
7700
ENDCHAR
STARTCHAR aacute
ENCODING 225
SWIDTH 320 0
DWIDTH 6 0
BBX 5 17 0 -3
BITMAP
30
00
18
00
08
00
08
00
18
00
30
00
30
00
60
00
60
ENDCHAR
STARTCHAR acircumflex
ENCODING 226
SWIDTH 800 0
DWIDTH 15 0
BBX 13 13 1 0
BITMAP
00c0
80c0
8060
0060
0030
0030
0018
0008
0018
1830
3060
60c0
c080
ENDCHAR
STARTCHAR atilde
ENCODING 227
SWIDTH 800 0
DWIDTH 15 0
BBX 13 13 1 0
BITMAP
c0c0
6060
3030
1818
1fc0
38e0
6030
cf18
cd98
cd98
cf18
cd98
cd98
ENDCHAR
STARTCHAR adiaeresis
ENCODING 228
SWIDTH 800 0
DWIDTH 15 0
BBX 13 8 1 5
BITMAP
cd98
6030
38e0
1fc0
1fc0
38e0
6030
c718
ENDCHAR
STARTCHAR aring
ENCODING 229
SWIDTH 693 0
DWIDTH 13 0
BBX 12 16 0 -2
BITMAP
cc90
cc10
cc10
cc10
cc90
c710
6030
38e0
1fc0
fb10
2310
2310
22a0
22a0
22a0
2240
ENDCHAR
STARTCHAR ae
ENCODING 230
SWIDTH 373 0
DWIDTH 7 0
BBX 6 25 1 -7
BITMAP
20
48
fc
e0
e0
60
70
20
38
00
1c
00
0c
00
04
00
00
00
04
00
0c
00
18
00
30
ENDCHAR
STARTCHAR ccedilla
ENCODING 231
SWIDTH 373 0
DWIDTH 7 0
BBX 2 25 1 -7
BITMAP
00
40
00
c0
00
c0
c0
c0
c0
00
00
00
00
00
00
40
40
40
40
c0
c0
c0
c0
c0
c0
ENDCHAR
STARTCHAR egrave
ENCODING 232
SWIDTH 373 0
DWIDTH 7 0
BBX 6 25 1 -7
BITMAP
c0
c0
c0
c0
c0
c0
c0
c0
c0
c0
c0
c0
c0
c0
c0
c0
c0
c0
c0
c0
c0
c0
c0
c0
c0
ENDCHAR
STARTCHAR eacute
ENCODING 233
SWIDTH 373 0
DWIDTH 7 0
BBX 5 25 1 -7
BITMAP
c0
c0
c0
c0
c0
c0
c0
c0
c0
c0
c0
c0
c0
c0
c0
c0
c0
c0
c0
c0
c0
c0
c0
c0
e0
ENDCHAR
STARTCHAR ecircumflex
ENCODING 234
SWIDTH 373 0
DWIDTH 7 0
BBX 2 25 1 -7
BITMAP
40
40
40
00
00
00
00
00
00
c0
c0
c0
c0
c0
c0
c0
c0
c0
c0
c0
c0
c0
c0
c0
c0
ENDCHAR
STARTCHAR ediaeresis
ENCODING 235
SWIDTH 373 0
DWIDTH 7 0
BBX 5 22 1 -4
BITMAP
c0
c0
c0
c0
c0
c0
c0
c0
c0
c0
c0
c0
c0
c0
c0
c0
c0
c0
c0
c0
c0
c0
ENDCHAR
STARTCHAR igrave
ENCODING 236
SWIDTH 480 0
DWIDTH 9 0
BBX 5 25 4 -7
BITMAP
c0
c0
c0
c0
c0
c0
c0
c0
c0
c0
c0
c0
c0
c0
c0
c0
c0
c0
c0
c0
c0
c0
c0
c0
c0
ENDCHAR
STARTCHAR iacute
ENCODING 237
SWIDTH 480 0
DWIDTH 9 0
BBX 5 25 1 -7
BITMAP
c0
c0
c0
c0
c0
c0
c0
c0
f8
38
60
c0
c0
c0
c0
c0
c0
c0
c0
c0
c0
c0
c0
c0
c0
ENDCHAR
STARTCHAR icircumflex
ENCODING 238
SWIDTH 480 0
DWIDTH 9 0
BBX 5 22 4 -4
BITMAP
c0
c0
c0
c0
c0
c0
c0
c0
c0
18
18
18
18
18
18
18
18
18
18
30
e0
e0
ENDCHAR
STARTCHAR idiaeresis
ENCODING 239
SWIDTH 480 0
DWIDTH 9 0
BBX 2 25 4 -7
BITMAP
00
00
00
00
00
00
00
00
00
00
00
00
c0
c0
c0
c0
c0
c0
c0
c0
c0
c0
c0
c0
c0
ENDCHAR
STARTCHAR ntilde
ENCODING 241
SWIDTH 320 0
DWIDTH 6 0
BBX 5 17 0 -3
BITMAP
c0
c0
c0
c0
c0
c0
c0
60
38
c0
c0
c0
c0
c0
c0
c0
c0
ENDCHAR
STARTCHAR ograve
ENCODING 242
SWIDTH 320 0
DWIDTH 6 0
BBX 6 22 0 -4
BITMAP
c0
c0
c0
c0
c0
c0
c0
c0
c0
c0
c0
c0
c0
c0
c0
c0
c0
00
c0
c0
60
60
ENDCHAR
STARTCHAR oacute
ENCODING 243
SWIDTH 693 0
DWIDTH 13 0
BBX 7 25 5 -7
BITMAP
30
30
18
18
08
18
18
30
30
60
60
c0
c0
1c
1c
30
30
30
30
30
30
30
30
30
30
ENDCHAR
STARTCHAR ocircumflex
ENCODING 244
SWIDTH 693 0
DWIDTH 13 0
BBX 2 25 0 -7
BITMAP
00
00
00
00
00
00
00
00
c0
c0
00
40
40
c0
c0
c0
c0
c0
c0
c0
c0
c0
c0
c0
c0
ENDCHAR
STARTCHAR otilde
ENCODING 245
SWIDTH 693 0
DWIDTH 13 0
BBX 7 22 0 -4
BITMAP
c0
c0
c0
c0
c0
c0
c0
c0
c0
c0
c0
c0
c0
c0
c0
c0
c0
c0
c0
c0
c0
c0
ENDCHAR
STARTCHAR odiaeresis
ENCODING 246
SWIDTH 373 0
DWIDTH 7 0
BBX 6 25 0 -7
BITMAP
c0
c0
c0
c0
c0
c0
c0
c0
c0
c0
c0
c0
c0
04
04
04
04
04
04
04
04
04
04
04
04
ENDCHAR
STARTCHAR division
ENCODING 247
SWIDTH 373 0
DWIDTH 7 0
BBX 2 25 4 -7
BITMAP
00
00
00
00
00
00
00
c0
c0
40
80
c0
40
40
00
00
00
00
00
00
00
00
00
00
00
ENDCHAR
STARTCHAR oslash
ENCODING 248
SWIDTH 373 0
DWIDTH 7 0
BBX 6 25 0 -7
BITMAP
0c
0c
0c
0c
0c
0c
0c
0c
0c
0c
c0
c0
c0
c0
c0
c0
c0
c0
c0
c0
c0
c0
c0
c0
c0
ENDCHAR
STARTCHAR ugrave
ENCODING 249
SWIDTH 373 0
DWIDTH 7 0
BBX 5 25 1 -7
BITMAP
c0
c0
c0
c0
c0
c0
c0
c0
c0
c0
08
08
08
08
08
08
08
08
08
08
08
08
08
08
08
ENDCHAR
STARTCHAR uacute
ENCODING 250
SWIDTH 373 0
DWIDTH 7 0
BBX 2 25 4 -7
BITMAP
00
00
00
00
00
00
40
40
c0
80
c0
00
00
00
00
00
00
00
00
00
00
00
00
00
00
ENDCHAR
STARTCHAR ucircumflex
ENCODING 251
SWIDTH 373 0
DWIDTH 7 0
BBX 5 22 1 -4
BITMAP
18
18
18
18
18
18
18
18
18
18
c0
c0
c0
c0
c0
c0
c0
c0
c0
c0
c0
c0
ENDCHAR
STARTCHAR udiaeresis
ENCODING 252
SWIDTH 480 0
DWIDTH 9 0
BBX 5 25 1 -7
BITMAP
c0
c0
c0
c0
c0
c0
c0
c0
c0
c0
c0
c0
c0
18
18
18
18
18
18
18
18
18
18
18
18
ENDCHAR
STARTCHAR yacute
ENCODING 253
SWIDTH 480 0
DWIDTH 9 0
BBX 5 25 4 -7
BITMAP
18
18
18
18
18
18
18
18
18
f8
e0
30
18
18
18
18
18
18
18
18
18
18
18
18
18
ENDCHAR
STARTCHAR thorn
ENCODING 254
SWIDTH 480 0
DWIDTH 9 0
BBX 5 22 1 -4
BITMAP
18
18
18
18
18
18
18
18
18
18
c0
c0
c0
c0
c0
c0
c0
c0
c0
c0
c0
60
ENDCHAR
ENDFONT
