STARTFONT 2.1
COMMENT  
COMMENT  Copyright (c) 1984, 1987 Adobe Systems Incorporated. All Rights Reserved. Copyright (c) 1988, 1991 Digital Equipment Corporation. All Rights Reserved.
COMMENT  
COMMENT  WARNING:  This bdf file was generated from a font server using
COMMENT  fstobdf.  The resulting font is subject to the same copyright,
COMMENT  license, and trademark restrictions as the original font.  The
COMMENT  authors and distributors of fstobdf disclaim all liability for
COMMENT  misuse of the program or its output.
COMMENT  
FONT -Adobe-Symbol-Medium-R-Normal--24-240-75-75-P-142-Adobe-FontSpecific
SIZE 24 75 75
FONTBOUNDINGBOX 26 32 -1 -8
STARTPROPERTIES 31
FOUNDRY "Adobe"
FAMILY_NAME "Symbol"
WEIGHT_NAME "Medium"
SLANT "R"
SETWIDTH_NAME "Normal"
ADD_STYLE_NAME ""
PIXEL_SIZE 24
POINT_SIZE 240
RESOLUTION_X 75
RESOLUTION_Y 75
SPACING "P"
AVERAGE_WIDTH 142
CHARSET_REGISTRY "Adobe"
CHARSET_ENCODING "FontSpecific"
CAP_HEIGHT 17
X_HEIGHT 13
FACE_NAME "Symbol"
COPYRIGHT "Copyright (c) 1984, 1987 Adobe Systems Incorporated. All Rights Reserved. Copyright (c) 1988, 1991 Digital Equipment Corporation. All Rights Reserved."
NOTICE "No mark"
_DEC_DEVICE_FONTNAMES "PS=Symbol"
_DEC_PRODUCTINFO "DECwindows Fonts V2.2-1, 18-Nov-1991"
RELATIVE_SETWIDTH 50
RELATIVE_WEIGHT 50
FULL_NAME "Symbol"
FONT "-Adobe-Symbol-Medium-R-Normal--24-240-75-75-P-142-Adobe-FontSpecific"
WEIGHT 10
RESOLUTION 103
QUAD_WIDTH 15
DEFAULT_CHAR 32
FONT_ASCENT 20
FONT_DESCENT 5
ENDPROPERTIES
CHARS 188
STARTCHAR space
ENCODING 32
SWIDTH 240 0
DWIDTH 6 0
BBX 1 1 1 0
BITMAP
00
ENDCHAR
STARTCHAR exclam
ENCODING 33
SWIDTH 280 0
DWIDTH 7 0
BBX 3 17 2 0
BITMAP
40
e0
e0
e0
e0
e0
e0
e0
40
40
40
40
00
00
00
c0
c0
ENDCHAR
STARTCHAR quotedbl
ENCODING 34
SWIDTH 680 0
DWIDTH 17 0
BBX 15 17 1 0
BITMAP
c006
c006
600c
600c
3ff8
3ff8
3018
1830
1830
0c60
0c60
0c60
06c0
06c0
0380
0380
0380
ENDCHAR
STARTCHAR numbersign
ENCODING 35
SWIDTH 520 0
DWIDTH 13 0
BBX 11 17 1 0
BITMAP
0880
0880
0880
0880
0880
0880
7fe0
1100
1100
1100
ffc0
2200
2200
2200
2200
2200
2200
ENDCHAR
STARTCHAR dollar
ENCODING 36
SWIDTH 520 0
DWIDTH 13 0
BBX 11 17 1 0
BITMAP
ffe0
ffe0
0060
0060
0060
0060
0060
ffe0
ffe0
0060
0060
0060
0060
0060
0060
ffe0
ffe0
ENDCHAR
STARTCHAR percent
ENCODING 37
SWIDTH 800 0
DWIDTH 20 0
BBX 18 17 1 0
BITMAP
1f0600
39fe00
710c00
611800
e31800
c23000
c66000
cc6000
78c780
018ec0
019c40
033840
0630c0
063080
0c3180
183300
181e00
ENDCHAR
STARTCHAR ampersand
ENCODING 38
SWIDTH 680 0
DWIDTH 17 0
BBX 15 17 1 0
BITMAP
0780
0cc0
1840
1840
18c0
1d80
0f3e
1e1c
3e18
6730
c3a0
c1e0
c0c0
c1e0
e372
7e3e
3c1c
ENDCHAR
STARTCHAR apostrophe
ENCODING 39
SWIDTH 440 0
DWIDTH 11 0
BBX 8 13 2 0
BITMAP
f0
3c
0e
07
03
03
7f
03
03
07
0e
3c
f0
ENDCHAR
STARTCHAR parenleft
ENCODING 40
SWIDTH 320 0
DWIDTH 8 0
BBX 6 22 1 -5
BITMAP
0c
18
30
20
60
60
40
c0
c0
c0
c0
c0
c0
c0
c0
40
60
60
20
30
18
0c
ENDCHAR
STARTCHAR parenright
ENCODING 41
SWIDTH 320 0
DWIDTH 8 0
BBX 6 22 1 -5
BITMAP
c0
60
30
10
18
18
08
0c
0c
0c
0c
0c
0c
0c
0c
08
18
18
10
30
60
c0
ENDCHAR
STARTCHAR asterisk
ENCODING 42
SWIDTH 480 0
DWIDTH 12 0
BBX 8 10 2 7
BITMAP
18
18
c3
e7
18
18
e7
c3
18
18
ENDCHAR
STARTCHAR plus
ENCODING 43
SWIDTH 480 0
DWIDTH 12 0
BBX 10 10 1 2
BITMAP
0c00
0c00
0c00
0c00
ffc0
ffc0
0c00
0c00
0c00
0c00
ENDCHAR
STARTCHAR comma
ENCODING 44
SWIDTH 240 0
DWIDTH 6 0
BBX 3 6 1 -4
BITMAP
60
60
20
60
c0
80
ENDCHAR
STARTCHAR minus
ENCODING 45
SWIDTH 520 0
DWIDTH 13 0
BBX 11 2 1 6
BITMAP
ffe0
ffe0
ENDCHAR
STARTCHAR period
ENCODING 46
SWIDTH 240 0
DWIDTH 6 0
BBX 2 3 2 0
BITMAP
c0
c0
c0
ENDCHAR
STARTCHAR slash
ENCODING 47
SWIDTH 280 0
DWIDTH 7 0
BBX 7 17 0 0
BITMAP
06
06
06
0c
0c
0c
18
18
30
30
30
60
60
60
c0
c0
c0
ENDCHAR
STARTCHAR 0
ENCODING 48
SWIDTH 480 0
DWIDTH 12 0
BBX 10 17 1 0
BITMAP
1e00
3300
6180
6180
c0c0
c0c0
c0c0
c0c0
c0c0
c0c0
c0c0
c0c0
c0c0
6180
6180
3300
1e00
ENDCHAR
STARTCHAR 1
ENCODING 49
SWIDTH 480 0
DWIDTH 12 0
BBX 6 17 3 0
BITMAP
30
70
f0
30
30
30
30
30
30
30
30
30
30
30
30
30
fc
ENDCHAR
STARTCHAR 2
ENCODING 50
SWIDTH 480 0
DWIDTH 12 0
BBX 10 17 1 0
BITMAP
1c00
7f00
6700
8380
8180
0180
0180
0380
0300
0700
0c00
0c00
1800
3000
6040
ffc0
ff80
ENDCHAR
STARTCHAR 3
ENCODING 51
SWIDTH 480 0
DWIDTH 12 0
BBX 9 17 1 0
BITMAP
1c00
7e00
4700
8300
8300
0600
0c00
1e00
0700
0300
0180
0180
0180
0300
c700
fe00
7800
ENDCHAR
STARTCHAR 4
ENCODING 52
SWIDTH 480 0
DWIDTH 12 0
BBX 10 17 1 0
BITMAP
0300
0700
0700
0f00
0b00
1b00
1300
3300
2300
6300
4300
ffc0
ffc0
0300
0300
0300
0300
ENDCHAR
STARTCHAR 5
ENCODING 53
SWIDTH 480 0
DWIDTH 12 0
BBX 9 17 1 0
BITMAP
3f80
3f00
6000
4000
c000
f000
fc00
1e00
0700
0380
0180
0180
0180
0180
c300
fe00
7c00
ENDCHAR
STARTCHAR 6
ENCODING 54
SWIDTH 480 0
DWIDTH 12 0
BBX 10 17 1 0
BITMAP
03c0
0e00
3800
7000
6000
e000
cf00
f380
e180
c0c0
c0c0
c0c0
c0c0
e0c0
61c0
7380
1f00
ENDCHAR
STARTCHAR 7
ENCODING 55
SWIDTH 480 0
DWIDTH 12 0
BBX 10 17 1 0
BITMAP
7fc0
ffc0
c0c0
8180
0180
0300
0300
0300
0600
0600
0600
0c00
0c00
0c00
1800
1800
1800
ENDCHAR
STARTCHAR 8
ENCODING 56
SWIDTH 480 0
DWIDTH 12 0
BBX 10 17 1 0
BITMAP
1e00
3300
6180
6180
6180
7300
3e00
1c00
3f00
6380
c1c0
c0c0
c0c0
c0c0
c1c0
6380
3e00
ENDCHAR
STARTCHAR 9
ENCODING 57
SWIDTH 480 0
DWIDTH 12 0
BBX 10 17 1 0
BITMAP
1e00
7380
6180
c0c0
c0c0
c0c0
c0c0
c0c0
61c0
73c0
1ec0
0180
0380
0700
0e00
3c00
f000
ENDCHAR
STARTCHAR colon
ENCODING 58
SWIDTH 240 0
DWIDTH 6 0
BBX 2 11 2 0
BITMAP
c0
c0
c0
00
00
00
00
00
c0
c0
c0
ENDCHAR
STARTCHAR semicolon
ENCODING 59
SWIDTH 240 0
DWIDTH 6 0
BBX 3 15 1 -4
BITMAP
60
60
60
00
00
00
00
00
00
60
60
20
60
c0
80
ENDCHAR
STARTCHAR less
ENCODING 60
SWIDTH 520 0
DWIDTH 13 0
BBX 12 12 0 1
BITMAP
0070
01e0
0780
1e00
7800
e000
e000
7800
1e00
0780
01e0
0070
ENDCHAR
STARTCHAR equal
ENCODING 61
SWIDTH 480 0
DWIDTH 12 0
BBX 10 6 1 4
BITMAP
ffc0
ffc0
0000
0000
ffc0
ffc0
ENDCHAR
STARTCHAR greater
ENCODING 62
SWIDTH 520 0
DWIDTH 13 0
BBX 12 12 0 1
BITMAP
e000
7800
1e00
0780
01e0
0070
0070
01e0
0780
1e00
7800
e000
ENDCHAR
STARTCHAR question
ENCODING 63
SWIDTH 440 0
DWIDTH 11 0
BBX 8 17 2 0
BITMAP
7c
c6
83
c3
c7
06
0e
0c
18
18
10
10
10
00
00
30
30
ENDCHAR
STARTCHAR at
ENCODING 64
SWIDTH 520 0
DWIDTH 13 0
BBX 11 12 1 1
BITMAP
3820
7c60
c7c0
8380
0000
0000
ffe0
ffe0
0000
0000
ffe0
ffe0
ENDCHAR
STARTCHAR A
ENCODING 65
SWIDTH 720 0
DWIDTH 18 0
BBX 17 17 0 0
BITMAP
008000
01c000
01c000
014000
036000
026000
023000
063000
043000
0c1800
081800
0ffc00
180c00
100c00
300600
300600
f80f80
ENDCHAR
STARTCHAR B
ENCODING 66
SWIDTH 600 0
DWIDTH 15 0
BBX 13 17 1 0
BITMAP
ffc0
30e0
3070
3030
3030
3030
3030
3060
3fc0
3070
3038
3018
3018
3018
3038
3070
ffc0
ENDCHAR
STARTCHAR C
ENCODING 67
SWIDTH 720 0
DWIDTH 18 0
BBX 17 17 1 0
BITMAP
f81f80
700e00
380c00
1c1800
0c3000
066000
07c000
038000
018000
03c000
06e000
0c7000
083800
181800
301c00
700e00
f81f80
ENDCHAR
STARTCHAR D
ENCODING 68
SWIDTH 600 0
DWIDTH 15 0
BBX 16 17 0 0
BITMAP
0300
0300
0780
0480
04c0
0cc0
0860
0860
1830
1030
3018
2018
200c
600c
4006
c006
ffff
ENDCHAR
STARTCHAR E
ENCODING 69
SWIDTH 600 0
DWIDTH 15 0
BBX 13 17 1 0
BITMAP
fff0
3030
3010
3000
3000
3000
3020
3020
3fe0
3020
3020
3000
3000
3008
3008
3018
fff8
ENDCHAR
STARTCHAR F
ENCODING 70
SWIDTH 760 0
DWIDTH 19 0
BBX 16 17 1 0
BITMAP
07e0
0180
0180
0ff0
399c
6186
e187
c183
c183
c183
e187
6186
399c
0ff0
0180
0180
07e0
ENDCHAR
STARTCHAR G
ENCODING 71
SWIDTH 600 0
DWIDTH 15 0
BBX 13 17 1 0
BITMAP
fff8
3018
3008
3008
3000
3000
3000
3000
3000
3000
3000
3000
3000
3000
3000
3000
fc00
ENDCHAR
STARTCHAR H
ENCODING 72
SWIDTH 720 0
DWIDTH 18 0
BBX 16 17 1 0
BITMAP
fc3f
300c
300c
300c
300c
300c
300c
300c
3ffc
300c
300c
300c
300c
300c
300c
300c
fc3f
ENDCHAR
STARTCHAR I
ENCODING 73
SWIDTH 320 0
DWIDTH 8 0
BBX 6 17 1 0
BITMAP
fc
30
30
30
30
30
30
30
30
30
30
30
30
30
30
30
fc
ENDCHAR
STARTCHAR J
ENCODING 74
SWIDTH 640 0
DWIDTH 16 0
BBX 14 17 1 0
BITMAP
03c0
06e0
0460
0660
0330
71b0
f8f0
983c
1830
1830
3030
3030
3030
3060
3860
1cc0
0f80
ENDCHAR
STARTCHAR K
ENCODING 75
SWIDTH 680 0
DWIDTH 17 0
BBX 15 17 1 0
BITMAP
fc7c
3030
3060
30c0
3180
3300
3600
3e00
3f00
3380
3180
31c0
30e0
3070
3038
301c
fc3e
ENDCHAR
STARTCHAR L
ENCODING 76
SWIDTH 680 0
DWIDTH 17 0
BBX 15 17 1 0
BITMAP
0300
0300
0780
0480
04c0
04c0
0cc0
0860
0860
1860
1030
1030
3030
2018
2018
601c
f83e
ENDCHAR
STARTCHAR M
ENCODING 77
SWIDTH 880 0
DWIDTH 22 0
BBX 20 17 1 0
BITMAP
f001f0
3801c0
3803c0
3c02c0
2c02c0
2e06c0
2604c0
270cc0
2308c0
2388c0
2198c0
21d0c0
20d0c0
20f0c0
2060c0
2060c0
f803f0
ENDCHAR
STARTCHAR N
ENCODING 78
SWIDTH 720 0
DWIDTH 18 0
BBX 16 17 1 0
BITMAP
f01f
3804
3804
2c04
2e04
2604
2304
2304
2184
21c4
20c4
2064
2064
2034
203c
201c
f80c
ENDCHAR
STARTCHAR O
ENCODING 79
SWIDTH 720 0
DWIDTH 18 0
BBX 16 17 1 0
BITMAP
07e0
1c38
300c
6006
6006
c003
c003
c003
c003
c003
c003
c003
6006
6006
300c
1c38
07e0
ENDCHAR
STARTCHAR P
ENCODING 80
SWIDTH 720 0
DWIDTH 18 0
BBX 16 17 1 0
BITMAP
ffff
300c
300c
300c
300c
300c
300c
300c
300c
300c
300c
300c
300c
300c
300c
300c
fc3f
ENDCHAR
STARTCHAR Q
ENCODING 81
SWIDTH 720 0
DWIDTH 18 0
BBX 16 17 1 0
BITMAP
07e0
1c38
300c
6006
6006
c813
c813
cff3
cff3
c813
c813
c003
4002
6006
300c
1c38
07e0
ENDCHAR
STARTCHAR R
ENCODING 82
SWIDTH 560 0
DWIDTH 14 0
BBX 12 17 1 0
BITMAP
ff80
30e0
3060
3030
3030
3030
3060
30e0
3f80
3000
3000
3000
3000
3000
3000
3000
fc00
ENDCHAR
STARTCHAR S
ENCODING 83
SWIDTH 560 0
DWIDTH 14 0
BBX 12 17 1 0
BITMAP
fff0
e030
7010
3800
1c00
0e00
0700
0380
0300
0600
0c00
1800
3010
6010
c030
fff0
fff0
ENDCHAR
STARTCHAR T
ENCODING 84
SWIDTH 640 0
DWIDTH 16 0
BBX 14 17 1 0
BITMAP
fffc
c30c
8304
8304
0300
0300
0300
0300
0300
0300
0300
0300
0300
0300
0300
0300
0fc0
ENDCHAR
STARTCHAR U
ENCODING 85
SWIDTH 640 0
DWIDTH 16 0
BBX 16 17 0 0
BITMAP
f81f
700e
300c
1818
1c10
0c30
0e60
0660
03c0
03c0
0180
0180
0180
0180
0180
0180
07e0
ENDCHAR
STARTCHAR V
ENCODING 86
SWIDTH 440 0
DWIDTH 11 0
BBX 9 18 1 -5
BITMAP
1f80
3f80
6000
6000
c000
c000
c000
c000
c000
c000
6000
7f00
1f80
0080
0080
0180
0f00
0e00
ENDCHAR
STARTCHAR W
ENCODING 87
SWIDTH 720 0
DWIDTH 18 0
BBX 16 17 1 0
BITMAP
07e0
1c38
300c
6006
6006
c003
c003
c003
c003
e007
6006
300c
1818
8c31
8421
fc3f
fc3f
ENDCHAR
STARTCHAR X
ENCODING 88
SWIDTH 640 0
DWIDTH 16 0
BBX 14 17 1 0
BITMAP
7ff8
7ff8
6018
4008
0000
1020
1020
1fe0
1fe0
1020
1020
0000
8004
8004
c00c
fffc
fffc
ENDCHAR
STARTCHAR Y
ENCODING 89
SWIDTH 800 0
DWIDTH 20 0
BBX 18 17 1 0
BITMAP
e3f1c0
70c380
30c300
30c300
38c700
38c700
18c600
1cce00
07f800
00c000
00c000
00c000
00c000
00c000
00c000
00c000
03f000
ENDCHAR
STARTCHAR Z
ENCODING 90
SWIDTH 600 0
DWIDTH 15 0
BBX 12 17 1 0
BITMAP
fff0
c070
8060
00e0
01c0
0180
0380
0700
0600
0e00
1c00
3800
3800
7000
6010
e030
fff0
ENDCHAR
STARTCHAR bracketleft
ENCODING 91
SWIDTH 320 0
DWIDTH 8 0
BBX 5 22 2 -5
BITMAP
f8
c0
c0
c0
c0
c0
c0
c0
c0
c0
c0
c0
c0
c0
c0
c0
c0
c0
c0
c0
c0
f8
ENDCHAR
STARTCHAR backslash
ENCODING 92
SWIDTH 720 0
DWIDTH 18 0
BBX 12 10 3 0
BITMAP
0600
0600
0600
0000
0000
0000
0000
c030
c030
c030
ENDCHAR
STARTCHAR bracketright
ENCODING 93
SWIDTH 320 0
DWIDTH 8 0
BBX 5 22 1 -5
BITMAP
f8
18
18
18
18
18
18
18
18
18
18
18
18
18
18
18
18
18
18
18
18
f8
ENDCHAR
STARTCHAR asciicircum
ENCODING 94
SWIDTH 640 0
DWIDTH 16 0
BBX 14 17 1 0
BITMAP
0300
0300
0300
0300
0300
0300
0300
0300
0300
0300
0300
0300
0300
0300
0300
fffc
fffc
ENDCHAR
STARTCHAR underscore
ENCODING 95
SWIDTH 520 0
DWIDTH 13 0
BBX 13 2 0 -5
BITMAP
fff8
fff8
ENDCHAR
STARTCHAR grave
ENCODING 96
SWIDTH 520 0
DWIDTH 13 0
BBX 13 2 0 21
BITMAP
fff8
fff8
ENDCHAR
STARTCHAR a
ENCODING 97
SWIDTH 640 0
DWIDTH 16 0
BBX 14 13 1 0
BITMAP
1f18
71b8
60b0
e0f0
c060
c060
c060
c060
c060
e0e0
60e4
71fc
1f38
ENDCHAR
STARTCHAR b
ENCODING 98
SWIDTH 480 0
DWIDTH 12 0
BBX 10 24 1 -5
BITMAP
3e00
6700
c380
c180
c180
c380
c300
ce00
cf00
c380
c180
c1c0
c0c0
c0c0
c0c0
c1c0
e180
f380
df00
c000
c000
c000
c000
c000
ENDCHAR
STARTCHAR c
ENCODING 99
SWIDTH 560 0
DWIDTH 14 0
BBX 12 18 1 -5
BITMAP
7060
f860
d8c0
88c0
0980
0980
0b00
0700
0600
0600
0e00
0e00
1900
1900
3110
31b0
61f0
60e0
ENDCHAR
STARTCHAR d
ENCODING 100
SWIDTH 480 0
DWIDTH 12 0
BBX 10 18 1 0
BITMAP
1f00
3380
2180
3000
3800
1c00
0e00
3f00
7380
6180
c0c0
c0c0
c0c0
c0c0
c0c0
6180
7380
1e00
ENDCHAR
STARTCHAR e
ENCODING 101
SWIDTH 440 0
DWIDTH 11 0
BBX 9 13 1 0
BITMAP
3e00
7300
e300
c300
e000
6000
3c00
6000
e000
c000
e080
7180
3f00
ENDCHAR
STARTCHAR f
ENCODING 102
SWIDTH 560 0
DWIDTH 14 0
BBX 12 22 1 -5
BITMAP
0600
0600
0600
0600
1f80
36c0
6660
e670
c630
c630
c630
c630
c630
e670
6660
36c0
1f80
0600
0600
0600
0600
0600
ENDCHAR
STARTCHAR g
ENCODING 103
SWIDTH 440 0
DWIDTH 11 0
BBX 11 18 0 -5
BITMAP
7060
f860
9860
98c0
18c0
0cc0
0d80
0d80
0580
0700
0700
0300
0600
0600
0600
0600
0600
0600
ENDCHAR
STARTCHAR h
ENCODING 104
SWIDTH 600 0
DWIDTH 15 0
BBX 12 18 1 -5
BITMAP
71c0
fbe0
9e30
1c30
1830
1830
1830
1830
1830
1830
1830
1830
1830
0030
0030
0030
0030
0030
ENDCHAR
STARTCHAR i
ENCODING 105
SWIDTH 320 0
DWIDTH 8 0
BBX 7 13 1 0
BITMAP
30
70
f0
30
30
30
30
30
30
30
32
3e
1c
ENDCHAR
STARTCHAR j
ENCODING 106
SWIDTH 560 0
DWIDTH 14 0
BBX 12 18 1 -5
BITMAP
3380
73c0
6660
c670
c630
c630
c630
c630
c630
e670
6660
36c0
1f80
0600
0600
0600
0600
0600
ENDCHAR
STARTCHAR k
ENCODING 107
SWIDTH 560 0
DWIDTH 14 0
BBX 12 13 1 0
BITMAP
3070
70f0
f1b0
3300
3600
3c00
3c00
3e00
3700
3380
31c0
30e0
31f0
ENDCHAR
STARTCHAR l
ENCODING 108
SWIDTH 560 0
DWIDTH 14 0
BBX 12 19 1 0
BITMAP
7000
f800
8800
0800
0800
0c00
0c00
0c00
1c00
1e00
1a00
3200
3200
3300
6100
6100
6190
c1f0
c0e0
ENDCHAR
STARTCHAR m
ENCODING 109
SWIDTH 560 0
DWIDTH 14 0
BBX 12 18 2 -5
BITMAP
c180
c180
c180
c180
c180
c180
c180
c180
c180
c180
e390
fff0
de60
c000
c000
e000
e000
e000
ENDCHAR
STARTCHAR n
ENCODING 110
SWIDTH 520 0
DWIDTH 13 0
BBX 11 13 1 0
BITMAP
c0e0
c0e0
c060
6040
60c0
6080
3180
3100
3300
1a00
1a00
0e00
0c00
ENDCHAR
STARTCHAR o
ENCODING 111
SWIDTH 520 0
DWIDTH 13 0
BBX 11 13 1 0
BITMAP
1f00
71c0
60c0
e0e0
c060
c060
c060
c060
c060
e0e0
60c0
71c0
1f00
ENDCHAR
STARTCHAR p
ENCODING 112
SWIDTH 560 0
DWIDTH 14 0
BBX 13 13 0 0
BITMAP
7ff8
fff8
98c0
18c0
18c0
18c0
18c0
18c0
18c0
18c0
18c8
38f8
30f0
ENDCHAR
STARTCHAR q
ENCODING 113
SWIDTH 480 0
DWIDTH 12 0
BBX 10 17 1 0
BITMAP
1e00
3300
6180
6180
c0c0
c0c0
c0c0
c0c0
ffc0
c0c0
c0c0
c0c0
c0c0
6180
6180
3300
1e00
ENDCHAR
STARTCHAR r
ENCODING 114
SWIDTH 480 0
DWIDTH 12 0
BBX 10 18 1 -5
BITMAP
3e00
6380
c180
c1c0
c0c0
c0c0
c0c0
c0c0
c0c0
c1c0
c180
e380
de00
c000
c000
c000
c000
c000
ENDCHAR
STARTCHAR s
ENCODING 115
SWIDTH 600 0
DWIDTH 15 0
BBX 14 13 1 0
BITMAP
1ffc
71fc
60c0
e0e0
c060
c060
c060
c060
c060
e0e0
60c0
71c0
1f00
ENDCHAR
STARTCHAR t
ENCODING 116
SWIDTH 440 0
DWIDTH 11 0
BBX 10 13 0 0
BITMAP
3fc0
7fc0
cc00
8c00
0c00
0c00
0c00
0c00
0c00
0c00
0c80
0f80
0700
ENDCHAR
STARTCHAR u
ENCODING 117
SWIDTH 560 0
DWIDTH 14 0
BBX 13 13 0 0
BITMAP
30e0
7830
d818
9818
1818
1818
1818
1818
1818
1830
0c30
0ee0
07c0
ENDCHAR
STARTCHAR v
ENCODING 118
SWIDTH 720 0
DWIDTH 18 0
BBX 16 14 1 0
BITMAP
7fff
ffff
9818
300c
318c
6186
6186
6186
6186
6186
6186
318c
3bdc
1e78
ENDCHAR
STARTCHAR w
ENCODING 119
SWIDTH 640 0
DWIDTH 16 0
BBX 14 13 1 0
BITMAP
1860
3030
6018
6318
c30c
c30c
c30c
c30c
c30c
c30c
6318
77b8
3cf0
ENDCHAR
STARTCHAR x
ENCODING 120
SWIDTH 480 0
DWIDTH 12 0
BBX 10 24 1 -5
BITMAP
3000
6380
6780
3f00
3000
2000
3780
1f80
3000
6000
c000
8000
8000
8000
c000
f000
7c00
3f80
0fc0
00c0
0040
00c0
0f80
0f00
ENDCHAR
STARTCHAR y
ENCODING 121
SWIDTH 720 0
DWIDTH 18 0
BBX 16 18 1 -5
BITMAP
c183
718e
318c
399c
399c
399c
399c
399c
399c
1998
1998
0db0
07e0
0180
0180
0180
0180
0180
ENDCHAR
STARTCHAR z
ENCODING 122
SWIDTH 480 0
DWIDTH 12 0
BBX 10 24 1 -5
BITMAP
3000
6380
6780
3f00
1800
3000
2000
6000
4000
c000
8000
8000
8000
8000
c000
f000
7c00
3f80
0fc0
00c0
0040
00c0
0f80
0f00
ENDCHAR
STARTCHAR braceleft
ENCODING 123
SWIDTH 400 0
DWIDTH 10 0
BBX 8 22 1 -5
BITMAP
07
0c
18
18
18
18
18
10
30
20
c0
20
30
10
18
18
18
18
18
18
0c
07
ENDCHAR
STARTCHAR bar
ENCODING 124
SWIDTH 160 0
DWIDTH 4 0
BBX 2 22 1 -5
BITMAP
c0
c0
c0
c0
c0
c0
c0
c0
c0
c0
c0
c0
c0
c0
c0
c0
c0
c0
c0
c0
c0
c0
ENDCHAR
STARTCHAR braceright
ENCODING 125
SWIDTH 400 0
DWIDTH 10 0
BBX 8 22 1 -5
BITMAP
e0
30
18
18
18
18
18
08
0c
04
03
04
0c
08
18
18
18
18
18
18
30
e0
ENDCHAR
STARTCHAR asciitilde
ENCODING 126
SWIDTH 520 0
DWIDTH 13 0
BBX 11 4 1 5
BITMAP
3820
7c60
c7c0
8380
ENDCHAR
STARTCHAR exclamdown
ENCODING 161
SWIDTH 600 0
DWIDTH 15 0
BBX 13 17 1 0
BITMAP
0000
0000
0000
0000
0000
0000
0000
0000
0000
0000
0000
0000
0000
0000
0000
0000
0000
ENDCHAR
STARTCHAR cent
ENCODING 162
SWIDTH 240 0
DWIDTH 6 0
BBX 5 6 1 12
BITMAP
e0
70
70
d8
38
b8
ENDCHAR
STARTCHAR sterling
ENCODING 163
SWIDTH 560 0
DWIDTH 14 0
BBX 12 15 0 0
BITMAP
1b30
0e00
0600
0600
0600
0600
0600
0600
0600
0600
0600
0600
0600
1f80
1830
ENDCHAR
STARTCHAR currency
ENCODING 164
SWIDTH 160 0
DWIDTH 4 0
BBX 8 17 -1 0
BITMAP
70
60
c0
80
00
70
01
e0
07
80
1e
00
78
00
e0
00
e0
ENDCHAR
STARTCHAR yen
ENCODING 165
SWIDTH 680 0
DWIDTH 17 0
BBX 15 7 1 4
BITMAP
0078
001e
0002
c000
f000
3000
00fe
ENDCHAR
STARTCHAR brokenbar
ENCODING 166
SWIDTH 520 0
DWIDTH 13 0
BBX 13 22 0 -5
BITMAP
f0f8
f000
0300
0608
0c18
1818
3030
6060
60c0
c0c0
3838
7e78
c7c0
c380
c6c0
7c78
3838
00f0
0198
0198
0300
0300
ENDCHAR
STARTCHAR section
ENCODING 167
SWIDTH 720 0
DWIDTH 18 0
BBX 14 13 2 0
BITMAP
0300
1fe0
0300
0300
0300
0600
0600
0600
0600
0600
0600
0c00
0c00
ENDCHAR
STARTCHAR diaeresis
ENCODING 168
SWIDTH 720 0
DWIDTH 18 0
BBX 10 13 4 0
BITMAP
cc00
cc00
d800
7000
0780
0fc0
0fc0
0fc0
0fc0
7780
fb40
ffc0
ffc0
ENDCHAR
STARTCHAR copyright
ENCODING 169
SWIDTH 720 0
DWIDTH 18 0
BBX 12 13 3 0
BITMAP
fb70
7330
0300
0780
0c00
0c00
1e00
3f00
3f00
7f80
ffc0
7f80
3f00
ENDCHAR
STARTCHAR ordfeminine
ENCODING 170
SWIDTH 720 0
DWIDTH 18 0
BBX 12 13 3 0
BITMAP
3f00
1e00
0c00
0c00
70e0
f9f0
f9f0
fff0
fff0
fff0
7fe0
7fe0
3fc0
ENDCHAR
STARTCHAR guillemotleft
ENCODING 171
SWIDTH 1040 0
DWIDTH 26 0
BBX 24 12 1 1
BITMAP
1f800f
000f00
060006
000600
0f001f
803fc0
7fe07f
e0fff0
fff0f6
f06660
06000f
000600
ENDCHAR
STARTCHAR notsign
ENCODING 172
SWIDTH 1000 0
DWIDTH 25 0
BBX 25 12 0 1
BITMAP
600c0000
18001800
000c6000
06ffff80
ffffff00
00063000
0c180000
0c003000
00600600
00000c00
00001800
00003000
ENDCHAR
STARTCHAR hyphen
ENCODING 173
SWIDTH 560 0
DWIDTH 14 0
BBX 12 31 1 -8
BITMAP
0000
6000
0000
fff0
ff80
fff0
ff80
6000
0000
3000
0000
1800
0000
0c00
0000
0600
0000
0600
0f00
1f80
36c0
6660
c630
0600
0600
0600
0600
0600
0600
0600
0600
ENDCHAR
STARTCHAR registered
ENCODING 174
SWIDTH 1000 0
DWIDTH 25 0
BBX 25 12 0 1
BITMAP
06000600
06000600
06000600
06000600
06000600
06000600
06000600
06000600
06000000
30000000
18000000
0c000000
ENDCHAR
STARTCHAR macron
ENCODING 175
SWIDTH 560 0
DWIDTH 14 0
BBX 12 29 1 -5
BITMAP
0600
0000
0300
fff0
ff80
fff0
ff80
0000
0300
0000
0600
0000
0c00
0000
1800
0000
3000
0600
0600
0600
0600
0600
0600
0600
0600
0600
0600
0600
0600
ENDCHAR
STARTCHAR degree
ENCODING 176
SWIDTH 360 0
DWIDTH 9 0
BBX 7 7 1 10
BITMAP
06
00
06
00
06
00
06
ENDCHAR
STARTCHAR plusminus
ENCODING 177
SWIDTH 480 0
DWIDTH 12 0
BBX 10 14 1 0
BITMAP
0000
0000
0000
0000
0000
0000
0000
00c0
3040
6000
c000
8000
0000
0000
ENDCHAR
STARTCHAR twosuperior
ENCODING 178
SWIDTH 400 0
DWIDTH 10 0
BBX 9 6 1 12
BITMAP
6c80
8280
6c00
0c00
0c00
0c00
ENDCHAR
STARTCHAR threesuperior
ENCODING 179
SWIDTH 560 0
DWIDTH 14 0
BBX 12 15 0 0
BITMAP
0c00
ffc0
ffc0
0c00
0c00
0c00
0c00
0000
0000
ffc0
ffc0
1980
3b80
7700
6600
ENDCHAR
STARTCHAR acute
ENCODING 180
SWIDTH 520 0
DWIDTH 13 0
BBX 11 10 1 2
BITMAP
cc00
8800
e000
7800
1e00
0780
01e0
0060
0060
01e0
ENDCHAR
STARTCHAR mu
ENCODING 181
SWIDTH 640 0
DWIDTH 16 0
BBX 14 7 1 4
BITMAP
0780
3e00
f000
c000
0000
fff0
fff0
ENDCHAR
STARTCHAR paragraph
ENCODING 182
SWIDTH 480 0
DWIDTH 12 0
BBX 10 19 1 0
BITMAP
c040
60c0
3180
1b00
0e00
0e00
1b00
3180
60c0
c040
3800
7c40
c6c0
c380
c7c0
7c40
3800
3e00
6300
ENDCHAR
STARTCHAR periodcentered
ENCODING 183
SWIDTH 480 0
DWIDTH 12 0
BBX 8 8 2 3
BITMAP
c1
80
01
80
00
c0
00
c0
ENDCHAR
STARTCHAR cedilla
ENCODING 184
SWIDTH 480 0
DWIDTH 12 0
BBX 10 8 1 3
BITMAP
00c0
00c0
1ec0
73c0
61c0
c0c0
c0c0
c180
ENDCHAR
STARTCHAR onesuperior
ENCODING 185
SWIDTH 560 0
DWIDTH 14 0
BBX 10 13 2 0
BITMAP
c180
c180
c300
6700
3c00
3c40
ffc0
ffc0
7e00
0c00
0c00
0000
ffc0
ENDCHAR
STARTCHAR masculine
ENCODING 186
SWIDTH 520 0
DWIDTH 13 0
BBX 11 8 1 3
BITMAP
ffc0
0000
0c00
0c00
0180
0180
0300
0300
ENDCHAR
STARTCHAR guillemotright
ENCODING 187
SWIDTH 520 0
DWIDTH 13 0
BBX 11 8 1 3
BITMAP
ffc0
ffc0
0c00
ffc0
ffc0
3000
3000
6000
ENDCHAR
STARTCHAR onequarter
ENCODING 188
SWIDTH 960 0
DWIDTH 24 0
BBX 18 3 3 0
BITMAP
6000c0
e0ffc0
0000c0
ENDCHAR
STARTCHAR onehalf
ENCODING 189
SWIDTH 560 0
DWIDTH 14 0
BBX 2 32 6 -8
BITMAP
c0
c0
c0
00
00
c0
c0
c0
c0
00
00
40
40
c0
c0
80
80
00
00
40
40
c0
c0
80
80
c0
c0
c0
c0
c0
c0
c0
ENDCHAR
STARTCHAR threequarters
ENCODING 190
SWIDTH 1000 0
DWIDTH 25 0
BBX 25 2 0 6
BITMAP
c0c0c080
c0c0c080
ENDCHAR
STARTCHAR questiondown
ENCODING 191
SWIDTH 640 0
DWIDTH 16 0
BBX 14 16 1 0
BITMAP
c0c0
c0c0
c0c0
c0c0
c0c0
c0c0
c0c0
c0c0
c0c0
c0c0
c0c0
c0c0
c0c0
fffc
ff80
fffc
ENDCHAR
STARTCHAR Agrave
ENCODING 192
SWIDTH 560 0
DWIDTH 14 0
BBX 12 16 1 0
BITMAP
ff80
0000
0000
0000
0000
0000
0000
0000
0000
0000
0000
2000
6000
fff0
fff0
6000
ENDCHAR
STARTCHAR Aacute
ENCODING 193
SWIDTH 640 0
DWIDTH 16 0
BBX 14 19 1 -1
BITMAP
2000
8180
c300
e3f0
71f0
3860
1cc0
3c80
6e80
c780
c380
e380
f1c0
70e0
3070
7030
e010
0f80
3ffc
ENDCHAR
STARTCHAR Acircumflex
ENCODING 194
SWIDTH 760 0
DWIDTH 19 0
BBX 17 18 1 0
BITMAP
70f800
304000
40c000
c03080
1c7000
380000
001c00
1c0000
300c00
0cde00
0ff000
c01e00
003f00
006380
00c180
008180
00c180
00e180
ENDCHAR
STARTCHAR Atilde
ENCODING 195
SWIDTH 760 0
DWIDTH 19 0
BBX 15 20 2 -5
BITMAP
0070
b800
39b0
0018
9800
1198
0000
9800
019c
0000
8c00
018c
0018
8680
3f06
804e
0700
0600
0c00
183c
ENDCHAR
STARTCHAR Adiaeresis
ENCODING 196
SWIDTH 720 0
DWIDTH 18 0
BBX 16 17 1 0
BITMAP
30fe
3186
6306
6606
6c06
680c
799c
7398
7230
7a70
5be0
dd80
8c00
8c00
8c00
d800
7000
ENDCHAR
STARTCHAR Aring
ENCODING 197
SWIDTH 720 0
DWIDTH 18 0
BBX 16 17 1 0
BITMAP
07e0
1e78
381c
6006
6816
cc33
c663
c3c3
c183
c3c3
c663
cc33
6816
6006
381c
1e78
07e0
ENDCHAR
STARTCHAR AE
ENCODING 198
SWIDTH 800 0
DWIDTH 20 0
BBX 18 17 1 0
BITMAP
07e000
783800
618640
86c180
c183c0
fbdfc0
c183c0
83c180
618640
063800
1e7800
e003c0
c00fc0
801c00
003000
003000
006000
ENDCHAR
STARTCHAR Ccedilla
ENCODING 199
SWIDTH 720 0
DWIDTH 18 0
BBX 16 13 1 0
BITMAP
8060
3180
6061
8060
c180
6181
8063
0180
6601
803c
0300
3803
003c
ENDCHAR
STARTCHAR Egrave
ENCODING 200
SWIDTH 720 0
DWIDTH 18 0
BBX 16 13 1 0
BITMAP
0e00
6ffc
00c3
f000
07e0
1ff8
381c
6006
6006
c003
c003
c003
c003
ENDCHAR
STARTCHAR Eacute
ENCODING 201
SWIDTH 680 0
DWIDTH 17 0
BBX 15 12 1 0
BITMAP
c002
c002
c002
c002
c002
c002
c002
c002
c002
c002
c002
c002
ENDCHAR
STARTCHAR Ecircumflex
ENCODING 202
SWIDTH 680 0
DWIDTH 17 0
BBX 15 15 1 -3
BITMAP
6006
6006
381c
1ff8
07e0
ffe0
fff8
001c
000c
0006
0006
0006
0006
000c
001c
ENDCHAR
STARTCHAR Ediaeresis
ENCODING 203
SWIDTH 680 0
DWIDTH 17 0
BBX 15 16 1 -2
BITMAP
fff8
ffe0
ffe0
fff8
001c
000c
0006
0006
0006
0006
000c
001c
fff8
ffe0
0000
fffe
ENDCHAR
STARTCHAR Igrave
ENCODING 204
SWIDTH 680 0
DWIDTH 17 0
BBX 15 12 1 0
BITMAP
fffe
000c
000c
0ffe
3ffe
7030
6030
c060
c060
c0c0
c0c0
6180
ENDCHAR
STARTCHAR Iacute
ENCODING 205
SWIDTH 680 0
DWIDTH 17 0
BBX 15 15 1 -3
BITMAP
7180
3ffe
0ffe
0600
0600
0ffe
3ffe
7000
6000
c000
c000
c000
c000
6000
7000
ENDCHAR
STARTCHAR Icircumflex
ENCODING 206
SWIDTH 640 0
DWIDTH 16 0
BBX 12 13 2 0
BITMAP
3ff0
0ff0
0ff0
3ff0
7000
6000
c000
c000
c000
c000
6000
7000
3ff0
ENDCHAR
STARTCHAR Idiaeresis
ENCODING 207
SWIDTH 640 0
DWIDTH 16 0
BBX 12 17 2 -2
BITMAP
0ff0
0000
fff0
fff0
1ff0
7ff0
6000
c000
c000
fff0
fff0
c000
c000
c000
6000
7ff0
1ff0
ENDCHAR
STARTCHAR ETH
ENCODING 208
SWIDTH 760 0
DWIDTH 19 0
BBX 17 16 1 0
BITMAP
00c000
c01f80
7ff000
80c180
c30080
f0ff80
c60080
00cc00
6c0000
f01f80
180000
000000
800000
000000
000000
000000
ENDCHAR
STARTCHAR Ntilde
ENCODING 209
SWIDTH 720 0
DWIDTH 18 0
BBX 16 18 1 0
BITMAP
0000
3000
0060
0000
c000
0180
0003
0000
0600
000c
0000
1800
0030
0000
7fff
80ff
ff80
ffff
ENDCHAR
STARTCHAR Ograve
ENCODING 210
SWIDTH 720 0
DWIDTH 18 0
BBX 16 17 1 0
BITMAP
c003
c002
6006
6004
300c
3008
3018
1810
1830
0c20
0c20
0660
0640
03c0
03c0
0180
0180
ENDCHAR
STARTCHAR Oacute
ENCODING 211
SWIDTH 720 0
DWIDTH 18 0
BBX 16 17 1 0
BITMAP
07e0
1e78
381c
6006
6fe6
c673
c633
c673
c7e3
c6c3
c663
c633
6f3e
6006
381c
1e78
07e0
ENDCHAR
STARTCHAR Ocircumflex
ENCODING 212
SWIDTH 880 0
DWIDTH 22 0
BBX 20 10 1 7
BITMAP
07e010
783810
600660
c6c660
cc23c0
03cc00
cc03c0
23c660
63c660
063810
ENDCHAR
STARTCHAR Otilde
ENCODING 213
SWIDTH 760 0
DWIDTH 19 0
BBX 17 21 1 -3
BITMAP
1e7800
e0ff80
709900
601800
e01800
e01800
601800
601800
601800
601800
603c80
f0ff80
803000
003000
003000
003000
003000
003000
003000
003000
003000
ENDCHAR
STARTCHAR Odiaeresis
ENCODING 214
SWIDTH 560 0
DWIDTH 14 0
BBX 14 23 0 0
BITMAP
0030
0600
3004
0030
0600
3004
0030
0600
3004
0030
0600
3004
0030
0600
3004
00fc
1f80
0004
0004
0004
000c
000c
0008
ENDCHAR
STARTCHAR multiply
ENCODING 215
SWIDTH 240 0
DWIDTH 6 0
BBX 2 3 2 6
BITMAP
00
00
00
ENDCHAR
STARTCHAR Ooblique
ENCODING 216
SWIDTH 680 0
DWIDTH 17 0
BBX 15 8 1 0
BITMAP
0800
1830
1870
10d8
1018
100c
300c
3006
ENDCHAR
STARTCHAR Ugrave
ENCODING 217
SWIDTH 600 0
DWIDTH 15 0
BBX 13 12 1 0
BITMAP
2000
2000
2000
6000
c000
c000
c000
c0c0
c0c0
fff8
fff8
0000
ENDCHAR
STARTCHAR Uacute
ENCODING 218
SWIDTH 600 0
DWIDTH 15 0
BBX 13 12 1 0
BITMAP
0000
0000
0000
0000
0000
0700
0700
0d80
0d80
18c0
18c0
3060
ENDCHAR
STARTCHAR Ucircumflex
ENCODING 219
SWIDTH 1000 0
DWIDTH 25 0
BBX 23 12 1 0
BITMAP
306060
306030
c018c0
18c018
c01860
306030
306030
6018c0
18c00c
800d80
070006
000600
ENDCHAR
STARTCHAR Udiaeresis
ENCODING 220
SWIDTH 1000 0
DWIDTH 25 0
BBX 23 12 1 0
BITMAP
c00c00
601800
303ffe
f87ffe
fce000
0ee000
0e7ffe
fc3ffe
f81800
300c00
600600
c00600
ENDCHAR
STARTCHAR Yacute
ENCODING 221
SWIDTH 560 0
DWIDTH 14 0
BBX 12 23 1 0
BITMAP
0000
0000
1800
0030
fff0
7ff0
fee0
0000
e000
0070
fff0
3ff0
fe10
0000
0c00
0000
0000
0600
0f00
1f80
39c0
79e0
d9b0
ENDCHAR
STARTCHAR THORN
ENCODING 222
SWIDTH 1000 0
DWIDTH 25 0
BBX 23 12 1 0
BITMAP
198018
801980
198018
801980
198018
801980
198018
801980
198018
801980
198018
800000
ENDCHAR
STARTCHAR ssharp
ENCODING 223
SWIDTH 560 0
DWIDTH 14 0
BBX 12 23 1 0
BITMAP
c000
0060
0000
30f0
fff0
fff0
fc00
0000
0000
0ef0
fff0
fff0
f800
0030
0000
6000
00c0
1980
1980
1980
1980
1980
1980
ENDCHAR
STARTCHAR agrave
ENCODING 224
SWIDTH 480 0
DWIDTH 12 0
BBX 10 18 1 0
BITMAP
1980
1980
1980
1980
1980
1980
1980
1980
1980
1980
1980
d980
79c0
39c0
1f80
0f00
0600
0c00
ENDCHAR
STARTCHAR aacute
ENCODING 225
SWIDTH 320 0
DWIDTH 8 0
BBX 7 22 0 -5
BITMAP
0c
00
1e
00
32
00
32
00
60
80
60
80
c0
c0
c0
c0
c0
c0
c0
c0
60
80
ENDCHAR
STARTCHAR acircumflex
ENCODING 226
SWIDTH 720 0
DWIDTH 18 0
BBX 16 17 1 0
BITMAP
6180
3300
3300
1e00
0c00
0c00
0606
0c0c
1818
3030
6060
c0c0
6060
3030
1818
0c0c
0606
ENDCHAR
STARTCHAR atilde
ENCODING 227
SWIDTH 720 0
DWIDTH 18 0
BBX 16 17 1 0
BITMAP
07e0
1e78
381c
6006
67e6
c633
c633
c633
c7e3
c663
c633
c633
6632
6006
381c
1e78
07e0
ENDCHAR
STARTCHAR adiaeresis
ENCODING 228
SWIDTH 800 0
DWIDTH 20 0
BBX 18 10 1 7
BITMAP
07e000
783800
600640
c6c7c0
ce63c0
03cc00
cc03c0
63c7c0
63c640
063800
ENDCHAR
STARTCHAR aring
ENCODING 229
SWIDTH 720 0
DWIDTH 18 0
BBX 14 20 2 -2
BITMAP
1e78
07e0
fec0
c018
c0c0
18e0
c018
e1c0
18f0
c018
d2c0
18dc
c018
ccc0
18cc
c018
ccc0
fff8
e018
7008
ENDCHAR
STARTCHAR ae
ENCODING 230
SWIDTH 400 0
DWIDTH 10 0
BBX 9 31 1 -8
BITMAP
3800
1c00
0e00
0700
0380
0180
0080
0180
0300
0600
0c00
1800
3000
6000
c000
ff80
ff80
0180
0300
0600
0c00
1800
1800
3000
3000
6000
6000
6000
6000
c000
c000
ENDCHAR
STARTCHAR ccedilla
ENCODING 231
SWIDTH 400 0
DWIDTH 10 0
BBX 2 32 1 -8
BITMAP
c0
00
c0
00
c0
00
c0
00
c0
00
c0
00
c0
00
c0
00
c0
00
c0
00
c0
00
c0
00
c0
00
c0
00
c0
00
c0
00
ENDCHAR
STARTCHAR egrave
ENCODING 232
SWIDTH 400 0
DWIDTH 10 0
BBX 9 32 1 -8
BITMAP
c000
c080
c080
c080
c080
c080
c080
c080
c080
c080
c080
c080
c080
c080
c080
c080
c080
c000
c000
c000
c000
c000
c000
c000
c000
c000
c000
c000
c000
c000
c000
c000
ENDCHAR
STARTCHAR eacute
ENCODING 233
SWIDTH 400 0
DWIDTH 10 0
BBX 7 31 1 -8
BITMAP
c0
00
c0
00
c0
00
c0
00
c0
00
60
00
60
00
60
00
60
00
30
00
30
00
18
00
18
00
0c
00
06
00
02
ENDCHAR
STARTCHAR ecircumflex
ENCODING 234
SWIDTH 400 0
DWIDTH 10 0
BBX 2 32 1 -8
BITMAP
00
00
80
c0
c0
c0
c0
c0
c0
c0
c0
c0
c0
c0
c0
c0
c0
c0
c0
c0
c0
c0
c0
c0
c0
c0
c0
c0
c0
c0
c0
c0
ENDCHAR
STARTCHAR ediaeresis
ENCODING 235
SWIDTH 400 0
DWIDTH 10 0
BBX 7 29 1 -5
BITMAP
c0
c0
c0
c0
c0
c0
c0
c0
c0
c0
c0
c0
c0
c0
c0
c0
c0
c0
c0
c0
c0
c0
c0
c0
c0
c0
c0
c0
c0
ENDCHAR
STARTCHAR igrave
ENCODING 236
SWIDTH 480 0
DWIDTH 12 0
BBX 7 31 5 -8
BITMAP
c0
c0
c0
c0
c0
c0
c0
c0
c0
c0
c0
c0
c0
c0
c0
c0
c0
c0
c0
c0
c0
c0
c0
c0
c0
c0
c0
c0
c0
c0
c0
ENDCHAR
STARTCHAR iacute
ENCODING 237
SWIDTH 480 0
DWIDTH 12 0
BBX 5 32 2 -8
BITMAP
c0
c0
f8
18
30
60
60
c0
c0
c0
c0
c0
c0
c0
c0
c0
c0
c0
c0
c0
c0
c0
c0
c0
c0
c0
c0
c0
c0
c0
c0
c0
ENDCHAR
STARTCHAR icircumflex
ENCODING 238
SWIDTH 480 0
DWIDTH 12 0
BBX 7 29 5 -5
BITMAP
c0
c0
18
18
18
18
18
18
18
18
18
18
18
18
10
30
60
c0
60
30
18
18
18
18
18
18
18
18
18
ENDCHAR
STARTCHAR idiaeresis
ENCODING 239
SWIDTH 480 0
DWIDTH 12 0
BBX 2 32 5 -8
BITMAP
00
00
00
00
00
c0
c0
c0
c0
c0
c0
c0
c0
c0
c0
c0
c0
c0
c0
c0
c0
c0
c0
c0
c0
c0
c0
c0
c0
c0
40
40
ENDCHAR
STARTCHAR ntilde
ENCODING 241
SWIDTH 320 0
DWIDTH 8 0
BBX 7 22 1 -5
BITMAP
30
1e
c0
c0
c0
c0
c0
c0
c0
c0
c0
c0
c0
c0
c0
c0
c0
c0
c0
c0
c0
c0
ENDCHAR
STARTCHAR ograve
ENCODING 242
SWIDTH 320 0
DWIDTH 8 0
BBX 8 28 0 -5
BITMAP
c0
c0
c0
c0
c0
c0
c0
c0
c0
c0
c0
c0
00
c0
c0
60
60
30
30
18
18
0c
0c
06
06
0c
0c
18
ENDCHAR
STARTCHAR oacute
ENCODING 243
SWIDTH 680 0
DWIDTH 17 0
BBX 8 31 8 -8
BITMAP
18
30
30
60
60
c0
c0
07
0f
1b
18
18
18
18
18
18
18
18
18
18
18
18
18
18
18
18
18
18
18
18
18
ENDCHAR
STARTCHAR ocircumflex
ENCODING 244
SWIDTH 680 0
DWIDTH 17 0
BBX 2 32 2 -8
BITMAP
00
c0
c0
c0
00
00
00
00
40
40
c0
c0
c0
c0
c0
c0
c0
c0
c0
c0
c0
c0
c0
c0
c0
c0
c0
c0
c0
c0
c0
c0
ENDCHAR
STARTCHAR otilde
ENCODING 245
SWIDTH 680 0
DWIDTH 17 0
BBX 8 26 2 -2
BITMAP
c0
c0
c0
c0
c0
c0
c0
c0
c0
c0
c0
c0
c0
c0
c0
c0
c0
c0
c0
c0
c0
c0
c0
c0
c0
c0
ENDCHAR
STARTCHAR odiaeresis
ENCODING 246
SWIDTH 400 0
DWIDTH 10 0
BBX 9 31 0 -8
BITMAP
c080
c080
c080
c080
c000
0300
0300
0300
0300
0300
0300
0300
0300
0300
0300
0200
cc80
7080
0000
0000
0000
0000
0000
0000
0000
0000
0000
0000
0000
0000
8000
ENDCHAR
STARTCHAR division
ENCODING 247
SWIDTH 400 0
DWIDTH 10 0
BBX 2 32 7 -8
BITMAP
80
00
80
00
80
00
80
00
80
00
80
00
80
00
80
00
80
00
80
00
80
00
80
00
80
00
80
00
80
00
80
00
ENDCHAR
STARTCHAR oslash
ENCODING 248
SWIDTH 400 0
DWIDTH 10 0
BBX 9 32 0 -8
BITMAP
8000
8080
c080
c080
c080
c080
c080
c080
c080
c080
c080
c080
c080
c080
c080
c080
c080
c000
8000
8000
8000
8000
8000
8000
8000
8000
8000
8000
8000
8000
8000
8000
ENDCHAR
STARTCHAR ugrave
ENCODING 249
SWIDTH 400 0
DWIDTH 10 0
BBX 7 31 2 -8
BITMAP
80
00
80
00
80
00
80
00
80
00
80
02
00
02
00
02
00
02
00
06
00
06
00
0c
00
0c
00
18
00
30
00
ENDCHAR
STARTCHAR uacute
ENCODING 250
SWIDTH 400 0
DWIDTH 10 0
BBX 2 32 7 -8
BITMAP
40
00
c0
00
c0
00
00
00
00
00
00
00
00
00
00
00
00
00
00
00
00
00
00
00
00
00
00
00
00
00
00
00
ENDCHAR
STARTCHAR ucircumflex
ENCODING 251
SWIDTH 400 0
DWIDTH 10 0
BBX 7 29 2 -5
BITMAP
06
06
06
c0
c0
c0
c0
c0
c0
c0
c0
c0
c0
c0
c0
c0
c0
c0
c0
c0
c0
c0
c0
c0
c0
c0
c0
c0
c0
ENDCHAR
STARTCHAR udiaeresis
ENCODING 252
SWIDTH 480 0
DWIDTH 12 0
BBX 7 31 0 -8
BITMAP
c0
c0
c0
c0
c0
c0
06
06
06
06
06
06
06
06
06
06
06
06
06
06
06
06
06
06
06
06
06
06
06
06
06
ENDCHAR
STARTCHAR yacute
ENCODING 253
SWIDTH 480 0
DWIDTH 12 0
BBX 5 32 5 -8
BITMAP
00
00
00
f8
f0
18
08
08
00
00
00
00
00
00
00
00
00
00
00
00
00
00
00
00
00
00
00
00
00
00
00
00
ENDCHAR
STARTCHAR thorn
ENCODING 254
SWIDTH 480 0
DWIDTH 12 0
BBX 7 29 0 -5
BITMAP
06
06
06
c0
c0
c0
c0
c0
c0
c0
c0
c0
c0
c0
c0
40
60
30
18
30
60
c0
c0
c0
c0
c0
c0
c0
c0
ENDCHAR
ENDFONT
