STARTFONT 2.1
COMMENT  
COMMENT  Copyright (c) 1984, 1987 Adobe Systems Incorporated. All Rights Reserved. Copyright (c) 1988, 1991 Digital Equipment Corporation. All Rights Reserved.
COMMENT  
COMMENT  WARNING:  This bdf file was generated from a font server using
COMMENT  fstobdf.  The resulting font is subject to the same copyright,
COMMENT  license, and trademark restrictions as the original font.  The
COMMENT  authors and distributors of fstobdf disclaim all liability for
COMMENT  misuse of the program or its output.
COMMENT  
FONT -Adobe-Symbol-Medium-R-Normal--12-120-75-75-P-74-Adobe-FontSpecific
SIZE 12 75 75
FONTBOUNDINGBOX 14 16 -1 -4
STARTPROPERTIES 31
FOUNDRY "Adobe"
FAMILY_NAME "Symbol"
WEIGHT_NAME "Medium"
SLANT "R"
SETWIDTH_NAME "Normal"
ADD_STYLE_NAME ""
PIXEL_SIZE 12
POINT_SIZE 120
RESOLUTION_X 75
RESOLUTION_Y 75
SPACING "P"
AVERAGE_WIDTH 74
CHARSET_REGISTRY "Adobe"
CHARSET_ENCODING "FontSpecific"
CAP_HEIGHT 9
X_HEIGHT 6
FACE_NAME "Symbol"
COPYRIGHT "Copyright (c) 1984, 1987 Adobe Systems Incorporated. All Rights Reserved. Copyright (c) 1988, 1991 Digital Equipment Corporation. All Rights Reserved."
NOTICE "No mark"
_DEC_DEVICE_FONTNAMES "PS=Symbol"
_DEC_PRODUCTINFO "DECwindows Fonts V2.2-1, 18-Nov-1991"
RELATIVE_SETWIDTH 50
RELATIVE_WEIGHT 50
FULL_NAME "Symbol"
FONT "-Adobe-Symbol-Medium-R-Normal--12-120-75-75-P-74-Adobe-FontSpecific"
WEIGHT 10
RESOLUTION 103
QUAD_WIDTH 8
DEFAULT_CHAR 32
FONT_ASCENT 11
FONT_DESCENT 3
ENDPROPERTIES
CHARS 188
STARTCHAR space
ENCODING 32
SWIDTH 240 0
DWIDTH 3 0
BBX 1 1 0 0
BITMAP
00
ENDCHAR
STARTCHAR exclam
ENCODING 33
SWIDTH 320 0
DWIDTH 4 0
BBX 1 9 1 0
BITMAP
80
80
80
80
80
80
80
00
80
ENDCHAR
STARTCHAR quotedbl
ENCODING 34
SWIDTH 720 0
DWIDTH 9 0
BBX 9 9 0 0
BITMAP
8080
4100
4100
3e00
2200
1400
1400
0800
0800
ENDCHAR
STARTCHAR numbersign
ENCODING 35
SWIDTH 560 0
DWIDTH 7 0
BBX 6 9 0 0
BITMAP
28
28
28
fc
50
f8
50
50
50
ENDCHAR
STARTCHAR dollar
ENCODING 36
SWIDTH 560 0
DWIDTH 7 0
BBX 5 9 1 0
BITMAP
f8
08
08
08
f8
08
08
08
f8
ENDCHAR
STARTCHAR percent
ENCODING 37
SWIDTH 800 0
DWIDTH 10 0
BBX 9 9 0 0
BITMAP
7900
9700
9200
6400
0800
1300
1480
2480
6300
ENDCHAR
STARTCHAR ampersand
ENCODING 38
SWIDTH 800 0
DWIDTH 10 0
BBX 9 9 1 0
BITMAP
3000
4800
4800
3700
7200
9a00
8c00
8c80
7300
ENDCHAR
STARTCHAR apostrophe
ENCODING 39
SWIDTH 480 0
DWIDTH 6 0
BBX 4 6 1 0
BITMAP
e0
10
f0
10
10
e0
ENDCHAR
STARTCHAR parenleft
ENCODING 40
SWIDTH 400 0
DWIDTH 5 0
BBX 3 12 1 -3
BITMAP
20
40
40
80
80
80
80
80
80
40
40
20
ENDCHAR
STARTCHAR parenright
ENCODING 41
SWIDTH 400 0
DWIDTH 5 0
BBX 3 12 0 -3
BITMAP
80
40
40
20
20
20
20
20
20
40
40
80
ENDCHAR
STARTCHAR asterisk
ENCODING 42
SWIDTH 480 0
DWIDTH 6 0
BBX 5 5 0 2
BITMAP
20
a8
70
a8
20
ENDCHAR
STARTCHAR plus
ENCODING 43
SWIDTH 560 0
DWIDTH 7 0
BBX 5 5 1 1
BITMAP
20
20
f8
20
20
ENDCHAR
STARTCHAR comma
ENCODING 44
SWIDTH 240 0
DWIDTH 3 0
BBX 2 3 0 -2
BITMAP
40
40
80
ENDCHAR
STARTCHAR minus
ENCODING 45
SWIDTH 560 0
DWIDTH 7 0
BBX 5 1 1 3
BITMAP
f8
ENDCHAR
STARTCHAR period
ENCODING 46
SWIDTH 240 0
DWIDTH 3 0
BBX 1 1 1 0
BITMAP
80
ENDCHAR
STARTCHAR slash
ENCODING 47
SWIDTH 240 0
DWIDTH 3 0
BBX 3 9 0 0
BITMAP
20
20
20
40
40
40
80
80
80
ENDCHAR
STARTCHAR 0
ENCODING 48
SWIDTH 480 0
DWIDTH 6 0
BBX 5 9 0 0
BITMAP
70
88
88
88
88
88
88
88
70
ENDCHAR
STARTCHAR 1
ENCODING 49
SWIDTH 480 0
DWIDTH 6 0
BBX 3 9 1 0
BITMAP
40
c0
40
40
40
40
40
40
e0
ENDCHAR
STARTCHAR 2
ENCODING 50
SWIDTH 480 0
DWIDTH 6 0
BBX 5 9 0 0
BITMAP
70
88
88
08
10
20
40
88
f8
ENDCHAR
STARTCHAR 3
ENCODING 51
SWIDTH 480 0
DWIDTH 6 0
BBX 5 9 0 0
BITMAP
70
88
88
08
30
08
08
88
70
ENDCHAR
STARTCHAR 4
ENCODING 52
SWIDTH 480 0
DWIDTH 6 0
BBX 6 9 0 0
BITMAP
18
28
28
48
48
88
fc
08
08
ENDCHAR
STARTCHAR 5
ENCODING 53
SWIDTH 480 0
DWIDTH 6 0
BBX 5 9 0 0
BITMAP
78
40
80
f0
18
08
08
88
f0
ENDCHAR
STARTCHAR 6
ENCODING 54
SWIDTH 480 0
DWIDTH 6 0
BBX 5 9 0 0
BITMAP
38
40
80
b0
c8
88
88
88
70
ENDCHAR
STARTCHAR 7
ENCODING 55
SWIDTH 480 0
DWIDTH 6 0
BBX 5 9 0 0
BITMAP
f8
88
10
10
20
20
40
40
40
ENDCHAR
STARTCHAR 8
ENCODING 56
SWIDTH 480 0
DWIDTH 6 0
BBX 5 9 0 0
BITMAP
70
88
88
c8
70
98
88
88
70
ENDCHAR
STARTCHAR 9
ENCODING 57
SWIDTH 480 0
DWIDTH 6 0
BBX 5 9 0 0
BITMAP
70
88
88
88
78
10
10
20
40
ENDCHAR
STARTCHAR colon
ENCODING 58
SWIDTH 240 0
DWIDTH 3 0
BBX 1 6 2 0
BITMAP
80
00
00
00
00
80
ENDCHAR
STARTCHAR semicolon
ENCODING 59
SWIDTH 240 0
DWIDTH 3 0
BBX 2 8 0 -2
BITMAP
40
00
00
00
00
40
40
80
ENDCHAR
STARTCHAR less
ENCODING 60
SWIDTH 560 0
DWIDTH 7 0
BBX 6 5 0 1
BITMAP
0c
30
c0
30
0c
ENDCHAR
STARTCHAR equal
ENCODING 61
SWIDTH 560 0
DWIDTH 7 0
BBX 5 3 1 2
BITMAP
f8
00
f8
ENDCHAR
STARTCHAR greater
ENCODING 62
SWIDTH 560 0
DWIDTH 7 0
BBX 6 5 0 1
BITMAP
c0
30
0c
30
c0
ENDCHAR
STARTCHAR question
ENCODING 63
SWIDTH 480 0
DWIDTH 6 0
BBX 5 9 0 0
BITMAP
70
88
88
08
10
20
20
00
20
ENDCHAR
STARTCHAR at
ENCODING 64
SWIDTH 560 0
DWIDTH 7 0
BBX 5 6 1 0
BITMAP
68
b0
00
f8
00
f8
ENDCHAR
STARTCHAR A
ENCODING 65
SWIDTH 720 0
DWIDTH 9 0
BBX 9 9 0 0
BITMAP
0800
1c00
1400
1400
2200
3e00
2200
4100
e380
ENDCHAR
STARTCHAR B
ENCODING 66
SWIDTH 640 0
DWIDTH 8 0
BBX 7 9 0 0
BITMAP
fc
46
42
46
7c
46
42
46
fc
ENDCHAR
STARTCHAR C
ENCODING 67
SWIDTH 720 0
DWIDTH 9 0
BBX 8 9 0 0
BITMAP
e7
42
24
18
18
24
24
42
e7
ENDCHAR
STARTCHAR D
ENCODING 68
SWIDTH 640 0
DWIDTH 8 0
BBX 7 9 0 0
BITMAP
10
10
28
28
44
44
44
82
fe
ENDCHAR
STARTCHAR E
ENCODING 69
SWIDTH 640 0
DWIDTH 8 0
BBX 7 9 0 0
BITMAP
fe
42
40
44
7c
44
40
42
fe
ENDCHAR
STARTCHAR F
ENCODING 70
SWIDTH 800 0
DWIDTH 10 0
BBX 9 9 0 0
BITMAP
1c00
0800
7f00
c980
8880
c980
7f00
0800
1c00
ENDCHAR
STARTCHAR G
ENCODING 71
SWIDTH 640 0
DWIDTH 8 0
BBX 7 9 0 0
BITMAP
fe
42
40
40
40
40
40
40
e0
ENDCHAR
STARTCHAR H
ENCODING 72
SWIDTH 720 0
DWIDTH 9 0
BBX 8 9 0 0
BITMAP
e7
42
42
42
7e
42
42
42
e7
ENDCHAR
STARTCHAR I
ENCODING 73
SWIDTH 320 0
DWIDTH 4 0
BBX 3 9 0 0
BITMAP
e0
40
40
40
40
40
40
40
e0
ENDCHAR
STARTCHAR J
ENCODING 74
SWIDTH 640 0
DWIDTH 8 0
BBX 8 9 0 0
BITMAP
04
0a
0a
66
a3
22
22
26
1c
ENDCHAR
STARTCHAR K
ENCODING 75
SWIDTH 720 0
DWIDTH 9 0
BBX 8 9 0 0
BITMAP
ee
44
48
50
70
48
44
42
e7
ENDCHAR
STARTCHAR L
ENCODING 76
SWIDTH 720 0
DWIDTH 9 0
BBX 9 9 0 0
BITMAP
0800
0800
1400
1400
2200
2200
4100
4100
e380
ENDCHAR
STARTCHAR M
ENCODING 77
SWIDTH 880 0
DWIDTH 11 0
BBX 11 9 0 0
BITMAP
e0e0
60c0
5140
5140
5140
4a40
4a40
4440
e4e0
ENDCHAR
STARTCHAR N
ENCODING 78
SWIDTH 720 0
DWIDTH 9 0
BBX 8 9 0 0
BITMAP
e7
62
52
52
4a
4a
46
46
e2
ENDCHAR
STARTCHAR O
ENCODING 79
SWIDTH 720 0
DWIDTH 9 0
BBX 8 9 0 0
BITMAP
3c
66
42
81
81
81
42
66
3c
ENDCHAR
STARTCHAR P
ENCODING 80
SWIDTH 720 0
DWIDTH 9 0
BBX 8 9 0 0
BITMAP
ff
42
42
42
42
42
42
42
e7
ENDCHAR
STARTCHAR Q
ENCODING 81
SWIDTH 720 0
DWIDTH 9 0
BBX 8 9 0 0
BITMAP
3c
66
42
a5
bd
a5
42
66
3c
ENDCHAR
STARTCHAR R
ENCODING 82
SWIDTH 560 0
DWIDTH 7 0
BBX 6 9 0 0
BITMAP
f8
4c
44
4c
78
40
40
40
e0
ENDCHAR
STARTCHAR S
ENCODING 83
SWIDTH 560 0
DWIDTH 7 0
BBX 7 9 0 0
BITMAP
fc
84
c0
60
30
20
40
82
fe
ENDCHAR
STARTCHAR T
ENCODING 84
SWIDTH 640 0
DWIDTH 8 0
BBX 7 9 0 0
BITMAP
fe
92
92
10
10
10
10
10
38
ENDCHAR
STARTCHAR U
ENCODING 85
SWIDTH 720 0
DWIDTH 9 0
BBX 9 9 0 0
BITMAP
e380
4100
2200
1400
0800
0800
0800
0800
1c00
ENDCHAR
STARTCHAR V
ENCODING 86
SWIDTH 560 0
DWIDTH 7 0
BBX 5 9 1 -3
BITMAP
78
80
80
80
c0
70
08
48
70
ENDCHAR
STARTCHAR W
ENCODING 87
SWIDTH 800 0
DWIDTH 10 0
BBX 10 9 0 0
BITMAP
1e00
3300
2100
4080
4080
4080
2100
9240
f3c0
ENDCHAR
STARTCHAR X
ENCODING 88
SWIDTH 640 0
DWIDTH 8 0
BBX 8 9 0 0
BITMAP
7e
42
00
24
3c
24
00
81
ff
ENDCHAR
STARTCHAR Y
ENCODING 89
SWIDTH 800 0
DWIDTH 10 0
BBX 9 9 0 0
BITMAP
dd80
4900
4900
6b00
3e00
0800
0800
0800
1c00
ENDCHAR
STARTCHAR Z
ENCODING 90
SWIDTH 640 0
DWIDTH 8 0
BBX 6 9 1 0
BITMAP
fc
84
08
10
20
20
40
84
fc
ENDCHAR
STARTCHAR bracketleft
ENCODING 91
SWIDTH 400 0
DWIDTH 5 0
BBX 3 12 1 -3
BITMAP
e0
80
80
80
80
80
80
80
80
80
80
e0
ENDCHAR
STARTCHAR backslash
ENCODING 92
SWIDTH 720 0
DWIDTH 9 0
BBX 7 6 1 0
BITMAP
10
10
00
00
82
82
ENDCHAR
STARTCHAR bracketright
ENCODING 93
SWIDTH 400 0
DWIDTH 5 0
BBX 3 12 0 -3
BITMAP
e0
20
20
20
20
20
20
20
20
20
20
e0
ENDCHAR
STARTCHAR asciicircum
ENCODING 94
SWIDTH 640 0
DWIDTH 8 0
BBX 7 9 0 0
BITMAP
10
10
10
10
10
10
10
10
fe
ENDCHAR
STARTCHAR underscore
ENCODING 95
SWIDTH 480 0
DWIDTH 6 0
BBX 6 1 0 -3
BITMAP
fc
ENDCHAR
STARTCHAR grave
ENCODING 96
SWIDTH 480 0
DWIDTH 6 0
BBX 7 1 0 11
BITMAP
fe
ENDCHAR
STARTCHAR a
ENCODING 97
SWIDTH 640 0
DWIDTH 8 0
BBX 7 6 1 0
BITMAP
74
d4
88
88
d4
66
ENDCHAR
STARTCHAR b
ENCODING 98
SWIDTH 560 0
DWIDTH 7 0
BBX 5 13 1 -3
BITMAP
70
88
88
88
b0
88
88
88
c8
b0
80
80
80
ENDCHAR
STARTCHAR c
ENCODING 99
SWIDTH 560 0
DWIDTH 7 0
BBX 7 9 0 -3
BITMAP
c6
ac
28
18
30
28
68
4a
c6
ENDCHAR
STARTCHAR d
ENCODING 100
SWIDTH 560 0
DWIDTH 7 0
BBX 5 10 1 0
BITMAP
70
98
80
40
70
88
88
88
88
70
ENDCHAR
STARTCHAR e
ENCODING 101
SWIDTH 480 0
DWIDTH 6 0
BBX 4 6 1 0
BITMAP
70
80
e0
80
90
70
ENDCHAR
STARTCHAR f
ENCODING 102
SWIDTH 640 0
DWIDTH 8 0
BBX 7 11 0 -3
BITMAP
10
10
38
54
92
92
54
38
10
10
10
ENDCHAR
STARTCHAR g
ENCODING 103
SWIDTH 560 0
DWIDTH 7 0
BBX 6 9 0 -3
BITMAP
c4
a4
24
24
28
18
10
30
20
ENDCHAR
STARTCHAR h
ENCODING 104
SWIDTH 640 0
DWIDTH 8 0
BBX 7 9 0 -3
BITMAP
6c
b2
22
22
22
22
02
02
02
ENDCHAR
STARTCHAR i
ENCODING 105
SWIDTH 240 0
DWIDTH 3 0
BBX 3 6 0 0
BITMAP
c0
40
40
40
40
60
ENDCHAR
STARTCHAR j
ENCODING 106
SWIDTH 640 0
DWIDTH 8 0
BBX 7 9 0 -3
BITMAP
18
54
92
92
54
38
10
10
10
ENDCHAR
STARTCHAR k
ENCODING 107
SWIDTH 560 0
DWIDTH 7 0
BBX 6 6 0 0
BITMAP
4c
d4
60
70
58
4c
ENDCHAR
STARTCHAR l
ENCODING 108
SWIDTH 560 0
DWIDTH 7 0
BBX 7 9 0 0
BITMAP
60
50
10
30
28
48
48
8a
86
ENDCHAR
STARTCHAR m
ENCODING 109
SWIDTH 640 0
DWIDTH 8 0
BBX 7 9 1 -3
BITMAP
88
88
88
88
9a
ec
80
80
c0
ENDCHAR
STARTCHAR n
ENCODING 110
SWIDTH 560 0
DWIDTH 7 0
BBX 6 6 0 0
BITMAP
cc
44
44
28
28
30
ENDCHAR
STARTCHAR o
ENCODING 111
SWIDTH 560 0
DWIDTH 7 0
BBX 5 6 1 0
BITMAP
70
88
88
88
88
70
ENDCHAR
STARTCHAR p
ENCODING 112
SWIDTH 560 0
DWIDTH 7 0
BBX 7 6 0 0
BITMAP
7e
a4
24
24
26
64
ENDCHAR
STARTCHAR q
ENCODING 113
SWIDTH 560 0
DWIDTH 7 0
BBX 5 9 1 0
BITMAP
70
88
88
88
f8
88
88
88
70
ENDCHAR
STARTCHAR r
ENCODING 114
SWIDTH 560 0
DWIDTH 7 0
BBX 5 9 1 -3
BITMAP
70
88
88
88
c8
b0
80
80
80
ENDCHAR
STARTCHAR s
ENCODING 115
SWIDTH 640 0
DWIDTH 8 0
BBX 6 6 1 0
BITMAP
7c
90
88
88
88
70
ENDCHAR
STARTCHAR t
ENCODING 116
SWIDTH 480 0
DWIDTH 6 0
BBX 5 6 0 0
BITMAP
78
a0
20
20
28
30
ENDCHAR
STARTCHAR u
ENCODING 117
SWIDTH 640 0
DWIDTH 8 0
BBX 7 6 0 0
BITMAP
64
a2
22
22
26
1c
ENDCHAR
STARTCHAR v
ENCODING 118
SWIDTH 720 0
DWIDTH 9 0
BBX 8 7 0 0
BITMAP
7f
a2
49
49
49
49
36
ENDCHAR
STARTCHAR w
ENCODING 119
SWIDTH 720 0
DWIDTH 9 0
BBX 7 6 1 0
BITMAP
44
92
92
92
92
6c
ENDCHAR
STARTCHAR x
ENCODING 120
SWIDTH 480 0
DWIDTH 6 0
BBX 5 14 1 -3
BITMAP
40
80
70
c0
80
f0
40
80
80
c0
70
08
48
70
ENDCHAR
STARTCHAR y
ENCODING 121
SWIDTH 720 0
DWIDTH 9 0
BBX 9 9 0 -3
BITMAP
8880
4900
4900
4900
6b00
3e00
0800
0800
0800
ENDCHAR
STARTCHAR z
ENCODING 122
SWIDTH 480 0
DWIDTH 6 0
BBX 5 13 1 -3
BITMAP
40
98
70
40
80
80
80
80
c0
70
08
48
70
ENDCHAR
STARTCHAR braceleft
ENCODING 123
SWIDTH 480 0
DWIDTH 6 0
BBX 5 12 0 -3
BITMAP
18
20
20
20
40
80
40
20
20
20
20
18
ENDCHAR
STARTCHAR bar
ENCODING 124
SWIDTH 240 0
DWIDTH 3 0
BBX 1 12 1 -3
BITMAP
80
80
80
80
80
80
80
80
80
80
80
80
ENDCHAR
STARTCHAR braceright
ENCODING 125
SWIDTH 480 0
DWIDTH 6 0
BBX 5 12 0 -3
BITMAP
c0
20
20
20
10
08
10
20
20
20
20
c0
ENDCHAR
STARTCHAR asciitilde
ENCODING 126
SWIDTH 560 0
DWIDTH 7 0
BBX 7 3 0 2
BITMAP
62
92
8c
ENDCHAR
STARTCHAR exclamdown
ENCODING 161
SWIDTH 640 0
DWIDTH 8 0
BBX 8 9 0 0
BITMAP
00
00
00
00
00
00
00
00
00
ENDCHAR
STARTCHAR cent
ENCODING 162
SWIDTH 240 0
DWIDTH 3 0
BBX 3 3 1 6
BITMAP
00
00
00
ENDCHAR
STARTCHAR sterling
ENCODING 163
SWIDTH 560 0
DWIDTH 7 0
BBX 6 7 0 0
BITMAP
00
00
00
00
00
00
00
ENDCHAR
STARTCHAR currency
ENCODING 164
SWIDTH 320 0
DWIDTH 4 0
BBX 5 9 -1 0
BITMAP
00
00
00
00
00
00
00
00
00
ENDCHAR
STARTCHAR yen
ENCODING 165
SWIDTH 720 0
DWIDTH 9 0
BBX 9 4 0 1
BITMAP
0000
0000
0000
c600
ENDCHAR
STARTCHAR brokenbar
ENCODING 166
SWIDTH 480 0
DWIDTH 6 0
BBX 6 12 0 -3
BITMAP
28
10
10
10
10
10
38
20
40
80
0c
30
ENDCHAR
STARTCHAR section
ENCODING 167
SWIDTH 720 0
DWIDTH 9 0
BBX 7 7 1 -1
BITMAP
c0
30
0c
00
fc
08
10
ENDCHAR
STARTCHAR diaeresis
ENCODING 168
SWIDTH 560 0
DWIDTH 7 0
BBX 5 6 1 0
BITMAP
10
20
20
40
40
80
ENDCHAR
STARTCHAR copyright
ENCODING 169
SWIDTH 720 0
DWIDTH 9 0
BBX 7 6 1 0
BITMAP
80
76
00
98
80
8c
ENDCHAR
STARTCHAR ordfeminine
ENCODING 170
SWIDTH 720 0
DWIDTH 9 0
BBX 7 7 1 -1
BITMAP
80
76
00
0c
14
10
7c
ENDCHAR
STARTCHAR guillemotleft
ENCODING 171
SWIDTH 1040 0
DWIDTH 13 0
BBX 11 5 1 1
BITMAP
1000
1020
2020
a0c0
3820
ENDCHAR
STARTCHAR notsign
ENCODING 172
SWIDTH 960 0
DWIDTH 12 0
BBX 12 5 0 1
BITMAP
d6f0
d610
1020
70f0
f870
ENDCHAR
STARTCHAR hyphen
ENCODING 173
SWIDTH 560 0
DWIDTH 7 0
BBX 5 16 1 -4
BITMAP
20
68
f8
f8
78
38
10
10
38
78
f8
d0
10
10
20
80
ENDCHAR
STARTCHAR registered
ENCODING 174
SWIDTH 960 0
DWIDTH 12 0
BBX 12 5 0 1
BITMAP
4040
ffe0
4040
2080
2000
ENDCHAR
STARTCHAR macron
ENCODING 175
SWIDTH 560 0
DWIDTH 7 0
BBX 5 15 1 -3
BITMAP
40
00
f8
f0
40
00
20
00
20
70
a8
20
20
20
20
ENDCHAR
STARTCHAR degree
ENCODING 176
SWIDTH 400 0
DWIDTH 5 0
BBX 4 4 0 5
BITMAP
20
20
20
20
ENDCHAR
STARTCHAR plusminus
ENCODING 177
SWIDTH 560 0
DWIDTH 7 0
BBX 5 7 1 0
BITMAP
20
20
20
20
20
00
40
ENDCHAR
STARTCHAR twosuperior
ENCODING 178
SWIDTH 400 0
DWIDTH 5 0
BBX 5 3 0 6
BITMAP
00
20
f8
ENDCHAR
STARTCHAR threesuperior
ENCODING 179
SWIDTH 560 0
DWIDTH 7 0
BBX 6 7 0 0
BITMAP
f0
00
20
00
40
20
20
ENDCHAR
STARTCHAR acute
ENCODING 180
SWIDTH 560 0
DWIDTH 7 0
BBX 5 5 1 1
BITMAP
20
20
20
20
20
ENDCHAR
STARTCHAR mu
ENCODING 181
SWIDTH 720 0
DWIDTH 9 0
BBX 8 4 0 1
BITMAP
20
20
20
20
ENDCHAR
STARTCHAR paragraph
ENCODING 182
SWIDTH 480 0
DWIDTH 6 0
BBX 5 10 0 0
BITMAP
20
a8
70
20
60
90
90
60
20
20
ENDCHAR
STARTCHAR periodcentered
ENCODING 183
SWIDTH 480 0
DWIDTH 6 0
BBX 4 4 1 1
BITMAP
f0
20
20
00
ENDCHAR
STARTCHAR cedilla
ENCODING 184
SWIDTH 560 0
DWIDTH 7 0
BBX 5 5 1 1
BITMAP
f8
28
50
a0
c0
ENDCHAR
STARTCHAR onesuperior
ENCODING 185
SWIDTH 560 0
DWIDTH 7 0
BBX 5 7 1 0
BITMAP
30
08
30
c0
00
f8
88
ENDCHAR
STARTCHAR masculine
ENCODING 186
SWIDTH 560 0
DWIDTH 7 0
BBX 5 5 1 1
BITMAP
50
20
50
88
70
ENDCHAR
STARTCHAR guillemotright
ENCODING 187
SWIDTH 560 0
DWIDTH 7 0
BBX 6 5 0 1
BITMAP
88
88
74
60
90
ENDCHAR
STARTCHAR onequarter
ENCODING 188
SWIDTH 880 0
DWIDTH 11 0
BBX 9 1 1 0
BITMAP
0800
ENDCHAR
STARTCHAR onehalf
ENCODING 189
SWIDTH 560 0
DWIDTH 7 0
BBX 1 16 3 -4
BITMAP
00
80
80
80
80
00
00
80
80
00
00
00
80
00
00
00
ENDCHAR
STARTCHAR threequarters
ENCODING 190
SWIDTH 1040 0
DWIDTH 13 0
BBX 13 1 0 3
BITMAP
10f8
ENDCHAR
STARTCHAR questiondown
ENCODING 191
SWIDTH 640 0
DWIDTH 8 0
BBX 7 8 0 0
BITMAP
20
f8
40
80
f8
00
f8
00
ENDCHAR
STARTCHAR Agrave
ENCODING 192
SWIDTH 800 0
DWIDTH 10 0
BBX 7 9 1 0
BITMAP
f8
64
98
00
64
98
88
80
80
ENDCHAR
STARTCHAR Aacute
ENCODING 193
SWIDTH 720 0
DWIDTH 9 0
BBX 8 11 0 -1
BITMAP
80
80
80
80
80
80
80
80
80
80
80
ENDCHAR
STARTCHAR Acircumflex
ENCODING 194
SWIDTH 800 0
DWIDTH 10 0
BBX 9 10 0 0
BITMAP
8080
8080
ff80
0200
0200
0200
fe00
8880
6600
d480
ENDCHAR
STARTCHAR Atilde
ENCODING 195
SWIDTH 800 0
DWIDTH 10 0
BBX 8 11 1 -3
BITMAP
4c
66
e2
3f
61
42
64
0c
06
03
01
ENDCHAR
STARTCHAR Adiaeresis
ENCODING 196
SWIDTH 800 0
DWIDTH 10 0
BBX 9 9 0 0
BITMAP
6180
1c00
0080
0080
0080
0000
0000
0000
0000
ENDCHAR
STARTCHAR Aring
ENCODING 197
SWIDTH 800 0
DWIDTH 10 0
BBX 9 9 0 0
BITMAP
0000
0080
8000
2600
9180
ab80
6480
9000
1c00
ENDCHAR
STARTCHAR AE
ENCODING 198
SWIDTH 800 0
DWIDTH 10 0
BBX 9 9 0 0
BITMAP
6300
6300
9480
8880
9480
6300
6300
1c00
1c00
ENDCHAR
STARTCHAR Ccedilla
ENCODING 199
SWIDTH 800 0
DWIDTH 10 0
BBX 8 6 1 0
BITMAP
63
00
49
00
88
80
ENDCHAR
STARTCHAR Egrave
ENCODING 200
SWIDTH 800 0
DWIDTH 10 0
BBX 8 6 1 0
BITMAP
be
80
88
80
49
00
ENDCHAR
STARTCHAR Eacute
ENCODING 201
SWIDTH 720 0
DWIDTH 9 0
BBX 8 6 1 0
BITMAP
63
00
1c
00
1c
80
ENDCHAR
STARTCHAR Ecircumflex
ENCODING 202
SWIDTH 720 0
DWIDTH 9 0
BBX 8 8 1 -2
BITMAP
63
00
43
00
84
80
88
80
ENDCHAR
STARTCHAR Ediaeresis
ENCODING 203
SWIDTH 720 0
DWIDTH 9 0
BBX 8 8 0 -1
BITMAP
90
80
61
00
63
00
9c
00
ENDCHAR
STARTCHAR Igrave
ENCODING 204
SWIDTH 720 0
DWIDTH 9 0
BBX 8 6 0 0
BITMAP
3c
42
81
81
81
81
ENDCHAR
STARTCHAR Iacute
ENCODING 205
SWIDTH 720 0
DWIDTH 9 0
BBX 8 8 0 -2
BITMAP
81
81
81
81
42
3c
fc
02
ENDCHAR
STARTCHAR Icircumflex
ENCODING 206
SWIDTH 640 0
DWIDTH 8 0
BBX 6 6 1 0
BITMAP
00
00
00
fc
fc
00
ENDCHAR
STARTCHAR Idiaeresis
ENCODING 207
SWIDTH 640 0
DWIDTH 8 0
BBX 6 8 1 -1
BITMAP
00
00
00
fc
00
fc
00
3c
ENDCHAR
STARTCHAR ETH
ENCODING 208
SWIDTH 800 0
DWIDTH 10 0
BBX 9 9 0 0
BITMAP
4480
8800
3f00
3f00
8080
4000
3f00
8080
4000
ENDCHAR
STARTCHAR Ntilde
ENCODING 209
SWIDTH 720 0
DWIDTH 9 0
BBX 8 9 0 0
BITMAP
00
ff
7c
80
fc
80
80
7c
04
ENDCHAR
STARTCHAR Ograve
ENCODING 210
SWIDTH 800 0
DWIDTH 10 0
BBX 8 9 1 0
BITMAP
7c
88
fc
90
a0
7c
40
00
80
ENDCHAR
STARTCHAR Oacute
ENCODING 211
SWIDTH 800 0
DWIDTH 10 0
BBX 8 9 1 0
BITMAP
01
00
02
00
04
00
08
00
10
ENDCHAR
STARTCHAR Ocircumflex
ENCODING 212
SWIDTH 880 0
DWIDTH 11 0
BBX 11 6 0 3
BITMAP
0020
0040
00e0
80e0
8140
4220
ENDCHAR
STARTCHAR Otilde
ENCODING 213
SWIDTH 800 0
DWIDTH 10 0
BBX 9 11 0 -1
BITMAP
2400
1800
3c00
f980
b980
ed00
3c00
4280
a980
a580
4200
ENDCHAR
STARTCHAR Odiaeresis
ENCODING 214
SWIDTH 560 0
DWIDTH 7 0
BBX 7 12 0 0
BITMAP
fa
80
aa
80
24
40
24
40
24
40
76
60
ENDCHAR
STARTCHAR multiply
ENCODING 215
SWIDTH 240 0
DWIDTH 3 0
BBX 2 1 1 3
BITMAP
c0
ENDCHAR
STARTCHAR Ooblique
ENCODING 216
SWIDTH 720 0
DWIDTH 9 0
BBX 7 4 1 0
BITMAP
80
40
00
40
ENDCHAR
STARTCHAR Ugrave
ENCODING 217
SWIDTH 640 0
DWIDTH 8 0
BBX 6 6 1 0
BITMAP
00
40
00
40
00
40
ENDCHAR
STARTCHAR Uacute
ENCODING 218
SWIDTH 640 0
DWIDTH 8 0
BBX 6 6 1 0
BITMAP
00
40
00
40
00
40
ENDCHAR
STARTCHAR Ucircumflex
ENCODING 219
SWIDTH 1040 0
DWIDTH 13 0
BBX 11 5 1 1
BITMAP
0040
00e0
8000
0200
0400
ENDCHAR
STARTCHAR Udiaeresis
ENCODING 220
SWIDTH 960 0
DWIDTH 12 0
BBX 11 5 0 1
BITMAP
0460
a820
2800
10c0
fe00
ENDCHAR
STARTCHAR Yacute
ENCODING 221
SWIDTH 640 0
DWIDTH 8 0
BBX 5 12 1 -1
BITMAP
00
00
30
30
48
48
80
80
80
80
48
48
ENDCHAR
STARTCHAR THORN
ENCODING 222
SWIDTH 960 0
DWIDTH 12 0
BBX 11 5 1 1
BITMAP
3020
2080
7fc0
c060
7fc0
ENDCHAR
STARTCHAR ssharp
ENCODING 223
SWIDTH 640 0
DWIDTH 8 0
BBX 5 12 1 0
BITMAP
20
80
20
00
78
e0
c0
00
78
e0
20
00
ENDCHAR
STARTCHAR agrave
ENCODING 224
SWIDTH 480 0
DWIDTH 6 0
BBX 6 9 0 0
BITMAP
20
70
d8
50
50
50
50
50
50
ENDCHAR
STARTCHAR aacute
ENCODING 225
SWIDTH 320 0
DWIDTH 4 0
BBX 4 11 0 -1
BITMAP
50
50
50
00
80
f0
c0
00
60
f0
c0
ENDCHAR
STARTCHAR acircumflex
ENCODING 226
SWIDTH 800 0
DWIDTH 10 0
BBX 8 9 1 0
BITMAP
00
80
50
50
50
50
50
50
50
ENDCHAR
STARTCHAR atilde
ENCODING 227
SWIDTH 800 0
DWIDTH 10 0
BBX 8 9 1 0
BITMAP
50
50
d8
70
20
30
30
48
84
ENDCHAR
STARTCHAR adiaeresis
ENCODING 228
SWIDTH 800 0
DWIDTH 10 0
BBX 10 6 0 3
BITMAP
8440
4800
3000
2000
4040
8040
ENDCHAR
STARTCHAR aring
ENCODING 229
SWIDTH 720 0
DWIDTH 9 0
BBX 8 11 0 -1
BITMAP
40
20
20
10
3c
42
b9
a5
b9
a5
a5
ENDCHAR
STARTCHAR ae
ENCODING 230
SWIDTH 400 0
DWIDTH 5 0
BBX 4 16 1 -4
BITMAP
40
30
30
40
90
a0
a0
a0
90
40
30
f0
80
20
80
20
ENDCHAR
STARTCHAR ccedilla
ENCODING 231
SWIDTH 400 0
DWIDTH 5 0
BBX 1 16 1 -4
BITMAP
00
00
00
00
00
00
00
80
80
00
00
00
00
00
00
00
ENDCHAR
STARTCHAR egrave
ENCODING 232
SWIDTH 400 0
DWIDTH 5 0
BBX 4 16 1 -4
BITMAP
80
f0
10
20
20
40
40
40
80
80
80
80
80
80
80
80
ENDCHAR
STARTCHAR eacute
ENCODING 233
SWIDTH 400 0
DWIDTH 5 0
BBX 3 16 1 -4
BITMAP
80
80
80
80
80
80
80
80
80
80
80
80
80
80
80
80
ENDCHAR
STARTCHAR ecircumflex
ENCODING 234
SWIDTH 400 0
DWIDTH 5 0
BBX 1 16 1 -4
BITMAP
80
80
80
80
80
80
80
80
80
80
80
80
00
00
00
00
ENDCHAR
STARTCHAR ediaeresis
ENCODING 235
SWIDTH 400 0
DWIDTH 5 0
BBX 3 15 1 -3
BITMAP
20
00
e0
80
80
80
80
80
80
80
80
80
80
80
80
ENDCHAR
STARTCHAR igrave
ENCODING 236
SWIDTH 480 0
DWIDTH 6 0
BBX 3 16 2 -4
BITMAP
80
80
80
80
80
80
80
80
80
80
80
80
80
80
80
80
ENDCHAR
STARTCHAR iacute
ENCODING 237
SWIDTH 480 0
DWIDTH 6 0
BBX 3 16 0 -4
BITMAP
80
80
80
80
80
80
80
80
80
80
80
80
80
80
80
80
ENDCHAR
STARTCHAR icircumflex
ENCODING 238
SWIDTH 480 0
DWIDTH 6 0
BBX 3 15 2 -3
BITMAP
80
e0
60
80
80
80
80
80
80
80
80
80
80
80
80
ENDCHAR
STARTCHAR idiaeresis
ENCODING 239
SWIDTH 480 0
DWIDTH 6 0
BBX 1 16 2 -4
BITMAP
80
80
80
00
00
00
00
00
00
00
80
00
00
00
00
00
ENDCHAR
STARTCHAR ntilde
ENCODING 241
SWIDTH 320 0
DWIDTH 4 0
BBX 4 12 0 -2
BITMAP
20
20
20
80
80
80
80
80
80
80
80
80
ENDCHAR
STARTCHAR ograve
ENCODING 242
SWIDTH 320 0
DWIDTH 4 0
BBX 5 15 0 -3
BITMAP
80
80
80
80
80
60
80
80
80
80
80
80
80
80
80
ENDCHAR
STARTCHAR oacute
ENCODING 243
SWIDTH 720 0
DWIDTH 9 0
BBX 5 16 4 -4
BITMAP
80
80
80
80
80
80
80
00
80
40
40
20
20
10
10
20
ENDCHAR
STARTCHAR ocircumflex
ENCODING 244
SWIDTH 720 0
DWIDTH 9 0
BBX 1 16 1 -4
BITMAP
00
00
00
80
00
00
00
00
00
00
00
00
00
00
00
00
ENDCHAR
STARTCHAR otilde
ENCODING 245
SWIDTH 720 0
DWIDTH 9 0
BBX 5 15 0 -3
BITMAP
20
a0
c0
38
58
80
80
80
80
80
80
80
80
80
80
ENDCHAR
STARTCHAR odiaeresis
ENCODING 246
SWIDTH 400 0
DWIDTH 5 0
BBX 4 16 0 -4
BITMAP
80
80
80
80
80
80
80
80
80
80
80
80
80
80
80
80
ENDCHAR
STARTCHAR division
ENCODING 247
SWIDTH 400 0
DWIDTH 5 0
BBX 1 16 3 -4
BITMAP
80
80
80
80
00
00
00
00
00
00
00
00
00
00
00
00
ENDCHAR
STARTCHAR oslash
ENCODING 248
SWIDTH 400 0
DWIDTH 5 0
BBX 4 16 0 -4
BITMAP
00
d0
e0
80
40
40
20
20
20
10
10
10
10
10
10
10
ENDCHAR
STARTCHAR ugrave
ENCODING 249
SWIDTH 400 0
DWIDTH 5 0
BBX 3 16 1 -4
BITMAP
00
00
00
80
80
80
80
80
80
80
80
80
80
80
80
80
ENDCHAR
STARTCHAR uacute
ENCODING 250
SWIDTH 400 0
DWIDTH 5 0
BBX 1 16 3 -4
BITMAP
80
80
80
00
00
00
00
00
00
00
00
00
00
00
00
00
ENDCHAR
STARTCHAR ucircumflex
ENCODING 251
SWIDTH 400 0
DWIDTH 5 0
BBX 3 15 1 -3
BITMAP
40
40
80
e0
20
20
20
20
20
20
20
20
20
20
20
ENDCHAR
STARTCHAR udiaeresis
ENCODING 252
SWIDTH 480 0
DWIDTH 6 0
BBX 3 16 0 -4
BITMAP
20
20
20
20
80
80
80
80
80
80
80
80
80
80
80
80
ENDCHAR
STARTCHAR yacute
ENCODING 253
SWIDTH 480 0
DWIDTH 6 0
BBX 3 16 2 -4
BITMAP
80
80
80
80
20
20
20
20
20
20
20
20
20
20
20
20
ENDCHAR
STARTCHAR thorn
ENCODING 254
SWIDTH 480 0
DWIDTH 6 0
BBX 3 15 0 -3
BITMAP
20
20
e0
c0
20
20
20
20
20
20
20
20
20
20
20
ENDCHAR
ENDFONT
