STARTFONT 2.1
COMMENT  
COMMENT  Copyright (c) 1984, 1987 Adobe Systems Incorporated. All Rights Reserved. Copyright (c) 1988, 1991 Digital Equipment Corporation. All Rights Reserved.
COMMENT  
COMMENT  WARNING:  This bdf file was generated from a font server using
COMMENT  fstobdf.  The resulting font is subject to the same copyright,
COMMENT  license, and trademark restrictions as the original font.  The
COMMENT  authors and distributors of fstobdf disclaim all liability for
COMMENT  misuse of the program or its output.
COMMENT  
FONT -Adobe-Symbol-Medium-R-Normal--8-80-75-75-P-51-Adobe-FontSpecific
SIZE 8 75 75
FONTBOUNDINGBOX 9 11 -1 -3
STARTPROPERTIES 31
FOUNDRY "Adobe"
FAMILY_NAME "Symbol"
WEIGHT_NAME "Medium"
SLANT "R"
SETWIDTH_NAME "Normal"
ADD_STYLE_NAME ""
PIXEL_SIZE 8
POINT_SIZE 80
RESOLUTION_X 75
RESOLUTION_Y 75
SPACING "P"
AVERAGE_WIDTH 51
CHARSET_REGISTRY "Adobe"
CHARSET_ENCODING "FontSpecific"
CAP_HEIGHT 6
X_HEIGHT 4
FACE_NAME "Symbol"
COPYRIGHT "Copyright (c) 1984, 1987 Adobe Systems Incorporated. All Rights Reserved. Copyright (c) 1988, 1991 Digital Equipment Corporation. All Rights Reserved."
NOTICE "No mark"
_DEC_DEVICE_FONTNAMES "PS=Symbol"
_DEC_PRODUCTINFO "DECwindows Fonts V2.2-1, 18-Nov-1991"
RELATIVE_SETWIDTH 50
RELATIVE_WEIGHT 50
FULL_NAME "Symbol"
FONT "-Adobe-Symbol-Medium-R-Normal--8-80-75-75-P-51-Adobe-FontSpecific"
WEIGHT 10
RESOLUTION 103
QUAD_WIDTH 5
DEFAULT_CHAR 32
FONT_ASCENT 8
FONT_DESCENT 2
ENDPROPERTIES
CHARS 188
STARTCHAR space
ENCODING 32
SWIDTH 240 0
DWIDTH 2 0
BBX 1 1 0 0
BITMAP
00
ENDCHAR
STARTCHAR exclam
ENCODING 33
SWIDTH 240 0
DWIDTH 2 0
BBX 1 6 1 0
BITMAP
80
80
80
80
00
80
ENDCHAR
STARTCHAR quotedbl
ENCODING 34
SWIDTH 720 0
DWIDTH 6 0
BBX 5 6 0 0
BITMAP
88
88
70
50
20
20
ENDCHAR
STARTCHAR numbersign
ENCODING 35
SWIDTH 480 0
DWIDTH 4 0
BBX 5 6 -1 0
BITMAP
50
f8
50
50
f8
50
ENDCHAR
STARTCHAR dollar
ENCODING 36
SWIDTH 600 0
DWIDTH 5 0
BBX 4 6 0 0
BITMAP
f0
10
10
70
10
f0
ENDCHAR
STARTCHAR percent
ENCODING 37
SWIDTH 720 0
DWIDTH 6 0
BBX 5 5 0 0
BITMAP
c8
d0
20
58
98
ENDCHAR
STARTCHAR ampersand
ENCODING 38
SWIDTH 720 0
DWIDTH 6 0
BBX 5 6 0 0
BITMAP
60
50
20
f8
a0
58
ENDCHAR
STARTCHAR apostrophe
ENCODING 39
SWIDTH 480 0
DWIDTH 4 0
BBX 3 4 0 0
BITMAP
c0
60
20
c0
ENDCHAR
STARTCHAR parenleft
ENCODING 40
SWIDTH 360 0
DWIDTH 3 0
BBX 2 8 0 -2
BITMAP
40
80
80
80
80
80
80
40
ENDCHAR
STARTCHAR parenright
ENCODING 41
SWIDTH 360 0
DWIDTH 3 0
BBX 2 8 1 -2
BITMAP
80
40
40
40
40
40
40
80
ENDCHAR
STARTCHAR asterisk
ENCODING 42
SWIDTH 480 0
DWIDTH 4 0
BBX 3 3 1 2
BITMAP
40
e0
a0
ENDCHAR
STARTCHAR plus
ENCODING 43
SWIDTH 600 0
DWIDTH 5 0
BBX 5 5 0 0
BITMAP
20
20
f8
20
20
ENDCHAR
STARTCHAR comma
ENCODING 44
SWIDTH 240 0
DWIDTH 2 0
BBX 2 3 0 -2
BITMAP
40
40
80
ENDCHAR
STARTCHAR minus
ENCODING 45
SWIDTH 600 0
DWIDTH 5 0
BBX 5 1 0 2
BITMAP
f8
ENDCHAR
STARTCHAR period
ENCODING 46
SWIDTH 240 0
DWIDTH 2 0
BBX 1 1 1 0
BITMAP
80
ENDCHAR
STARTCHAR slash
ENCODING 47
SWIDTH 240 0
DWIDTH 2 0
BBX 2 6 0 0
BITMAP
40
40
40
80
80
80
ENDCHAR
STARTCHAR 0
ENCODING 48
SWIDTH 480 0
DWIDTH 4 0
BBX 3 6 0 0
BITMAP
40
a0
a0
a0
a0
40
ENDCHAR
STARTCHAR 1
ENCODING 49
SWIDTH 480 0
DWIDTH 4 0
BBX 3 6 0 0
BITMAP
40
c0
40
40
40
e0
ENDCHAR
STARTCHAR 2
ENCODING 50
SWIDTH 480 0
DWIDTH 4 0
BBX 3 6 0 0
BITMAP
40
a0
20
40
80
e0
ENDCHAR
STARTCHAR 3
ENCODING 51
SWIDTH 480 0
DWIDTH 4 0
BBX 3 6 0 0
BITMAP
40
a0
20
60
20
c0
ENDCHAR
STARTCHAR 4
ENCODING 52
SWIDTH 480 0
DWIDTH 4 0
BBX 4 6 0 0
BITMAP
20
60
a0
f0
20
20
ENDCHAR
STARTCHAR 5
ENCODING 53
SWIDTH 480 0
DWIDTH 4 0
BBX 3 6 0 0
BITMAP
e0
80
c0
20
20
c0
ENDCHAR
STARTCHAR 6
ENCODING 54
SWIDTH 480 0
DWIDTH 4 0
BBX 3 6 0 0
BITMAP
60
80
c0
a0
a0
40
ENDCHAR
STARTCHAR 7
ENCODING 55
SWIDTH 480 0
DWIDTH 4 0
BBX 3 6 0 0
BITMAP
e0
a0
20
40
40
40
ENDCHAR
STARTCHAR 8
ENCODING 56
SWIDTH 480 0
DWIDTH 4 0
BBX 3 6 0 0
BITMAP
40
a0
40
a0
a0
40
ENDCHAR
STARTCHAR 9
ENCODING 57
SWIDTH 480 0
DWIDTH 4 0
BBX 3 6 0 0
BITMAP
40
a0
a0
e0
20
c0
ENDCHAR
STARTCHAR colon
ENCODING 58
SWIDTH 240 0
DWIDTH 2 0
BBX 1 4 1 0
BITMAP
80
00
00
80
ENDCHAR
STARTCHAR semicolon
ENCODING 59
SWIDTH 240 0
DWIDTH 2 0
BBX 2 6 0 -2
BITMAP
40
00
00
40
40
80
ENDCHAR
STARTCHAR less
ENCODING 60
SWIDTH 720 0
DWIDTH 6 0
BBX 5 5 0 0
BITMAP
18
60
c0
60
18
ENDCHAR
STARTCHAR equal
ENCODING 61
SWIDTH 600 0
DWIDTH 5 0
BBX 4 3 0 1
BITMAP
f0
00
f0
ENDCHAR
STARTCHAR greater
ENCODING 62
SWIDTH 600 0
DWIDTH 5 0
BBX 5 5 0 0
BITMAP
c0
30
18
30
c0
ENDCHAR
STARTCHAR question
ENCODING 63
SWIDTH 480 0
DWIDTH 4 0
BBX 3 6 0 0
BITMAP
40
a0
20
40
00
40
ENDCHAR
STARTCHAR at
ENCODING 64
SWIDTH 600 0
DWIDTH 5 0
BBX 4 6 0 0
BITMAP
50
a0
00
f0
00
f0
ENDCHAR
STARTCHAR A
ENCODING 65
SWIDTH 720 0
DWIDTH 6 0
BBX 5 6 0 0
BITMAP
20
70
50
70
50
d8
ENDCHAR
STARTCHAR B
ENCODING 66
SWIDTH 600 0
DWIDTH 5 0
BBX 4 6 0 0
BITMAP
e0
50
60
50
50
e0
ENDCHAR
STARTCHAR C
ENCODING 67
SWIDTH 720 0
DWIDTH 6 0
BBX 5 6 0 0
BITMAP
88
50
20
20
50
88
ENDCHAR
STARTCHAR D
ENCODING 68
SWIDTH 720 0
DWIDTH 6 0
BBX 5 6 0 0
BITMAP
20
50
50
88
88
f8
ENDCHAR
STARTCHAR E
ENCODING 69
SWIDTH 600 0
DWIDTH 5 0
BBX 4 6 0 0
BITMAP
f0
40
70
40
40
f0
ENDCHAR
STARTCHAR F
ENCODING 70
SWIDTH 720 0
DWIDTH 6 0
BBX 5 6 1 0
BITMAP
70
20
a8
a8
20
70
ENDCHAR
STARTCHAR G
ENCODING 71
SWIDTH 600 0
DWIDTH 5 0
BBX 4 6 0 0
BITMAP
f0
50
40
40
40
c0
ENDCHAR
STARTCHAR H
ENCODING 72
SWIDTH 720 0
DWIDTH 6 0
BBX 5 6 0 0
BITMAP
d8
48
78
48
48
d8
ENDCHAR
STARTCHAR I
ENCODING 73
SWIDTH 240 0
DWIDTH 2 0
BBX 2 6 0 0
BITMAP
c0
40
40
40
40
c0
ENDCHAR
STARTCHAR J
ENCODING 74
SWIDTH 720 0
DWIDTH 6 0
BBX 5 6 1 0
BITMAP
60
50
38
d0
50
60
ENDCHAR
STARTCHAR K
ENCODING 75
SWIDTH 720 0
DWIDTH 6 0
BBX 5 6 0 0
BITMAP
d8
50
60
60
50
d8
ENDCHAR
STARTCHAR L
ENCODING 76
SWIDTH 720 0
DWIDTH 6 0
BBX 6 6 0 0
BITMAP
20
30
48
48
48
cc
ENDCHAR
STARTCHAR M
ENCODING 77
SWIDTH 960 0
DWIDTH 8 0
BBX 7 6 0 0
BITMAP
c6
44
6c
54
54
d6
ENDCHAR
STARTCHAR N
ENCODING 78
SWIDTH 720 0
DWIDTH 6 0
BBX 5 6 0 0
BITMAP
d8
48
68
78
58
c8
ENDCHAR
STARTCHAR O
ENCODING 79
SWIDTH 720 0
DWIDTH 6 0
BBX 5 6 0 0
BITMAP
70
d8
88
88
d8
70
ENDCHAR
STARTCHAR P
ENCODING 80
SWIDTH 720 0
DWIDTH 6 0
BBX 6 6 0 0
BITMAP
fc
48
48
48
48
d8
ENDCHAR
STARTCHAR Q
ENCODING 81
SWIDTH 720 0
DWIDTH 6 0
BBX 5 6 0 0
BITMAP
70
d8
a8
a8
d8
70
ENDCHAR
STARTCHAR R
ENCODING 82
SWIDTH 600 0
DWIDTH 5 0
BBX 4 6 0 0
BITMAP
e0
50
50
60
40
e0
ENDCHAR
STARTCHAR S
ENCODING 83
SWIDTH 600 0
DWIDTH 5 0
BBX 4 6 0 0
BITMAP
f0
90
40
40
90
f0
ENDCHAR
STARTCHAR T
ENCODING 84
SWIDTH 600 0
DWIDTH 5 0
BBX 4 6 0 0
BITMAP
f0
50
40
40
40
60
ENDCHAR
STARTCHAR U
ENCODING 85
SWIDTH 720 0
DWIDTH 6 0
BBX 5 6 0 0
BITMAP
d8
48
50
20
20
70
ENDCHAR
STARTCHAR V
ENCODING 86
SWIDTH 480 0
DWIDTH 4 0
BBX 3 6 0 -2
BITMAP
60
80
80
40
20
40
ENDCHAR
STARTCHAR W
ENCODING 87
SWIDTH 840 0
DWIDTH 7 0
BBX 5 6 1 0
BITMAP
20
50
88
88
50
d8
ENDCHAR
STARTCHAR X
ENCODING 88
SWIDTH 720 0
DWIDTH 6 0
BBX 5 6 0 0
BITMAP
70
00
70
00
88
f8
ENDCHAR
STARTCHAR Y
ENCODING 89
SWIDTH 840 0
DWIDTH 7 0
BBX 7 6 0 0
BITMAP
d6
54
54
7c
10
38
ENDCHAR
STARTCHAR Z
ENCODING 90
SWIDTH 600 0
DWIDTH 5 0
BBX 4 6 0 0
BITMAP
f0
90
20
40
90
f0
ENDCHAR
STARTCHAR bracketleft
ENCODING 91
SWIDTH 240 0
DWIDTH 2 0
BBX 2 8 0 -2
BITMAP
c0
80
80
80
80
80
80
c0
ENDCHAR
STARTCHAR backslash
ENCODING 92
SWIDTH 720 0
DWIDTH 6 0
BBX 4 4 1 0
BITMAP
40
00
00
90
ENDCHAR
STARTCHAR bracketright
ENCODING 93
SWIDTH 240 0
DWIDTH 2 0
BBX 2 8 1 -2
BITMAP
c0
40
40
40
40
40
40
c0
ENDCHAR
STARTCHAR asciicircum
ENCODING 94
SWIDTH 720 0
DWIDTH 6 0
BBX 4 6 1 0
BITMAP
40
40
40
40
40
f0
ENDCHAR
STARTCHAR underscore
ENCODING 95
SWIDTH 480 0
DWIDTH 4 0
BBX 4 1 0 -2
BITMAP
f0
ENDCHAR
STARTCHAR grave
ENCODING 96
SWIDTH 480 0
DWIDTH 4 0
BBX 5 1 0 7
BITMAP
f8
ENDCHAR
STARTCHAR a
ENCODING 97
SWIDTH 720 0
DWIDTH 6 0
BBX 4 4 0 0
BITMAP
50
b0
a0
50
ENDCHAR
STARTCHAR b
ENCODING 98
SWIDTH 480 0
DWIDTH 4 0
BBX 3 9 0 -2
BITMAP
40
a0
a0
c0
a0
a0
c0
80
80
ENDCHAR
STARTCHAR c
ENCODING 99
SWIDTH 600 0
DWIDTH 5 0
BBX 4 6 0 -2
BITMAP
b0
a0
40
40
a0
b0
ENDCHAR
STARTCHAR d
ENCODING 100
SWIDTH 480 0
DWIDTH 4 0
BBX 3 7 0 0
BITMAP
40
a0
80
40
a0
a0
c0
ENDCHAR
STARTCHAR e
ENCODING 101
SWIDTH 480 0
DWIDTH 4 0
BBX 3 4 0 0
BITMAP
60
e0
80
60
ENDCHAR
STARTCHAR f
ENCODING 102
SWIDTH 600 0
DWIDTH 5 0
BBX 4 8 0 -2
BITMAP
40
40
60
d0
d0
60
40
40
ENDCHAR
STARTCHAR g
ENCODING 103
SWIDTH 600 0
DWIDTH 5 0
BBX 4 6 0 -2
BITMAP
50
d0
60
20
40
40
ENDCHAR
STARTCHAR h
ENCODING 104
SWIDTH 600 0
DWIDTH 5 0
BBX 4 6 0 -2
BITMAP
60
d0
50
50
10
10
ENDCHAR
STARTCHAR i
ENCODING 105
SWIDTH 360 0
DWIDTH 3 0
BBX 2 4 0 0
BITMAP
c0
40
40
40
ENDCHAR
STARTCHAR j
ENCODING 106
SWIDTH 600 0
DWIDTH 5 0
BBX 4 6 0 -2
BITMAP
a0
d0
d0
60
40
40
ENDCHAR
STARTCHAR k
ENCODING 107
SWIDTH 600 0
DWIDTH 5 0
BBX 4 4 0 0
BITMAP
50
f0
60
50
ENDCHAR
STARTCHAR l
ENCODING 108
SWIDTH 600 0
DWIDTH 5 0
BBX 5 7 0 0
BITMAP
80
c0
40
20
60
90
98
ENDCHAR
STARTCHAR m
ENCODING 109
SWIDTH 600 0
DWIDTH 5 0
BBX 4 6 0 -2
BITMAP
a0
a0
a0
d0
80
c0
ENDCHAR
STARTCHAR n
ENCODING 110
SWIDTH 600 0
DWIDTH 5 0
BBX 4 4 0 0
BITMAP
90
90
e0
40
ENDCHAR
STARTCHAR o
ENCODING 111
SWIDTH 480 0
DWIDTH 4 0
BBX 3 4 0 0
BITMAP
40
a0
a0
40
ENDCHAR
STARTCHAR p
ENCODING 112
SWIDTH 600 0
DWIDTH 5 0
BBX 4 4 0 0
BITMAP
f0
50
50
d0
ENDCHAR
STARTCHAR q
ENCODING 113
SWIDTH 480 0
DWIDTH 4 0
BBX 3 6 0 0
BITMAP
40
a0
e0
a0
a0
40
ENDCHAR
STARTCHAR r
ENCODING 114
SWIDTH 480 0
DWIDTH 4 0
BBX 3 6 0 -2
BITMAP
40
a0
a0
c0
80
80
ENDCHAR
STARTCHAR s
ENCODING 115
SWIDTH 600 0
DWIDTH 5 0
BBX 4 4 0 0
BITMAP
70
a0
a0
40
ENDCHAR
STARTCHAR t
ENCODING 116
SWIDTH 480 0
DWIDTH 4 0
BBX 3 4 0 0
BITMAP
e0
40
40
60
ENDCHAR
STARTCHAR u
ENCODING 117
SWIDTH 600 0
DWIDTH 5 0
BBX 4 4 0 0
BITMAP
50
d0
50
60
ENDCHAR
STARTCHAR v
ENCODING 118
SWIDTH 720 0
DWIDTH 6 0
BBX 5 5 0 0
BITMAP
f8
a8
a8
a8
58
ENDCHAR
STARTCHAR w
ENCODING 119
SWIDTH 720 0
DWIDTH 6 0
BBX 5 4 0 0
BITMAP
88
a8
a8
58
ENDCHAR
STARTCHAR x
ENCODING 120
SWIDTH 480 0
DWIDTH 4 0
BBX 3 9 0 -2
BITMAP
80
e0
40
60
80
80
40
20
60
ENDCHAR
STARTCHAR y
ENCODING 121
SWIDTH 720 0
DWIDTH 6 0
BBX 5 6 0 -2
BITMAP
a8
a8
a8
70
20
20
ENDCHAR
STARTCHAR z
ENCODING 122
SWIDTH 480 0
DWIDTH 4 0
BBX 3 9 0 -2
BITMAP
80
e0
40
80
80
80
40
20
60
ENDCHAR
STARTCHAR braceleft
ENCODING 123
SWIDTH 480 0
DWIDTH 4 0
BBX 3 9 1 -2
BITMAP
20
40
40
40
80
40
40
40
20
ENDCHAR
STARTCHAR bar
ENCODING 124
SWIDTH 240 0
DWIDTH 2 0
BBX 1 8 0 -2
BITMAP
80
80
80
80
80
80
80
80
ENDCHAR
STARTCHAR braceright
ENCODING 125
SWIDTH 480 0
DWIDTH 4 0
BBX 3 9 1 -2
BITMAP
80
40
40
40
20
40
40
40
80
ENDCHAR
STARTCHAR asciitilde
ENCODING 126
SWIDTH 600 0
DWIDTH 5 0
BBX 4 2 0 1
BITMAP
50
a0
ENDCHAR
STARTCHAR exclamdown
ENCODING 161
SWIDTH 720 0
DWIDTH 6 0
BBX 5 6 0 0
BITMAP
00
00
00
00
00
00
ENDCHAR
STARTCHAR cent
ENCODING 162
SWIDTH 240 0
DWIDTH 2 0
BBX 2 3 0 4
BITMAP
00
00
00
ENDCHAR
STARTCHAR sterling
ENCODING 163
SWIDTH 600 0
DWIDTH 5 0
BBX 4 6 0 0
BITMAP
00
00
00
00
00
00
ENDCHAR
STARTCHAR currency
ENCODING 164
SWIDTH 240 0
DWIDTH 2 0
BBX 4 7 -1 0
BITMAP
00
00
00
00
00
00
00
ENDCHAR
STARTCHAR yen
ENCODING 165
SWIDTH 720 0
DWIDTH 6 0
BBX 5 3 0 1
BITMAP
00
00
00
ENDCHAR
STARTCHAR brokenbar
ENCODING 166
SWIDTH 480 0
DWIDTH 4 0
BBX 4 8 0 -2
BITMAP
00
00
00
00
00
00
00
00
ENDCHAR
STARTCHAR section
ENCODING 167
SWIDTH 720 0
DWIDTH 6 0
BBX 4 6 1 -1
BITMAP
00
90
a0
40
40
40
ENDCHAR
STARTCHAR diaeresis
ENCODING 168
SWIDTH 720 0
DWIDTH 6 0
BBX 5 6 1 -1
BITMAP
40
40
40
80
30
40
ENDCHAR
STARTCHAR copyright
ENCODING 169
SWIDTH 720 0
DWIDTH 6 0
BBX 5 6 1 -1
BITMAP
80
70
00
f0
10
20
ENDCHAR
STARTCHAR ordfeminine
ENCODING 170
SWIDTH 720 0
DWIDTH 6 0
BBX 4 6 1 0
BITMAP
20
40
40
40
80
50
ENDCHAR
STARTCHAR guillemotleft
ENCODING 171
SWIDTH 960 0
DWIDTH 8 0
BBX 8 5 0 0
BITMAP
a8
50
30
40
e0
ENDCHAR
STARTCHAR notsign
ENCODING 172
SWIDTH 960 0
DWIDTH 8 0
BBX 8 5 0 0
BITMAP
40
40
40
40
80
ENDCHAR
STARTCHAR hyphen
ENCODING 173
SWIDTH 600 0
DWIDTH 5 0
BBX 5 11 0 -3
BITMAP
60
60
f0
f0
40
40
20
70
f8
f0
60
ENDCHAR
STARTCHAR registered
ENCODING 174
SWIDTH 960 0
DWIDTH 8 0
BBX 8 5 0 0
BITMAP
40
48
d8
f8
f0
ENDCHAR
STARTCHAR macron
ENCODING 175
SWIDTH 600 0
DWIDTH 5 0
BBX 5 10 0 -2
BITMAP
60
40
20
60
f0
f0
50
40
20
40
ENDCHAR
STARTCHAR degree
ENCODING 176
SWIDTH 360 0
DWIDTH 3 0
BBX 3 3 0 3
BITMAP
e0
40
20
ENDCHAR
STARTCHAR plusminus
ENCODING 177
SWIDTH 600 0
DWIDTH 5 0
BBX 5 6 0 0
BITMAP
20
40
f8
40
20
20
ENDCHAR
STARTCHAR twosuperior
ENCODING 178
SWIDTH 360 0
DWIDTH 3 0
BBX 4 3 0 4
BITMAP
70
a0
20
ENDCHAR
STARTCHAR threesuperior
ENCODING 179
SWIDTH 600 0
DWIDTH 5 0
BBX 4 6 0 0
BITMAP
20
20
20
20
20
20
ENDCHAR
STARTCHAR acute
ENCODING 180
SWIDTH 600 0
DWIDTH 5 0
BBX 4 4 0 0
BITMAP
20
00
00
f0
ENDCHAR
STARTCHAR mu
ENCODING 181
SWIDTH 720 0
DWIDTH 6 0
BBX 5 3 0 1
BITMAP
00
00
20
ENDCHAR
STARTCHAR paragraph
ENCODING 182
SWIDTH 480 0
DWIDTH 4 0
BBX 3 7 0 0
BITMAP
20
20
20
20
20
20
a0
ENDCHAR
STARTCHAR periodcentered
ENCODING 183
SWIDTH 480 0
DWIDTH 4 0
BBX 3 3 0 1
BITMAP
60
20
40
ENDCHAR
STARTCHAR cedilla
ENCODING 184
SWIDTH 600 0
DWIDTH 5 0
BBX 4 5 0 0
BITMAP
a0
40
20
20
f0
ENDCHAR
STARTCHAR onesuperior
ENCODING 185
SWIDTH 600 0
DWIDTH 5 0
BBX 4 7 0 -2
BITMAP
20
20
f0
50
50
a0
c0
ENDCHAR
STARTCHAR masculine
ENCODING 186
SWIDTH 600 0
DWIDTH 5 0
BBX 4 5 0 0
BITMAP
20
10
e0
00
f0
ENDCHAR
STARTCHAR guillemotright
ENCODING 187
SWIDTH 600 0
DWIDTH 5 0
BBX 4 5 0 0
BITMAP
90
60
60
90
50
ENDCHAR
STARTCHAR onequarter
ENCODING 188
SWIDTH 840 0
DWIDTH 7 0
BBX 5 1 1 0
BITMAP
a0
ENDCHAR
STARTCHAR onehalf
ENCODING 189
SWIDTH 600 0
DWIDTH 5 0
BBX 1 11 2 -3
BITMAP
00
00
80
00
00
80
80
00
00
80
00
ENDCHAR
STARTCHAR threequarters
ENCODING 190
SWIDTH 960 0
DWIDTH 8 0
BBX 8 1 0 2
BITMAP
60
ENDCHAR
STARTCHAR questiondown
ENCODING 191
SWIDTH 720 0
DWIDTH 6 0
BBX 5 5 0 0
BITMAP
00
f0
00
60
20
ENDCHAR
STARTCHAR Agrave
ENCODING 192
SWIDTH 720 0
DWIDTH 6 0
BBX 5 6 0 0
BITMAP
20
f0
20
f0
40
40
ENDCHAR
STARTCHAR Aacute
ENCODING 193
SWIDTH 720 0
DWIDTH 6 0
BBX 5 7 0 0
BITMAP
f0
00
f0
00
f0
50
a0
ENDCHAR
STARTCHAR Acircumflex
ENCODING 194
SWIDTH 720 0
DWIDTH 6 0
BBX 6 7 0 0
BITMAP
00
50
a0
a8
80
80
80
ENDCHAR
STARTCHAR Atilde
ENCODING 195
SWIDTH 840 0
DWIDTH 7 0
BBX 5 7 1 -2
BITMAP
80
80
80
80
80
80
80
ENDCHAR
STARTCHAR Adiaeresis
ENCODING 196
SWIDTH 720 0
DWIDTH 6 0
BBX 5 6 0 0
BITMAP
80
f8
08
08
48
f8
ENDCHAR
STARTCHAR Aring
ENCODING 197
SWIDTH 720 0
DWIDTH 6 0
BBX 5 6 0 0
BITMAP
40
d8
48
68
78
d8
ENDCHAR
STARTCHAR AE
ENCODING 198
SWIDTH 720 0
DWIDTH 6 0
BBX 5 8 0 -1
BITMAP
c8
78
88
90
10
08
c8
78
ENDCHAR
STARTCHAR Ccedilla
ENCODING 199
SWIDTH 720 0
DWIDTH 6 0
BBX 5 4 0 0
BITMAP
58
a0
a0
38
ENDCHAR
STARTCHAR Egrave
ENCODING 200
SWIDTH 720 0
DWIDTH 6 0
BBX 5 4 0 0
BITMAP
28
68
c8
40
ENDCHAR
STARTCHAR Eacute
ENCODING 201
SWIDTH 720 0
DWIDTH 6 0
BBX 5 4 0 0
BITMAP
98
a8
c8
70
ENDCHAR
STARTCHAR Ecircumflex
ENCODING 202
SWIDTH 720 0
DWIDTH 6 0
BBX 5 6 0 -2
BITMAP
c0
40
70
d8
a8
a8
ENDCHAR
STARTCHAR Ediaeresis
ENCODING 203
SWIDTH 720 0
DWIDTH 6 0
BBX 5 6 0 -1
BITMAP
d8
70
70
a8
f8
a8
ENDCHAR
STARTCHAR Igrave
ENCODING 204
SWIDTH 720 0
DWIDTH 6 0
BBX 5 4 0 0
BITMAP
a8
70
08
70
ENDCHAR
STARTCHAR Iacute
ENCODING 205
SWIDTH 720 0
DWIDTH 6 0
BBX 5 6 0 -2
BITMAP
98
a8
a8
c8
70
80
ENDCHAR
STARTCHAR Icircumflex
ENCODING 206
SWIDTH 720 0
DWIDTH 6 0
BBX 4 4 1 0
BITMAP
70
80
80
80
ENDCHAR
STARTCHAR Idiaeresis
ENCODING 207
SWIDTH 720 0
DWIDTH 6 0
BBX 4 6 1 -1
BITMAP
80
80
80
70
f0
00
ENDCHAR
STARTCHAR ETH
ENCODING 208
SWIDTH 720 0
DWIDTH 6 0
BBX 5 5 0 0
BITMAP
08
f0
f0
08
08
ENDCHAR
STARTCHAR Ntilde
ENCODING 209
SWIDTH 720 0
DWIDTH 6 0
BBX 5 6 0 0
BITMAP
f0
00
f8
08
78
90
ENDCHAR
STARTCHAR Ograve
ENCODING 210
SWIDTH 720 0
DWIDTH 6 0
BBX 5 7 0 -1
BITMAP
a0
78
40
78
80
80
78
ENDCHAR
STARTCHAR Oacute
ENCODING 211
SWIDTH 720 0
DWIDTH 6 0
BBX 5 7 0 -1
BITMAP
78
80
80
78
00
f8
70
ENDCHAR
STARTCHAR Ocircumflex
ENCODING 212
SWIDTH 960 0
DWIDTH 8 0
BBX 8 4 0 2
BITMAP
f0
80
70
20
ENDCHAR
STARTCHAR Otilde
ENCODING 213
SWIDTH 840 0
DWIDTH 7 0
BBX 6 8 0 -1
BITMAP
70
f0
c0
70
40
08
10
20
ENDCHAR
STARTCHAR Odiaeresis
ENCODING 214
SWIDTH 600 0
DWIDTH 5 0
BBX 5 8 0 0
BITMAP
40
f8
f8
88
88
50
70
20
ENDCHAR
STARTCHAR multiply
ENCODING 215
SWIDTH 240 0
DWIDTH 2 0
BBX 1 1 1 2
BITMAP
00
ENDCHAR
STARTCHAR Ooblique
ENCODING 216
SWIDTH 720 0
DWIDTH 6 0
BBX 5 3 0 0
BITMAP
c8
b8
b0
ENDCHAR
STARTCHAR Ugrave
ENCODING 217
SWIDTH 600 0
DWIDTH 5 0
BBX 4 4 0 0
BITMAP
a0
c0
70
70
ENDCHAR
STARTCHAR Uacute
ENCODING 218
SWIDTH 600 0
DWIDTH 5 0
BBX 4 4 0 0
BITMAP
80
b0
a0
b0
ENDCHAR
STARTCHAR Ucircumflex
ENCODING 219
SWIDTH 1080 0
DWIDTH 9 0
BBX 8 4 0 0
BITMAP
88
70
fc
5a
ENDCHAR
STARTCHAR Udiaeresis
ENCODING 220
SWIDTH 960 0
DWIDTH 8 0
BBX 7 4 0 0
BITMAP
5a
5a
fc
48
ENDCHAR
STARTCHAR Yacute
ENCODING 221
SWIDTH 600 0
DWIDTH 5 0
BBX 4 8 0 0
BITMAP
40
40
40
40
40
c0
00
00
ENDCHAR
STARTCHAR THORN
ENCODING 222
SWIDTH 960 0
DWIDTH 8 0
BBX 7 4 0 0
BITMAP
10
10
a0
a0
ENDCHAR
STARTCHAR ssharp
ENCODING 223
SWIDTH 600 0
DWIDTH 5 0
BBX 4 8 0 0
BITMAP
40
40
80
f0
00
00
20
50
ENDCHAR
STARTCHAR agrave
ENCODING 224
SWIDTH 720 0
DWIDTH 6 0
BBX 5 6 0 0
BITMAP
90
90
90
90
a0
40
ENDCHAR
STARTCHAR aacute
ENCODING 225
SWIDTH 240 0
DWIDTH 2 0
BBX 2 8 0 -2
BITMAP
00
40
c0
00
00
c0
40
00
ENDCHAR
STARTCHAR acircumflex
ENCODING 226
SWIDTH 720 0
DWIDTH 6 0
BBX 5 7 0 -1
BITMAP
40
60
f0
60
60
60
60
ENDCHAR
STARTCHAR atilde
ENCODING 227
SWIDTH 720 0
DWIDTH 6 0
BBX 5 7 0 -1
BITMAP
60
08
f8
f8
08
60
60
ENDCHAR
STARTCHAR adiaeresis
ENCODING 228
SWIDTH 840 0
DWIDTH 7 0
BBX 6 4 0 2
BITMAP
60
60
60
f0
ENDCHAR
STARTCHAR aring
ENCODING 229
SWIDTH 720 0
DWIDTH 6 0
BBX 5 8 0 -1
BITMAP
60
40
20
50
c8
c8
50
20
ENDCHAR
STARTCHAR ae
ENCODING 230
SWIDTH 360 0
DWIDTH 3 0
BBX 2 11 1 -3
BITMAP
40
40
80
80
80
80
40
40
40
80
80
ENDCHAR
STARTCHAR ccedilla
ENCODING 231
SWIDTH 360 0
DWIDTH 3 0
BBX 1 11 1 -3
BITMAP
80
80
80
00
00
80
80
80
80
80
00
ENDCHAR
STARTCHAR egrave
ENCODING 232
SWIDTH 360 0
DWIDTH 3 0
BBX 2 11 1 -3
BITMAP
c0
40
40
40
c0
80
40
40
00
40
80
ENDCHAR
STARTCHAR eacute
ENCODING 233
SWIDTH 360 0
DWIDTH 3 0
BBX 3 11 1 -3
BITMAP
e0
40
80
80
80
80
80
80
80
80
80
ENDCHAR
STARTCHAR ecircumflex
ENCODING 234
SWIDTH 360 0
DWIDTH 3 0
BBX 1 11 1 -3
BITMAP
80
80
80
80
80
80
80
80
80
80
80
ENDCHAR
STARTCHAR ediaeresis
ENCODING 235
SWIDTH 360 0
DWIDTH 3 0
BBX 2 11 1 -3
BITMAP
80
80
80
80
80
80
80
80
80
80
80
ENDCHAR
STARTCHAR igrave
ENCODING 236
SWIDTH 480 0
DWIDTH 4 0
BBX 2 11 1 -3
BITMAP
40
c0
80
80
80
80
80
80
80
80
80
ENDCHAR
STARTCHAR iacute
ENCODING 237
SWIDTH 480 0
DWIDTH 4 0
BBX 2 11 0 -3
BITMAP
80
80
80
80
80
80
80
80
80
80
80
ENDCHAR
STARTCHAR icircumflex
ENCODING 238
SWIDTH 480 0
DWIDTH 4 0
BBX 2 11 1 -3
BITMAP
80
80
80
80
80
80
80
80
80
80
80
ENDCHAR
STARTCHAR idiaeresis
ENCODING 239
SWIDTH 480 0
DWIDTH 4 0
BBX 1 11 1 -3
BITMAP
80
00
80
80
80
80
80
80
80
80
80
ENDCHAR
STARTCHAR ntilde
ENCODING 241
SWIDTH 240 0
DWIDTH 2 0
BBX 2 8 0 -2
BITMAP
80
40
40
40
40
80
40
40
ENDCHAR
STARTCHAR ograve
ENCODING 242
SWIDTH 240 0
DWIDTH 2 0
BBX 3 11 1 -3
BITMAP
40
40
40
40
80
80
80
80
80
80
80
ENDCHAR
STARTCHAR oacute
ENCODING 243
SWIDTH 720 0
DWIDTH 6 0
BBX 3 11 1 -3
BITMAP
80
80
80
40
80
80
80
80
80
80
80
ENDCHAR
STARTCHAR ocircumflex
ENCODING 244
SWIDTH 720 0
DWIDTH 6 0
BBX 1 11 -1 -3
BITMAP
80
80
80
80
00
80
80
00
00
00
00
ENDCHAR
STARTCHAR otilde
ENCODING 245
SWIDTH 720 0
DWIDTH 6 0
BBX 3 11 -1 -3
BITMAP
80
80
20
40
40
40
40
40
40
40
40
ENDCHAR
STARTCHAR odiaeresis
ENCODING 246
SWIDTH 360 0
DWIDTH 3 0
BBX 2 11 0 -3
BITMAP
40
80
40
40
80
80
80
80
80
80
80
ENDCHAR
STARTCHAR division
ENCODING 247
SWIDTH 360 0
DWIDTH 3 0
BBX 1 11 1 -3
BITMAP
80
80
80
80
80
80
80
80
80
80
80
ENDCHAR
STARTCHAR oslash
ENCODING 248
SWIDTH 360 0
DWIDTH 3 0
BBX 2 11 0 -3
BITMAP
80
80
00
00
00
00
00
00
00
00
00
ENDCHAR
STARTCHAR ugrave
ENCODING 249
SWIDTH 360 0
DWIDTH 3 0
BBX 2 11 0 -3
BITMAP
c0
c0
80
40
40
40
40
40
40
40
40
ENDCHAR
STARTCHAR uacute
ENCODING 250
SWIDTH 360 0
DWIDTH 3 0
BBX 1 11 1 -3
BITMAP
00
00
80
80
80
80
80
80
80
80
80
ENDCHAR
STARTCHAR ucircumflex
ENCODING 251
SWIDTH 360 0
DWIDTH 3 0
BBX 2 11 0 -3
BITMAP
80
80
40
40
40
40
40
40
40
40
40
ENDCHAR
STARTCHAR udiaeresis
ENCODING 252
SWIDTH 480 0
DWIDTH 4 0
BBX 2 11 0 -3
BITMAP
40
80
c0
40
40
40
40
40
40
40
40
ENDCHAR
STARTCHAR yacute
ENCODING 253
SWIDTH 480 0
DWIDTH 4 0
BBX 2 11 1 -3
BITMAP
40
40
80
80
80
80
80
80
80
80
80
ENDCHAR
STARTCHAR thorn
ENCODING 254
SWIDTH 480 0
DWIDTH 4 0
BBX 2 11 0 -3
BITMAP
80
80
40
40
40
40
40
40
40
40
40
ENDCHAR
ENDFONT
