STARTFONT 2.1
COMMENT  
COMMENT  Copyright (c) 1984, 1987 Adobe Systems Incorporated. All Rights Reserved. Copyright (c) 1988, 1991 Digital Equipment Corporation. All Rights Reserved.
COMMENT  
COMMENT  WARNING:  This bdf file was generated from a font server using
COMMENT  fstobdf.  The resulting font is subject to the same copyright,
COMMENT  license, and trademark restrictions as the original font.  The
COMMENT  authors and distributors of fstobdf disclaim all liability for
COMMENT  misuse of the program or its output.
COMMENT  
FONT -Adobe-Times-Medium-R-Normal--12-120-75-75-P-64-ISO8859-1
SIZE 12 75 75
FONTBOUNDINGBOX 12 15 0 -3
STARTPROPERTIES 32
FOUNDRY "Adobe"
FAMILY_NAME "Times"
WEIGHT_NAME "Medium"
SLANT "R"
SETWIDTH_NAME "Normal"
ADD_STYLE_NAME ""
PIXEL_SIZE 12
POINT_SIZE 120
RESOLUTION_X 75
RESOLUTION_Y 75
SPACING "P"
AVERAGE_WIDTH 64
CHARSET_REGISTRY "ISO8859"
CHARSET_ENCODING "1"
CAP_HEIGHT 9
X_HEIGHT 6
FACE_NAME "Times Roman"
COPYRIGHT "Copyright (c) 1984, 1987 Adobe Systems Incorporated. All Rights Reserved. Copyright (c) 1988, 1991 Digital Equipment Corporation. All Rights Reserved."
NOTICE "Times is a trademark of Linotype-Hell AG and/or its subsidiaries."
_DEC_DEVICE_FONTNAMES "PS=Times-Roman"
_DEC_PRODUCTINFO "DECwindows Fonts V2.2, 07-Nov-1991"
RELATIVE_SETWIDTH 50
RELATIVE_WEIGHT 50
CHARSET_COLLECTIONS "ASCII ISO8859-1 ADOBE-STANDARD"
FULL_NAME "Times Roman"
FONT "-Adobe-Times-Medium-R-Normal--12-120-75-75-P-64-ISO8859-1"
WEIGHT 10
RESOLUTION 103
QUAD_WIDTH 7
DEFAULT_CHAR 32
FONT_ASCENT 11
FONT_DESCENT 3
ENDPROPERTIES
CHARS 191
STARTCHAR space
ENCODING 32
SWIDTH 240 0
DWIDTH 3 0
BBX 1 1 0 0
BITMAP
00
ENDCHAR
STARTCHAR exclam
ENCODING 33
SWIDTH 240 0
DWIDTH 3 0
BBX 1 9 1 0
BITMAP
80
80
80
80
80
80
80
00
80
ENDCHAR
STARTCHAR quotedbl
ENCODING 34
SWIDTH 400 0
DWIDTH 5 0
BBX 3 3 1 6
BITMAP
a0
a0
a0
ENDCHAR
STARTCHAR numbersign
ENCODING 35
SWIDTH 480 0
DWIDTH 6 0
BBX 5 8 0 0
BITMAP
50
50
f8
50
50
f8
50
50
ENDCHAR
STARTCHAR dollar
ENCODING 36
SWIDTH 480 0
DWIDTH 6 0
BBX 5 11 0 -1
BITMAP
20
70
a8
a0
60
30
28
28
a8
70
20
ENDCHAR
STARTCHAR percent
ENCODING 37
SWIDTH 800 0
DWIDTH 10 0
BBX 8 9 1 0
BITMAP
63
9e
94
68
10
36
29
49
46
ENDCHAR
STARTCHAR ampersand
ENCODING 38
SWIDTH 800 0
DWIDTH 10 0
BBX 9 9 0 0
BITMAP
1800
2400
2400
1b80
7900
ce00
8400
ce80
7b00
ENDCHAR
STARTCHAR apostrophe
ENCODING 39
SWIDTH 320 0
DWIDTH 4 0
BBX 2 3 1 6
BITMAP
c0
40
80
ENDCHAR
STARTCHAR parenleft
ENCODING 40
SWIDTH 400 0
DWIDTH 5 0
BBX 3 12 1 -3
BITMAP
20
40
40
80
80
80
80
80
80
40
40
20
ENDCHAR
STARTCHAR parenright
ENCODING 41
SWIDTH 400 0
DWIDTH 5 0
BBX 3 12 0 -3
BITMAP
80
40
40
20
20
20
20
20
20
40
40
80
ENDCHAR
STARTCHAR asterisk
ENCODING 42
SWIDTH 480 0
DWIDTH 6 0
BBX 5 5 0 4
BITMAP
20
a8
70
a8
20
ENDCHAR
STARTCHAR plus
ENCODING 43
SWIDTH 560 0
DWIDTH 7 0
BBX 5 5 1 1
BITMAP
20
20
f8
20
20
ENDCHAR
STARTCHAR comma
ENCODING 44
SWIDTH 240 0
DWIDTH 3 0
BBX 2 3 0 -2
BITMAP
40
40
80
ENDCHAR
STARTCHAR minus
ENCODING 45
SWIDTH 560 0
DWIDTH 7 0
BBX 5 1 1 3
BITMAP
f8
ENDCHAR
STARTCHAR period
ENCODING 46
SWIDTH 240 0
DWIDTH 3 0
BBX 1 1 1 0
BITMAP
80
ENDCHAR
STARTCHAR slash
ENCODING 47
SWIDTH 240 0
DWIDTH 3 0
BBX 3 9 0 0
BITMAP
20
20
20
40
40
40
80
80
80
ENDCHAR
STARTCHAR 0
ENCODING 48
SWIDTH 480 0
DWIDTH 6 0
BBX 5 9 0 0
BITMAP
70
d8
88
88
88
88
88
d8
70
ENDCHAR
STARTCHAR 1
ENCODING 49
SWIDTH 480 0
DWIDTH 6 0
BBX 4 9 0 0
BITMAP
20
60
a0
20
20
20
20
20
70
ENDCHAR
STARTCHAR 2
ENCODING 50
SWIDTH 480 0
DWIDTH 6 0
BBX 5 9 0 0
BITMAP
70
88
08
08
10
20
40
88
f8
ENDCHAR
STARTCHAR 3
ENCODING 51
SWIDTH 480 0
DWIDTH 6 0
BBX 5 9 0 0
BITMAP
70
88
08
10
70
08
08
88
70
ENDCHAR
STARTCHAR 4
ENCODING 52
SWIDTH 480 0
DWIDTH 6 0
BBX 5 9 0 0
BITMAP
10
30
30
50
50
90
f8
10
10
ENDCHAR
STARTCHAR 5
ENCODING 53
SWIDTH 480 0
DWIDTH 6 0
BBX 5 9 0 0
BITMAP
38
40
40
70
18
08
08
98
70
ENDCHAR
STARTCHAR 6
ENCODING 54
SWIDTH 480 0
DWIDTH 6 0
BBX 5 9 0 0
BITMAP
18
60
40
f0
98
88
88
c8
70
ENDCHAR
STARTCHAR 7
ENCODING 55
SWIDTH 480 0
DWIDTH 6 0
BBX 5 9 0 0
BITMAP
f8
88
10
10
20
20
40
40
40
ENDCHAR
STARTCHAR 8
ENCODING 56
SWIDTH 480 0
DWIDTH 6 0
BBX 5 9 0 0
BITMAP
70
88
88
c8
70
98
88
88
70
ENDCHAR
STARTCHAR 9
ENCODING 57
SWIDTH 480 0
DWIDTH 6 0
BBX 5 9 0 0
BITMAP
70
98
88
88
c8
78
10
30
c0
ENDCHAR
STARTCHAR colon
ENCODING 58
SWIDTH 240 0
DWIDTH 3 0
BBX 1 6 1 0
BITMAP
80
00
00
00
00
80
ENDCHAR
STARTCHAR semicolon
ENCODING 59
SWIDTH 240 0
DWIDTH 3 0
BBX 2 8 0 -2
BITMAP
40
00
00
00
00
40
40
80
ENDCHAR
STARTCHAR less
ENCODING 60
SWIDTH 560 0
DWIDTH 7 0
BBX 6 5 0 1
BITMAP
0c
30
c0
30
0c
ENDCHAR
STARTCHAR equal
ENCODING 61
SWIDTH 560 0
DWIDTH 7 0
BBX 5 3 1 2
BITMAP
f8
00
f8
ENDCHAR
STARTCHAR greater
ENCODING 62
SWIDTH 560 0
DWIDTH 7 0
BBX 6 5 1 1
BITMAP
c0
30
0c
30
c0
ENDCHAR
STARTCHAR question
ENCODING 63
SWIDTH 400 0
DWIDTH 5 0
BBX 4 9 0 0
BITMAP
60
90
10
20
40
40
40
00
40
ENDCHAR
STARTCHAR at
ENCODING 64
SWIDTH 880 0
DWIDTH 11 0
BBX 10 11 1 -2
BITMAP
0f00
3080
6040
4d40
9240
a240
a480
a480
9b00
4000
3e00
ENDCHAR
STARTCHAR A
ENCODING 65
SWIDTH 720 0
DWIDTH 9 0
BBX 9 9 0 0
BITMAP
0800
0800
1400
1400
2200
3e00
2200
4100
e380
ENDCHAR
STARTCHAR B
ENCODING 66
SWIDTH 640 0
DWIDTH 8 0
BBX 7 9 0 0
BITMAP
fc
46
42
46
7c
42
42
46
fc
ENDCHAR
STARTCHAR C
ENCODING 67
SWIDTH 640 0
DWIDTH 8 0
BBX 7 9 0 0
BITMAP
3a
66
42
80
80
80
42
66
3c
ENDCHAR
STARTCHAR D
ENCODING 68
SWIDTH 720 0
DWIDTH 9 0
BBX 8 9 1 0
BITMAP
fc
46
42
41
41
41
42
46
fc
ENDCHAR
STARTCHAR E
ENCODING 69
SWIDTH 640 0
DWIDTH 8 0
BBX 7 9 0 0
BITMAP
fe
42
40
44
7c
44
40
42
fe
ENDCHAR
STARTCHAR F
ENCODING 70
SWIDTH 560 0
DWIDTH 7 0
BBX 7 9 0 0
BITMAP
fe
42
40
44
7c
44
40
40
f0
ENDCHAR
STARTCHAR G
ENCODING 71
SWIDTH 720 0
DWIDTH 9 0
BBX 8 9 0 0
BITMAP
3a
66
42
80
87
82
42
66
3c
ENDCHAR
STARTCHAR H
ENCODING 72
SWIDTH 720 0
DWIDTH 9 0
BBX 8 9 0 0
BITMAP
e7
42
42
42
7e
42
42
42
e7
ENDCHAR
STARTCHAR I
ENCODING 73
SWIDTH 320 0
DWIDTH 4 0
BBX 3 9 0 0
BITMAP
e0
40
40
40
40
40
40
40
e0
ENDCHAR
STARTCHAR J
ENCODING 74
SWIDTH 400 0
DWIDTH 5 0
BBX 4 9 1 0
BITMAP
70
20
20
20
20
20
20
a0
c0
ENDCHAR
STARTCHAR K
ENCODING 75
SWIDTH 720 0
DWIDTH 9 0
BBX 8 9 0 0
BITMAP
ee
44
48
50
70
58
4c
46
e7
ENDCHAR
STARTCHAR L
ENCODING 76
SWIDTH 560 0
DWIDTH 7 0
BBX 6 9 0 0
BITMAP
e0
40
40
40
40
40
40
44
fc
ENDCHAR
STARTCHAR M
ENCODING 77
SWIDTH 880 0
DWIDTH 11 0
BBX 11 9 0 0
BITMAP
c060
60c0
60c0
5140
5140
4a40
4a40
4440
e4e0
ENDCHAR
STARTCHAR N
ENCODING 78
SWIDTH 720 0
DWIDTH 9 0
BBX 9 9 0 0
BITMAP
c380
6100
6100
5100
4900
4900
4500
4300
e100
ENDCHAR
STARTCHAR O
ENCODING 79
SWIDTH 720 0
DWIDTH 9 0
BBX 8 9 0 0
BITMAP
3c
66
42
81
81
81
42
66
3c
ENDCHAR
STARTCHAR P
ENCODING 80
SWIDTH 560 0
DWIDTH 7 0
BBX 7 9 0 0
BITMAP
fc
46
42
46
7c
40
40
40
e0
ENDCHAR
STARTCHAR Q
ENCODING 81
SWIDTH 720 0
DWIDTH 9 0
BBX 8 11 0 -2
BITMAP
3c
66
42
81
81
81
42
66
3c
0c
03
ENDCHAR
STARTCHAR R
ENCODING 82
SWIDTH 640 0
DWIDTH 8 0
BBX 8 9 0 0
BITMAP
fc
46
42
46
7c
48
44
42
e3
ENDCHAR
STARTCHAR S
ENCODING 83
SWIDTH 560 0
DWIDTH 7 0
BBX 6 9 0 0
BITMAP
74
8c
84
60
38
0c
84
cc
b8
ENDCHAR
STARTCHAR T
ENCODING 84
SWIDTH 560 0
DWIDTH 7 0
BBX 7 9 0 0
BITMAP
fe
92
10
10
10
10
10
10
38
ENDCHAR
STARTCHAR U
ENCODING 85
SWIDTH 720 0
DWIDTH 9 0
BBX 8 9 1 0
BITMAP
e7
42
42
42
42
42
42
66
3c
ENDCHAR
STARTCHAR V
ENCODING 86
SWIDTH 720 0
DWIDTH 9 0
BBX 9 9 0 0
BITMAP
e380
4100
2200
2200
1400
1400
1c00
0800
0800
ENDCHAR
STARTCHAR W
ENCODING 87
SWIDTH 960 0
DWIDTH 12 0
BBX 12 9 0 0
BITMAP
ee70
4420
6620
2240
3740
1540
1980
0880
0880
ENDCHAR
STARTCHAR X
ENCODING 88
SWIDTH 720 0
DWIDTH 9 0
BBX 8 9 1 0
BITMAP
e7
42
24
38
18
2c
24
42
e7
ENDCHAR
STARTCHAR Y
ENCODING 89
SWIDTH 720 0
DWIDTH 9 0
BBX 9 9 0 0
BITMAP
e380
4100
2200
1200
1c00
0800
0800
0800
1c00
ENDCHAR
STARTCHAR Z
ENCODING 90
SWIDTH 640 0
DWIDTH 8 0
BBX 7 9 0 0
BITMAP
fe
86
0c
18
30
60
c0
82
fe
ENDCHAR
STARTCHAR bracketleft
ENCODING 91
SWIDTH 320 0
DWIDTH 4 0
BBX 3 12 1 -3
BITMAP
e0
80
80
80
80
80
80
80
80
80
80
e0
ENDCHAR
STARTCHAR backslash
ENCODING 92
SWIDTH 240 0
DWIDTH 3 0
BBX 3 9 0 0
BITMAP
80
80
80
40
40
40
20
20
20
ENDCHAR
STARTCHAR bracketright
ENCODING 93
SWIDTH 320 0
DWIDTH 4 0
BBX 3 12 0 -3
BITMAP
e0
20
20
20
20
20
20
20
20
20
20
e0
ENDCHAR
STARTCHAR asciicircum
ENCODING 94
SWIDTH 480 0
DWIDTH 6 0
BBX 5 5 0 4
BITMAP
20
50
50
88
88
ENDCHAR
STARTCHAR underscore
ENCODING 95
SWIDTH 480 0
DWIDTH 6 0
BBX 6 1 0 -3
BITMAP
fc
ENDCHAR
STARTCHAR grave
ENCODING 96
SWIDTH 320 0
DWIDTH 4 0
BBX 2 3 1 6
BITMAP
40
80
c0
ENDCHAR
STARTCHAR a
ENCODING 97
SWIDTH 480 0
DWIDTH 6 0
BBX 5 6 1 0
BITMAP
60
90
70
90
90
68
ENDCHAR
STARTCHAR b
ENCODING 98
SWIDTH 480 0
DWIDTH 6 0
BBX 5 9 0 0
BITMAP
c0
40
40
70
48
48
48
48
70
ENDCHAR
STARTCHAR c
ENCODING 99
SWIDTH 480 0
DWIDTH 6 0
BBX 4 6 1 0
BITMAP
60
90
80
80
90
60
ENDCHAR
STARTCHAR d
ENCODING 100
SWIDTH 480 0
DWIDTH 6 0
BBX 5 9 1 0
BITMAP
30
10
10
70
90
90
90
90
68
ENDCHAR
STARTCHAR e
ENCODING 101
SWIDTH 480 0
DWIDTH 6 0
BBX 5 6 1 0
BITMAP
60
90
f0
80
c8
70
ENDCHAR
STARTCHAR f
ENCODING 102
SWIDTH 320 0
DWIDTH 4 0
BBX 3 9 0 0
BITMAP
20
40
40
e0
40
40
40
40
40
ENDCHAR
STARTCHAR g
ENCODING 103
SWIDTH 480 0
DWIDTH 6 0
BBX 5 9 1 -3
BITMAP
78
90
90
e0
40
70
88
88
70
ENDCHAR
STARTCHAR h
ENCODING 104
SWIDTH 480 0
DWIDTH 6 0
BBX 6 9 0 0
BITMAP
c0
40
40
70
48
48
48
48
ec
ENDCHAR
STARTCHAR i
ENCODING 105
SWIDTH 240 0
DWIDTH 3 0
BBX 3 9 0 0
BITMAP
40
00
00
c0
40
40
40
40
e0
ENDCHAR
STARTCHAR j
ENCODING 106
SWIDTH 240 0
DWIDTH 3 0
BBX 2 12 0 -3
BITMAP
40
00
00
c0
40
40
40
40
40
40
40
80
ENDCHAR
STARTCHAR k
ENCODING 107
SWIDTH 480 0
DWIDTH 6 0
BBX 6 9 0 0
BITMAP
c0
40
40
48
50
60
50
48
4c
ENDCHAR
STARTCHAR l
ENCODING 108
SWIDTH 240 0
DWIDTH 3 0
BBX 3 9 0 0
BITMAP
c0
40
40
40
40
40
40
40
e0
ENDCHAR
STARTCHAR m
ENCODING 109
SWIDTH 720 0
DWIDTH 9 0
BBX 9 6 0 0
BITMAP
b600
4900
4900
4900
4900
ed80
ENDCHAR
STARTCHAR n
ENCODING 110
SWIDTH 480 0
DWIDTH 6 0
BBX 6 6 0 0
BITMAP
b0
48
48
48
48
ec
ENDCHAR
STARTCHAR o
ENCODING 111
SWIDTH 480 0
DWIDTH 6 0
BBX 4 6 1 0
BITMAP
60
90
90
90
90
60
ENDCHAR
STARTCHAR p
ENCODING 112
SWIDTH 480 0
DWIDTH 6 0
BBX 5 9 0 -3
BITMAP
f0
48
48
48
48
70
40
40
e0
ENDCHAR
STARTCHAR q
ENCODING 113
SWIDTH 480 0
DWIDTH 6 0
BBX 5 9 1 -3
BITMAP
70
90
90
90
90
70
10
10
38
ENDCHAR
STARTCHAR r
ENCODING 114
SWIDTH 320 0
DWIDTH 4 0
BBX 4 6 0 0
BITMAP
b0
60
40
40
40
e0
ENDCHAR
STARTCHAR s
ENCODING 115
SWIDTH 480 0
DWIDTH 6 0
BBX 4 6 1 0
BITMAP
70
90
c0
30
90
e0
ENDCHAR
STARTCHAR t
ENCODING 116
SWIDTH 320 0
DWIDTH 4 0
BBX 4 7 0 0
BITMAP
40
f0
40
40
40
40
30
ENDCHAR
STARTCHAR u
ENCODING 117
SWIDTH 480 0
DWIDTH 6 0
BBX 6 6 0 0
BITMAP
d8
48
48
48
48
34
ENDCHAR
STARTCHAR v
ENCODING 118
SWIDTH 480 0
DWIDTH 6 0
BBX 6 6 0 0
BITMAP
cc
48
58
50
30
20
ENDCHAR
STARTCHAR w
ENCODING 119
SWIDTH 720 0
DWIDTH 9 0
BBX 9 6 0 0
BITMAP
ed80
4900
6b00
2a00
3400
2400
ENDCHAR
STARTCHAR x
ENCODING 120
SWIDTH 480 0
DWIDTH 6 0
BBX 5 6 1 0
BITMAP
d8
50
20
20
50
d8
ENDCHAR
STARTCHAR y
ENCODING 121
SWIDTH 480 0
DWIDTH 6 0
BBX 6 9 0 -3
BITMAP
cc
48
58
50
30
20
20
40
c0
ENDCHAR
STARTCHAR z
ENCODING 122
SWIDTH 480 0
DWIDTH 6 0
BBX 4 6 1 0
BITMAP
f0
90
20
40
90
f0
ENDCHAR
STARTCHAR braceleft
ENCODING 123
SWIDTH 480 0
DWIDTH 6 0
BBX 4 12 1 -3
BITMAP
30
40
40
40
40
80
40
40
40
40
40
30
ENDCHAR
STARTCHAR bar
ENCODING 124
SWIDTH 240 0
DWIDTH 3 0
BBX 1 9 1 0
BITMAP
80
80
80
80
80
80
80
80
80
ENDCHAR
STARTCHAR braceright
ENCODING 125
SWIDTH 480 0
DWIDTH 6 0
BBX 4 12 0 -3
BITMAP
c0
20
20
20
20
10
20
20
20
20
20
c0
ENDCHAR
STARTCHAR asciitilde
ENCODING 126
SWIDTH 560 0
DWIDTH 7 0
BBX 6 2 0 3
BITMAP
64
98
ENDCHAR
STARTCHAR nobreakspace
ENCODING 160
SWIDTH 240 0
DWIDTH 3 0
BBX 1 1 0 0
BITMAP
00
ENDCHAR
STARTCHAR exclamdown
ENCODING 161
SWIDTH 320 0
DWIDTH 4 0
BBX 1 9 1 -3
BITMAP
80
00
80
80
80
80
80
80
80
ENDCHAR
STARTCHAR cent
ENCODING 162
SWIDTH 480 0
DWIDTH 6 0
BBX 5 8 1 -1
BITMAP
08
70
98
a0
a0
c8
70
80
ENDCHAR
STARTCHAR sterling
ENCODING 163
SWIDTH 480 0
DWIDTH 6 0
BBX 5 9 0 0
BITMAP
30
48
40
40
f0
40
40
e8
d8
ENDCHAR
STARTCHAR currency
ENCODING 164
SWIDTH 560 0
DWIDTH 7 0
BBX 6 7 1 1
BITMAP
84
78
48
48
48
78
84
ENDCHAR
STARTCHAR yen
ENCODING 165
SWIDTH 480 0
DWIDTH 6 0
BBX 5 9 0 0
BITMAP
88
88
50
50
f8
20
f8
20
70
ENDCHAR
STARTCHAR brokenbar
ENCODING 166
SWIDTH 240 0
DWIDTH 3 0
BBX 1 9 1 0
BITMAP
80
80
80
00
00
80
80
80
80
ENDCHAR
STARTCHAR section
ENCODING 167
SWIDTH 480 0
DWIDTH 6 0
BBX 4 12 1 -3
BITMAP
70
90
c0
60
b0
90
90
d0
60
30
90
e0
ENDCHAR
STARTCHAR diaeresis
ENCODING 168
SWIDTH 240 0
DWIDTH 3 0
BBX 3 1 0 7
BITMAP
a0
ENDCHAR
STARTCHAR copyright
ENCODING 169
SWIDTH 800 0
DWIDTH 10 0
BBX 9 9 1 0
BITMAP
1c00
6300
5d00
a480
a080
a480
5d00
6300
1c00
ENDCHAR
STARTCHAR ordfeminine
ENCODING 170
SWIDTH 400 0
DWIDTH 5 0
BBX 3 6 1 3
BITMAP
c0
20
e0
a0
00
e0
ENDCHAR
STARTCHAR guillemotleft
ENCODING 171
SWIDTH 560 0
DWIDTH 7 0
BBX 5 5 1 0
BITMAP
28
50
a0
50
28
ENDCHAR
STARTCHAR notsign
ENCODING 172
SWIDTH 640 0
DWIDTH 8 0
BBX 6 4 1 1
BITMAP
fc
04
04
04
ENDCHAR
STARTCHAR hyphen
ENCODING 173
SWIDTH 320 0
DWIDTH 4 0
BBX 4 1 0 3
BITMAP
f0
ENDCHAR
STARTCHAR registered
ENCODING 174
SWIDTH 880 0
DWIDTH 11 0
BBX 9 9 1 0
BITMAP
1c00
6300
5d00
9280
9c80
9480
d500
6300
3c00
ENDCHAR
STARTCHAR macron
ENCODING 175
SWIDTH 320 0
DWIDTH 4 0
BBX 4 1 0 7
BITMAP
f0
ENDCHAR
STARTCHAR degree
ENCODING 176
SWIDTH 400 0
DWIDTH 5 0
BBX 4 4 0 5
BITMAP
60
90
90
60
ENDCHAR
STARTCHAR plusminus
ENCODING 177
SWIDTH 560 0
DWIDTH 7 0
BBX 5 7 1 0
BITMAP
20
20
f8
20
20
00
f8
ENDCHAR
STARTCHAR twosuperior
ENCODING 178
SWIDTH 320 0
DWIDTH 4 0
BBX 4 5 0 4
BITMAP
60
90
20
40
f0
ENDCHAR
STARTCHAR threesuperior
ENCODING 179
SWIDTH 320 0
DWIDTH 4 0
BBX 3 5 0 4
BITMAP
e0
20
40
20
c0
ENDCHAR
STARTCHAR acute
ENCODING 180
SWIDTH 320 0
DWIDTH 4 0
BBX 2 2 1 7
BITMAP
40
80
ENDCHAR
STARTCHAR mu
ENCODING 181
SWIDTH 480 0
DWIDTH 6 0
BBX 6 9 0 -3
BITMAP
d8
48
48
48
48
74
40
40
60
ENDCHAR
STARTCHAR paragraph
ENCODING 182
SWIDTH 560 0
DWIDTH 7 0
BBX 6 12 0 -3
BITMAP
7c
e8
e8
e8
e8
68
28
28
28
28
28
28
ENDCHAR
STARTCHAR periodcentered
ENCODING 183
SWIDTH 240 0
DWIDTH 3 0
BBX 1 1 1 3
BITMAP
80
ENDCHAR
STARTCHAR cedilla
ENCODING 184
SWIDTH 240 0
DWIDTH 3 0
BBX 3 3 0 -3
BITMAP
40
20
e0
ENDCHAR
STARTCHAR onesuperior
ENCODING 185
SWIDTH 320 0
DWIDTH 4 0
BBX 3 5 0 4
BITMAP
40
c0
40
40
e0
ENDCHAR
STARTCHAR masculine
ENCODING 186
SWIDTH 400 0
DWIDTH 5 0
BBX 3 6 1 3
BITMAP
40
a0
a0
40
00
e0
ENDCHAR
STARTCHAR guillemotright
ENCODING 187
SWIDTH 560 0
DWIDTH 7 0
BBX 5 5 0 0
BITMAP
a0
50
28
50
a0
ENDCHAR
STARTCHAR onequarter
ENCODING 188
SWIDTH 720 0
DWIDTH 9 0
BBX 9 9 0 0
BITMAP
4200
c400
4400
4800
e900
1300
1500
2780
2100
ENDCHAR
STARTCHAR onehalf
ENCODING 189
SWIDTH 720 0
DWIDTH 9 0
BBX 9 9 0 0
BITMAP
4200
c400
4400
4800
eb00
1480
1100
2200
2780
ENDCHAR
STARTCHAR threequarters
ENCODING 190
SWIDTH 720 0
DWIDTH 9 0
BBX 9 9 0 0
BITMAP
e200
2400
4400
2800
c900
1300
1500
2780
2100
ENDCHAR
STARTCHAR questiondown
ENCODING 191
SWIDTH 400 0
DWIDTH 5 0
BBX 4 9 0 -3
BITMAP
20
00
20
20
20
40
80
90
60
ENDCHAR
STARTCHAR Agrave
ENCODING 192
SWIDTH 720 0
DWIDTH 9 0
BBX 9 12 0 0
BITMAP
1000
0800
0000
0800
0800
1400
1400
2200
3e00
2200
4100
e380
ENDCHAR
STARTCHAR Aacute
ENCODING 193
SWIDTH 720 0
DWIDTH 9 0
BBX 9 12 0 0
BITMAP
0400
0800
0000
0800
0800
1400
1400
2200
3e00
2200
4100
e380
ENDCHAR
STARTCHAR Acircumflex
ENCODING 194
SWIDTH 720 0
DWIDTH 9 0
BBX 9 12 0 0
BITMAP
0800
1400
0000
0800
0800
1400
1400
2200
3e00
2200
4100
e380
ENDCHAR
STARTCHAR Atilde
ENCODING 195
SWIDTH 720 0
DWIDTH 9 0
BBX 9 12 0 0
BITMAP
0a00
1400
0000
0800
0800
1400
1400
2200
3e00
2200
4100
e380
ENDCHAR
STARTCHAR Adiaeresis
ENCODING 196
SWIDTH 720 0
DWIDTH 9 0
BBX 9 11 0 0
BITMAP
1400
0000
0800
0800
1400
1400
2200
3e00
2200
4100
e380
ENDCHAR
STARTCHAR Aring
ENCODING 197
SWIDTH 720 0
DWIDTH 9 0
BBX 9 12 0 0
BITMAP
0800
1400
0800
0800
0800
1400
1400
2200
3e00
2200
4100
e380
ENDCHAR
STARTCHAR AE
ENCODING 198
SWIDTH 880 0
DWIDTH 11 0
BBX 10 9 0 0
BITMAP
3fc0
1840
2800
2880
4f80
7880
4800
8840
cfc0
ENDCHAR
STARTCHAR Ccedilla
ENCODING 199
SWIDTH 640 0
DWIDTH 8 0
BBX 7 12 0 -3
BITMAP
3a
66
42
80
80
80
42
66
3c
10
08
38
ENDCHAR
STARTCHAR Egrave
ENCODING 200
SWIDTH 640 0
DWIDTH 8 0
BBX 7 12 0 0
BITMAP
20
10
00
fe
42
40
44
7c
44
40
42
fe
ENDCHAR
STARTCHAR Eacute
ENCODING 201
SWIDTH 640 0
DWIDTH 8 0
BBX 7 12 0 0
BITMAP
08
10
00
fe
42
40
44
7c
44
40
42
fe
ENDCHAR
STARTCHAR Ecircumflex
ENCODING 202
SWIDTH 640 0
DWIDTH 8 0
BBX 7 12 0 0
BITMAP
10
28
00
fe
42
40
44
7c
44
40
42
fe
ENDCHAR
STARTCHAR Ediaeresis
ENCODING 203
SWIDTH 640 0
DWIDTH 8 0
BBX 7 11 0 0
BITMAP
28
00
fe
42
40
44
7c
44
40
42
fe
ENDCHAR
STARTCHAR Igrave
ENCODING 204
SWIDTH 320 0
DWIDTH 4 0
BBX 3 12 0 0
BITMAP
80
40
00
e0
40
40
40
40
40
40
40
e0
ENDCHAR
STARTCHAR Iacute
ENCODING 205
SWIDTH 320 0
DWIDTH 4 0
BBX 3 12 0 0
BITMAP
20
40
00
e0
40
40
40
40
40
40
40
e0
ENDCHAR
STARTCHAR Icircumflex
ENCODING 206
SWIDTH 320 0
DWIDTH 4 0
BBX 3 12 0 0
BITMAP
40
a0
00
e0
40
40
40
40
40
40
40
e0
ENDCHAR
STARTCHAR Idiaeresis
ENCODING 207
SWIDTH 320 0
DWIDTH 4 0
BBX 3 11 0 0
BITMAP
a0
00
e0
40
40
40
40
40
40
40
e0
ENDCHAR
STARTCHAR ETH
ENCODING 208
SWIDTH 720 0
DWIDTH 9 0
BBX 8 9 0 0
BITMAP
fc
46
42
41
e1
41
42
46
fc
ENDCHAR
STARTCHAR Ntilde
ENCODING 209
SWIDTH 720 0
DWIDTH 9 0
BBX 9 12 0 0
BITMAP
0a00
1400
0000
c380
6100
6100
5100
4900
4900
4500
4300
e100
ENDCHAR
STARTCHAR Ograve
ENCODING 210
SWIDTH 720 0
DWIDTH 9 0
BBX 8 12 0 0
BITMAP
20
10
00
3c
66
42
81
81
81
42
66
3c
ENDCHAR
STARTCHAR Oacute
ENCODING 211
SWIDTH 720 0
DWIDTH 9 0
BBX 8 12 0 0
BITMAP
04
08
00
3c
66
42
81
81
81
42
66
3c
ENDCHAR
STARTCHAR Ocircumflex
ENCODING 212
SWIDTH 720 0
DWIDTH 9 0
BBX 8 12 0 0
BITMAP
10
28
00
3c
66
42
81
81
81
42
66
3c
ENDCHAR
STARTCHAR Otilde
ENCODING 213
SWIDTH 720 0
DWIDTH 9 0
BBX 8 12 0 0
BITMAP
14
28
00
3c
66
42
81
81
81
42
66
3c
ENDCHAR
STARTCHAR Odiaeresis
ENCODING 214
SWIDTH 720 0
DWIDTH 9 0
BBX 8 11 0 0
BITMAP
24
00
3c
66
42
81
81
81
42
66
3c
ENDCHAR
STARTCHAR multiply
ENCODING 215
SWIDTH 560 0
DWIDTH 7 0
BBX 5 5 1 1
BITMAP
88
50
20
50
88
ENDCHAR
STARTCHAR Ooblique
ENCODING 216
SWIDTH 720 0
DWIDTH 9 0
BBX 9 10 0 0
BITMAP
0080
3d00
6600
4600
8900
8900
9100
6200
6600
bc00
ENDCHAR
STARTCHAR Ugrave
ENCODING 217
SWIDTH 640 0
DWIDTH 8 0
BBX 8 12 0 0
BITMAP
10
08
00
e7
42
42
42
42
42
42
66
3c
ENDCHAR
STARTCHAR Uacute
ENCODING 218
SWIDTH 640 0
DWIDTH 8 0
BBX 8 12 0 0
BITMAP
04
08
00
e7
42
42
42
42
42
42
66
3c
ENDCHAR
STARTCHAR Ucircumflex
ENCODING 219
SWIDTH 640 0
DWIDTH 8 0
BBX 8 12 0 0
BITMAP
10
28
00
e7
42
42
42
42
42
42
66
3c
ENDCHAR
STARTCHAR Udiaeresis
ENCODING 220
SWIDTH 640 0
DWIDTH 8 0
BBX 8 11 0 0
BITMAP
24
00
e7
42
42
42
42
42
42
66
3c
ENDCHAR
STARTCHAR Yacute
ENCODING 221
SWIDTH 720 0
DWIDTH 9 0
BBX 9 12 0 0
BITMAP
0400
0800
0000
e380
4100
2200
1200
1c00
0800
0800
0800
1c00
ENDCHAR
STARTCHAR THORN
ENCODING 222
SWIDTH 560 0
DWIDTH 7 0
BBX 7 9 0 0
BITMAP
e0
40
7c
46
42
46
7c
40
e0
ENDCHAR
STARTCHAR ssharp
ENCODING 223
SWIDTH 480 0
DWIDTH 6 0
BBX 6 9 0 0
BITMAP
30
48
48
50
70
48
44
44
d8
ENDCHAR
STARTCHAR agrave
ENCODING 224
SWIDTH 480 0
DWIDTH 6 0
BBX 5 9 1 0
BITMAP
40
20
00
60
90
70
90
90
68
ENDCHAR
STARTCHAR aacute
ENCODING 225
SWIDTH 480 0
DWIDTH 6 0
BBX 5 9 1 0
BITMAP
10
20
00
60
90
70
90
90
68
ENDCHAR
STARTCHAR acircumflex
ENCODING 226
SWIDTH 480 0
DWIDTH 6 0
BBX 5 9 1 0
BITMAP
20
50
00
60
90
70
90
90
68
ENDCHAR
STARTCHAR atilde
ENCODING 227
SWIDTH 480 0
DWIDTH 6 0
BBX 5 9 1 0
BITMAP
50
a0
00
60
90
70
90
90
68
ENDCHAR
STARTCHAR adiaeresis
ENCODING 228
SWIDTH 480 0
DWIDTH 6 0
BBX 5 8 1 0
BITMAP
50
00
60
90
70
90
90
68
ENDCHAR
STARTCHAR aring
ENCODING 229
SWIDTH 480 0
DWIDTH 6 0
BBX 5 9 1 0
BITMAP
20
50
20
60
90
70
90
90
68
ENDCHAR
STARTCHAR ae
ENCODING 230
SWIDTH 720 0
DWIDTH 9 0
BBX 8 6 1 0
BITMAP
6c
92
7e
90
99
6e
ENDCHAR
STARTCHAR ccedilla
ENCODING 231
SWIDTH 400 0
DWIDTH 5 0
BBX 4 9 1 -3
BITMAP
60
90
80
80
90
60
40
20
e0
ENDCHAR
STARTCHAR egrave
ENCODING 232
SWIDTH 480 0
DWIDTH 6 0
BBX 5 9 1 0
BITMAP
40
20
00
60
90
f0
80
c8
70
ENDCHAR
STARTCHAR eacute
ENCODING 233
SWIDTH 480 0
DWIDTH 6 0
BBX 5 9 1 0
BITMAP
20
40
00
60
90
f0
80
c8
70
ENDCHAR
STARTCHAR ecircumflex
ENCODING 234
SWIDTH 480 0
DWIDTH 6 0
BBX 5 9 1 0
BITMAP
20
50
00
60
90
f0
80
c8
70
ENDCHAR
STARTCHAR ediaeresis
ENCODING 235
SWIDTH 480 0
DWIDTH 6 0
BBX 5 8 1 0
BITMAP
50
00
60
90
f0
80
c8
70
ENDCHAR
STARTCHAR igrave
ENCODING 236
SWIDTH 240 0
DWIDTH 3 0
BBX 3 9 0 0
BITMAP
80
40
00
c0
40
40
40
40
e0
ENDCHAR
STARTCHAR iacute
ENCODING 237
SWIDTH 240 0
DWIDTH 3 0
BBX 3 9 0 0
BITMAP
40
80
00
c0
40
40
40
40
e0
ENDCHAR
STARTCHAR icircumflex
ENCODING 238
SWIDTH 240 0
DWIDTH 3 0
BBX 3 9 0 0
BITMAP
40
a0
00
c0
40
40
40
40
e0
ENDCHAR
STARTCHAR idiaeresis
ENCODING 239
SWIDTH 240 0
DWIDTH 3 0
BBX 3 8 0 0
BITMAP
a0
00
c0
40
40
40
40
e0
ENDCHAR
STARTCHAR eth
ENCODING 240
SWIDTH 480 0
DWIDTH 6 0
BBX 4 9 1 0
BITMAP
40
70
a0
70
90
90
90
90
60
ENDCHAR
STARTCHAR ntilde
ENCODING 241
SWIDTH 480 0
DWIDTH 6 0
BBX 6 9 0 0
BITMAP
28
50
00
b0
48
48
48
48
ec
ENDCHAR
STARTCHAR ograve
ENCODING 242
SWIDTH 480 0
DWIDTH 6 0
BBX 4 9 1 0
BITMAP
40
20
00
60
90
90
90
90
60
ENDCHAR
STARTCHAR oacute
ENCODING 243
SWIDTH 480 0
DWIDTH 6 0
BBX 4 9 1 0
BITMAP
20
40
00
60
90
90
90
90
60
ENDCHAR
STARTCHAR ocircumflex
ENCODING 244
SWIDTH 480 0
DWIDTH 6 0
BBX 4 9 1 0
BITMAP
20
50
00
60
90
90
90
90
60
ENDCHAR
STARTCHAR otilde
ENCODING 245
SWIDTH 480 0
DWIDTH 6 0
BBX 4 9 1 0
BITMAP
50
a0
00
60
90
90
90
90
60
ENDCHAR
STARTCHAR odiaeresis
ENCODING 246
SWIDTH 480 0
DWIDTH 6 0
BBX 4 8 1 0
BITMAP
a0
00
60
90
90
90
90
60
ENDCHAR
STARTCHAR division
ENCODING 247
SWIDTH 560 0
DWIDTH 7 0
BBX 5 5 1 1
BITMAP
20
00
f8
00
20
ENDCHAR
STARTCHAR oslash
ENCODING 248
SWIDTH 480 0
DWIDTH 6 0
BBX 6 7 0 -1
BITMAP
34
48
48
48
48
70
80
ENDCHAR
STARTCHAR ugrave
ENCODING 249
SWIDTH 480 0
DWIDTH 6 0
BBX 6 9 0 0
BITMAP
20
10
00
d8
48
48
48
48
34
ENDCHAR
STARTCHAR uacute
ENCODING 250
SWIDTH 480 0
DWIDTH 6 0
BBX 6 9 0 0
BITMAP
10
20
00
d8
48
48
48
48
34
ENDCHAR
STARTCHAR ucircumflex
ENCODING 251
SWIDTH 480 0
DWIDTH 6 0
BBX 6 9 0 0
BITMAP
20
50
00
d8
48
48
48
48
34
ENDCHAR
STARTCHAR udiaeresis
ENCODING 252
SWIDTH 480 0
DWIDTH 6 0
BBX 6 8 0 0
BITMAP
50
00
d8
48
48
48
48
34
ENDCHAR
STARTCHAR yacute
ENCODING 253
SWIDTH 480 0
DWIDTH 6 0
BBX 6 12 0 -3
BITMAP
08
10
00
cc
48
58
50
30
20
20
40
c0
ENDCHAR
STARTCHAR thorn
ENCODING 254
SWIDTH 480 0
DWIDTH 6 0
BBX 5 12 0 -3
BITMAP
c0
40
40
70
48
48
48
48
70
40
40
e0
ENDCHAR
STARTCHAR ydiaeresis
ENCODING 255
SWIDTH 480 0
DWIDTH 6 0
BBX 6 11 0 -3
BITMAP
48
00
cc
48
58
50
30
20
20
40
c0
ENDCHAR
ENDFONT
