STARTFONT 2.1
COMMENT  
COMMENT  Copyright (c) 1984, 1987 Adobe Systems Incorporated. All Rights Reserved. Copyright (c) 1988, 1991 Digital Equipment Corporation. All Rights Reserved.
COMMENT  
COMMENT  WARNING:  This bdf file was generated from a font server using
COMMENT  fstobdf.  The resulting font is subject to the same copyright,
COMMENT  license, and trademark restrictions as the original font.  The
COMMENT  authors and distributors of fstobdf disclaim all liability for
COMMENT  misuse of the program or its output.
COMMENT  
FONT -Adobe-Times-Medium-R-Normal--14-100-100-100-P-74-ISO8859-1
SIZE 10 100 100
FONTBOUNDINGBOX 14 17 -1 -3
STARTPROPERTIES 32
FOUNDRY "Adobe"
FAMILY_NAME "Times"
WEIGHT_NAME "Medium"
SLANT "R"
SETWIDTH_NAME "Normal"
ADD_STYLE_NAME ""
PIXEL_SIZE 14
POINT_SIZE 100
RESOLUTION_X 100
RESOLUTION_Y 100
SPACING "P"
AVERAGE_WIDTH 74
CHARSET_REGISTRY "ISO8859"
CHARSET_ENCODING "1"
CAP_HEIGHT 10
X_HEIGHT 7
FACE_NAME "Times Roman"
COPYRIGHT "Copyright (c) 1984, 1987 Adobe Systems Incorporated. All Rights Reserved. Copyright (c) 1988, 1991 Digital Equipment Corporation. All Rights Reserved."
NOTICE "Times is a trademark of Linotype-Hell AG and/or its subsidiaries."
_DEC_DEVICE_FONTNAMES "PS=Times-Roman"
_DEC_PRODUCTINFO "DECwindows Fonts V2.2, 07-Nov-1991"
RELATIVE_SETWIDTH 50
RELATIVE_WEIGHT 50
CHARSET_COLLECTIONS "ASCII ISO8859-1 ADOBE-STANDARD"
FULL_NAME "Times Roman"
FONT "-Adobe-Times-Medium-R-Normal--14-100-100-100-P-74-ISO8859-1"
WEIGHT 10
RESOLUTION 138
QUAD_WIDTH 8
DEFAULT_CHAR 32
FONT_ASCENT 12
FONT_DESCENT 3
ENDPROPERTIES
CHARS 191
STARTCHAR space
ENCODING 32
SWIDTH 216 0
DWIDTH 3 0
BBX 1 1 0 0
BITMAP
00
ENDCHAR
STARTCHAR exclam
ENCODING 33
SWIDTH 360 0
DWIDTH 5 0
BBX 1 10 2 0
BITMAP
80
80
80
80
80
80
80
00
80
80
ENDCHAR
STARTCHAR quotedbl
ENCODING 34
SWIDTH 432 0
DWIDTH 6 0
BBX 3 3 1 7
BITMAP
a0
a0
a0
ENDCHAR
STARTCHAR numbersign
ENCODING 35
SWIDTH 504 0
DWIDTH 7 0
BBX 7 10 0 0
BITMAP
14
14
7e
28
28
28
fc
50
50
50
ENDCHAR
STARTCHAR dollar
ENCODING 36
SWIDTH 504 0
DWIDTH 7 0
BBX 5 12 1 -1
BITMAP
20
78
a8
a0
a0
70
28
28
28
a8
f0
20
ENDCHAR
STARTCHAR percent
ENCODING 37
SWIDTH 864 0
DWIDTH 12 0
BBX 9 10 1 0
BITMAP
7180
df00
9200
9400
6800
0b00
1680
2480
4480
4300
ENDCHAR
STARTCHAR ampersand
ENCODING 38
SWIDTH 792 0
DWIDTH 11 0
BBX 10 10 1 0
BITMAP
1800
2400
2400
3800
1380
7900
ca00
8400
ce40
7380
ENDCHAR
STARTCHAR apostrophe
ENCODING 39
SWIDTH 288 0
DWIDTH 4 0
BBX 2 3 1 7
BITMAP
c0
40
80
ENDCHAR
STARTCHAR parenleft
ENCODING 40
SWIDTH 360 0
DWIDTH 5 0
BBX 3 13 1 -3
BITMAP
20
20
40
40
80
80
80
80
80
40
40
20
20
ENDCHAR
STARTCHAR parenright
ENCODING 41
SWIDTH 360 0
DWIDTH 5 0
BBX 3 13 1 -3
BITMAP
80
80
40
40
20
20
20
20
20
40
40
80
80
ENDCHAR
STARTCHAR asterisk
ENCODING 42
SWIDTH 504 0
DWIDTH 7 0
BBX 5 6 1 4
BITMAP
20
a8
70
70
a8
20
ENDCHAR
STARTCHAR plus
ENCODING 43
SWIDTH 576 0
DWIDTH 8 0
BBX 7 7 0 0
BITMAP
10
10
10
fe
10
10
10
ENDCHAR
STARTCHAR comma
ENCODING 44
SWIDTH 288 0
DWIDTH 4 0
BBX 2 3 1 -2
BITMAP
c0
40
80
ENDCHAR
STARTCHAR minus
ENCODING 45
SWIDTH 648 0
DWIDTH 9 0
BBX 6 1 1 3
BITMAP
fc
ENDCHAR
STARTCHAR period
ENCODING 46
SWIDTH 288 0
DWIDTH 4 0
BBX 2 1 1 0
BITMAP
c0
ENDCHAR
STARTCHAR slash
ENCODING 47
SWIDTH 288 0
DWIDTH 4 0
BBX 4 12 0 -2
BITMAP
10
10
10
20
20
20
40
40
40
80
80
80
ENDCHAR
STARTCHAR 0
ENCODING 48
SWIDTH 504 0
DWIDTH 7 0
BBX 6 10 1 0
BITMAP
78
cc
84
84
84
84
84
84
cc
78
ENDCHAR
STARTCHAR 1
ENCODING 49
SWIDTH 504 0
DWIDTH 7 0
BBX 5 10 1 0
BITMAP
20
e0
20
20
20
20
20
20
20
f8
ENDCHAR
STARTCHAR 2
ENCODING 50
SWIDTH 504 0
DWIDTH 7 0
BBX 5 10 1 0
BITMAP
70
d8
88
08
18
10
20
40
88
f8
ENDCHAR
STARTCHAR 3
ENCODING 51
SWIDTH 504 0
DWIDTH 7 0
BBX 6 10 0 0
BITMAP
78
8c
04
08
30
38
04
04
cc
78
ENDCHAR
STARTCHAR 4
ENCODING 52
SWIDTH 504 0
DWIDTH 7 0
BBX 6 10 0 0
BITMAP
08
18
18
28
68
48
88
fc
08
08
ENDCHAR
STARTCHAR 5
ENCODING 53
SWIDTH 504 0
DWIDTH 7 0
BBX 5 10 1 0
BITMAP
78
40
80
e0
30
18
08
08
90
e0
ENDCHAR
STARTCHAR 6
ENCODING 54
SWIDTH 504 0
DWIDTH 7 0
BBX 6 10 0 0
BITMAP
0c
10
20
40
78
cc
84
84
cc
78
ENDCHAR
STARTCHAR 7
ENCODING 55
SWIDTH 504 0
DWIDTH 7 0
BBX 6 10 0 0
BITMAP
fc
84
08
08
10
10
20
20
40
40
ENDCHAR
STARTCHAR 8
ENCODING 56
SWIDTH 504 0
DWIDTH 7 0
BBX 5 10 1 0
BITMAP
70
98
88
c8
70
98
88
88
88
70
ENDCHAR
STARTCHAR 9
ENCODING 57
SWIDTH 504 0
DWIDTH 7 0
BBX 6 10 1 0
BITMAP
78
cc
84
84
cc
78
08
10
20
c0
ENDCHAR
STARTCHAR colon
ENCODING 58
SWIDTH 288 0
DWIDTH 4 0
BBX 2 7 1 0
BITMAP
c0
00
00
00
00
00
c0
ENDCHAR
STARTCHAR semicolon
ENCODING 59
SWIDTH 288 0
DWIDTH 4 0
BBX 2 9 1 -2
BITMAP
c0
00
00
00
00
00
c0
40
80
ENDCHAR
STARTCHAR less
ENCODING 60
SWIDTH 576 0
DWIDTH 8 0
BBX 7 7 0 0
BITMAP
06
18
60
c0
60
18
06
ENDCHAR
STARTCHAR equal
ENCODING 61
SWIDTH 576 0
DWIDTH 8 0
BBX 7 3 0 2
BITMAP
fe
00
fe
ENDCHAR
STARTCHAR greater
ENCODING 62
SWIDTH 576 0
DWIDTH 8 0
BBX 7 7 0 0
BITMAP
c0
30
0c
06
0c
30
c0
ENDCHAR
STARTCHAR question
ENCODING 63
SWIDTH 432 0
DWIDTH 6 0
BBX 5 10 0 0
BITMAP
70
88
88
08
10
20
20
00
20
20
ENDCHAR
STARTCHAR at
ENCODING 64
SWIDTH 936 0
DWIDTH 13 0
BBX 12 12 0 -2
BITMAP
0f80
3060
6020
4690
8910
9110
9110
9320
cdc0
4000
30c0
0f00
ENDCHAR
STARTCHAR A
ENCODING 65
SWIDTH 792 0
DWIDTH 11 0
BBX 9 10 1 0
BITMAP
0800
0800
1400
1400
2200
2200
3e00
4100
4100
e380
ENDCHAR
STARTCHAR B
ENCODING 66
SWIDTH 648 0
DWIDTH 9 0
BBX 7 10 1 0
BITMAP
fc
46
42
46
7c
46
42
42
46
fc
ENDCHAR
STARTCHAR C
ENCODING 67
SWIDTH 720 0
DWIDTH 10 0
BBX 8 10 1 0
BITMAP
3d
63
41
81
80
80
80
c1
62
3c
ENDCHAR
STARTCHAR D
ENCODING 68
SWIDTH 720 0
DWIDTH 10 0
BBX 9 10 0 0
BITMAP
fe00
2300
2100
2080
2080
2080
2080
2100
2300
fe00
ENDCHAR
STARTCHAR E
ENCODING 69
SWIDTH 648 0
DWIDTH 9 0
BBX 7 10 1 0
BITMAP
fe
42
40
44
7c
44
40
42
42
fe
ENDCHAR
STARTCHAR F
ENCODING 70
SWIDTH 576 0
DWIDTH 8 0
BBX 7 10 1 0
BITMAP
fe
42
40
44
7c
44
40
40
40
e0
ENDCHAR
STARTCHAR G
ENCODING 71
SWIDTH 792 0
DWIDTH 11 0
BBX 9 10 1 0
BITMAP
3d00
6300
4100
8100
8000
8780
8100
c100
6300
3e00
ENDCHAR
STARTCHAR H
ENCODING 72
SWIDTH 720 0
DWIDTH 10 0
BBX 8 10 1 0
BITMAP
e7
42
42
42
7e
42
42
42
42
e7
ENDCHAR
STARTCHAR I
ENCODING 73
SWIDTH 360 0
DWIDTH 5 0
BBX 3 10 1 0
BITMAP
e0
40
40
40
40
40
40
40
40
e0
ENDCHAR
STARTCHAR J
ENCODING 74
SWIDTH 432 0
DWIDTH 6 0
BBX 4 10 1 0
BITMAP
70
20
20
20
20
20
20
20
a0
c0
ENDCHAR
STARTCHAR K
ENCODING 75
SWIDTH 720 0
DWIDTH 10 0
BBX 8 10 1 0
BITMAP
ee
44
48
50
70
50
48
44
46
e7
ENDCHAR
STARTCHAR L
ENCODING 76
SWIDTH 648 0
DWIDTH 9 0
BBX 7 10 1 0
BITMAP
e0
40
40
40
40
40
40
40
42
fe
ENDCHAR
STARTCHAR M
ENCODING 77
SWIDTH 936 0
DWIDTH 13 0
BBX 11 10 1 0
BITMAP
e0e0
60c0
5140
5140
5b40
4a40
4a40
4e40
4440
e4e0
ENDCHAR
STARTCHAR N
ENCODING 78
SWIDTH 792 0
DWIDTH 11 0
BBX 9 10 1 0
BITMAP
e380
6100
5100
5900
4900
4d00
4500
4500
4300
e300
ENDCHAR
STARTCHAR O
ENCODING 79
SWIDTH 720 0
DWIDTH 10 0
BBX 8 10 1 0
BITMAP
3c
66
42
81
81
81
81
42
66
3c
ENDCHAR
STARTCHAR P
ENCODING 80
SWIDTH 576 0
DWIDTH 8 0
BBX 6 10 1 0
BITMAP
f8
4c
44
44
4c
78
40
40
40
e0
ENDCHAR
STARTCHAR Q
ENCODING 81
SWIDTH 720 0
DWIDTH 10 0
BBX 8 13 1 -3
BITMAP
3c
66
42
81
81
81
81
42
66
3c
08
06
03
ENDCHAR
STARTCHAR R
ENCODING 82
SWIDTH 648 0
DWIDTH 9 0
BBX 9 10 0 0
BITMAP
fc00
2600
2200
2200
2600
3c00
2400
2200
2300
f180
ENDCHAR
STARTCHAR S
ENCODING 83
SWIDTH 576 0
DWIDTH 8 0
BBX 6 10 1 0
BITMAP
74
cc
84
c0
70
18
04
84
cc
b8
ENDCHAR
STARTCHAR T
ENCODING 84
SWIDTH 648 0
DWIDTH 9 0
BBX 7 10 1 0
BITMAP
fe
92
92
10
10
10
10
10
10
38
ENDCHAR
STARTCHAR U
ENCODING 85
SWIDTH 720 0
DWIDTH 10 0
BBX 8 10 1 0
BITMAP
e7
42
42
42
42
42
42
42
66
3c
ENDCHAR
STARTCHAR V
ENCODING 86
SWIDTH 648 0
DWIDTH 9 0
BBX 9 10 0 0
BITMAP
e380
4100
6300
2200
2200
3600
1400
1c00
0800
0800
ENDCHAR
STARTCHAR W
ENCODING 87
SWIDTH 936 0
DWIDTH 13 0
BBX 13 10 0 0
BITMAP
e738
4210
6230
2220
2520
3560
1540
18c0
0880
0880
ENDCHAR
STARTCHAR X
ENCODING 88
SWIDTH 720 0
DWIDTH 10 0
BBX 10 10 0 0
BITMAP
7380
2100
1200
1200
0c00
0c00
1200
2100
6180
f3c0
ENDCHAR
STARTCHAR Y
ENCODING 89
SWIDTH 648 0
DWIDTH 9 0
BBX 9 10 0 0
BITMAP
e380
4100
2200
2200
1400
0800
0800
0800
0800
1c00
ENDCHAR
STARTCHAR Z
ENCODING 90
SWIDTH 576 0
DWIDTH 8 0
BBX 8 10 0 0
BITMAP
7f
43
02
04
08
10
20
40
c1
ff
ENDCHAR
STARTCHAR bracketleft
ENCODING 91
SWIDTH 360 0
DWIDTH 5 0
BBX 3 13 1 -3
BITMAP
e0
80
80
80
80
80
80
80
80
80
80
80
e0
ENDCHAR
STARTCHAR backslash
ENCODING 92
SWIDTH 288 0
DWIDTH 4 0
BBX 4 10 0 0
BITMAP
80
80
40
40
40
20
20
20
10
10
ENDCHAR
STARTCHAR bracketright
ENCODING 93
SWIDTH 360 0
DWIDTH 5 0
BBX 3 13 1 -3
BITMAP
e0
20
20
20
20
20
20
20
20
20
20
20
e0
ENDCHAR
STARTCHAR asciicircum
ENCODING 94
SWIDTH 504 0
DWIDTH 7 0
BBX 5 5 1 5
BITMAP
20
50
50
88
88
ENDCHAR
STARTCHAR underscore
ENCODING 95
SWIDTH 504 0
DWIDTH 7 0
BBX 7 1 0 -3
BITMAP
fe
ENDCHAR
STARTCHAR grave
ENCODING 96
SWIDTH 288 0
DWIDTH 4 0
BBX 2 3 1 7
BITMAP
40
80
c0
ENDCHAR
STARTCHAR a
ENCODING 97
SWIDTH 504 0
DWIDTH 7 0
BBX 6 7 1 0
BITMAP
70
c8
18
68
88
c8
74
ENDCHAR
STARTCHAR b
ENCODING 98
SWIDTH 504 0
DWIDTH 7 0
BBX 6 10 0 0
BITMAP
c0
40
40
58
6c
44
44
44
4c
78
ENDCHAR
STARTCHAR c
ENCODING 99
SWIDTH 504 0
DWIDTH 7 0
BBX 6 7 1 0
BITMAP
78
cc
80
80
80
c4
78
ENDCHAR
STARTCHAR d
ENCODING 100
SWIDTH 504 0
DWIDTH 7 0
BBX 6 10 1 0
BITMAP
18
08
08
78
c8
88
88
88
d8
74
ENDCHAR
STARTCHAR e
ENCODING 101
SWIDTH 504 0
DWIDTH 7 0
BBX 6 7 1 0
BITMAP
70
88
f8
80
80
c4
78
ENDCHAR
STARTCHAR f
ENCODING 102
SWIDTH 288 0
DWIDTH 4 0
BBX 5 10 0 0
BITMAP
38
60
40
f8
40
40
40
40
40
f0
ENDCHAR
STARTCHAR g
ENCODING 103
SWIDTH 504 0
DWIDTH 7 0
BBX 6 10 1 -3
BITMAP
78
d0
88
c8
70
40
78
84
cc
70
ENDCHAR
STARTCHAR h
ENCODING 104
SWIDTH 504 0
DWIDTH 7 0
BBX 7 10 0 0
BITMAP
c0
40
40
58
6c
44
44
44
44
ee
ENDCHAR
STARTCHAR i
ENCODING 105
SWIDTH 216 0
DWIDTH 3 0
BBX 3 10 0 0
BITMAP
40
40
00
c0
40
40
40
40
40
e0
ENDCHAR
STARTCHAR j
ENCODING 106
SWIDTH 288 0
DWIDTH 4 0
BBX 3 13 0 -3
BITMAP
20
20
00
60
20
20
20
20
20
20
20
a0
c0
ENDCHAR
STARTCHAR k
ENCODING 107
SWIDTH 504 0
DWIDTH 7 0
BBX 7 10 0 0
BITMAP
c0
40
40
4c
48
70
50
48
4c
e6
ENDCHAR
STARTCHAR l
ENCODING 108
SWIDTH 216 0
DWIDTH 3 0
BBX 3 10 0 0
BITMAP
c0
40
40
40
40
40
40
40
40
e0
ENDCHAR
STARTCHAR m
ENCODING 109
SWIDTH 792 0
DWIDTH 11 0
BBX 11 7 0 0
BITMAP
db80
6ec0
4440
4440
4440
4440
eee0
ENDCHAR
STARTCHAR n
ENCODING 110
SWIDTH 504 0
DWIDTH 7 0
BBX 7 7 0 0
BITMAP
d8
6c
44
44
44
44
ee
ENDCHAR
STARTCHAR o
ENCODING 111
SWIDTH 504 0
DWIDTH 7 0
BBX 5 7 1 0
BITMAP
70
d8
88
88
88
d8
70
ENDCHAR
STARTCHAR p
ENCODING 112
SWIDTH 504 0
DWIDTH 7 0
BBX 6 10 0 -3
BITMAP
d8
6c
44
44
44
6c
58
40
40
e0
ENDCHAR
STARTCHAR q
ENCODING 113
SWIDTH 504 0
DWIDTH 7 0
BBX 6 10 1 -3
BITMAP
78
c8
88
88
88
d8
68
08
08
1c
ENDCHAR
STARTCHAR r
ENCODING 114
SWIDTH 360 0
DWIDTH 5 0
BBX 5 7 0 0
BITMAP
b8
60
40
40
40
40
e0
ENDCHAR
STARTCHAR s
ENCODING 115
SWIDTH 432 0
DWIDTH 6 0
BBX 4 7 1 0
BITMAP
70
90
c0
60
30
90
e0
ENDCHAR
STARTCHAR t
ENCODING 116
SWIDTH 288 0
DWIDTH 4 0
BBX 4 8 0 0
BITMAP
40
f0
40
40
40
40
40
30
ENDCHAR
STARTCHAR u
ENCODING 117
SWIDTH 504 0
DWIDTH 7 0
BBX 7 7 0 0
BITMAP
cc
44
44
44
44
6c
36
ENDCHAR
STARTCHAR v
ENCODING 118
SWIDTH 504 0
DWIDTH 7 0
BBX 7 7 0 0
BITMAP
ee
44
44
28
28
10
10
ENDCHAR
STARTCHAR w
ENCODING 119
SWIDTH 792 0
DWIDTH 11 0
BBX 11 7 0 0
BITMAP
eee0
4440
4440
2480
3b80
1100
1100
ENDCHAR
STARTCHAR x
ENCODING 120
SWIDTH 504 0
DWIDTH 7 0
BBX 7 7 0 0
BITMAP
ee
44
38
10
38
44
ee
ENDCHAR
STARTCHAR y
ENCODING 121
SWIDTH 504 0
DWIDTH 7 0
BBX 7 10 0 -3
BITMAP
ee
44
44
28
28
10
30
20
a0
c0
ENDCHAR
STARTCHAR z
ENCODING 122
SWIDTH 432 0
DWIDTH 6 0
BBX 6 7 0 0
BITMAP
fc
88
18
30
60
c4
fc
ENDCHAR
STARTCHAR braceleft
ENCODING 123
SWIDTH 504 0
DWIDTH 7 0
BBX 5 13 1 -3
BITMAP
18
20
20
20
20
40
80
40
20
20
20
20
18
ENDCHAR
STARTCHAR bar
ENCODING 124
SWIDTH 216 0
DWIDTH 3 0
BBX 1 10 1 0
BITMAP
80
80
80
80
80
80
80
80
80
80
ENDCHAR
STARTCHAR braceright
ENCODING 125
SWIDTH 504 0
DWIDTH 7 0
BBX 5 13 1 -3
BITMAP
c0
20
20
20
20
10
08
10
20
20
20
20
c0
ENDCHAR
STARTCHAR asciitilde
ENCODING 126
SWIDTH 576 0
DWIDTH 8 0
BBX 7 2 0 3
BITMAP
62
9c
ENDCHAR
STARTCHAR nobreakspace
ENCODING 160
SWIDTH 216 0
DWIDTH 3 0
BBX 1 1 0 0
BITMAP
00
ENDCHAR
STARTCHAR exclamdown
ENCODING 161
SWIDTH 360 0
DWIDTH 5 0
BBX 1 10 2 -3
BITMAP
80
80
00
80
80
80
80
80
80
80
ENDCHAR
STARTCHAR cent
ENCODING 162
SWIDTH 504 0
DWIDTH 7 0
BBX 6 9 0 -1
BITMAP
04
7c
cc
90
90
a0
e4
78
80
ENDCHAR
STARTCHAR sterling
ENCODING 163
SWIDTH 576 0
DWIDTH 8 0
BBX 7 10 0 0
BITMAP
1c
34
20
20
f8
20
20
20
e2
bc
ENDCHAR
STARTCHAR currency
ENCODING 164
SWIDTH 504 0
DWIDTH 7 0
BBX 5 7 1 1
BITMAP
88
70
88
88
88
70
88
ENDCHAR
STARTCHAR yen
ENCODING 165
SWIDTH 504 0
DWIDTH 7 0
BBX 7 10 0 0
BITMAP
ee
44
6c
28
7c
10
7c
10
10
38
ENDCHAR
STARTCHAR brokenbar
ENCODING 166
SWIDTH 216 0
DWIDTH 3 0
BBX 1 10 1 0
BITMAP
80
80
80
80
00
00
80
80
80
80
ENDCHAR
STARTCHAR section
ENCODING 167
SWIDTH 504 0
DWIDTH 7 0
BBX 5 13 1 -3
BITMAP
38
58
40
60
70
98
88
c8
70
30
10
d0
e0
ENDCHAR
STARTCHAR diaeresis
ENCODING 168
SWIDTH 360 0
DWIDTH 5 0
BBX 3 2 1 8
BITMAP
a0
a0
ENDCHAR
STARTCHAR copyright
ENCODING 169
SWIDTH 864 0
DWIDTH 12 0
BBX 10 10 1 0
BITMAP
1e00
6180
4e80
9240
9040
9040
9240
4c80
6180
1e00
ENDCHAR
STARTCHAR ordfeminine
ENCODING 170
SWIDTH 288 0
DWIDTH 4 0
BBX 3 6 0 4
BITMAP
e0
20
a0
e0
00
e0
ENDCHAR
STARTCHAR guillemotleft
ENCODING 171
SWIDTH 504 0
DWIDTH 7 0
BBX 6 6 0 0
BITMAP
24
48
90
90
48
24
ENDCHAR
STARTCHAR notsign
ENCODING 172
SWIDTH 648 0
DWIDTH 9 0
BBX 7 4 1 2
BITMAP
fe
02
02
02
ENDCHAR
STARTCHAR hyphen
ENCODING 173
SWIDTH 288 0
DWIDTH 4 0
BBX 3 1 0 3
BITMAP
e0
ENDCHAR
STARTCHAR registered
ENCODING 174
SWIDTH 864 0
DWIDTH 12 0
BBX 10 10 1 0
BITMAP
1e00
6180
5c80
9240
9c40
9440
9240
5280
6180
1e00
ENDCHAR
STARTCHAR macron
ENCODING 175
SWIDTH 288 0
DWIDTH 4 0
BBX 4 1 0 8
BITMAP
f0
ENDCHAR
STARTCHAR degree
ENCODING 176
SWIDTH 432 0
DWIDTH 6 0
BBX 4 4 1 6
BITMAP
60
90
90
60
ENDCHAR
STARTCHAR plusminus
ENCODING 177
SWIDTH 576 0
DWIDTH 8 0
BBX 7 7 0 0
BITMAP
10
10
fe
10
10
00
fe
ENDCHAR
STARTCHAR twosuperior
ENCODING 178
SWIDTH 288 0
DWIDTH 4 0
BBX 4 6 0 4
BITMAP
60
90
10
20
40
f0
ENDCHAR
STARTCHAR threesuperior
ENCODING 179
SWIDTH 288 0
DWIDTH 4 0
BBX 4 6 0 4
BITMAP
60
90
20
10
90
60
ENDCHAR
STARTCHAR acute
ENCODING 180
SWIDTH 360 0
DWIDTH 5 0
BBX 3 3 1 8
BITMAP
20
60
80
ENDCHAR
STARTCHAR mu
ENCODING 181
SWIDTH 504 0
DWIDTH 7 0
BBX 7 10 0 -3
BITMAP
cc
44
44
44
44
6c
76
40
40
60
ENDCHAR
STARTCHAR paragraph
ENCODING 182
SWIDTH 504 0
DWIDTH 7 0
BBX 7 13 0 -3
BITMAP
3e
74
f4
f4
f4
74
34
14
14
14
14
14
14
ENDCHAR
STARTCHAR periodcentered
ENCODING 183
SWIDTH 288 0
DWIDTH 4 0
BBX 1 2 2 3
BITMAP
80
80
ENDCHAR
STARTCHAR cedilla
ENCODING 184
SWIDTH 360 0
DWIDTH 5 0
BBX 3 3 1 -3
BITMAP
40
20
c0
ENDCHAR
STARTCHAR onesuperior
ENCODING 185
SWIDTH 288 0
DWIDTH 4 0
BBX 3 6 0 4
BITMAP
40
c0
40
40
40
e0
ENDCHAR
STARTCHAR masculine
ENCODING 186
SWIDTH 360 0
DWIDTH 5 0
BBX 4 6 0 4
BITMAP
60
90
90
60
00
f0
ENDCHAR
STARTCHAR guillemotright
ENCODING 187
SWIDTH 504 0
DWIDTH 7 0
BBX 6 6 1 0
BITMAP
90
48
24
24
48
90
ENDCHAR
STARTCHAR onequarter
ENCODING 188
SWIDTH 720 0
DWIDTH 10 0
BBX 10 10 0 0
BITMAP
4100
c200
4200
4400
4480
e980
0a80
1480
17c0
2080
ENDCHAR
STARTCHAR onehalf
ENCODING 189
SWIDTH 720 0
DWIDTH 10 0
BBX 10 10 0 0
BITMAP
4100
c200
4200
4400
4580
ea40
0840
1080
1100
23c0
ENDCHAR
STARTCHAR threequarters
ENCODING 190
SWIDTH 720 0
DWIDTH 10 0
BBX 10 10 0 0
BITMAP
6100
9200
2200
1400
9480
6980
0a80
1480
17c0
2080
ENDCHAR
STARTCHAR questiondown
ENCODING 191
SWIDTH 432 0
DWIDTH 6 0
BBX 5 10 0 -3
BITMAP
20
20
00
20
20
40
80
88
88
70
ENDCHAR
STARTCHAR Agrave
ENCODING 192
SWIDTH 792 0
DWIDTH 11 0
BBX 9 14 1 0
BITMAP
1000
1800
0400
0000
0800
0800
1400
1400
2200
2200
3e00
4100
4100
e380
ENDCHAR
STARTCHAR Aacute
ENCODING 193
SWIDTH 792 0
DWIDTH 11 0
BBX 9 14 1 0
BITMAP
0400
0c00
1000
0000
0800
0800
1400
1400
2200
2200
3e00
4100
4100
e380
ENDCHAR
STARTCHAR Acircumflex
ENCODING 194
SWIDTH 792 0
DWIDTH 11 0
BBX 9 14 1 0
BITMAP
0800
1c00
2200
0000
0800
0800
1400
1400
2200
2200
3e00
4100
4100
e380
ENDCHAR
STARTCHAR Atilde
ENCODING 195
SWIDTH 792 0
DWIDTH 11 0
BBX 9 14 1 0
BITMAP
1200
2a00
2400
0000
0800
0800
1400
1400
2200
2200
3e00
4100
4100
e380
ENDCHAR
STARTCHAR Adiaeresis
ENCODING 196
SWIDTH 792 0
DWIDTH 11 0
BBX 9 13 1 0
BITMAP
2400
2400
0000
0800
0800
1400
1400
2200
2200
3e00
4100
4100
e380
ENDCHAR
STARTCHAR Aring
ENCODING 197
SWIDTH 792 0
DWIDTH 11 0
BBX 9 14 1 0
BITMAP
1800
2400
1800
0000
0800
0800
1400
1400
2200
2200
3e00
4100
4100
e380
ENDCHAR
STARTCHAR AE
ENCODING 198
SWIDTH 936 0
DWIDTH 13 0
BBX 11 10 1 0
BITMAP
1fe0
0c20
1400
1440
27c0
2440
3c00
4420
4420
efe0
ENDCHAR
STARTCHAR Ccedilla
ENCODING 199
SWIDTH 720 0
DWIDTH 10 0
BBX 8 13 1 -3
BITMAP
3d
63
41
81
80
80
80
c1
62
3c
08
04
18
ENDCHAR
STARTCHAR Egrave
ENCODING 200
SWIDTH 648 0
DWIDTH 9 0
BBX 7 14 1 0
BITMAP
20
30
08
00
fe
42
40
44
7c
44
40
42
42
fe
ENDCHAR
STARTCHAR Eacute
ENCODING 201
SWIDTH 648 0
DWIDTH 9 0
BBX 7 14 1 0
BITMAP
04
0c
10
00
fe
42
40
44
7c
44
40
42
42
fe
ENDCHAR
STARTCHAR Ecircumflex
ENCODING 202
SWIDTH 648 0
DWIDTH 9 0
BBX 7 14 1 0
BITMAP
10
38
44
00
fe
42
40
44
7c
44
40
42
42
fe
ENDCHAR
STARTCHAR Ediaeresis
ENCODING 203
SWIDTH 648 0
DWIDTH 9 0
BBX 7 13 1 0
BITMAP
24
24
00
fe
42
40
44
7c
44
40
42
42
fe
ENDCHAR
STARTCHAR Igrave
ENCODING 204
SWIDTH 360 0
DWIDTH 5 0
BBX 3 14 1 0
BITMAP
80
c0
20
00
e0
40
40
40
40
40
40
40
40
e0
ENDCHAR
STARTCHAR Iacute
ENCODING 205
SWIDTH 360 0
DWIDTH 5 0
BBX 3 14 1 0
BITMAP
20
60
80
00
e0
40
40
40
40
40
40
40
40
e0
ENDCHAR
STARTCHAR Icircumflex
ENCODING 206
SWIDTH 360 0
DWIDTH 5 0
BBX 5 14 0 0
BITMAP
20
70
88
00
70
20
20
20
20
20
20
20
20
70
ENDCHAR
STARTCHAR Idiaeresis
ENCODING 207
SWIDTH 360 0
DWIDTH 5 0
BBX 3 13 1 0
BITMAP
a0
a0
00
e0
40
40
40
40
40
40
40
40
e0
ENDCHAR
STARTCHAR ETH
ENCODING 208
SWIDTH 720 0
DWIDTH 10 0
BBX 9 10 0 0
BITMAP
fe00
2300
2100
2080
f880
2080
2080
2100
2300
fe00
ENDCHAR
STARTCHAR Ntilde
ENCODING 209
SWIDTH 792 0
DWIDTH 11 0
BBX 9 14 1 0
BITMAP
1200
2a00
2400
0000
e380
6100
5100
5900
4900
4d00
4500
4500
4300
e300
ENDCHAR
STARTCHAR Ograve
ENCODING 210
SWIDTH 720 0
DWIDTH 10 0
BBX 8 14 1 0
BITMAP
20
30
08
00
3c
66
42
81
81
81
81
42
66
3c
ENDCHAR
STARTCHAR Oacute
ENCODING 211
SWIDTH 720 0
DWIDTH 10 0
BBX 8 14 1 0
BITMAP
04
0c
10
00
3c
66
42
81
81
81
81
42
66
3c
ENDCHAR
STARTCHAR Ocircumflex
ENCODING 212
SWIDTH 720 0
DWIDTH 10 0
BBX 8 14 1 0
BITMAP
10
38
44
00
3c
66
42
81
81
81
81
42
66
3c
ENDCHAR
STARTCHAR Otilde
ENCODING 213
SWIDTH 720 0
DWIDTH 10 0
BBX 8 14 1 0
BITMAP
24
54
48
00
3c
66
42
81
81
81
81
42
66
3c
ENDCHAR
STARTCHAR Odiaeresis
ENCODING 214
SWIDTH 720 0
DWIDTH 10 0
BBX 8 13 1 0
BITMAP
24
24
00
3c
66
42
81
81
81
81
42
66
3c
ENDCHAR
STARTCHAR multiply
ENCODING 215
SWIDTH 576 0
DWIDTH 8 0
BBX 7 7 1 0
BITMAP
82
44
28
10
28
44
82
ENDCHAR
STARTCHAR Ooblique
ENCODING 216
SWIDTH 720 0
DWIDTH 10 0
BBX 9 12 0 -1
BITMAP
0080
1f00
3100
2300
4480
4c80
4880
5080
3100
6300
5e00
8000
ENDCHAR
STARTCHAR Ugrave
ENCODING 217
SWIDTH 720 0
DWIDTH 10 0
BBX 8 14 1 0
BITMAP
20
30
08
00
e7
42
42
42
42
42
42
42
66
3c
ENDCHAR
STARTCHAR Uacute
ENCODING 218
SWIDTH 720 0
DWIDTH 10 0
BBX 8 14 1 0
BITMAP
04
0c
10
00
e7
42
42
42
42
42
42
42
66
3c
ENDCHAR
STARTCHAR Ucircumflex
ENCODING 219
SWIDTH 720 0
DWIDTH 10 0
BBX 8 14 1 0
BITMAP
10
38
44
00
e7
42
42
42
42
42
42
42
66
3c
ENDCHAR
STARTCHAR Udiaeresis
ENCODING 220
SWIDTH 720 0
DWIDTH 10 0
BBX 8 13 1 0
BITMAP
24
24
00
e7
42
42
42
42
42
42
42
66
3c
ENDCHAR
STARTCHAR Yacute
ENCODING 221
SWIDTH 648 0
DWIDTH 9 0
BBX 9 14 0 0
BITMAP
0200
0600
0800
0000
e380
4100
2200
2200
1400
0800
0800
0800
0800
1c00
ENDCHAR
STARTCHAR THORN
ENCODING 222
SWIDTH 576 0
DWIDTH 8 0
BBX 6 10 1 0
BITMAP
e0
40
78
4c
44
44
4c
78
40
e0
ENDCHAR
STARTCHAR ssharp
ENCODING 223
SWIDTH 504 0
DWIDTH 7 0
BBX 6 10 0 0
BITMAP
38
6c
44
48
70
58
4c
44
54
d8
ENDCHAR
STARTCHAR agrave
ENCODING 224
SWIDTH 504 0
DWIDTH 7 0
BBX 6 11 1 0
BITMAP
40
60
10
00
70
c8
18
68
88
c8
74
ENDCHAR
STARTCHAR aacute
ENCODING 225
SWIDTH 504 0
DWIDTH 7 0
BBX 6 11 1 0
BITMAP
08
18
20
00
70
c8
18
68
88
c8
74
ENDCHAR
STARTCHAR acircumflex
ENCODING 226
SWIDTH 504 0
DWIDTH 7 0
BBX 6 11 1 0
BITMAP
20
70
88
00
70
c8
18
68
88
c8
74
ENDCHAR
STARTCHAR atilde
ENCODING 227
SWIDTH 504 0
DWIDTH 7 0
BBX 6 11 1 0
BITMAP
48
a8
90
00
70
c8
18
68
88
c8
74
ENDCHAR
STARTCHAR adiaeresis
ENCODING 228
SWIDTH 504 0
DWIDTH 7 0
BBX 6 10 1 0
BITMAP
50
50
00
70
c8
18
68
88
c8
74
ENDCHAR
STARTCHAR aring
ENCODING 229
SWIDTH 504 0
DWIDTH 7 0
BBX 6 11 1 0
BITMAP
30
48
30
00
70
c8
18
68
88
c8
74
ENDCHAR
STARTCHAR ae
ENCODING 230
SWIDTH 792 0
DWIDTH 11 0
BBX 9 7 1 0
BITMAP
7f00
c980
1f00
6800
8800
cc80
7700
ENDCHAR
STARTCHAR ccedilla
ENCODING 231
SWIDTH 504 0
DWIDTH 7 0
BBX 6 10 1 -3
BITMAP
70
c8
80
80
80
c4
78
20
10
60
ENDCHAR
STARTCHAR egrave
ENCODING 232
SWIDTH 504 0
DWIDTH 7 0
BBX 6 11 1 0
BITMAP
40
60
10
00
70
88
f8
80
80
c4
78
ENDCHAR
STARTCHAR eacute
ENCODING 233
SWIDTH 504 0
DWIDTH 7 0
BBX 6 11 1 0
BITMAP
08
18
20
00
70
88
f8
80
80
c4
78
ENDCHAR
STARTCHAR ecircumflex
ENCODING 234
SWIDTH 504 0
DWIDTH 7 0
BBX 6 11 1 0
BITMAP
20
70
88
00
70
88
f8
80
80
c4
78
ENDCHAR
STARTCHAR ediaeresis
ENCODING 235
SWIDTH 504 0
DWIDTH 7 0
BBX 6 10 1 0
BITMAP
50
50
00
70
88
f8
80
80
c4
78
ENDCHAR
STARTCHAR igrave
ENCODING 236
SWIDTH 216 0
DWIDTH 3 0
BBX 3 11 0 0
BITMAP
80
c0
20
00
c0
40
40
40
40
40
e0
ENDCHAR
STARTCHAR iacute
ENCODING 237
SWIDTH 216 0
DWIDTH 3 0
BBX 3 11 0 0
BITMAP
20
60
80
00
c0
40
40
40
40
40
e0
ENDCHAR
STARTCHAR icircumflex
ENCODING 238
SWIDTH 216 0
DWIDTH 3 0
BBX 5 11 -1 0
BITMAP
20
70
88
00
60
20
20
20
20
20
70
ENDCHAR
STARTCHAR idiaeresis
ENCODING 239
SWIDTH 216 0
DWIDTH 3 0
BBX 3 10 0 0
BITMAP
a0
a0
00
c0
40
40
40
40
40
e0
ENDCHAR
STARTCHAR eth
ENCODING 240
SWIDTH 504 0
DWIDTH 7 0
BBX 5 10 1 0
BITMAP
d8
60
90
78
d8
88
88
88
d8
70
ENDCHAR
STARTCHAR ntilde
ENCODING 241
SWIDTH 504 0
DWIDTH 7 0
BBX 7 11 0 0
BITMAP
24
54
48
00
d8
6c
44
44
44
44
ee
ENDCHAR
STARTCHAR ograve
ENCODING 242
SWIDTH 504 0
DWIDTH 7 0
BBX 5 11 1 0
BITMAP
40
60
10
00
70
d8
88
88
88
d8
70
ENDCHAR
STARTCHAR oacute
ENCODING 243
SWIDTH 504 0
DWIDTH 7 0
BBX 5 11 1 0
BITMAP
10
30
40
00
70
d8
88
88
88
d8
70
ENDCHAR
STARTCHAR ocircumflex
ENCODING 244
SWIDTH 504 0
DWIDTH 7 0
BBX 5 11 1 0
BITMAP
20
70
88
00
70
d8
88
88
88
d8
70
ENDCHAR
STARTCHAR otilde
ENCODING 245
SWIDTH 504 0
DWIDTH 7 0
BBX 5 11 1 0
BITMAP
48
a8
90
00
70
d8
88
88
88
d8
70
ENDCHAR
STARTCHAR odiaeresis
ENCODING 246
SWIDTH 504 0
DWIDTH 7 0
BBX 5 10 1 0
BITMAP
50
50
00
70
d8
88
88
88
d8
70
ENDCHAR
STARTCHAR division
ENCODING 247
SWIDTH 576 0
DWIDTH 8 0
BBX 7 7 1 0
BITMAP
10
10
00
fe
00
10
10
ENDCHAR
STARTCHAR oslash
ENCODING 248
SWIDTH 504 0
DWIDTH 7 0
BBX 7 9 0 -1
BITMAP
02
3c
6c
44
44
44
6c
78
80
ENDCHAR
STARTCHAR ugrave
ENCODING 249
SWIDTH 504 0
DWIDTH 7 0
BBX 7 11 0 0
BITMAP
20
30
08
00
cc
44
44
44
44
6c
36
ENDCHAR
STARTCHAR uacute
ENCODING 250
SWIDTH 504 0
DWIDTH 7 0
BBX 7 11 0 0
BITMAP
08
18
20
00
cc
44
44
44
44
6c
36
ENDCHAR
STARTCHAR ucircumflex
ENCODING 251
SWIDTH 504 0
DWIDTH 7 0
BBX 7 11 0 0
BITMAP
10
38
44
00
cc
44
44
44
44
6c
36
ENDCHAR
STARTCHAR udiaeresis
ENCODING 252
SWIDTH 504 0
DWIDTH 7 0
BBX 7 10 0 0
BITMAP
28
28
00
cc
44
44
44
44
6c
36
ENDCHAR
STARTCHAR yacute
ENCODING 253
SWIDTH 504 0
DWIDTH 7 0
BBX 7 14 0 -3
BITMAP
04
0c
10
00
ee
44
44
28
28
10
30
20
a0
c0
ENDCHAR
STARTCHAR thorn
ENCODING 254
SWIDTH 504 0
DWIDTH 7 0
BBX 6 13 0 -3
BITMAP
c0
40
40
58
6c
44
44
44
6c
58
40
40
e0
ENDCHAR
STARTCHAR ydiaeresis
ENCODING 255
SWIDTH 504 0
DWIDTH 7 0
BBX 7 13 0 -3
BITMAP
28
28
00
ee
44
44
28
28
10
30
20
a0
c0
ENDCHAR
ENDFONT
