STARTFONT 2.1
COMMENT  
COMMENT  Copyright (c) 1984, 1987 Adobe Systems Incorporated. All Rights Reserved. Copyright (c) 1988, 1991 Digital Equipment Corporation. All Rights Reserved.
COMMENT  
COMMENT  WARNING:  This bdf file was generated from a font server using
COMMENT  fstobdf.  The resulting font is subject to the same copyright,
COMMENT  license, and trademark restrictions as the original font.  The
COMMENT  authors and distributors of fstobdf disclaim all liability for
COMMENT  misuse of the program or its output.
COMMENT  
FONT -Adobe-Times-Medium-R-Normal--18-180-75-75-P-94-ISO8859-1
SIZE 18 75 75
FONTBOUNDINGBOX 19 21 -1 -4
STARTPROPERTIES 32
FOUNDRY "Adobe"
FAMILY_NAME "Times"
WEIGHT_NAME "Medium"
SLANT "R"
SETWIDTH_NAME "Normal"
ADD_STYLE_NAME ""
PIXEL_SIZE 18
POINT_SIZE 180
RESOLUTION_X 75
RESOLUTION_Y 75
SPACING "P"
AVERAGE_WIDTH 94
CHARSET_REGISTRY "ISO8859"
CHARSET_ENCODING "1"
CAP_HEIGHT 13
X_HEIGHT 9
FACE_NAME "Times Roman"
COPYRIGHT "Copyright (c) 1984, 1987 Adobe Systems Incorporated. All Rights Reserved. Copyright (c) 1988, 1991 Digital Equipment Corporation. All Rights Reserved."
NOTICE "Times is a trademark of Linotype-Hell AG and/or its subsidiaries."
_DEC_DEVICE_FONTNAMES "PS=Times-Roman"
_DEC_PRODUCTINFO "DECwindows Fonts V2.2-1, 22-Nov-1991"
RELATIVE_SETWIDTH 50
RELATIVE_WEIGHT 50
CHARSET_COLLECTIONS "ASCII ISO8859-1 ADOBE-STANDARD"
FULL_NAME "Times Roman"
FONT "-Adobe-Times-Medium-R-Normal--18-180-75-75-P-94-ISO8859-1"
WEIGHT 10
RESOLUTION 103
QUAD_WIDTH 10
DEFAULT_CHAR 32
FONT_ASCENT 15
FONT_DESCENT 4
ENDPROPERTIES
CHARS 191
STARTCHAR space
ENCODING 32
SWIDTH 213 0
DWIDTH 4 0
BBX 1 1 1 0
BITMAP
00
ENDCHAR
STARTCHAR exclam
ENCODING 33
SWIDTH 213 0
DWIDTH 4 0
BBX 2 13 1 0
BITMAP
c0
c0
c0
c0
c0
c0
40
40
40
00
00
c0
c0
ENDCHAR
STARTCHAR quotedbl
ENCODING 34
SWIDTH 426 0
DWIDTH 8 0
BBX 6 4 1 9
BITMAP
cc
cc
cc
88
ENDCHAR
STARTCHAR numbersign
ENCODING 35
SWIDTH 533 0
DWIDTH 10 0
BBX 11 13 -1 0
BITMAP
0d80
0d80
0d80
0d80
7fe0
1b00
1b00
1b00
ffc0
3600
3600
3600
3600
ENDCHAR
STARTCHAR dollar
ENCODING 36
SWIDTH 480 0
DWIDTH 9 0
BBX 7 16 1 -2
BITMAP
10
7c
d6
d2
d0
f0
78
3c
1c
16
16
96
d6
7c
10
10
ENDCHAR
STARTCHAR percent
ENCODING 37
SWIDTH 800 0
DWIDTH 15 0
BBX 13 13 1 0
BITMAP
3830
6fe0
c440
c480
cd80
fb00
7270
06d8
0d88
0988
1998
31f0
20e0
ENDCHAR
STARTCHAR ampersand
ENCODING 38
SWIDTH 746 0
DWIDTH 14 0
BBX 12 13 1 0
BITMAP
1c00
3200
3200
3200
3400
19e0
38c0
6d80
cf00
c700
c780
edf0
78e0
ENDCHAR
STARTCHAR apostrophe
ENCODING 39
SWIDTH 266 0
DWIDTH 5 0
BBX 3 4 1 9
BITMAP
c0
e0
20
40
ENDCHAR
STARTCHAR parenleft
ENCODING 40
SWIDTH 373 0
DWIDTH 7 0
BBX 5 17 1 -4
BITMAP
18
30
60
60
40
c0
c0
c0
c0
c0
c0
c0
40
60
60
30
18
ENDCHAR
STARTCHAR parenright
ENCODING 41
SWIDTH 373 0
DWIDTH 7 0
BBX 5 17 1 -4
BITMAP
c0
60
30
30
10
18
18
18
18
18
18
18
10
30
30
60
c0
ENDCHAR
STARTCHAR asterisk
ENCODING 42
SWIDTH 480 0
DWIDTH 9 0
BBX 7 8 1 6
BITMAP
10
10
d6
54
38
d6
92
10
ENDCHAR
STARTCHAR plus
ENCODING 43
SWIDTH 533 0
DWIDTH 10 0
BBX 9 9 1 0
BITMAP
0800
0800
0800
0800
ff80
0800
0800
0800
0800
ENDCHAR
STARTCHAR comma
ENCODING 44
SWIDTH 213 0
DWIDTH 4 0
BBX 3 5 0 -3
BITMAP
60
60
20
60
c0
ENDCHAR
STARTCHAR minus
ENCODING 45
SWIDTH 533 0
DWIDTH 10 0
BBX 8 1 1 4
BITMAP
ff
ENDCHAR
STARTCHAR period
ENCODING 46
SWIDTH 213 0
DWIDTH 4 0
BBX 2 2 1 0
BITMAP
c0
c0
ENDCHAR
STARTCHAR slash
ENCODING 47
SWIDTH 266 0
DWIDTH 5 0
BBX 5 15 0 -2
BITMAP
08
08
18
10
10
30
20
20
60
40
40
c0
80
80
80
ENDCHAR
STARTCHAR 0
ENCODING 48
SWIDTH 480 0
DWIDTH 9 0
BBX 8 13 0 0
BITMAP
3c
66
42
c3
c3
c3
c3
c3
c3
c3
42
66
3c
ENDCHAR
STARTCHAR 1
ENCODING 49
SWIDTH 480 0
DWIDTH 9 0
BBX 6 13 2 0
BITMAP
30
70
f0
30
30
30
30
30
30
30
30
78
fc
ENDCHAR
STARTCHAR 2
ENCODING 50
SWIDTH 480 0
DWIDTH 9 0
BBX 7 13 1 0
BITMAP
3c
7e
ce
86
06
06
0c
0c
18
30
62
fe
fe
ENDCHAR
STARTCHAR 3
ENCODING 51
SWIDTH 480 0
DWIDTH 9 0
BBX 7 13 1 0
BITMAP
7c
ce
86
06
0c
38
3c
0e
06
06
06
cc
f8
ENDCHAR
STARTCHAR 4
ENCODING 52
SWIDTH 480 0
DWIDTH 9 0
BBX 8 13 0 0
BITMAP
06
0e
0e
16
26
66
46
86
ff
ff
06
06
06
ENDCHAR
STARTCHAR 5
ENCODING 53
SWIDTH 480 0
DWIDTH 9 0
BBX 7 13 1 0
BITMAP
7e
7c
c0
c0
f0
3c
0c
0e
06
06
0c
dc
f0
ENDCHAR
STARTCHAR 6
ENCODING 54
SWIDTH 480 0
DWIDTH 9 0
BBX 8 13 0 0
BITMAP
07
1c
30
60
60
fc
c6
c3
c3
c3
e3
76
3c
ENDCHAR
STARTCHAR 7
ENCODING 55
SWIDTH 480 0
DWIDTH 9 0
BBX 7 13 1 0
BITMAP
fe
fe
84
0c
08
18
18
10
30
30
20
60
60
ENDCHAR
STARTCHAR 8
ENCODING 56
SWIDTH 480 0
DWIDTH 9 0
BBX 8 13 0 0
BITMAP
3c
66
62
62
74
3c
3c
6e
c7
c3
c3
66
3c
ENDCHAR
STARTCHAR 9
ENCODING 57
SWIDTH 480 0
DWIDTH 9 0
BBX 8 13 0 0
BITMAP
3c
6e
c6
c3
c3
c3
e3
7f
06
06
0c
38
e0
ENDCHAR
STARTCHAR colon
ENCODING 58
SWIDTH 213 0
DWIDTH 4 0
BBX 2 9 1 0
BITMAP
c0
c0
00
00
00
00
00
c0
c0
ENDCHAR
STARTCHAR semicolon
ENCODING 59
SWIDTH 213 0
DWIDTH 4 0
BBX 3 12 0 -3
BITMAP
60
60
00
00
00
00
00
60
60
20
60
c0
ENDCHAR
STARTCHAR less
ENCODING 60
SWIDTH 586 0
DWIDTH 11 0
BBX 9 9 1 0
BITMAP
0180
0700
1c00
7000
c000
7000
1c00
0700
0180
ENDCHAR
STARTCHAR equal
ENCODING 61
SWIDTH 533 0
DWIDTH 10 0
BBX 8 3 1 3
BITMAP
ff
00
ff
ENDCHAR
STARTCHAR greater
ENCODING 62
SWIDTH 586 0
DWIDTH 11 0
BBX 9 9 1 0
BITMAP
c000
7000
1c00
0700
0180
0700
1c00
7000
c000
ENDCHAR
STARTCHAR question
ENCODING 63
SWIDTH 426 0
DWIDTH 8 0
BBX 6 13 1 0
BITMAP
78
8c
c4
cc
0c
18
18
30
20
20
00
30
30
ENDCHAR
STARTCHAR at
ENCODING 64
SWIDTH 906 0
DWIDTH 17 0
BBX 14 16 1 -3
BITMAP
07e0
0e30
3818
3008
63ec
67e4
c664
cc64
cccc
ccc8
cdd8
6770
6000
3000
1c30
07e0
ENDCHAR
STARTCHAR A
ENCODING 65
SWIDTH 800 0
DWIDTH 15 0
BBX 13 13 1 0
BITMAP
0200
0700
0700
0500
0d80
0980
19c0
10c0
1fc0
30e0
2060
6070
f0f8
ENDCHAR
STARTCHAR B
ENCODING 66
SWIDTH 640 0
DWIDTH 12 0
BBX 10 13 1 0
BITMAP
ff00
6380
6180
6180
6180
6300
7f80
61c0
60c0
60c0
60c0
6180
ff00
ENDCHAR
STARTCHAR C
ENCODING 67
SWIDTH 640 0
DWIDTH 12 0
BBX 11 13 1 0
BITMAP
0f20
30e0
6060
6020
c000
c000
c000
c000
c000
6000
6060
38c0
0f00
ENDCHAR
STARTCHAR D
ENCODING 68
SWIDTH 693 0
DWIDTH 13 0
BBX 11 13 1 0
BITMAP
ff00
6380
60c0
60c0
6060
6060
6060
6060
6060
60c0
60c0
6380
ff00
ENDCHAR
STARTCHAR E
ENCODING 69
SWIDTH 586 0
DWIDTH 11 0
BBX 9 13 1 0
BITMAP
ff80
6180
6080
6000
6000
6100
7f00
6100
6000
6000
6080
6180
ff80
ENDCHAR
STARTCHAR F
ENCODING 70
SWIDTH 586 0
DWIDTH 11 0
BBX 9 13 1 0
BITMAP
ff80
6180
6080
6000
6000
6100
7f00
6100
6000
6000
6000
6000
f000
ENDCHAR
STARTCHAR G
ENCODING 71
SWIDTH 746 0
DWIDTH 14 0
BBX 12 13 1 0
BITMAP
0f20
30e0
6060
6020
c000
c000
c0f0
c060
c060
6060
6060
39c0
0f00
ENDCHAR
STARTCHAR H
ENCODING 72
SWIDTH 693 0
DWIDTH 13 0
BBX 11 13 1 0
BITMAP
f1e0
60c0
60c0
60c0
60c0
60c0
7fc0
60c0
60c0
60c0
60c0
60c0
f1e0
ENDCHAR
STARTCHAR I
ENCODING 73
SWIDTH 320 0
DWIDTH 6 0
BBX 4 13 1 0
BITMAP
f0
60
60
60
60
60
60
60
60
60
60
60
f0
ENDCHAR
STARTCHAR J
ENCODING 74
SWIDTH 373 0
DWIDTH 7 0
BBX 6 13 0 0
BITMAP
3c
18
18
18
18
18
18
18
18
18
18
d8
f0
ENDCHAR
STARTCHAR K
ENCODING 75
SWIDTH 693 0
DWIDTH 13 0
BBX 11 13 1 0
BITMAP
f3c0
6180
6300
6600
6c00
7800
7800
6c00
6600
6300
6380
61c0
f0e0
ENDCHAR
STARTCHAR L
ENCODING 76
SWIDTH 586 0
DWIDTH 11 0
BBX 10 13 1 0
BITMAP
f000
6000
6000
6000
6000
6000
6000
6000
6000
6000
6040
60c0
ffc0
ENDCHAR
STARTCHAR M
ENCODING 77
SWIDTH 853 0
DWIDTH 16 0
BBX 14 13 1 0
BITMAP
e01c
7038
7038
7878
5858
58d8
5cd8
4c98
4d98
4718
4718
4218
e23c
ENDCHAR
STARTCHAR N
ENCODING 78
SWIDTH 693 0
DWIDTH 13 0
BBX 11 13 1 0
BITMAP
e0e0
6040
7040
7840
5840
4c40
4e40
4740
4340
41c0
41c0
40c0
e040
ENDCHAR
STARTCHAR O
ENCODING 79
SWIDTH 746 0
DWIDTH 14 0
BBX 12 13 1 0
BITMAP
0f00
30c0
6060
6060
c030
c030
c030
c030
c030
6060
6060
30c0
0f00
ENDCHAR
STARTCHAR P
ENCODING 80
SWIDTH 533 0
DWIDTH 10 0
BBX 9 13 1 0
BITMAP
ff00
6380
6180
6180
6180
6300
7e00
6000
6000
6000
6000
6000
f000
ENDCHAR
STARTCHAR Q
ENCODING 81
SWIDTH 746 0
DWIDTH 14 0
BBX 12 17 1 -4
BITMAP
0f00
30c0
6060
6060
c030
c030
c030
c030
c030
6060
6060
30c0
0f00
0600
0300
01c0
00f0
ENDCHAR
STARTCHAR R
ENCODING 82
SWIDTH 640 0
DWIDTH 12 0
BBX 11 13 1 0
BITMAP
ff00
6380
6180
6180
6180
6300
7e00
6600
6300
6180
6180
60c0
f0e0
ENDCHAR
STARTCHAR S
ENCODING 83
SWIDTH 533 0
DWIDTH 10 0
BBX 8 13 1 0
BITMAP
3a
66
c2
c0
e0
78
3c
0e
07
03
83
c6
bc
ENDCHAR
STARTCHAR T
ENCODING 84
SWIDTH 640 0
DWIDTH 12 0
BBX 10 13 1 0
BITMAP
ffc0
ccc0
8c40
0c00
0c00
0c00
0c00
0c00
0c00
0c00
0c00
0c00
1e00
ENDCHAR
STARTCHAR U
ENCODING 85
SWIDTH 693 0
DWIDTH 13 0
BBX 11 13 1 0
BITMAP
f0e0
6040
6040
6040
6040
6040
6040
6040
6040
6040
70c0
3980
1f00
ENDCHAR
STARTCHAR V
ENCODING 86
SWIDTH 693 0
DWIDTH 13 0
BBX 13 13 0 0
BITMAP
f878
7030
3020
3820
1860
1840
1c40
0cc0
0e80
0680
0780
0300
0300
ENDCHAR
STARTCHAR W
ENCODING 87
SWIDTH 960 0
DWIDTH 18 0
BBX 18 13 0 0
BITMAP
f9e3c0
30c180
30c100
18c100
186300
186200
1ce200
0ca600
0cb400
0d3400
073c00
061800
061800
ENDCHAR
STARTCHAR X
ENCODING 88
SWIDTH 640 0
DWIDTH 12 0
BBX 12 13 0 0
BITMAP
f070
7060
38c0
1980
0d00
0e00
0600
0f00
1b00
1180
31c0
60e0
f0f0
ENDCHAR
STARTCHAR Y
ENCODING 89
SWIDTH 640 0
DWIDTH 12 0
BBX 12 13 0 0
BITMAP
f0f0
7060
30c0
1880
1900
0f00
0600
0600
0600
0600
0600
0600
0f00
ENDCHAR
STARTCHAR Z
ENCODING 90
SWIDTH 640 0
DWIDTH 12 0
BBX 10 13 1 0
BITMAP
7fc0
61c0
4180
0380
0700
0600
0e00
1c00
3800
3000
7040
e0c0
ffc0
ENDCHAR
STARTCHAR bracketleft
ENCODING 91
SWIDTH 320 0
DWIDTH 6 0
BBX 4 16 2 -3
BITMAP
f0
c0
c0
c0
c0
c0
c0
c0
c0
c0
c0
c0
c0
c0
c0
f0
ENDCHAR
STARTCHAR backslash
ENCODING 92
SWIDTH 266 0
DWIDTH 5 0
BBX 5 13 0 0
BITMAP
80
80
c0
40
60
60
20
30
30
10
18
08
08
ENDCHAR
STARTCHAR bracketright
ENCODING 93
SWIDTH 320 0
DWIDTH 6 0
BBX 4 16 0 -3
BITMAP
f0
30
30
30
30
30
30
30
30
30
30
30
30
30
30
f0
ENDCHAR
STARTCHAR asciicircum
ENCODING 94
SWIDTH 480 0
DWIDTH 9 0
BBX 7 7 1 6
BITMAP
10
38
28
6c
44
c6
82
ENDCHAR
STARTCHAR underscore
ENCODING 95
SWIDTH 480 0
DWIDTH 9 0
BBX 9 1 0 -4
BITMAP
ff80
ENDCHAR
STARTCHAR grave
ENCODING 96
SWIDTH 266 0
DWIDTH 5 0
BBX 3 4 1 9
BITMAP
40
80
e0
60
ENDCHAR
STARTCHAR a
ENCODING 97
SWIDTH 426 0
DWIDTH 8 0
BBX 7 9 0 0
BITMAP
78
cc
cc
1c
6c
cc
cc
fc
66
ENDCHAR
STARTCHAR b
ENCODING 98
SWIDTH 480 0
DWIDTH 9 0
BBX 8 13 0 0
BITMAP
e0
60
60
60
6e
77
63
63
63
63
63
76
3c
ENDCHAR
STARTCHAR c
ENCODING 99
SWIDTH 426 0
DWIDTH 8 0
BBX 7 9 0 0
BITMAP
3c
66
c6
c0
c0
c0
c0
62
3c
ENDCHAR
STARTCHAR d
ENCODING 100
SWIDTH 480 0
DWIDTH 9 0
BBX 8 13 0 0
BITMAP
0e
06
06
06
3e
66
c6
c6
c6
c6
c6
66
3f
ENDCHAR
STARTCHAR e
ENCODING 101
SWIDTH 426 0
DWIDTH 8 0
BBX 8 9 0 0
BITMAP
3c
66
c3
ff
c0
c0
e1
76
3c
ENDCHAR
STARTCHAR f
ENCODING 102
SWIDTH 320 0
DWIDTH 6 0
BBX 6 13 0 0
BITMAP
1c
34
20
60
f8
60
60
60
60
60
60
60
f0
ENDCHAR
STARTCHAR g
ENCODING 103
SWIDTH 426 0
DWIDTH 8 0
BBX 8 13 0 -4
BITMAP
3e
cc
c4
c4
cc
78
40
7c
7f
83
c1
e2
7c
ENDCHAR
STARTCHAR h
ENCODING 104
SWIDTH 533 0
DWIDTH 10 0
BBX 9 13 0 0
BITMAP
e000
6000
6000
6000
6600
6f00
7300
6300
6300
6300
6300
6300
f380
ENDCHAR
STARTCHAR i
ENCODING 105
SWIDTH 266 0
DWIDTH 5 0
BBX 4 13 0 0
BITMAP
60
60
00
00
e0
60
60
60
60
60
60
60
f0
ENDCHAR
STARTCHAR j
ENCODING 106
SWIDTH 266 0
DWIDTH 5 0
BBX 4 17 -1 -4
BITMAP
30
30
00
00
70
30
30
30
30
30
30
30
30
30
30
e0
c0
ENDCHAR
STARTCHAR k
ENCODING 107
SWIDTH 480 0
DWIDTH 9 0
BBX 9 13 0 0
BITMAP
e000
6000
6000
6000
6700
6200
6400
6800
7800
6c00
6600
6300
e380
ENDCHAR
STARTCHAR l
ENCODING 108
SWIDTH 266 0
DWIDTH 5 0
BBX 4 13 0 0
BITMAP
e0
60
60
60
60
60
60
60
60
60
60
60
f0
ENDCHAR
STARTCHAR m
ENCODING 109
SWIDTH 800 0
DWIDTH 15 0
BBX 14 9 0 0
BITMAP
e630
6f78
7398
6318
6318
6318
6318
6318
f7bc
ENDCHAR
STARTCHAR n
ENCODING 110
SWIDTH 533 0
DWIDTH 10 0
BBX 9 9 0 0
BITMAP
e600
6f00
7300
6300
6300
6300
6300
6300
f380
ENDCHAR
STARTCHAR o
ENCODING 111
SWIDTH 480 0
DWIDTH 9 0
BBX 8 9 0 0
BITMAP
3c
66
c3
c3
c3
c3
c3
66
3c
ENDCHAR
STARTCHAR p
ENCODING 112
SWIDTH 480 0
DWIDTH 9 0
BBX 8 13 0 -4
BITMAP
ee
77
63
63
63
63
63
76
6c
60
60
60
f0
ENDCHAR
STARTCHAR q
ENCODING 113
SWIDTH 480 0
DWIDTH 9 0
BBX 8 13 0 -4
BITMAP
3e
66
c6
c6
c6
c6
c6
66
3e
06
06
06
0f
ENDCHAR
STARTCHAR r
ENCODING 114
SWIDTH 373 0
DWIDTH 7 0
BBX 6 9 0 0
BITMAP
ec
6c
70
60
60
60
60
60
f0
ENDCHAR
STARTCHAR s
ENCODING 115
SWIDTH 373 0
DWIDTH 7 0
BBX 5 9 0 0
BITMAP
68
d8
c8
e0
70
38
98
d8
b0
ENDCHAR
STARTCHAR t
ENCODING 116
SWIDTH 320 0
DWIDTH 6 0
BBX 6 11 0 0
BITMAP
20
60
f8
60
60
60
60
60
60
74
38
ENDCHAR
STARTCHAR u
ENCODING 117
SWIDTH 480 0
DWIDTH 9 0
BBX 9 9 -1 0
BITMAP
e700
6300
6300
6300
6300
6300
6300
7700
3b80
ENDCHAR
STARTCHAR v
ENCODING 118
SWIDTH 480 0
DWIDTH 9 0
BBX 9 9 -1 0
BITMAP
f380
6300
6200
3200
3600
1400
1c00
0800
0800
ENDCHAR
STARTCHAR w
ENCODING 119
SWIDTH 640 0
DWIDTH 12 0
BBX 13 9 -1 0
BITMAP
e738
6630
6260
3660
3760
1d40
1dc0
0880
0880
ENDCHAR
STARTCHAR x
ENCODING 120
SWIDTH 480 0
DWIDTH 9 0
BBX 9 9 0 0
BITMAP
e380
6300
3600
1c00
0c00
1c00
3600
6300
e380
ENDCHAR
STARTCHAR y
ENCODING 121
SWIDTH 426 0
DWIDTH 8 0
BBX 9 13 -1 -4
BITMAP
f380
6100
7300
3200
3600
1c00
1c00
0c00
1800
1800
1000
f000
e000
ENDCHAR
STARTCHAR z
ENCODING 122
SWIDTH 426 0
DWIDTH 8 0
BBX 7 9 0 0
BITMAP
fe
ce
8c
18
30
30
62
e6
fe
ENDCHAR
STARTCHAR braceleft
ENCODING 123
SWIDTH 480 0
DWIDTH 9 0
BBX 7 17 1 -4
BITMAP
0e
18
30
30
30
30
30
60
c0
60
30
30
30
30
30
18
0e
ENDCHAR
STARTCHAR bar
ENCODING 124
SWIDTH 160 0
DWIDTH 3 0
BBX 1 13 1 0
BITMAP
80
80
80
80
80
80
80
80
80
80
80
80
80
ENDCHAR
STARTCHAR braceright
ENCODING 125
SWIDTH 480 0
DWIDTH 9 0
BBX 7 17 1 -4
BITMAP
e0
30
18
18
18
18
18
0c
06
0c
18
18
18
18
18
30
e0
ENDCHAR
STARTCHAR asciitilde
ENCODING 126
SWIDTH 586 0
DWIDTH 11 0
BBX 9 2 1 4
BITMAP
7980
cf00
ENDCHAR
STARTCHAR nobreakspace
ENCODING 160
SWIDTH 213 0
DWIDTH 4 0
BBX 1 1 1 0
BITMAP
00
ENDCHAR
STARTCHAR exclamdown
ENCODING 161
SWIDTH 213 0
DWIDTH 4 0
BBX 2 13 1 -4
BITMAP
c0
c0
00
00
80
80
80
c0
c0
c0
c0
c0
c0
ENDCHAR
STARTCHAR cent
ENCODING 162
SWIDTH 480 0
DWIDTH 9 0
BBX 8 13 1 -2
BITMAP
06
04
3e
6b
cb
c8
d8
d0
d0
72
7c
40
c0
ENDCHAR
STARTCHAR sterling
ENCODING 163
SWIDTH 586 0
DWIDTH 11 0
BBX 10 13 0 0
BITMAP
0f00
1980
1980
1800
1800
1800
7e00
1800
1800
1000
7840
bfc0
e780
ENDCHAR
STARTCHAR currency
ENCODING 164
SWIDTH 586 0
DWIDTH 11 0
BBX 9 7 1 3
BITMAP
dd80
f780
6300
4100
6300
f780
dd80
ENDCHAR
STARTCHAR yen
ENCODING 165
SWIDTH 480 0
DWIDTH 9 0
BBX 8 13 0 0
BITMAP
f7
62
62
76
34
34
7e
18
7e
18
18
18
7e
ENDCHAR
STARTCHAR brokenbar
ENCODING 166
SWIDTH 160 0
DWIDTH 3 0
BBX 1 13 1 0
BITMAP
80
80
80
80
80
00
00
00
80
80
80
80
80
ENDCHAR
STARTCHAR section
ENCODING 167
SWIDTH 533 0
DWIDTH 10 0
BBX 8 16 1 -3
BITMAP
3c
66
66
70
38
7c
8e
c7
e3
71
3e
1c
0e
66
66
3c
ENDCHAR
STARTCHAR diaeresis
ENCODING 168
SWIDTH 266 0
DWIDTH 5 0
BBX 5 2 0 10
BITMAP
d8
d8
ENDCHAR
STARTCHAR copyright
ENCODING 169
SWIDTH 800 0
DWIDTH 15 0
BBX 13 13 1 0
BITMAP
0f80
3060
4010
4790
8888
9008
9008
9008
8888
4710
4010
3060
0f80
ENDCHAR
STARTCHAR ordfeminine
ENCODING 170
SWIDTH 266 0
DWIDTH 5 0
BBX 5 8 0 5
BITMAP
60
90
10
70
90
e8
00
f8
ENDCHAR
STARTCHAR guillemotleft
ENCODING 171
SWIDTH 533 0
DWIDTH 10 0
BBX 8 7 1 1
BITMAP
11
33
66
cc
66
33
11
ENDCHAR
STARTCHAR notsign
ENCODING 172
SWIDTH 586 0
DWIDTH 11 0
BBX 9 5 1 1
BITMAP
ff80
0080
0080
0080
0080
ENDCHAR
STARTCHAR hyphen
ENCODING 173
SWIDTH 320 0
DWIDTH 6 0
BBX 5 2 0 4
BITMAP
f8
f8
ENDCHAR
STARTCHAR registered
ENCODING 174
SWIDTH 800 0
DWIDTH 15 0
BBX 13 13 1 0
BITMAP
0f80
3060
4010
5f10
8888
8888
8f08
8908
8888
5cd0
4010
3060
0f80
ENDCHAR
STARTCHAR macron
ENCODING 175
SWIDTH 266 0
DWIDTH 5 0
BBX 5 1 0 11
BITMAP
f8
ENDCHAR
STARTCHAR degree
ENCODING 176
SWIDTH 373 0
DWIDTH 7 0
BBX 5 5 1 8
BITMAP
70
88
88
88
70
ENDCHAR
STARTCHAR plusminus
ENCODING 177
SWIDTH 533 0
DWIDTH 10 0
BBX 9 10 1 0
BITMAP
0800
0800
0800
0800
ff80
0800
0800
0800
0000
ff80
ENDCHAR
STARTCHAR twosuperior
ENCODING 178
SWIDTH 266 0
DWIDTH 5 0
BBX 5 8 0 5
BITMAP
70
98
18
10
20
20
40
f8
ENDCHAR
STARTCHAR threesuperior
ENCODING 179
SWIDTH 266 0
DWIDTH 5 0
BBX 5 8 0 5
BITMAP
70
88
18
70
18
08
88
70
ENDCHAR
STARTCHAR acute
ENCODING 180
SWIDTH 213 0
DWIDTH 4 0
BBX 4 3 0 10
BITMAP
30
60
80
ENDCHAR
STARTCHAR mu
ENCODING 181
SWIDTH 480 0
DWIDTH 9 0
BBX 9 13 0 -4
BITMAP
e700
6300
6300
6300
6300
6300
6300
7700
7b80
4000
4000
6000
6000
ENDCHAR
STARTCHAR paragraph
ENCODING 182
SWIDTH 426 0
DWIDTH 8 0
BBX 7 17 1 -4
BITMAP
3e
74
f4
f4
f4
f4
f4
74
14
14
14
14
14
14
14
14
14
ENDCHAR
STARTCHAR periodcentered
ENCODING 183
SWIDTH 213 0
DWIDTH 4 0
BBX 2 2 1 4
BITMAP
c0
c0
ENDCHAR
STARTCHAR cedilla
ENCODING 184
SWIDTH 320 0
DWIDTH 6 0
BBX 4 5 1 -4
BITMAP
20
20
10
b0
60
ENDCHAR
STARTCHAR onesuperior
ENCODING 185
SWIDTH 266 0
DWIDTH 5 0
BBX 3 8 1 5
BITMAP
40
c0
40
40
40
40
40
e0
ENDCHAR
STARTCHAR masculine
ENCODING 186
SWIDTH 320 0
DWIDTH 6 0
BBX 5 8 0 5
BITMAP
70
d8
88
88
d8
70
00
f8
ENDCHAR
STARTCHAR guillemotright
ENCODING 187
SWIDTH 533 0
DWIDTH 10 0
BBX 8 7 1 1
BITMAP
88
cc
66
33
66
cc
88
ENDCHAR
STARTCHAR onequarter
ENCODING 188
SWIDTH 693 0
DWIDTH 13 0
BBX 11 13 1 0
BITMAP
4080
c180
4100
4300
4600
4440
4cc0
e940
1b40
3240
27e0
6040
4040
ENDCHAR
STARTCHAR onehalf
ENCODING 189
SWIDTH 693 0
DWIDTH 13 0
BBX 11 13 1 0
BITMAP
4080
c180
4100
4300
4600
45c0
4e60
e860
1840
3080
2080
6100
43e0
ENDCHAR
STARTCHAR threequarters
ENCODING 190
SWIDTH 693 0
DWIDTH 13 0
BBX 13 13 -1 0
BITMAP
7020
8860
1840
70c0
1980
0910
8b30
7250
06d0
0c90
09f8
1810
1010
ENDCHAR
STARTCHAR questiondown
ENCODING 191
SWIDTH 426 0
DWIDTH 8 0
BBX 6 13 1 -4
BITMAP
30
30
00
10
10
30
60
60
c0
cc
8c
c4
78
ENDCHAR
STARTCHAR Agrave
ENCODING 192
SWIDTH 800 0
DWIDTH 15 0
BBX 13 17 1 0
BITMAP
0c00
0600
0100
0000
0200
0700
0700
0500
0d80
0980
19c0
10c0
1fc0
30e0
2060
6070
f0f8
ENDCHAR
STARTCHAR Aacute
ENCODING 193
SWIDTH 800 0
DWIDTH 15 0
BBX 13 17 1 0
BITMAP
00c0
0180
0200
0000
0200
0700
0700
0500
0d80
0980
19c0
10c0
1fc0
30e0
2060
6070
f0f8
ENDCHAR
STARTCHAR Acircumflex
ENCODING 194
SWIDTH 800 0
DWIDTH 15 0
BBX 13 17 1 0
BITMAP
0200
0700
0880
0000
0200
0700
0700
0500
0d80
0980
19c0
10c0
1fc0
30e0
2060
6070
f0f8
ENDCHAR
STARTCHAR Atilde
ENCODING 195
SWIDTH 800 0
DWIDTH 15 0
BBX 13 16 1 0
BITMAP
0740
0b80
0000
0200
0700
0700
0500
0d80
0980
19c0
10c0
1fc0
30e0
2060
6070
f0f8
ENDCHAR
STARTCHAR Adiaeresis
ENCODING 196
SWIDTH 800 0
DWIDTH 15 0
BBX 13 16 1 0
BITMAP
0d80
0d80
0000
0200
0700
0700
0500
0d80
0980
19c0
10c0
1fc0
30e0
2060
6070
f0f8
ENDCHAR
STARTCHAR Aring
ENCODING 197
SWIDTH 800 0
DWIDTH 15 0
BBX 13 17 1 0
BITMAP
0300
0480
0480
0300
0200
0700
0700
0500
0d80
0980
19c0
10c0
1fc0
30e0
2060
6070
f0f8
ENDCHAR
STARTCHAR AE
ENCODING 198
SWIDTH 906 0
DWIDTH 17 0
BBX 15 13 1 0
BITMAP
0ffc
078c
0584
0580
0d80
0988
19f8
1f88
1180
3180
2182
6186
f7fe
ENDCHAR
STARTCHAR Ccedilla
ENCODING 199
SWIDTH 640 0
DWIDTH 12 0
BBX 11 17 1 -4
BITMAP
0f20
30e0
6060
6020
c000
c000
c000
c000
c000
6000
6060
38c0
0f00
0400
0200
1600
0c00
ENDCHAR
STARTCHAR Egrave
ENCODING 200
SWIDTH 586 0
DWIDTH 11 0
BBX 9 17 1 0
BITMAP
3000
1800
0400
0000
ff80
6180
6080
6000
6000
6100
7f00
6100
6000
6000
6080
6180
ff80
ENDCHAR
STARTCHAR Eacute
ENCODING 201
SWIDTH 586 0
DWIDTH 11 0
BBX 9 17 1 0
BITMAP
0600
0c00
1000
0000
ff80
6180
6080
6000
6000
6100
7f00
6100
6000
6000
6080
6180
ff80
ENDCHAR
STARTCHAR Ecircumflex
ENCODING 202
SWIDTH 586 0
DWIDTH 11 0
BBX 9 17 1 0
BITMAP
0800
1c00
2200
0000
ff80
6180
6080
6000
6000
6100
7f00
6100
6000
6000
6080
6180
ff80
ENDCHAR
STARTCHAR Ediaeresis
ENCODING 203
SWIDTH 586 0
DWIDTH 11 0
BBX 9 16 1 0
BITMAP
3300
3300
0000
ff80
6180
6080
6000
6000
6100
7f00
6100
6000
6000
6080
6180
ff80
ENDCHAR
STARTCHAR Igrave
ENCODING 204
SWIDTH 320 0
DWIDTH 6 0
BBX 4 17 1 0
BITMAP
c0
60
10
00
f0
60
60
60
60
60
60
60
60
60
60
60
f0
ENDCHAR
STARTCHAR Iacute
ENCODING 205
SWIDTH 320 0
DWIDTH 6 0
BBX 4 17 1 0
BITMAP
30
60
80
00
f0
60
60
60
60
60
60
60
60
60
60
60
f0
ENDCHAR
STARTCHAR Icircumflex
ENCODING 206
SWIDTH 320 0
DWIDTH 6 0
BBX 5 17 1 0
BITMAP
20
70
88
00
f0
60
60
60
60
60
60
60
60
60
60
60
f0
ENDCHAR
STARTCHAR Idiaeresis
ENCODING 207
SWIDTH 320 0
DWIDTH 6 0
BBX 6 16 0 0
BITMAP
cc
cc
00
78
30
30
30
30
30
30
30
30
30
30
30
78
ENDCHAR
STARTCHAR ETH
ENCODING 208
SWIDTH 693 0
DWIDTH 13 0
BBX 12 13 0 0
BITMAP
7f80
31c0
3060
3060
3030
3030
fc30
3030
3030
3060
3060
31c0
7f80
ENDCHAR
STARTCHAR Ntilde
ENCODING 209
SWIDTH 693 0
DWIDTH 13 0
BBX 11 16 1 0
BITMAP
0e80
1700
0000
e0e0
6040
7040
7840
5840
4c40
4e40
4740
4340
41c0
41c0
40c0
e040
ENDCHAR
STARTCHAR Ograve
ENCODING 210
SWIDTH 746 0
DWIDTH 14 0
BBX 12 17 1 0
BITMAP
1800
0c00
0200
0000
0f00
30c0
6060
6060
c030
c030
c030
c030
c030
6060
6060
30c0
0f00
ENDCHAR
STARTCHAR Oacute
ENCODING 211
SWIDTH 746 0
DWIDTH 14 0
BBX 12 17 1 0
BITMAP
00c0
0180
0200
0000
0f00
30c0
6060
6060
c030
c030
c030
c030
c030
6060
6060
30c0
0f00
ENDCHAR
STARTCHAR Ocircumflex
ENCODING 212
SWIDTH 746 0
DWIDTH 14 0
BBX 12 17 1 0
BITMAP
0200
0700
0880
0000
0f00
30c0
6060
6060
c030
c030
c030
c030
c030
6060
6060
30c0
0f00
ENDCHAR
STARTCHAR Otilde
ENCODING 213
SWIDTH 746 0
DWIDTH 14 0
BBX 12 16 1 0
BITMAP
0e80
1700
0000
0f00
30c0
6060
6060
c030
c030
c030
c030
c030
6060
6060
30c0
0f00
ENDCHAR
STARTCHAR Odiaeresis
ENCODING 214
SWIDTH 746 0
DWIDTH 14 0
BBX 12 16 1 0
BITMAP
1980
1980
0000
0f00
30c0
6060
6060
c030
c030
c030
c030
c030
6060
6060
30c0
0f00
ENDCHAR
STARTCHAR multiply
ENCODING 215
SWIDTH 533 0
DWIDTH 10 0
BBX 8 7 1 1
BITMAP
c3
66
3c
18
3c
66
c3
ENDCHAR
STARTCHAR Ooblique
ENCODING 216
SWIDTH 746 0
DWIDTH 14 0
BBX 12 15 1 -1
BITMAP
0030
0f60
30c0
60e0
61a0
c330
c330
c630
cc30
cc30
5860
7060
30c0
6f00
c000
ENDCHAR
STARTCHAR Ugrave
ENCODING 217
SWIDTH 693 0
DWIDTH 13 0
BBX 11 17 1 0
BITMAP
1800
0c00
0200
0000
f0e0
6040
6040
6040
6040
6040
6040
6040
6040
6040
70c0
3980
1f00
ENDCHAR
STARTCHAR Uacute
ENCODING 218
SWIDTH 693 0
DWIDTH 13 0
BBX 11 17 1 0
BITMAP
0180
0300
0400
0000
f0e0
6040
6040
6040
6040
6040
6040
6040
6040
6040
70c0
3980
1f00
ENDCHAR
STARTCHAR Ucircumflex
ENCODING 219
SWIDTH 693 0
DWIDTH 13 0
BBX 11 17 1 0
BITMAP
0400
0e00
1100
0000
f0e0
6040
6040
6040
6040
6040
6040
6040
6040
6040
70c0
3980
1f00
ENDCHAR
STARTCHAR Udiaeresis
ENCODING 220
SWIDTH 693 0
DWIDTH 13 0
BBX 11 16 1 0
BITMAP
1980
1980
0000
f0e0
6040
6040
6040
6040
6040
6040
6040
6040
6040
70c0
3980
1f00
ENDCHAR
STARTCHAR Yacute
ENCODING 221
SWIDTH 640 0
DWIDTH 12 0
BBX 12 17 0 0
BITMAP
0180
0300
0400
0000
f0f0
7060
30c0
1880
1900
0f00
0600
0600
0600
0600
0600
0600
0f00
ENDCHAR
STARTCHAR THORN
ENCODING 222
SWIDTH 533 0
DWIDTH 10 0
BBX 9 13 1 0
BITMAP
f000
6000
6000
7f00
6380
6180
6180
6180
6300
7e00
6000
6000
f000
ENDCHAR
STARTCHAR ssharp
ENCODING 223
SWIDTH 480 0
DWIDTH 9 0
BBX 8 13 0 0
BITMAP
1c
36
23
63
63
66
7c
66
63
63
6b
6b
ee
ENDCHAR
STARTCHAR agrave
ENCODING 224
SWIDTH 480 0
DWIDTH 9 0
BBX 7 13 1 0
BITMAP
c0
60
10
00
78
c8
cc
1c
6c
cc
cc
fc
66
ENDCHAR
STARTCHAR aacute
ENCODING 225
SWIDTH 480 0
DWIDTH 9 0
BBX 7 13 1 0
BITMAP
0c
18
20
00
78
c8
cc
1c
6c
cc
cc
fc
66
ENDCHAR
STARTCHAR acircumflex
ENCODING 226
SWIDTH 480 0
DWIDTH 9 0
BBX 7 13 1 0
BITMAP
10
38
44
00
78
c8
cc
1c
6c
cc
cc
fc
66
ENDCHAR
STARTCHAR atilde
ENCODING 227
SWIDTH 480 0
DWIDTH 9 0
BBX 7 12 1 0
BITMAP
34
58
00
78
c8
cc
1c
6c
cc
cc
fc
66
ENDCHAR
STARTCHAR adiaeresis
ENCODING 228
SWIDTH 480 0
DWIDTH 9 0
BBX 7 12 1 0
BITMAP
6c
6c
00
78
c8
cc
1c
6c
cc
cc
fc
66
ENDCHAR
STARTCHAR aring
ENCODING 229
SWIDTH 480 0
DWIDTH 9 0
BBX 7 13 1 0
BITMAP
30
48
48
30
78
c8
cc
1c
6c
cc
cc
fc
66
ENDCHAR
STARTCHAR ae
ENCODING 230
SWIDTH 640 0
DWIDTH 12 0
BBX 11 9 0 0
BITMAP
7bc0
ce60
cc20
1fe0
6c00
cc00
cc00
fe60
63c0
ENDCHAR
STARTCHAR ccedilla
ENCODING 231
SWIDTH 426 0
DWIDTH 8 0
BBX 7 13 0 -4
BITMAP
3c
66
c0
c0
c0
c0
c0
66
3c
10
08
58
30
ENDCHAR
STARTCHAR egrave
ENCODING 232
SWIDTH 426 0
DWIDTH 8 0
BBX 7 13 0 0
BITMAP
60
30
08
00
3c
66
c2
fe
c0
c0
c0
66
3c
ENDCHAR
STARTCHAR eacute
ENCODING 233
SWIDTH 426 0
DWIDTH 8 0
BBX 7 13 0 0
BITMAP
06
0c
10
00
3c
66
c2
fe
c0
c0
c0
66
3c
ENDCHAR
STARTCHAR ecircumflex
ENCODING 234
SWIDTH 426 0
DWIDTH 8 0
BBX 7 13 0 0
BITMAP
10
38
44
00
3c
66
c2
fe
c0
c0
c0
66
3c
ENDCHAR
STARTCHAR ediaeresis
ENCODING 235
SWIDTH 426 0
DWIDTH 8 0
BBX 7 12 0 0
BITMAP
6c
6c
00
3c
66
c2
fe
c0
c0
c0
66
3c
ENDCHAR
STARTCHAR igrave
ENCODING 236
SWIDTH 266 0
DWIDTH 5 0
BBX 4 13 0 0
BITMAP
c0
60
10
00
e0
60
60
60
60
60
60
60
f0
ENDCHAR
STARTCHAR iacute
ENCODING 237
SWIDTH 266 0
DWIDTH 5 0
BBX 4 13 0 0
BITMAP
30
60
80
00
e0
60
60
60
60
60
60
60
f0
ENDCHAR
STARTCHAR icircumflex
ENCODING 238
SWIDTH 266 0
DWIDTH 5 0
BBX 5 13 0 0
BITMAP
20
70
88
00
e0
60
60
60
60
60
60
60
f0
ENDCHAR
STARTCHAR idiaeresis
ENCODING 239
SWIDTH 266 0
DWIDTH 5 0
BBX 5 12 0 0
BITMAP
d8
d8
00
e0
60
60
60
60
60
60
60
f0
ENDCHAR
STARTCHAR eth
ENCODING 240
SWIDTH 480 0
DWIDTH 9 0
BBX 8 13 0 0
BITMAP
60
36
38
4c
3e
66
c3
c3
c3
c3
c3
66
3c
ENDCHAR
STARTCHAR ntilde
ENCODING 241
SWIDTH 533 0
DWIDTH 10 0
BBX 9 12 0 0
BITMAP
3a00
5c00
0000
e600
6f00
7300
6300
6300
6300
6300
6300
f380
ENDCHAR
STARTCHAR ograve
ENCODING 242
SWIDTH 480 0
DWIDTH 9 0
BBX 8 13 0 0
BITMAP
60
30
08
00
3c
66
c3
c3
c3
c3
c3
66
3c
ENDCHAR
STARTCHAR oacute
ENCODING 243
SWIDTH 480 0
DWIDTH 9 0
BBX 8 13 0 0
BITMAP
06
0c
10
00
3c
66
c3
c3
c3
c3
c3
66
3c
ENDCHAR
STARTCHAR ocircumflex
ENCODING 244
SWIDTH 480 0
DWIDTH 9 0
BBX 8 13 0 0
BITMAP
10
38
44
00
3c
66
c3
c3
c3
c3
c3
66
3c
ENDCHAR
STARTCHAR otilde
ENCODING 245
SWIDTH 480 0
DWIDTH 9 0
BBX 8 12 0 0
BITMAP
1a
2c
00
3c
66
c3
c3
c3
c3
c3
66
3c
ENDCHAR
STARTCHAR odiaeresis
ENCODING 246
SWIDTH 480 0
DWIDTH 9 0
BBX 8 12 0 0
BITMAP
6c
6c
00
3c
66
c3
c3
c3
c3
c3
66
3c
ENDCHAR
STARTCHAR division
ENCODING 247
SWIDTH 533 0
DWIDTH 10 0
BBX 8 7 1 1
BITMAP
18
18
00
ff
00
18
18
ENDCHAR
STARTCHAR oslash
ENCODING 248
SWIDTH 480 0
DWIDTH 9 0
BBX 8 11 0 -1
BITMAP
01
3f
66
cf
cb
db
d3
f3
66
7c
c0
ENDCHAR
STARTCHAR ugrave
ENCODING 249
SWIDTH 480 0
DWIDTH 9 0
BBX 9 13 0 0
BITMAP
3000
1800
0400
0000
e700
6300
6300
6300
6300
6300
6300
7700
3b80
ENDCHAR
STARTCHAR uacute
ENCODING 250
SWIDTH 480 0
DWIDTH 9 0
BBX 9 13 0 0
BITMAP
0600
0c00
1000
0000
e700
6300
6300
6300
6300
6300
6300
7700
3b80
ENDCHAR
STARTCHAR ucircumflex
ENCODING 251
SWIDTH 480 0
DWIDTH 9 0
BBX 9 13 0 0
BITMAP
0800
1c00
2200
0000
e700
6300
6300
6300
6300
6300
6300
7700
3b80
ENDCHAR
STARTCHAR udiaeresis
ENCODING 252
SWIDTH 480 0
DWIDTH 9 0
BBX 9 12 0 0
BITMAP
3600
3600
0000
e700
6300
6300
6300
6300
6300
6300
7700
3b80
ENDCHAR
STARTCHAR yacute
ENCODING 253
SWIDTH 426 0
DWIDTH 8 0
BBX 8 17 -1 -4
BITMAP
03
06
08
00
f3
63
72
32
36
1c
1c
0c
08
18
10
f0
e0
ENDCHAR
STARTCHAR thorn
ENCODING 254
SWIDTH 480 0
DWIDTH 9 0
BBX 8 17 0 -4
BITMAP
e0
60
60
60
6e
77
63
63
63
63
63
76
7c
60
60
60
f0
ENDCHAR
STARTCHAR ydiaeresis
ENCODING 255
SWIDTH 426 0
DWIDTH 8 0
BBX 8 16 -1 -4
BITMAP
36
36
00
f3
63
72
32
36
1c
1c
0c
08
18
10
f0
e0
ENDCHAR
ENDFONT
