STARTFONT 2.1
COMMENT  
COMMENT  Copyright (c) 1984, 1987 Adobe Systems Incorporated. All Rights Reserved. Copyright (c) 1988, 1991 Digital Equipment Corporation. All Rights Reserved.
COMMENT  
COMMENT  WARNING:  This bdf file was generated from a font server using
COMMENT  fstobdf.  The resulting font is subject to the same copyright,
COMMENT  license, and trademark restrictions as the original font.  The
COMMENT  authors and distributors of fstobdf disclaim all liability for
COMMENT  misuse of the program or its output.
COMMENT  
FONT -Adobe-Times-Medium-R-Normal--24-240-75-75-P-124-ISO8859-1
SIZE 24 75 75
FONTBOUNDINGBOX 24 28 -1 -6
STARTPROPERTIES 32
FOUNDRY "Adobe"
FAMILY_NAME "Times"
WEIGHT_NAME "Medium"
SLANT "R"
SETWIDTH_NAME "Normal"
ADD_STYLE_NAME ""
PIXEL_SIZE 24
POINT_SIZE 240
RESOLUTION_X 75
RESOLUTION_Y 75
SPACING "P"
AVERAGE_WIDTH 124
CHARSET_REGISTRY "ISO8859"
CHARSET_ENCODING "1"
CAP_HEIGHT 17
X_HEIGHT 12
FACE_NAME "Times Roman"
COPYRIGHT "Copyright (c) 1984, 1987 Adobe Systems Incorporated. All Rights Reserved. Copyright (c) 1988, 1991 Digital Equipment Corporation. All Rights Reserved."
NOTICE "Times is a trademark of Linotype-Hell AG and/or its subsidiaries."
_DEC_DEVICE_FONTNAMES "PS=Times-Roman"
_DEC_PRODUCTINFO "DECwindows Fonts V2.2-1, 22-Nov-1991"
RELATIVE_SETWIDTH 50
RELATIVE_WEIGHT 50
CHARSET_COLLECTIONS "ASCII ISO8859-1 ADOBE-STANDARD"
FULL_NAME "Times Roman"
FONT "-Adobe-Times-Medium-R-Normal--24-240-75-75-P-124-ISO8859-1"
WEIGHT 10
RESOLUTION 103
QUAD_WIDTH 14
DEFAULT_CHAR 32
FONT_ASCENT 20
FONT_DESCENT 6
ENDPROPERTIES
CHARS 191
STARTCHAR space
ENCODING 32
SWIDTH 240 0
DWIDTH 6 0
BBX 1 1 0 0
BITMAP
00
ENDCHAR
STARTCHAR exclam
ENCODING 33
SWIDTH 320 0
DWIDTH 8 0
BBX 2 17 3 0
BITMAP
c0
c0
c0
c0
c0
c0
c0
c0
c0
c0
c0
c0
00
00
00
c0
c0
ENDCHAR
STARTCHAR quotedbl
ENCODING 34
SWIDTH 400 0
DWIDTH 10 0
BBX 6 5 1 12
BITMAP
cc
cc
cc
cc
88
ENDCHAR
STARTCHAR numbersign
ENCODING 35
SWIDTH 520 0
DWIDTH 13 0
BBX 11 17 1 0
BITMAP
0880
0880
0880
0880
0880
7fe0
7fe0
1100
1100
1100
ffc0
ffc0
2200
2200
2200
2200
2200
ENDCHAR
STARTCHAR dollar
ENCODING 36
SWIDTH 480 0
DWIDTH 12 0
BBX 11 21 0 -2
BITMAP
0400
0400
1f80
34e0
6460
6420
6400
7400
3c00
1e00
0780
07c0
04e0
0460
8460
8460
c4c0
e5c0
3f00
0400
0400
ENDCHAR
STARTCHAR percent
ENCODING 37
SWIDTH 760 0
DWIDTH 19 0
BBX 17 16 1 0
BITMAP
1e0c00
33fc00
611800
c11000
c13000
c26000
e44000
78c000
018f00
011980
033080
066080
046080
0c6100
187200
303c00
ENDCHAR
STARTCHAR ampersand
ENCODING 38
SWIDTH 720 0
DWIDTH 18 0
BBX 16 17 1 0
BITMAP
0780
0cc0
1840
1840
18c0
1d80
0f00
0e3e
1e18
3710
6320
c1a0
c1c0
c0c0
e1e1
7f7e
3c3c
ENDCHAR
STARTCHAR apostrophe
ENCODING 39
SWIDTH 320 0
DWIDTH 8 0
BBX 3 5 3 12
BITMAP
c0
e0
20
60
c0
ENDCHAR
STARTCHAR parenleft
ENCODING 40
SWIDTH 320 0
DWIDTH 8 0
BBX 6 22 1 -5
BITMAP
04
08
10
30
20
60
60
c0
c0
c0
c0
c0
c0
c0
c0
60
60
20
30
10
08
04
ENDCHAR
STARTCHAR parenright
ENCODING 41
SWIDTH 320 0
DWIDTH 8 0
BBX 6 22 1 -5
BITMAP
80
40
20
30
10
18
18
0c
0c
0c
0c
0c
0c
0c
0c
18
18
10
30
20
40
80
ENDCHAR
STARTCHAR asterisk
ENCODING 42
SWIDTH 480 0
DWIDTH 12 0
BBX 9 9 2 8
BITMAP
0800
1c00
c980
eb80
1c00
eb80
c980
1c00
0800
ENDCHAR
STARTCHAR plus
ENCODING 43
SWIDTH 560 0
DWIDTH 14 0
BBX 12 12 1 1
BITMAP
0600
0600
0600
0600
0600
fff0
fff0
0600
0600
0600
0600
0600
ENDCHAR
STARTCHAR comma
ENCODING 44
SWIDTH 280 0
DWIDTH 7 0
BBX 3 5 2 -3
BITMAP
c0
e0
20
60
c0
ENDCHAR
STARTCHAR minus
ENCODING 45
SWIDTH 560 0
DWIDTH 14 0
BBX 12 2 1 6
BITMAP
fff0
fff0
ENDCHAR
STARTCHAR period
ENCODING 46
SWIDTH 240 0
DWIDTH 6 0
BBX 2 2 2 0
BITMAP
c0
c0
ENDCHAR
STARTCHAR slash
ENCODING 47
SWIDTH 280 0
DWIDTH 7 0
BBX 8 20 -1 -3
BITMAP
03
03
03
06
06
04
0c
0c
08
18
18
10
30
30
20
60
60
c0
c0
c0
ENDCHAR
STARTCHAR 0
ENCODING 48
SWIDTH 480 0
DWIDTH 12 0
BBX 10 17 1 0
BITMAP
1e00
3300
6180
6180
c0c0
c0c0
c0c0
c0c0
c0c0
c0c0
c0c0
c0c0
e1c0
6180
6180
3300
1e00
ENDCHAR
STARTCHAR 1
ENCODING 49
SWIDTH 480 0
DWIDTH 12 0
BBX 8 17 2 0
BITMAP
08
18
78
18
18
18
18
18
18
18
18
18
18
18
18
18
ff
ENDCHAR
STARTCHAR 2
ENCODING 50
SWIDTH 480 0
DWIDTH 12 0
BBX 10 17 1 0
BITMAP
1c00
7f00
4380
8180
8180
0180
0180
0300
0300
0600
0400
0c00
1800
3000
6040
ffc0
ff80
ENDCHAR
STARTCHAR 3
ENCODING 51
SWIDTH 480 0
DWIDTH 12 0
BBX 9 17 1 0
BITMAP
1c00
7e00
4700
8300
8300
0600
0c00
1e00
0700
0380
0180
0180
0180
0100
c300
e600
7800
ENDCHAR
STARTCHAR 4
ENCODING 52
SWIDTH 480 0
DWIDTH 12 0
BBX 10 17 1 0
BITMAP
0300
0700
0700
0b00
1b00
1300
3300
2300
6300
4300
c300
ffc0
ffc0
0300
0300
0300
0300
ENDCHAR
STARTCHAR 5
ENCODING 53
SWIDTH 480 0
DWIDTH 12 0
BBX 10 17 1 0
BITMAP
1fc0
1f80
2000
2000
6000
7800
7e00
0f80
0380
01c0
00c0
00c0
00c0
00c0
c180
e380
7e00
ENDCHAR
STARTCHAR 6
ENCODING 54
SWIDTH 480 0
DWIDTH 12 0
BBX 10 17 1 0
BITMAP
03c0
0e00
1800
3000
7000
6000
ee00
f380
c180
c0c0
c0c0
c0c0
c0c0
e0c0
6180
7b80
1e00
ENDCHAR
STARTCHAR 7
ENCODING 55
SWIDTH 480 0
DWIDTH 12 0
BBX 10 17 1 0
BITMAP
7fc0
ffc0
c0c0
8180
0180
0100
0300
0300
0200
0600
0600
0400
0c00
0c00
0c00
1800
1800
ENDCHAR
STARTCHAR 8
ENCODING 56
SWIDTH 480 0
DWIDTH 12 0
BBX 10 17 1 0
BITMAP
1e00
3300
6180
6180
6180
3300
1e00
1e00
3700
6180
41c0
c0c0
c0c0
c0c0
e180
7380
1e00
ENDCHAR
STARTCHAR 9
ENCODING 57
SWIDTH 480 0
DWIDTH 12 0
BBX 10 17 1 0
BITMAP
1e00
7780
6180
c1c0
c0c0
c0c0
c0c0
c0c0
61c0
73c0
1d80
0180
0380
0300
0600
1c00
f000
ENDCHAR
STARTCHAR colon
ENCODING 58
SWIDTH 240 0
DWIDTH 6 0
BBX 2 11 2 0
BITMAP
c0
c0
00
00
00
00
00
00
00
c0
c0
ENDCHAR
STARTCHAR semicolon
ENCODING 59
SWIDTH 280 0
DWIDTH 7 0
BBX 3 14 2 -3
BITMAP
c0
c0
00
00
00
00
00
00
00
c0
e0
20
60
c0
ENDCHAR
STARTCHAR less
ENCODING 60
SWIDTH 520 0
DWIDTH 13 0
BBX 11 11 1 1
BITMAP
0060
01c0
0700
1c00
7000
c000
7000
1c00
0700
01c0
0060
ENDCHAR
STARTCHAR equal
ENCODING 61
SWIDTH 560 0
DWIDTH 14 0
BBX 12 6 1 4
BITMAP
fff0
fff0
0000
0000
fff0
fff0
ENDCHAR
STARTCHAR greater
ENCODING 62
SWIDTH 520 0
DWIDTH 13 0
BBX 11 11 1 1
BITMAP
c000
7000
1c00
0700
01c0
0060
01c0
0700
1c00
7000
c000
ENDCHAR
STARTCHAR question
ENCODING 63
SWIDTH 440 0
DWIDTH 11 0
BBX 8 17 2 0
BITMAP
7c
c6
83
c3
c3
07
0e
0c
18
18
10
10
10
00
00
30
30
ENDCHAR
STARTCHAR at
ENCODING 64
SWIDTH 880 0
DWIDTH 22 0
BBX 18 20 2 -3
BITMAP
03f800
0f0e00
1c0300
380180
700080
60ecc0
e1fc40
c38c40
c30c40
c60c40
c61840
c618c0
c61880
c63980
637b00
61de00
300000
180000
0e0c00
03f000
ENDCHAR
STARTCHAR A
ENCODING 65
SWIDTH 680 0
DWIDTH 17 0
BBX 17 17 0 0
BITMAP
008000
01c000
01c000
016000
026000
023000
063000
043000
041800
0c1800
0ff800
080c00
180c00
100c00
100600
300600
fc1f80
ENDCHAR
STARTCHAR B
ENCODING 66
SWIDTH 640 0
DWIDTH 16 0
BBX 14 17 1 0
BITMAP
ffc0
3070
3030
3018
3018
3018
3030
3040
3fe0
3038
3018
300c
300c
300c
3018
3078
ffe0
ENDCHAR
STARTCHAR C
ENCODING 67
SWIDTH 640 0
DWIDTH 16 0
BBX 14 17 1 0
BITMAP
07e4
1c3c
380c
6004
6004
c000
c000
c000
c000
c000
c000
c000
6000
6004
3808
1e38
07e0
ENDCHAR
STARTCHAR D
ENCODING 68
SWIDTH 680 0
DWIDTH 17 0
BBX 15 17 1 0
BITMAP
ffc0
3070
3038
300c
300c
3006
3006
3006
3006
3006
3006
3006
300c
300c
3038
3070
ffc0
ENDCHAR
STARTCHAR E
ENCODING 69
SWIDTH 600 0
DWIDTH 15 0
BBX 13 17 1 0
BITMAP
fff0
3030
3010
3010
3000
3000
3040
3040
3fc0
3040
3040
3000
3000
3008
3008
3018
fff8
ENDCHAR
STARTCHAR F
ENCODING 70
SWIDTH 560 0
DWIDTH 14 0
BBX 12 17 1 0
BITMAP
fff0
3030
3010
3010
3000
3000
3020
3020
3fe0
3020
3020
3000
3000
3000
3000
3000
fc00
ENDCHAR
STARTCHAR G
ENCODING 71
SWIDTH 720 0
DWIDTH 18 0
BBX 16 17 1 0
BITMAP
07e4
1c3c
380c
6004
6004
c000
c000
c000
c000
c03f
c00c
c00c
600c
600c
381c
1e38
07e0
ENDCHAR
STARTCHAR H
ENCODING 72
SWIDTH 760 0
DWIDTH 19 0
BBX 17 17 1 0
BITMAP
fc1f80
300600
300600
300600
300600
300600
300600
300600
3ffe00
300600
300600
300600
300600
300600
300600
300600
fc1f80
ENDCHAR
STARTCHAR I
ENCODING 73
SWIDTH 320 0
DWIDTH 8 0
BBX 6 17 1 0
BITMAP
fc
30
30
30
30
30
30
30
30
30
30
30
30
30
30
30
fc
ENDCHAR
STARTCHAR J
ENCODING 74
SWIDTH 440 0
DWIDTH 11 0
BBX 9 17 1 0
BITMAP
1f80
0600
0600
0600
0600
0600
0600
0600
0600
0600
0600
0600
0600
0600
c600
cc00
7800
ENDCHAR
STARTCHAR K
ENCODING 75
SWIDTH 680 0
DWIDTH 17 0
BBX 16 17 1 0
BITMAP
fc7e
3018
3030
3060
30c0
3180
3300
3e00
3f00
3380
31c0
30e0
3070
3038
301c
300e
fc1f
ENDCHAR
STARTCHAR L
ENCODING 76
SWIDTH 560 0
DWIDTH 14 0
BBX 13 17 1 0
BITMAP
fc00
3000
3000
3000
3000
3000
3000
3000
3000
3000
3000
3000
3000
3008
3008
3018
fff8
ENDCHAR
STARTCHAR M
ENCODING 77
SWIDTH 880 0
DWIDTH 22 0
BBX 21 17 1 0
BITMAP
f000f8
3000e0
380160
380160
2c0260
2c0260
260260
260460
230460
230860
218860
218860
20d060
20d060
206060
206060
f821f8
ENDCHAR
STARTCHAR N
ENCODING 78
SWIDTH 720 0
DWIDTH 18 0
BBX 16 17 1 0
BITMAP
f01f
3004
3804
3804
2c04
2604
2604
2304
2184
2184
20c4
2064
2064
2034
201c
201c
f80c
ENDCHAR
STARTCHAR O
ENCODING 79
SWIDTH 720 0
DWIDTH 18 0
BBX 16 17 1 0
BITMAP
07e0
1c38
381c
6006
6006
c003
c003
c003
c003
c003
c003
c003
6006
6006
381c
1c38
07e0
ENDCHAR
STARTCHAR P
ENCODING 80
SWIDTH 600 0
DWIDTH 15 0
BBX 13 17 1 0
BITMAP
ffc0
3070
3030
3018
3018
3018
3030
3070
3fc0
3000
3000
3000
3000
3000
3000
3000
fc00
ENDCHAR
STARTCHAR Q
ENCODING 81
SWIDTH 720 0
DWIDTH 18 0
BBX 16 22 1 -5
BITMAP
07e0
1c38
381c
6006
6006
c003
c003
c003
c003
c003
c003
c003
6006
6006
381c
1c38
07e0
01c0
00e0
0070
0038
000f
ENDCHAR
STARTCHAR R
ENCODING 82
SWIDTH 640 0
DWIDTH 16 0
BBX 15 17 1 0
BITMAP
ffc0
3070
3030
3038
3018
3038
3030
3070
3fc0
3380
31c0
30c0
3060
3070
3038
301c
fc1e
ENDCHAR
STARTCHAR S
ENCODING 83
SWIDTH 520 0
DWIDTH 13 0
BBX 11 17 1 0
BITMAP
1e40
63c0
c0c0
c040
c040
e000
7800
1e00
0f80
03c0
00e0
0060
8060
8060
c0c0
f180
9e00
ENDCHAR
STARTCHAR T
ENCODING 84
SWIDTH 640 0
DWIDTH 16 0
BBX 14 17 1 0
BITMAP
fffc
c30c
8304
8304
0300
0300
0300
0300
0300
0300
0300
0300
0300
0300
0300
0300
0fc0
ENDCHAR
STARTCHAR U
ENCODING 85
SWIDTH 720 0
DWIDTH 18 0
BBX 16 17 1 0
BITMAP
fc1f
3004
3004
3004
3004
3004
3004
3004
3004
3004
3004
3004
3004
3008
1808
1c30
07e0
ENDCHAR
STARTCHAR V
ENCODING 86
SWIDTH 680 0
DWIDTH 17 0
BBX 17 17 0 0
BITMAP
fc1f80
300600
300400
180c00
180800
180800
0c1800
0c1000
063000
062000
062000
036000
034000
03c000
018000
018000
018000
ENDCHAR
STARTCHAR W
ENCODING 87
SWIDTH 920 0
DWIDTH 23 0
BBX 23 17 0 0
BITMAP
fc7e7e
301818
301810
181810
181830
182c20
0c2c20
0c2c60
064c60
064c40
064640
0346c0
034680
038780
018380
018300
018300
ENDCHAR
STARTCHAR X
ENCODING 88
SWIDTH 720 0
DWIDTH 18 0
BBX 18 17 0 0
BITMAP
7e0f80
1c0600
0e0c00
060800
031000
03a000
01c000
00c000
00e000
017000
023800
061800
040c00
080e00
180700
300380
fc0fc0
ENDCHAR
STARTCHAR Y
ENCODING 89
SWIDTH 640 0
DWIDTH 16 0
BBX 16 17 0 0
BITMAP
fc3f
300c
3808
1818
1c10
0c30
0620
0660
0340
03c0
0180
0180
0180
0180
0180
0180
07e0
ENDCHAR
STARTCHAR Z
ENCODING 90
SWIDTH 600 0
DWIDTH 15 0
BBX 13 17 1 0
BITMAP
fff0
c070
80e0
80c0
01c0
0380
0300
0700
0600
0e00
1c00
1800
3800
3008
7008
e018
fff8
ENDCHAR
STARTCHAR bracketleft
ENCODING 91
SWIDTH 320 0
DWIDTH 8 0
BBX 5 21 2 -4
BITMAP
f8
c0
c0
c0
c0
c0
c0
c0
c0
c0
c0
c0
c0
c0
c0
c0
c0
c0
c0
c0
f8
ENDCHAR
STARTCHAR backslash
ENCODING 92
SWIDTH 280 0
DWIDTH 7 0
BBX 7 17 0 0
BITMAP
c0
c0
40
60
60
20
30
30
10
18
18
08
0c
0c
04
06
06
ENDCHAR
STARTCHAR bracketright
ENCODING 93
SWIDTH 320 0
DWIDTH 8 0
BBX 5 21 1 -4
BITMAP
f8
18
18
18
18
18
18
18
18
18
18
18
18
18
18
18
18
18
18
18
f8
ENDCHAR
STARTCHAR asciicircum
ENCODING 94
SWIDTH 440 0
DWIDTH 11 0
BBX 9 9 1 8
BITMAP
0800
1c00
1400
3600
2200
6300
4100
c180
8080
ENDCHAR
STARTCHAR underscore
ENCODING 95
SWIDTH 520 0
DWIDTH 13 0
BBX 13 2 0 -5
BITMAP
fff8
fff8
ENDCHAR
STARTCHAR grave
ENCODING 96
SWIDTH 280 0
DWIDTH 7 0
BBX 3 5 2 12
BITMAP
60
c0
80
e0
60
ENDCHAR
STARTCHAR a
ENCODING 97
SWIDTH 440 0
DWIDTH 11 0
BBX 9 12 1 0
BITMAP
3e00
6700
6300
0300
0f00
3b00
6300
c300
c300
c700
fb00
7180
ENDCHAR
STARTCHAR b
ENCODING 98
SWIDTH 480 0
DWIDTH 12 0
BBX 10 17 1 0
BITMAP
e000
6000
6000
6000
6000
6e00
7380
6180
60c0
60c0
60c0
60c0
60c0
60c0
6180
7380
5e00
ENDCHAR
STARTCHAR c
ENCODING 99
SWIDTH 440 0
DWIDTH 11 0
BBX 9 12 1 0
BITMAP
1f00
6380
4180
c000
c000
c000
c000
c000
e000
7080
7f00
1e00
ENDCHAR
STARTCHAR d
ENCODING 100
SWIDTH 480 0
DWIDTH 12 0
BBX 10 17 1 0
BITMAP
0380
0180
0180
0180
0180
1d80
7380
6180
c180
c180
c180
c180
c180
c180
6180
7380
1ec0
ENDCHAR
STARTCHAR e
ENCODING 101
SWIDTH 440 0
DWIDTH 11 0
BBX 9 12 1 0
BITMAP
1e00
6300
4180
c180
ff80
c000
c000
c000
e000
7080
7f00
1e00
ENDCHAR
STARTCHAR f
ENCODING 102
SWIDTH 280 0
DWIDTH 7 0
BBX 7 17 0 0
BITMAP
0e
16
30
30
30
fe
30
30
30
30
30
30
30
30
30
30
78
ENDCHAR
STARTCHAR g
ENCODING 103
SWIDTH 480 0
DWIDTH 12 0
BBX 11 17 1 -5
BITMAP
1fc0
3300
6180
6180
6180
6180
3300
3e00
3000
6000
7f00
3fc0
6060
c020
c060
f1c0
3f00
ENDCHAR
STARTCHAR h
ENCODING 104
SWIDTH 520 0
DWIDTH 13 0
BBX 11 17 1 0
BITMAP
e000
6000
6000
6000
6000
6700
6f80
71c0
60c0
60c0
60c0
60c0
60c0
60c0
60c0
60c0
f1e0
ENDCHAR
STARTCHAR i
ENCODING 105
SWIDTH 240 0
DWIDTH 6 0
BBX 4 17 1 0
BITMAP
60
60
00
00
00
e0
60
60
60
60
60
60
60
60
60
60
f0
ENDCHAR
STARTCHAR j
ENCODING 106
SWIDTH 240 0
DWIDTH 6 0
BBX 4 22 0 -5
BITMAP
30
30
00
00
00
70
30
30
30
30
30
30
30
30
30
30
30
30
30
30
e0
c0
ENDCHAR
STARTCHAR k
ENCODING 107
SWIDTH 480 0
DWIDTH 12 0
BBX 11 17 1 0
BITMAP
e000
6000
6000
6000
6000
67c0
6300
6600
6400
6800
7800
6c00
6e00
6700
6380
61c0
f3e0
ENDCHAR
STARTCHAR l
ENCODING 108
SWIDTH 240 0
DWIDTH 6 0
BBX 4 17 1 0
BITMAP
e0
60
60
60
60
60
60
60
60
60
60
60
60
60
60
60
f0
ENDCHAR
STARTCHAR m
ENCODING 109
SWIDTH 800 0
DWIDTH 20 0
BBX 18 12 1 0
BITMAP
e70e00
6f9f00
71e380
60c180
60c180
60c180
60c180
60c180
60c180
60c180
60c180
f1e3c0
ENDCHAR
STARTCHAR n
ENCODING 110
SWIDTH 520 0
DWIDTH 13 0
BBX 11 12 1 0
BITMAP
e700
6f80
71c0
60c0
60c0
60c0
60c0
60c0
60c0
60c0
60c0
f1e0
ENDCHAR
STARTCHAR o
ENCODING 111
SWIDTH 480 0
DWIDTH 12 0
BBX 10 12 1 0
BITMAP
1e00
7380
6180
c0c0
c0c0
c0c0
c0c0
c0c0
c0c0
6180
7380
1e00
ENDCHAR
STARTCHAR p
ENCODING 112
SWIDTH 480 0
DWIDTH 12 0
BBX 10 17 1 -5
BITMAP
ee00
7380
6180
60c0
60c0
60c0
60c0
60c0
60c0
6180
7380
6e00
6000
6000
6000
6000
f000
ENDCHAR
STARTCHAR q
ENCODING 113
SWIDTH 480 0
DWIDTH 12 0
BBX 10 17 1 -5
BITMAP
1d80
7380
6180
c180
c180
c180
c180
c180
c180
6180
7380
1d80
0180
0180
0180
0180
03c0
ENDCHAR
STARTCHAR r
ENCODING 114
SWIDTH 320 0
DWIDTH 8 0
BBX 7 12 1 0
BITMAP
e6
6e
76
60
60
60
60
60
60
60
60
f0
ENDCHAR
STARTCHAR s
ENCODING 115
SWIDTH 400 0
DWIDTH 10 0
BBX 8 12 1 0
BITMAP
3e
66
c2
e0
70
7c
1e
07
03
83
c6
f8
ENDCHAR
STARTCHAR t
ENCODING 116
SWIDTH 280 0
DWIDTH 7 0
BBX 7 15 0 0
BITMAP
10
30
70
fe
30
30
30
30
30
30
30
30
30
32
1c
ENDCHAR
STARTCHAR u
ENCODING 117
SWIDTH 520 0
DWIDTH 13 0
BBX 11 12 1 0
BITMAP
e1c0
60c0
60c0
60c0
60c0
60c0
60c0
60c0
60c0
71c0
3ec0
1ce0
ENDCHAR
STARTCHAR v
ENCODING 118
SWIDTH 440 0
DWIDTH 11 0
BBX 11 12 0 0
BITMAP
f1e0
60c0
6080
3080
3080
3100
1900
1900
1a00
0e00
0e00
0400
ENDCHAR
STARTCHAR w
ENCODING 119
SWIDTH 680 0
DWIDTH 17 0
BBX 17 12 0 0
BITMAP
f1e780
60c300
60c200
30c200
30c200
316400
196400
1a6400
1a2800
0e3800
0e3800
041000
ENDCHAR
STARTCHAR x
ENCODING 120
SWIDTH 520 0
DWIDTH 13 0
BBX 11 12 1 0
BITMAP
f1e0
60c0
3180
3900
1a00
0c00
0e00
1b00
3380
2180
60c0
f1e0
ENDCHAR
STARTCHAR y
ENCODING 121
SWIDTH 440 0
DWIDTH 11 0
BBX 11 17 0 -5
BITMAP
f1e0
60c0
6080
3080
3080
3100
1900
1900
1a00
0e00
0e00
0400
0c00
0800
1800
f000
e000
ENDCHAR
STARTCHAR z
ENCODING 122
SWIDTH 400 0
DWIDTH 10 0
BBX 8 12 1 0
BITMAP
ff
c3
86
0e
1c
18
38
30
70
61
c3
ff
ENDCHAR
STARTCHAR braceleft
ENCODING 123
SWIDTH 400 0
DWIDTH 10 0
BBX 8 22 1 -5
BITMAP
07
0c
18
18
18
18
18
10
30
20
c0
20
30
10
18
18
18
18
18
18
0c
07
ENDCHAR
STARTCHAR bar
ENCODING 124
SWIDTH 240 0
DWIDTH 6 0
BBX 2 17 2 0
BITMAP
c0
c0
c0
c0
c0
c0
c0
c0
c0
c0
c0
c0
c0
c0
c0
c0
c0
ENDCHAR
STARTCHAR braceright
ENCODING 125
SWIDTH 400 0
DWIDTH 10 0
BBX 8 22 1 -5
BITMAP
e0
30
18
18
18
18
18
08
0c
04
03
04
0c
08
18
18
18
18
18
18
30
e0
ENDCHAR
STARTCHAR asciitilde
ENCODING 126
SWIDTH 520 0
DWIDTH 13 0
BBX 11 4 1 5
BITMAP
3820
7c60
c7c0
8380
ENDCHAR
STARTCHAR nobreakspace
ENCODING 160
SWIDTH 240 0
DWIDTH 6 0
BBX 1 1 0 0
BITMAP
00
ENDCHAR
STARTCHAR exclamdown
ENCODING 161
SWIDTH 320 0
DWIDTH 8 0
BBX 2 17 4 -5
BITMAP
c0
c0
00
00
00
c0
c0
c0
c0
c0
c0
c0
c0
c0
c0
c0
c0
ENDCHAR
STARTCHAR cent
ENCODING 162
SWIDTH 480 0
DWIDTH 12 0
BBX 9 16 1 -2
BITMAP
0100
0100
1f00
6380
4380
c400
c400
c800
c800
c800
d000
7080
7f00
3e00
4000
4000
ENDCHAR
STARTCHAR sterling
ENCODING 163
SWIDTH 480 0
DWIDTH 12 0
BBX 10 17 1 0
BITMAP
0f00
1980
3180
3000
3000
3000
3000
fc00
3000
3000
3000
3000
3000
3000
7840
bec0
e780
ENDCHAR
STARTCHAR currency
ENCODING 164
SWIDTH 520 0
DWIDTH 13 0
BBX 11 12 1 3
BITMAP
c060
eee0
7fc0
3180
60c0
60c0
60c0
60c0
3180
7fc0
eee0
c060
ENDCHAR
STARTCHAR yen
ENCODING 165
SWIDTH 560 0
DWIDTH 14 0
BBX 14 17 0 0
BITMAP
f87c
7030
3020
1860
1840
0cc0
0c80
0780
0300
1fe0
0300
1fe0
0300
0300
0300
0300
0fc0
ENDCHAR
STARTCHAR brokenbar
ENCODING 166
SWIDTH 240 0
DWIDTH 6 0
BBX 2 17 2 0
BITMAP
c0
c0
c0
c0
c0
c0
c0
00
00
00
c0
c0
c0
c0
c0
c0
c0
ENDCHAR
STARTCHAR section
ENCODING 167
SWIDTH 480 0
DWIDTH 12 0
BBX 8 20 2 -2
BITMAP
1c
26
46
60
70
38
3c
4e
87
83
c3
e2
74
38
1c
0e
06
62
64
38
ENDCHAR
STARTCHAR diaeresis
ENCODING 168
SWIDTH 320 0
DWIDTH 8 0
BBX 6 2 1 14
BITMAP
cc
cc
ENDCHAR
STARTCHAR copyright
ENCODING 169
SWIDTH 760 0
DWIDTH 19 0
BBX 17 17 1 0
BITMAP
07f000
1c1c00
300600
61e300
473100
c41980
8c0080
880080
880080
880080
8c0080
c41980
477100
61c300
300600
1c1c00
07f000
ENDCHAR
STARTCHAR ordfeminine
ENCODING 170
SWIDTH 320 0
DWIDTH 8 0
BBX 7 9 0 8
BITMAP
78
cc
0c
7c
cc
cc
76
00
7e
ENDCHAR
STARTCHAR guillemotleft
ENCODING 171
SWIDTH 520 0
DWIDTH 13 0
BBX 9 10 2 1
BITMAP
0880
1980
3300
6600
cc00
cc00
6600
3300
1980
0880
ENDCHAR
STARTCHAR notsign
ENCODING 172
SWIDTH 560 0
DWIDTH 14 0
BBX 12 7 1 3
BITMAP
fff0
fff0
0030
0030
0030
0030
0030
ENDCHAR
STARTCHAR hyphen
ENCODING 173
SWIDTH 360 0
DWIDTH 9 0
BBX 7 2 1 5
BITMAP
fe
fe
ENDCHAR
STARTCHAR registered
ENCODING 174
SWIDTH 760 0
DWIDTH 19 0
BBX 17 17 1 0
BITMAP
07f000
1c1c00
300600
67e300
423100
c21180
821080
823080
83e080
824080
822080
c23180
471900
600300
300600
1c1c00
07f000
ENDCHAR
STARTCHAR macron
ENCODING 175
SWIDTH 320 0
DWIDTH 8 0
BBX 6 2 1 14
BITMAP
fc
fc
ENDCHAR
STARTCHAR degree
ENCODING 176
SWIDTH 360 0
DWIDTH 9 0
BBX 7 7 1 10
BITMAP
38
44
82
82
82
44
38
ENDCHAR
STARTCHAR plusminus
ENCODING 177
SWIDTH 560 0
DWIDTH 14 0
BBX 12 15 1 0
BITMAP
0600
0600
0600
0600
0600
fff0
fff0
0600
0600
0600
0600
0600
0000
fff0
fff0
ENDCHAR
STARTCHAR twosuperior
ENCODING 178
SWIDTH 280 0
DWIDTH 7 0
BBX 6 10 0 7
BITMAP
38
4c
8c
0c
08
10
30
20
44
fc
ENDCHAR
STARTCHAR threesuperior
ENCODING 179
SWIDTH 280 0
DWIDTH 7 0
BBX 6 10 0 7
BITMAP
38
4c
8c
08
30
08
0c
8c
88
70
ENDCHAR
STARTCHAR acute
ENCODING 180
SWIDTH 320 0
DWIDTH 8 0
BBX 5 4 2 13
BITMAP
18
38
60
80
ENDCHAR
STARTCHAR mu
ENCODING 181
SWIDTH 520 0
DWIDTH 13 0
BBX 11 17 1 -5
BITMAP
e1c0
60c0
60c0
60c0
60c0
60c0
60c0
60c0
60c0
71c0
7ec0
5ce0
4000
4000
c000
e000
4000
ENDCHAR
STARTCHAR paragraph
ENCODING 182
SWIDTH 440 0
DWIDTH 11 0
BBX 9 22 1 -5
BITMAP
1f80
3900
7900
7900
f900
f900
f900
7900
7900
3900
1900
0900
0900
0900
0900
0900
0900
0900
0900
0900
0900
0900
ENDCHAR
STARTCHAR periodcentered
ENCODING 183
SWIDTH 240 0
DWIDTH 6 0
BBX 2 2 2 6
BITMAP
c0
c0
ENDCHAR
STARTCHAR cedilla
ENCODING 184
SWIDTH 320 0
DWIDTH 8 0
BBX 6 6 1 -6
BITMAP
10
30
3c
0c
cc
78
ENDCHAR
STARTCHAR onesuperior
ENCODING 185
SWIDTH 280 0
DWIDTH 7 0
BBX 5 10 1 7
BITMAP
20
60
a0
20
20
20
20
20
20
f8
ENDCHAR
STARTCHAR masculine
ENCODING 186
SWIDTH 320 0
DWIDTH 8 0
BBX 6 9 1 8
BITMAP
78
cc
cc
cc
cc
cc
78
00
fc
ENDCHAR
STARTCHAR guillemotright
ENCODING 187
SWIDTH 480 0
DWIDTH 12 0
BBX 9 10 2 1
BITMAP
8800
cc00
6600
3300
1980
1980
3300
6600
cc00
8800
ENDCHAR
STARTCHAR onequarter
ENCODING 188
SWIDTH 720 0
DWIDTH 18 0
BBX 16 17 1 0
BITMAP
2008
6018
a030
2020
2060
2040
20c0
2184
210c
fb1c
0214
0624
0c64
0844
18ff
1004
3004
ENDCHAR
STARTCHAR onehalf
ENCODING 189
SWIDTH 720 0
DWIDTH 18 0
BBX 15 17 1 0
BITMAP
2008
6018
a030
2020
2060
2040
20c0
219c
2126
fb46
0206
0604
0c08
0818
1810
1022
307e
ENDCHAR
STARTCHAR threequarters
ENCODING 190
SWIDTH 720 0
DWIDTH 18 0
BBX 17 17 0 0
BITMAP
380400
4c0c00
8c1800
081000
303000
082000
0c6000
8cc200
888600
718e00
010a00
031200
063200
042200
0c7f80
080200
180200
ENDCHAR
STARTCHAR questiondown
ENCODING 191
SWIDTH 440 0
DWIDTH 11 0
BBX 8 17 1 -5
BITMAP
0c
0c
00
00
08
08
18
18
38
30
70
e0
c3
c3
c1
63
3e
ENDCHAR
STARTCHAR Agrave
ENCODING 192
SWIDTH 680 0
DWIDTH 17 0
BBX 17 22 0 0
BITMAP
030000
038000
00c000
002000
000000
008000
01c000
01c000
016000
026000
023000
063000
043000
041800
0c1800
0ff800
080c00
180c00
100c00
100600
300600
fc1f80
ENDCHAR
STARTCHAR Aacute
ENCODING 193
SWIDTH 680 0
DWIDTH 17 0
BBX 17 22 0 0
BITMAP
003000
007000
00c000
010000
000000
008000
01c000
01c000
016000
026000
023000
063000
043000
041800
0c1800
0ff800
080c00
180c00
100c00
100600
300600
fc1f80
ENDCHAR
STARTCHAR Acircumflex
ENCODING 194
SWIDTH 680 0
DWIDTH 17 0
BBX 17 22 0 0
BITMAP
018000
03c000
066000
081000
000000
008000
01c000
01c000
016000
026000
023000
063000
043000
041800
0c1800
0ff800
080c00
180c00
100c00
100600
300600
fc1f80
ENDCHAR
STARTCHAR Atilde
ENCODING 195
SWIDTH 680 0
DWIDTH 17 0
BBX 17 21 0 0
BITMAP
039000
04e000
000000
000000
008000
01c000
01c000
016000
026000
023000
063000
043000
041800
0c1800
0ff800
080c00
180c00
100c00
100600
300700
fc1f80
ENDCHAR
STARTCHAR Adiaeresis
ENCODING 196
SWIDTH 680 0
DWIDTH 17 0
BBX 17 21 0 0
BITMAP
063000
063000
000000
000000
008000
01c000
01c000
016000
026000
023000
063000
043000
041800
0c1800
0ff800
080c00
180c00
100c00
100600
300600
fc1f80
ENDCHAR
STARTCHAR Aring
ENCODING 197
SWIDTH 680 0
DWIDTH 17 0
BBX 17 21 0 0
BITMAP
01c000
022000
022000
01c000
008000
01c000
01c000
016000
026000
023000
063000
043000
041800
0c1800
0ff800
080c00
180c00
100c00
100600
300600
fc1f80
ENDCHAR
STARTCHAR AE
ENCODING 198
SWIDTH 840 0
DWIDTH 21 0
BBX 20 17 0 0
BITMAP
03ffe0
01e060
016020
016020
026000
026000
066080
046080
047f80
0c6080
0fe080
086000
186000
106010
106010
306030
f9fff0
ENDCHAR
STARTCHAR Ccedilla
ENCODING 199
SWIDTH 640 0
DWIDTH 16 0
BBX 14 23 1 -6
BITMAP
07e4
1c3c
380c
6004
6004
c000
c000
c000
c000
c000
c000
c000
6000
6004
3808
1e38
07e0
0100
0300
03c0
00c0
0cc0
0780
ENDCHAR
STARTCHAR Egrave
ENCODING 200
SWIDTH 600 0
DWIDTH 15 0
BBX 13 22 1 0
BITMAP
1800
1c00
0600
0100
0000
fff0
3030
3010
3010
3000
3000
3040
3040
3fc0
3040
3040
3000
3000
3008
3008
3018
fff8
ENDCHAR
STARTCHAR Eacute
ENCODING 201
SWIDTH 600 0
DWIDTH 15 0
BBX 13 22 1 0
BITMAP
00c0
01c0
0300
0400
0000
fff0
3030
3010
3010
3000
3000
3040
3040
3fc0
3040
3040
3000
3000
3008
3008
3018
fff8
ENDCHAR
STARTCHAR Ecircumflex
ENCODING 202
SWIDTH 600 0
DWIDTH 15 0
BBX 13 22 1 0
BITMAP
0300
0780
0cc0
1020
0000
fff0
3030
3010
3010
3000
3000
3040
3040
3fc0
3040
3040
3000
3000
3008
3008
3018
fff8
ENDCHAR
STARTCHAR Ediaeresis
ENCODING 203
SWIDTH 600 0
DWIDTH 15 0
BBX 13 21 1 0
BITMAP
1980
1980
0000
0000
fff0
3030
3010
3010
3000
3000
3040
3040
3fc0
3040
3040
3000
3000
3008
3008
3018
fff8
ENDCHAR
STARTCHAR Igrave
ENCODING 204
SWIDTH 320 0
DWIDTH 8 0
BBX 6 22 1 0
BITMAP
c0
e0
30
08
00
fc
30
30
30
30
30
30
30
30
30
30
30
30
30
30
30
fc
ENDCHAR
STARTCHAR Iacute
ENCODING 205
SWIDTH 320 0
DWIDTH 8 0
BBX 6 22 1 0
BITMAP
0c
1c
30
40
00
fc
30
30
30
30
30
30
30
30
30
30
30
30
30
30
30
fc
ENDCHAR
STARTCHAR Icircumflex
ENCODING 206
SWIDTH 320 0
DWIDTH 8 0
BBX 8 22 1 0
BITMAP
18
3c
66
81
00
7e
18
18
18
18
18
18
18
18
18
18
18
18
18
18
18
7e
ENDCHAR
STARTCHAR Idiaeresis
ENCODING 207
SWIDTH 320 0
DWIDTH 8 0
BBX 6 21 1 0
BITMAP
cc
cc
00
00
fc
30
30
30
30
30
30
30
30
30
30
30
30
30
30
30
fc
ENDCHAR
STARTCHAR ETH
ENCODING 208
SWIDTH 680 0
DWIDTH 17 0
BBX 16 17 0 0
BITMAP
7fe0
1838
181c
1806
1806
1803
1803
1803
ff03
1803
1803
1803
1806
1806
181c
1838
7fe0
ENDCHAR
STARTCHAR Ntilde
ENCODING 209
SWIDTH 720 0
DWIDTH 18 0
BBX 16 21 1 0
BITMAP
0390
04e0
0000
0000
f01f
3004
3804
3804
2c04
2604
2604
2304
2184
2184
20c4
2064
2064
2034
201c
201c
f80c
ENDCHAR
STARTCHAR Ograve
ENCODING 210
SWIDTH 720 0
DWIDTH 18 0
BBX 16 22 1 0
BITMAP
0600
0700
0180
0040
0000
07e0
1c38
381c
6006
6006
c003
c003
c003
c003
c003
c003
c003
6006
6006
381c
1c38
07e0
ENDCHAR
STARTCHAR Oacute
ENCODING 211
SWIDTH 720 0
DWIDTH 18 0
BBX 16 22 1 0
BITMAP
0030
0070
00c0
0100
0000
07e0
1c38
381c
6006
6006
c003
c003
c003
c003
c003
c003
c003
6006
6006
381c
1c38
07e0
ENDCHAR
STARTCHAR Ocircumflex
ENCODING 212
SWIDTH 720 0
DWIDTH 18 0
BBX 16 22 1 0
BITMAP
0180
03c0
0660
0810
0000
07e0
1c38
381c
6006
6006
c003
c003
c003
c003
c003
c003
c003
6006
6006
381c
1c38
07e0
ENDCHAR
STARTCHAR Otilde
ENCODING 213
SWIDTH 720 0
DWIDTH 18 0
BBX 16 21 1 0
BITMAP
0390
04e0
0000
0000
07e0
1c38
381c
6006
6006
c003
c003
c003
c003
c003
c003
c003
6006
6006
381c
1c38
07e0
ENDCHAR
STARTCHAR Odiaeresis
ENCODING 214
SWIDTH 720 0
DWIDTH 18 0
BBX 16 21 1 0
BITMAP
0660
0660
0000
0000
07e0
1c38
381c
6006
6006
c003
c003
c003
c003
c003
c003
c003
6006
6006
381c
1c38
07e0
ENDCHAR
STARTCHAR multiply
ENCODING 215
SWIDTH 560 0
DWIDTH 14 0
BBX 10 11 2 1
BITMAP
8040
c0c0
6180
3300
1e00
0c00
1e00
3300
6180
c0c0
8040
ENDCHAR
STARTCHAR Ooblique
ENCODING 216
SWIDTH 720 0
DWIDTH 18 0
BBX 16 19 1 -1
BITMAP
0004
07e4
1c38
381c
6026
6046
c043
c083
c083
c103
c103
c203
c203
6406
6806
381c
1c38
27e0
2000
ENDCHAR
STARTCHAR Ugrave
ENCODING 217
SWIDTH 720 0
DWIDTH 18 0
BBX 16 22 1 0
BITMAP
0600
0700
0180
0040
0000
fc1f
3004
3004
3004
3004
3004
3004
3004
3004
3004
3004
3004
3004
3008
1808
1c30
07e0
ENDCHAR
STARTCHAR Uacute
ENCODING 218
SWIDTH 720 0
DWIDTH 18 0
BBX 16 22 1 0
BITMAP
0030
0070
00c0
0100
0000
fc1f
3004
3004
3004
3004
3004
3004
3004
3004
3004
3004
3004
3004
3008
1808
1c30
07e0
ENDCHAR
STARTCHAR Ucircumflex
ENCODING 219
SWIDTH 720 0
DWIDTH 18 0
BBX 16 22 1 0
BITMAP
0180
03c0
0660
0810
0000
fc1f
3004
3004
3004
3004
3004
3004
3004
3004
3004
3004
3004
3004
3008
1808
1c30
07e0
ENDCHAR
STARTCHAR Udiaeresis
ENCODING 220
SWIDTH 720 0
DWIDTH 18 0
BBX 16 21 1 0
BITMAP
0630
0630
0000
0000
fc1f
3004
3004
3004
3004
3004
3004
3004
3004
3004
3004
3004
3004
3008
1808
1c30
07e0
ENDCHAR
STARTCHAR Yacute
ENCODING 221
SWIDTH 640 0
DWIDTH 16 0
BBX 16 22 0 0
BITMAP
0030
0070
00c0
0100
0000
fc3f
300c
3808
1818
1c10
0c30
0620
0660
0340
03c0
0180
0180
0180
0180
0180
0180
07e0
ENDCHAR
STARTCHAR THORN
ENCODING 222
SWIDTH 600 0
DWIDTH 15 0
BBX 13 17 1 0
BITMAP
fc00
3000
3000
3000
3fc0
3070
3030
3018
3018
3018
3030
3070
3fc0
3000
3000
3000
fc00
ENDCHAR
STARTCHAR ssharp
ENCODING 223
SWIDTH 480 0
DWIDTH 12 0
BBX 10 17 1 0
BITMAP
1e00
3300
6180
6180
6180
6180
6300
6c00
6700
6380
6180
61c0
60c0
60c0
6cc0
6c80
e700
ENDCHAR
STARTCHAR agrave
ENCODING 224
SWIDTH 440 0
DWIDTH 11 0
BBX 9 17 1 0
BITMAP
6000
7000
1800
0400
0000
3e00
6700
6300
0300
0f00
3b00
6300
c300
c300
c700
fb00
7180
ENDCHAR
STARTCHAR aacute
ENCODING 225
SWIDTH 440 0
DWIDTH 11 0
BBX 9 17 1 0
BITMAP
0300
0700
0c00
1000
0000
3e00
6700
6300
0300
0f00
3b00
6300
c300
c300
c700
fb00
7180
ENDCHAR
STARTCHAR acircumflex
ENCODING 226
SWIDTH 440 0
DWIDTH 11 0
BBX 9 17 1 0
BITMAP
1800
3c00
2400
4200
0000
3e00
6700
6300
0300
0f00
3b00
6300
c300
c300
c700
fb00
7180
ENDCHAR
STARTCHAR atilde
ENCODING 227
SWIDTH 440 0
DWIDTH 11 0
BBX 9 16 1 0
BITMAP
3a00
5c00
0000
0000
3e00
6700
6300
0300
0f00
3b00
6300
c300
c300
c700
fb00
7180
ENDCHAR
STARTCHAR adiaeresis
ENCODING 228
SWIDTH 440 0
DWIDTH 11 0
BBX 9 16 1 0
BITMAP
6600
6600
0000
0000
3e00
6700
6300
0300
0f00
3b00
6300
c300
c300
c700
fb00
7180
ENDCHAR
STARTCHAR aring
ENCODING 229
SWIDTH 440 0
DWIDTH 11 0
BBX 9 17 1 0
BITMAP
1c00
2200
2200
1c00
0000
3e00
6700
6300
0300
0f00
3b00
6300
c300
c300
c700
fb00
7180
ENDCHAR
STARTCHAR ae
ENCODING 230
SWIDTH 640 0
DWIDTH 16 0
BBX 14 12 1 0
BITMAP
3cf0
6798
630c
030c
0ffc
3b00
6300
c300
c300
c784
fbf8
70f0
ENDCHAR
STARTCHAR ccedilla
ENCODING 231
SWIDTH 440 0
DWIDTH 11 0
BBX 9 18 1 -6
BITMAP
1f00
6380
4180
c000
c000
c000
c000
c000
e000
7080
7f00
1e00
0800
1800
1e00
0600
6600
3c00
ENDCHAR
STARTCHAR egrave
ENCODING 232
SWIDTH 440 0
DWIDTH 11 0
BBX 9 17 1 0
BITMAP
6000
7000
1800
0400
0000
1e00
6300
4180
c180
ff80
c000
c000
c000
e000
7080
7f00
1e00
ENDCHAR
STARTCHAR eacute
ENCODING 233
SWIDTH 440 0
DWIDTH 11 0
BBX 9 17 1 0
BITMAP
0300
0700
0c00
1000
0000
1e00
6300
4180
c180
ff80
c000
c000
c000
e000
7080
7f00
1e00
ENDCHAR
STARTCHAR ecircumflex
ENCODING 234
SWIDTH 440 0
DWIDTH 11 0
BBX 9 17 1 0
BITMAP
0c00
1e00
1200
2100
0000
1e00
6300
4180
c180
ff80
c000
c000
c000
e000
7080
7f00
1e00
ENDCHAR
STARTCHAR ediaeresis
ENCODING 235
SWIDTH 440 0
DWIDTH 11 0
BBX 9 16 1 0
BITMAP
3300
3300
0000
0000
1e00
6300
4180
c180
ff80
c000
c000
c000
e000
7080
7f00
1e00
ENDCHAR
STARTCHAR igrave
ENCODING 236
SWIDTH 240 0
DWIDTH 6 0
BBX 5 17 0 0
BITMAP
c0
e0
30
08
00
70
30
30
30
30
30
30
30
30
30
30
78
ENDCHAR
STARTCHAR iacute
ENCODING 237
SWIDTH 240 0
DWIDTH 6 0
BBX 5 17 1 0
BITMAP
18
38
60
80
00
e0
60
60
60
60
60
60
60
60
60
60
f0
ENDCHAR
STARTCHAR icircumflex
ENCODING 238
SWIDTH 240 0
DWIDTH 6 0
BBX 6 17 0 0
BITMAP
30
78
48
84
00
70
30
30
30
30
30
30
30
30
30
30
78
ENDCHAR
STARTCHAR idiaeresis
ENCODING 239
SWIDTH 240 0
DWIDTH 6 0
BBX 6 16 0 0
BITMAP
cc
cc
00
00
70
30
30
30
30
30
30
30
30
30
30
78
ENDCHAR
STARTCHAR eth
ENCODING 240
SWIDTH 480 0
DWIDTH 12 0
BBX 10 17 1 0
BITMAP
c000
7180
1e00
3c00
c600
1f00
7380
6180
c0c0
c0c0
c0c0
c0c0
c0c0
c0c0
6180
7380
1e00
ENDCHAR
STARTCHAR ntilde
ENCODING 241
SWIDTH 520 0
DWIDTH 13 0
BBX 11 16 1 0
BITMAP
1c80
2700
0000
0000
e700
6f80
71c0
60c0
60c0
60c0
60c0
60c0
60c0
60c0
60c0
f1e0
ENDCHAR
STARTCHAR ograve
ENCODING 242
SWIDTH 480 0
DWIDTH 12 0
BBX 10 17 1 0
BITMAP
3000
3800
0c00
0200
0000
1e00
7380
6180
c0c0
c0c0
c0c0
c0c0
c0c0
c0c0
6180
7380
1e00
ENDCHAR
STARTCHAR oacute
ENCODING 243
SWIDTH 480 0
DWIDTH 12 0
BBX 10 17 1 0
BITMAP
0180
0380
0600
0800
0000
1e00
7380
6180
c0c0
c0c0
c0c0
c0c0
c0c0
c0c0
6180
7380
1e00
ENDCHAR
STARTCHAR ocircumflex
ENCODING 244
SWIDTH 480 0
DWIDTH 12 0
BBX 10 17 1 0
BITMAP
0c00
1e00
1200
2100
0000
1e00
7380
6180
c0c0
c0c0
c0c0
c0c0
c0c0
c0c0
6180
7380
1e00
ENDCHAR
STARTCHAR otilde
ENCODING 245
SWIDTH 480 0
DWIDTH 12 0
BBX 10 16 1 0
BITMAP
1c80
2700
0000
0000
1e00
7380
6180
c0c0
c0c0
c0c0
c0c0
c0c0
c0c0
6180
7380
1e00
ENDCHAR
STARTCHAR odiaeresis
ENCODING 246
SWIDTH 480 0
DWIDTH 12 0
BBX 10 16 1 0
BITMAP
3300
3300
0000
0000
1e00
7380
6180
c0c0
c0c0
c0c0
c0c0
c0c0
c0c0
6180
7380
1e00
ENDCHAR
STARTCHAR division
ENCODING 247
SWIDTH 560 0
DWIDTH 14 0
BBX 12 10 1 2
BITMAP
0600
0600
0000
0000
fff0
fff0
0000
0000
0600
0600
ENDCHAR
STARTCHAR oslash
ENCODING 248
SWIDTH 480 0
DWIDTH 12 0
BBX 10 14 1 -1
BITMAP
00c0
1ec0
7380
6380
c6c0
c4c0
ccc0
c8c0
d8c0
d0c0
7180
7380
de00
c000
ENDCHAR
STARTCHAR ugrave
ENCODING 249
SWIDTH 520 0
DWIDTH 13 0
BBX 11 17 1 0
BITMAP
3000
3800
0c00
0200
0000
e1c0
60c0
60c0
60c0
60c0
60c0
60c0
60c0
60c0
71c0
3ec0
1ce0
ENDCHAR
STARTCHAR uacute
ENCODING 250
SWIDTH 520 0
DWIDTH 13 0
BBX 11 17 1 0
BITMAP
0180
0380
0600
0800
0000
e1c0
60c0
60c0
60c0
60c0
60c0
60c0
60c0
60c0
71c0
3ec0
1ce0
ENDCHAR
STARTCHAR ucircumflex
ENCODING 251
SWIDTH 520 0
DWIDTH 13 0
BBX 11 17 1 0
BITMAP
0c00
1e00
1200
2100
0000
e1c0
60c0
60c0
60c0
60c0
60c0
60c0
60c0
60c0
71c0
3ec0
1ce0
ENDCHAR
STARTCHAR udiaeresis
ENCODING 252
SWIDTH 520 0
DWIDTH 13 0
BBX 11 16 1 0
BITMAP
3300
3300
0000
0000
e1c0
60c0
60c0
60c0
60c0
60c0
60c0
60c0
60c0
71c0
3ec0
1ce0
ENDCHAR
STARTCHAR yacute
ENCODING 253
SWIDTH 440 0
DWIDTH 11 0
BBX 11 22 0 -5
BITMAP
0180
0380
0600
0800
0000
f1e0
60c0
6080
3080
3080
3100
1900
1900
1a00
0e00
0e00
0400
0c00
0800
1800
f000
e000
ENDCHAR
STARTCHAR thorn
ENCODING 254
SWIDTH 480 0
DWIDTH 12 0
BBX 10 22 1 -5
BITMAP
e000
6000
6000
6000
6000
6e00
7380
6180
60c0
60c0
60c0
60c0
60c0
60c0
6180
7380
6e00
6000
6000
6000
6000
f000
ENDCHAR
STARTCHAR ydiaeresis
ENCODING 255
SWIDTH 440 0
DWIDTH 11 0
BBX 11 21 0 -5
BITMAP
3300
3300
0000
0000
f1e0
60c0
6080
3080
3080
3100
1900
1900
1a00
0e00
0e00
0400
0c00
0800
1800
f000
e000
ENDCHAR
ENDFONT
